<svg width="20" height="20" viewBox="0 0 20 20" fill="none" xmlns="http://www.w3.org/2000/svg">
<path d="M9.99984 1.66602C5.39734 1.66602 1.6665 5.39685 1.6665 9.99935C1.6665 14.6018 5.39734 18.3327 9.99984 18.3327C14.6023 18.3327 18.3332 14.6018 18.3332 9.99935C18.3332 5.39685 14.6023 1.66602 9.99984 1.66602ZM3.33317 9.99935C3.33317 8.23124 4.03555 6.53555 5.28579 5.2853C6.53603 4.03506 8.23173 3.33268 9.99984 3.33268C11.5398 3.33268 12.954 3.86018 14.0832 4.73768L4.73817 14.0827C3.8275 12.9164 3.33295 11.4791 3.33317 9.99935ZM9.99984 16.666C8.52012 16.6662 7.08281 16.1717 5.9165 15.261L15.2615 5.91602C16.1722 7.08232 16.6667 8.51963 16.6665 9.99935C16.6665 11.7675 15.9641 13.4632 14.7139 14.7134C13.4636 15.9636 11.7679 16.666 9.99984 16.666Z" fill="#EBEBEB"/>
</svg>
