<svg width="21" height="20" viewBox="0 0 21 20" fill="none" xmlns="http://www.w3.org/2000/svg">
<path d="M4.25 13.125V12.5H3V13.125C3 14.2853 3.46094 15.3981 4.28141 16.2186C5.10188 17.0391 6.21468 17.5 7.375 17.5H9.25V16.25H7.375C6.5462 16.25 5.75134 15.9208 5.16529 15.3347C4.57924 14.7487 4.25 13.9538 4.25 13.125ZM15.5 6.875V7.5H16.75V6.875C16.75 5.71468 16.2891 4.60188 15.4686 3.78141C14.6481 2.96094 13.5353 2.5 12.375 2.5H10.5V3.75H12.375C12.7854 3.75 13.1917 3.83083 13.5709 3.98788C13.95 4.14492 14.2945 4.37511 14.5847 4.66529C14.8749 4.95548 15.1051 5.29997 15.2621 5.67912C15.4192 6.05826 15.5 6.46462 15.5 6.875ZM7.375 6.875H3.625C3.12772 6.875 2.65081 7.07255 2.29917 7.42418C1.94754 7.77581 1.75 8.25272 1.75 8.75V10H3V8.75C3 8.58424 3.06585 8.42527 3.18306 8.30806C3.30027 8.19085 3.45924 8.125 3.625 8.125H7.375C7.54076 8.125 7.69973 8.19085 7.81694 8.30806C7.93415 8.42527 8 8.58424 8 8.75V10H9.25V8.75C9.25 8.25272 9.05246 7.77581 8.70083 7.42418C8.34919 7.07255 7.87228 6.875 7.375 6.875ZM5.5 6.25C5.99445 6.25 6.4778 6.10338 6.88893 5.82868C7.30005 5.55397 7.62048 5.16352 7.8097 4.70671C7.99892 4.24989 8.04843 3.74723 7.95196 3.26228C7.8555 2.77732 7.6174 2.33187 7.26777 1.98223C6.91814 1.6326 6.47268 1.3945 5.98773 1.29804C5.50277 1.20157 5.00011 1.25108 4.54329 1.4403C4.08648 1.62952 3.69603 1.94995 3.42133 2.36108C3.14662 2.7722 3 3.25555 3 3.75C3 4.41304 3.26339 5.04893 3.73223 5.51777C4.20107 5.98661 4.83696 6.25 5.5 6.25ZM5.5 2.5C5.74723 2.5 5.9889 2.57331 6.19446 2.71066C6.40002 2.84802 6.56024 3.04324 6.65485 3.27165C6.74946 3.50005 6.77421 3.75139 6.72598 3.99386C6.67775 4.23634 6.5587 4.45907 6.38388 4.63388C6.20907 4.8087 5.98634 4.92775 5.74386 4.97598C5.50139 5.02421 5.25005 4.99946 5.02165 4.90485C4.79324 4.81024 4.59801 4.65003 4.46066 4.44446C4.32331 4.2389 4.25 3.99723 4.25 3.75C4.25 3.41848 4.3817 3.10054 4.61612 2.86612C4.85054 2.6317 5.16848 2.5 5.5 2.5ZM17.375 15.625H13.625C13.1277 15.625 12.6508 15.8225 12.2992 16.1742C11.9475 16.5258 11.75 17.0027 11.75 17.5V18.75H13V17.5C13 17.3342 13.0658 17.1753 13.1831 17.0581C13.3003 16.9408 13.4592 16.875 13.625 16.875H17.375C17.5408 16.875 17.6997 16.9408 17.8169 17.0581C17.9342 17.1753 18 17.3342 18 17.5V18.75H19.25V17.5C19.25 17.0027 19.0525 16.5258 18.7008 16.1742C18.3492 15.8225 17.8723 15.625 17.375 15.625ZM13 12.5C13 12.9945 13.1466 13.4778 13.4213 13.8889C13.696 14.3 14.0865 14.6205 14.5433 14.8097C15.0001 14.9989 15.5028 15.0484 15.9877 14.952C16.4727 14.8555 16.9181 14.6174 17.2678 14.2678C17.6174 13.9181 17.8555 13.4727 17.952 12.9877C18.0484 12.5028 17.9989 12.0001 17.8097 11.5433C17.6205 11.0865 17.3 10.696 16.8889 10.4213C16.4778 10.1466 15.9945 10 15.5 10C14.837 10 14.2011 10.2634 13.7322 10.7322C13.2634 11.2011 13 11.837 13 12.5ZM16.75 12.5C16.75 12.7472 16.6767 12.9889 16.5393 13.1945C16.402 13.4 16.2068 13.5602 15.9784 13.6549C15.7499 13.7495 15.4986 13.7742 15.2561 13.726C15.0137 13.6778 14.7909 13.5587 14.6161 13.3839C14.4413 13.2091 14.3222 12.9863 14.274 12.7439C14.2258 12.5014 14.2505 12.2501 14.3451 12.0216C14.4398 11.7932 14.6 11.598 14.8055 11.4607C15.0111 11.3233 15.2528 11.25 15.5 11.25C15.8315 11.25 16.1495 11.3817 16.3839 11.6161C16.6183 11.8505 16.75 12.1685 16.75 12.5Z" fill="#FDFDFD"/>
</svg>
