<svg width="21" height="20" viewBox="0 0 21 20" fill="none" xmlns="http://www.w3.org/2000/svg">
<g clip-path="url(#clip0_1064_343)">
<path fill-rule="evenodd" clip-rule="evenodd" d="M16.307 0.9399C16.703 1.3069 16.962 2.0729 17.013 2.5349C17.603 2.9009 18.301 3.6389 18.362 5.0289C19.415 5.7599 20.215 7.1119 19.216 9.0889C19.796 9.6289 20.443 11.2769 19.611 12.6049C18.642 14.1569 16.536 14.2649 14.437 13.9879C14.997 15.5529 15.207 16.9969 14.321 18.4759C13.44 19.7879 12.224 20.0009 11.808 20.0009C10.67 20.0009 9.89 19.0219 9.574 17.7179C9.459 17.3539 9.328 16.4939 9.277 16.2679C9.01167 14.8279 8.12167 13.6769 6.607 12.8149C5.93341 12.4281 5.22205 12.1111 4.484 11.8689H2.144C1.623 11.8689 1 11.3419 1 10.7039V3.0679C1.074 2.3459 1.47467 1.98523 2.202 1.9859H5.312C6.67533 1.6759 8.03467 1.34423 9.39 0.9909C10.7 0.6379 10.987 0.5209 11.903 0.2689C13.956 -0.2631 15.381 0.0298998 16.307 0.9399ZM13.925 1.3629C13.106 1.3629 12.069 1.6149 11.609 1.7619C11.447 1.8129 11.163 1.8969 10.864 1.9829L10.564 2.0699L10.276 2.1519L9.716 2.3099C9.716 2.3099 8.306 2.6879 5.543 3.3299C5.44033 3.3419 5.385 3.34923 5.377 3.3519V10.7319C6.88833 11.3139 8.065 12.0199 8.907 12.8499C10.171 14.0939 10.522 15.2179 10.729 16.6569C10.847 17.3799 11.038 17.9629 11.326 18.3619C11.4087 18.4815 11.5291 18.5698 11.668 18.6129C11.815 18.6599 12.018 18.6629 12.451 18.4289C12.884 18.1929 13.441 17.5759 13.546 16.6569C13.616 15.7639 13.376 14.9899 13.054 14.1759C12.9427 13.8986 12.8237 13.6245 12.697 13.3539C12.479 12.9409 12.807 12.2549 13.483 12.4039C14.389 12.6589 16.637 13.0039 17.905 12.4039C18.6423 11.9772 18.8247 11.2886 18.452 10.3379C18.3297 10.1194 18.1607 9.93053 17.957 9.7849C17.787 9.6829 17.455 9.2409 17.854 8.7399C18.25 8.1049 18.829 6.8119 17.364 6.0059C17.262 5.94938 17.1769 5.86687 17.1171 5.76675C17.0574 5.66663 17.0253 5.55247 17.024 5.4359C17.004 5.1619 17.048 4.1459 16.294 3.6919C16.114 3.5949 15.897 3.5149 15.774 3.2819C15.696 3.1279 15.671 2.7539 15.671 2.7539C15.568 2.1219 15.426 1.5319 13.925 1.3629ZM4.019 3.3489H2.361V10.5059H4.019V3.3489Z" fill="#FDFDFD"/>
</g>
<defs>
<clipPath id="clip0_1064_343">
<rect width="20" height="20" fill="white" transform="translate(0.5)"/>
</clipPath>
</defs>
</svg>
