<svg width="25" height="24" viewBox="0 0 25 24" fill="none" xmlns="http://www.w3.org/2000/svg">
<path d="M21.2633 12.5085C21.657 11.9882 21.875 11.3507 21.875 10.6874C21.875 9.63508 21.2867 8.63898 20.3398 8.08351C20.0961 7.94053 19.8185 7.86528 19.5359 7.86555H13.9156L14.0563 4.98508C14.0891 4.28898 13.843 3.62804 13.3648 3.12414C13.1302 2.87577 12.8471 2.67815 12.5331 2.54351C12.2191 2.40887 11.8807 2.34005 11.5391 2.34133C10.3203 2.34133 9.24219 3.16164 8.91875 4.33586L6.90547 11.6249H6.89844V21.6562H17.968C18.1836 21.6562 18.3945 21.614 18.5891 21.5296C19.7047 21.0538 20.4242 19.964 20.4242 18.7546C20.4242 18.4593 20.382 18.1687 20.2977 17.8874C20.6914 17.3671 20.9094 16.7296 20.9094 16.0663C20.9094 15.771 20.8672 15.4804 20.7828 15.1991C21.1766 14.6788 21.3945 14.0413 21.3945 13.378C21.3898 13.0827 21.3477 12.7898 21.2633 12.5085ZM3.125 12.3749V20.9062C3.125 21.321 3.46016 21.6562 3.875 21.6562H5.39844V11.6249H3.875C3.46016 11.6249 3.125 11.9601 3.125 12.3749Z" fill="#1E90FF"/>
</svg>
