<svg width="4" height="14" viewBox="0 0 4 14" fill="none" xmlns="http://www.w3.org/2000/svg">
<path d="M1.55556 3.11111C1.86322 3.11111 2.16397 3.01988 2.41978 2.84895C2.67559 2.67803 2.87497 2.43508 2.9927 2.15084C3.11044 1.8666 3.14124 1.55383 3.08122 1.25208C3.0212 0.950334 2.87305 0.67316 2.6555 0.455612C2.43795 0.238064 2.16078 0.0899117 1.85903 0.0298903C1.55728 -0.0301312 1.24451 0.000673993 0.960271 0.11841C0.676031 0.236147 0.433086 0.435526 0.262159 0.691336C0.0912327 0.947146 8.38281e-07 1.2479 8.38281e-07 1.55556C8.38281e-07 1.96811 0.16389 2.36378 0.455613 2.6555C0.747336 2.94722 1.143 3.11111 1.55556 3.11111ZM1.55556 10.8889C1.2479 10.8889 0.947146 10.9801 0.691336 11.151C0.435526 11.322 0.236147 11.5649 0.11841 11.8492C0.000673993 12.1334 -0.0301312 12.4462 0.0298903 12.7479C0.0899117 13.0497 0.238064 13.3268 0.455613 13.5444C0.673161 13.7619 0.950334 13.9101 1.25208 13.9701C1.55383 14.0301 1.8666 13.9993 2.15084 13.8816C2.43508 13.7639 2.67803 13.5645 2.84895 13.3087C3.01988 13.0529 3.11111 12.7521 3.11111 12.4444C3.11111 12.0319 2.94722 11.6362 2.6555 11.3445C2.36378 11.0528 1.96812 10.8889 1.55556 10.8889ZM1.55556 5.44444C1.2479 5.44444 0.947146 5.53568 0.691336 5.7066C0.435526 5.87753 0.236147 6.12047 0.11841 6.40471C0.000673993 6.68896 -0.0301312 7.00173 0.0298903 7.30347C0.0899117 7.60522 0.238064 7.88239 0.455613 8.09994C0.673161 8.31749 0.950334 8.46564 1.25208 8.52567C1.55383 8.58569 1.8666 8.55488 2.15084 8.43715C2.43508 8.31941 2.67803 8.12003 2.84895 7.86422C3.01988 7.60841 3.11111 7.30766 3.11111 7C3.11111 6.58744 2.94722 6.19178 2.6555 5.90006C2.36378 5.60833 1.96812 5.44444 1.55556 5.44444Z" fill="#6B7C93"/>
</svg>
