<svg width="24" height="24" viewBox="0 0 24 24" fill="none" xmlns="http://www.w3.org/2000/svg">
<path d="M12.5002 3.004C11.6097 2.99029 10.7189 3.01265 9.83022 3.071C5.64622 3.349 2.31422 6.728 2.04022 10.971C1.98725 11.8102 1.98725 12.6518 2.04022 13.491C2.14022 15.036 2.82322 16.467 3.62822 17.675C4.09522 18.52 3.78722 19.575 3.30022 20.498C2.95022 21.163 2.77422 21.495 2.91522 21.735C3.05522 21.975 3.37022 21.983 3.99922 21.998C5.24422 22.028 6.08322 21.676 6.74922 21.185C7.12622 20.906 7.31522 20.767 7.44522 20.751C7.57522 20.735 7.83222 20.841 8.34422 21.051C8.80422 21.241 9.33922 21.358 9.82922 21.391C11.2542 21.485 12.7432 21.485 14.1712 21.391C18.3542 21.113 21.6862 17.733 21.9602 13.491C22.0022 12.836 22.0112 12.163 21.9872 11.5M15.0002 5.5H22.0002M18.5002 2V9M11.9952 12.5H12.0052M15.9912 12.5H16.0002M8.00022 12.5H8.00922" stroke="black" stroke-width="1.5" stroke-linecap="round" stroke-linejoin="round"/>
</svg>
