<svg width="1440" height="571" viewBox="0 0 1440 571" fill="none" xmlns="http://www.w3.org/2000/svg">
<g opacity="0.24">
<mask id="mask0_1036_1409" style="mask-type:luminance" maskUnits="userSpaceOnUse" x="0" y="-232" width="2090" height="803">
<path d="M2090 -232H0V570.075H2090V-232Z" fill="white"/>
</mask>
<g mask="url(#mask0_1036_1409)">
<path d="M-31.3506 407.361C4.52774 350.113 111.814 310.711 217.011 316.025C291.903 319.835 363.659 343.696 438.203 337.781C528.944 330.663 588.857 284.443 649.815 250.054C726.274 206.942 800.992 188.896 908.104 207.344C987.524 220.979 1053.01 252.36 1138.53 252.46C1295.8 252.661 1372.78 157.916 1423.12 86.4307C1473.8 14.4444 1523.96 -61.7528 1652.32 -98.6482C1757.51 -128.927 1862.54 -125.718 1971.91 -106.468C2024.51 -97.2446 2076.07 -91.0285 2119.61 -69.4727" stroke="#0D8EFF" stroke-miterlimit="10"/>
<path d="M2124.49 -66.0633C2079.9 -87.3183 2027.47 -93.8352 1974.18 -103.059C1934.99 -109.877 1896.33 -114.589 1858.01 -116.594C1787.82 -120.304 1718.68 -114.489 1649.88 -94.6373C1628.63 -88.4212 1609.3 -81.2025 1591.88 -73.0815C1503.23 -31.5741 1462.13 32.6922 1418.41 93.4494C1366.34 165.937 1284.13 259.579 1125.29 258.476C1039.6 257.975 973.766 226.995 894.694 212.758C824.157 200.226 767.552 203.033 714.954 218.072C688.307 225.692 662.878 236.52 636.928 249.954C575.273 282.037 514.14 325.45 423.573 331.967C401.106 333.571 378.987 332.668 356.868 330.563C305.314 325.55 254.458 313.92 202.208 312.015C97.185 308.005 -8.88245 348.008 -44.2383 405.457" stroke="#158CF9" stroke-miterlimit="10"/>
<path d="M2129.01 -62.7547C2083.38 -83.7089 2030.26 -90.5265 1976.09 -99.7504C1936.38 -106.568 1897.02 -111.38 1858.18 -113.285C1786.95 -116.895 1716.41 -110.979 1647.27 -90.8273C1625.67 -84.511 1606.34 -77.192 1588.75 -68.7702C1499.23 -26.3605 1458.82 39.0086 1413.88 100.468C1360.07 174.058 1272.46 266.397 1112.05 264.392C1026.54 263.489 960.18 232.81 881.282 218.172C811.442 205.339 754.837 207.043 702.239 220.679C675.592 227.496 649.989 237.522 623.864 249.954C561.687 279.732 499.335 320.337 408.768 326.352C386.301 327.856 364.007 326.954 341.888 324.848C290.161 320.136 239.13 309.308 187.054 308.005C82.2058 305.498 -22.6425 346.003 -57.4758 403.652" stroke="#1D8BF2" stroke-miterlimit="10"/>
<path d="M2133.54 -59.446C2086.86 -80.0994 2033.05 -87.1176 1978.01 -96.4417C1937.78 -103.259 1897.89 -108.072 1858.36 -109.977C1786.08 -113.586 1714.32 -107.47 1644.48 -86.917C1622.71 -80.5004 1603.03 -72.981 1585.26 -64.4589C1494.87 -21.1469 1455.16 45.4254 1409.01 107.386C1353.27 182.079 1260.62 272.914 1098.64 270.307C1013.13 269.004 946.421 238.625 867.698 223.486C798.554 210.252 742.124 211.154 689.525 223.286C662.878 229.401 637.101 238.525 610.976 249.955C548.102 277.426 484.705 315.123 393.964 320.638C371.497 321.941 349.204 321.039 326.91 319.134C275.009 314.622 223.804 304.696 171.902 304.095C67.5761 302.892 -36.0531 343.998 -70.5381 401.848" stroke="#2589EC" stroke-miterlimit="10"/>
<path d="M2138.07 -56.2377C2090.35 -76.5903 2035.66 -83.9093 1980.1 -93.2334C1939.35 -100.051 1898.94 -104.863 1858.71 -106.768C1785.38 -110.277 1712.41 -103.961 1642.04 -83.2074C1620.1 -76.6906 1600.07 -69.0709 1582.13 -60.3483C1490.69 -16.2342 1451.85 51.5412 1404.48 114.203C1347 189.899 1249.12 279.431 1085.58 276.122C1000.06 274.318 932.836 244.34 854.461 228.8C785.84 215.165 729.584 215.165 676.986 225.792C650.338 231.206 624.562 239.427 598.088 249.854C534.517 274.919 470.076 309.91 379.335 314.822C356.867 316.026 334.4 315.123 312.106 313.319C260.031 309.108 208.651 299.984 156.924 300.084C52.9465 300.185 -49.6377 341.892 -83.426 399.943" stroke="#2D88E6" stroke-miterlimit="10"/>
<path d="M2142.77 -52.929C2094.01 -72.9809 2038.62 -80.6006 1982.19 -89.8245C1940.91 -96.6422 1899.81 -101.455 1859.05 -103.36C1784.69 -106.869 1710.32 -100.352 1639.43 -79.2973C1617.14 -72.6802 1597.11 -64.8599 1578.82 -55.9368C1486.51 -10.9204 1448.37 57.9578 1399.78 121.222C1340.39 198.02 1237.45 286.249 1072.17 282.038C986.653 279.932 919.077 250.255 840.876 234.214C772.951 220.278 716.869 219.275 664.097 228.399C637.275 233.011 611.499 240.43 584.851 249.854C520.758 272.613 455.097 304.797 364.356 309.108C341.889 310.211 319.421 309.308 297.128 307.604C244.878 303.593 193.499 295.272 141.597 296.074C37.7936 297.578 -63.3972 339.887 -96.8372 398.138" stroke="#3586DF" stroke-miterlimit="10"/>
<path d="M2147.3 -49.6206C2097.49 -69.3717 2041.41 -77.1919 1984.11 -86.516C1942.31 -93.3337 1900.68 -98.1461 1859.23 -100.051C1783.81 -103.46 1708.23 -96.8427 1636.64 -75.4875C1614.18 -68.7701 1593.8 -60.8496 1575.34 -51.726C1481.98 -5.8072 1444.71 64.2741 1394.73 128.039C1333.59 205.941 1225.26 292.866 1058.58 287.853C973.069 285.346 905.144 255.97 827.117 239.427C759.889 225.19 703.807 223.185 651.209 230.805C624.387 234.715 598.437 241.232 571.615 249.654C506.651 270.107 440.119 299.483 349.378 303.293C326.737 304.195 304.443 303.293 281.976 301.688C229.552 297.979 177.998 290.459 126.271 291.963C22.8157 294.871 -77.156 337.682 -110.073 396.133" stroke="#3D85D9" stroke-miterlimit="10"/>
<path d="M2151.83 -46.3122C2100.97 -65.7625 2044.02 -73.8835 1986.2 -83.2076C1943.87 -90.0253 1901.73 -94.8377 1859.58 -96.7427C1783.12 -100.151 1706.31 -93.3338 1634.21 -71.5775C1611.56 -64.7599 1590.84 -56.6389 1572.2 -47.415C1477.98 -0.59388 1441.4 70.5903 1390.2 135.057C1327.15 213.961 1213.77 299.583 1045.35 293.868C960.007 290.96 891.56 261.986 813.707 244.941C747.001 230.404 691.268 227.396 638.495 233.512C611.674 236.62 585.549 242.335 558.553 249.754C492.892 267.901 425.316 294.369 334.575 297.678C311.933 298.48 289.465 297.578 266.998 296.074C214.4 292.565 162.672 285.948 111.119 288.153C8.01209 292.364 -90.9146 335.776 -123.31 394.428" stroke="#4583D3" stroke-miterlimit="10"/>
<path d="M2156.36 -43.105C2104.46 -62.1543 2046.81 -70.6763 1988.11 -80.0005C1945.27 -86.8181 1902.42 -91.6306 1859.75 -93.5355C1782.07 -96.8441 1704.05 -89.8259 1631.42 -67.8691C1608.43 -60.9512 1587.7 -52.7299 1568.72 -43.2053C1473.45 4.41796 1437.75 76.8052 1385.32 141.874C1320.53 221.881 1201.92 306.199 1031.94 299.582C946.595 296.273 877.8 267.599 800.121 250.154C734.112 235.215 678.379 231.305 625.78 235.917C598.785 238.323 572.66 243.136 545.664 249.552C479.306 265.293 410.685 289.054 319.944 291.761C297.302 292.463 274.835 291.561 252.193 290.157C199.42 286.949 147.519 281.134 96.1396 283.941C-6.61871 289.556 -104.326 333.469 -136.199 392.422" stroke="#4D81CC" stroke-miterlimit="10"/>
<path d="M2160.89 -39.7952C2107.94 -58.5438 2049.59 -67.2663 1990.03 -76.6907C1946.66 -83.5084 1903.29 -88.3208 1859.93 -90.1255C1781.2 -93.434 1701.96 -86.2154 1628.63 -63.9578C1605.47 -56.9396 1584.39 -48.5178 1565.41 -38.8929C1469.27 9.63266 1434.26 83.1228 1380.62 148.893C1313.91 230.003 1190.26 313.018 1018.7 305.598C933.36 301.889 864.041 273.616 786.711 255.569C721.399 240.33 665.666 235.317 613.067 238.525C586.071 240.129 559.772 244.139 532.602 249.553C465.374 262.988 395.881 283.942 305.141 286.148C282.499 286.649 259.857 285.847 237.216 284.544C184.269 281.536 132.193 276.623 80.9881 280.133C-21.5961 287.151 -117.91 331.666 -149.26 390.719" stroke="#5580C6" stroke-miterlimit="10"/>
<path d="M2165.59 -36.4865C2111.6 -54.9342 2052.38 -63.9576 1992.12 -73.2817C1948.23 -80.0993 1904.34 -85.0121 1860.45 -86.7165C1780.68 -89.9248 1700.21 -82.6058 1626.37 -59.9472C1603.03 -52.8288 1581.61 -44.3067 1562.45 -34.4813C1465.26 14.9466 1431.13 89.6399 1376.26 155.911C1307.82 238.024 1178.93 319.836 1005.64 311.614C920.296 307.504 850.629 279.531 773.474 261.083C708.684 245.543 653.299 239.528 600.7 241.232C573.705 242.134 547.231 245.242 519.887 249.654C451.962 260.682 381.424 278.93 290.684 280.534C268.042 280.935 245.4 280.033 222.759 278.829C169.638 276.122 117.562 271.911 66.3569 276.223C-35.8789 284.544 -131.148 329.661 -161.976 388.914" stroke="#5D7EC0" stroke-miterlimit="10"/>
<path d="M2170.12 -33.1782C2115.08 -51.3252 2055.17 -60.6493 1994.21 -69.9734C1949.62 -76.7911 1905.21 -81.7038 1860.8 -83.4082C1779.98 -86.6165 1698.12 -78.9968 1623.76 -56.1376C1600.07 -48.8187 1578.65 -40.1964 1559.14 -30.1704C1461.08 20.1598 1427.64 95.9559 1371.56 162.929C1301.02 245.944 1166.92 326.553 992.053 317.429C906.711 313.018 836.696 285.346 759.715 266.297C695.622 250.456 640.237 243.438 587.638 243.638C560.468 243.738 533.995 246.044 506.476 249.453C437.681 258.075 366.272 273.515 275.532 274.618C252.89 274.819 230.074 274.017 207.432 272.914C154.137 270.407 101.887 267.099 50.8565 272.011C-51.031 281.737 -145.081 327.355 -175.386 386.909" stroke="#657DB9" stroke-miterlimit="10"/>
<path d="M2174.64 -29.9714C2118.56 -47.8176 2057.95 -57.3422 1996.12 -66.7666C1951.01 -73.5842 1906.08 -78.497 1860.97 -80.2014C1779.11 -83.3094 1696.03 -75.5894 1620.97 -52.4295C1597.11 -45.0103 1575.34 -36.2878 1555.66 -26.0613C1456.73 25.071 1423.99 102.07 1366.51 169.645C1294.41 253.863 1155.07 333.268 978.642 323.242C893.474 318.43 822.937 291.159 746.13 271.609C682.733 255.467 627.522 247.446 574.749 246.143C547.579 245.441 520.758 246.845 493.239 249.351C423.573 255.567 351.294 268.3 260.553 268.802C237.911 268.902 215.095 268.1 192.279 267.097C138.81 264.892 86.3862 262.385 35.5295 268C-66.0097 279.128 -158.84 325.348 -188.797 385.002" stroke="#6D7BB3" stroke-miterlimit="10"/>
<path d="M2179.17 -26.6626C2122.05 -44.208 2060.57 -54.0334 1998.04 -63.4578C1952.41 -70.2754 1906.95 -75.1881 1861.14 -76.8925C1778.24 -80.0006 1693.94 -72.0801 1618.36 -48.5191C1594.32 -40.9997 1572.2 -32.0766 1552.35 -21.7499C1452.38 30.2848 1420.5 108.487 1361.81 176.664C1287.96 261.984 1143.4 340.086 965.405 329.258C880.238 324.045 809.178 297.175 732.719 277.123C669.845 260.681 614.808 251.658 562.21 248.85C535.04 247.447 508.044 247.948 480.525 249.452C409.988 253.262 336.838 263.288 246.097 263.288C223.281 263.288 200.64 262.385 177.65 261.583C124.006 259.578 71.4079 257.974 20.7254 264.29C-80.6396 276.722 -172.251 323.544 -201.511 383.398" stroke="#757AAD" stroke-miterlimit="10"/>
<path d="M2183.7 -23.3531C2125.53 -40.5977 2063.35 -50.7239 1999.96 -60.1483C1953.8 -67.0662 1907.65 -71.8787 1861.32 -73.5831C1777.37 -76.6911 1691.68 -68.5701 1615.57 -44.7084C1591.36 -37.0887 1568.89 -28.0653 1548.86 -17.5381C1448.02 35.3989 1416.85 114.704 1356.93 183.482C1281.17 269.906 1131.56 346.704 951.995 335.074C866.827 329.56 795.419 302.891 719.134 282.338C656.956 265.595 601.92 255.468 549.321 251.257C522.151 249.052 494.981 248.651 467.289 249.252C395.88 250.656 321.86 257.975 231.119 257.373C208.303 257.173 185.487 256.371 162.497 255.569C108.68 253.764 55.9071 253.062 5.39873 259.98C-95.6179 273.816 -186.01 321.138 -214.922 381.294" stroke="#7E78A6" stroke-miterlimit="10"/>
<path d="M2188.4 -20.045C2129.19 -36.8886 2066.14 -47.3156 2002.22 -56.7399C1955.54 -63.6578 1908.87 -68.4703 1861.84 -70.1747C1776.85 -73.1825 1689.94 -64.861 1613.13 -40.7987C1588.57 -33.0787 1566.11 -23.8549 1545.73 -13.1271C1443.84 40.7122 1413.54 121.12 1352.4 190.5C1274.9 277.926 1120.07 353.522 938.932 340.989C853.765 335.074 782.008 308.806 705.897 287.751C644.242 270.707 589.554 259.579 536.956 253.864C509.611 250.956 482.441 249.653 454.575 249.252C382.296 248.149 307.404 252.861 216.489 251.658C193.673 251.357 170.857 250.555 147.867 249.853C93.8756 248.349 41.1032 248.349 -9.40516 256.069C-110.073 271.309 -199.247 319.133 -227.636 379.489" stroke="#8676A0" stroke-miterlimit="10"/>
<path d="M2192.93 -16.7364C2132.67 -33.2792 2068.92 -44.0069 2004.13 -53.4313C1956.94 -60.3492 1909.74 -65.1617 1862.01 -66.8661C1775.98 -69.8738 1687.85 -61.3518 1610.52 -36.9888C1585.79 -29.1685 1562.97 -19.8444 1542.59 -8.91612C1439.83 45.7253 1410.23 127.437 1347.87 197.418C1268.45 285.947 1108.4 360.339 925.695 346.905C840.527 340.689 768.422 314.721 692.486 293.065C631.527 275.72 576.839 263.589 524.241 256.37C496.896 252.661 469.552 250.455 441.511 249.152C368.361 245.542 292.599 247.547 201.684 245.843C178.868 245.442 155.878 244.54 132.888 244.038C78.7223 242.735 25.7756 243.637 -24.5586 252.059C-125.053 268.602 -213.007 317.128 -240.874 377.584" stroke="#8E7599" stroke-miterlimit="10"/>
<path d="M2197.46 -13.5285C2136.15 -29.7705 2071.71 -40.7991 2006.05 -50.2235C1958.33 -57.1414 1910.43 -61.9538 1862.19 -63.6582C1775.11 -66.5658 1685.58 -57.9434 1607.73 -33.1794C1582.83 -25.2589 1559.66 -15.7342 1539.11 -4.70569C1435.31 50.838 1406.57 133.652 1342.82 204.235C1261.66 293.867 1096.38 367.056 911.936 352.719C826.943 346.102 754.141 320.536 678.553 298.379C618.117 280.733 563.603 267.499 511.004 258.876C483.66 254.365 455.968 251.357 428.101 249.051C354.254 242.935 277.447 242.334 186.532 240.128C163.716 239.526 140.726 238.724 117.562 238.323C63.2219 237.321 10.1011 239.025 -40.0589 248.048C-140.205 265.995 -226.94 315.022 -254.284 375.779" stroke="#967393" stroke-miterlimit="10"/>
<path d="M2201.99 -10.2196C2139.64 -26.1608 2074.32 -37.3898 2007.97 -46.9145C1959.72 -53.8324 1911.3 -58.7451 1862.54 -60.249C1774.41 -63.1565 1683.67 -54.2334 1605.29 -29.2688C1580.04 -21.2481 1556.87 -11.6232 1535.97 -0.29386C1431.3 56.1522 1403.26 140.069 1338.3 211.354C1255.22 301.988 1084.88 373.975 898.873 358.735C813.88 351.817 740.73 326.552 665.316 303.893C605.577 285.947 551.237 271.71 498.638 261.584C471.12 256.37 443.427 252.36 415.387 249.152C340.669 240.529 262.991 237.321 172.076 234.514C149.26 233.812 126.096 233.01 102.932 232.709C48.4174 231.907 -4.8776 234.514 -54.8634 244.239C-154.661 263.589 -240.177 313.117 -267.173 374.075" stroke="#9E728D" stroke-miterlimit="10"/>
<path d="M2206.69 -6.91168C2143.29 -22.5522 2077.29 -34.082 2010.23 -43.6066C1961.46 -50.5245 1912.52 -55.4372 1863.06 -56.9411C1773.71 -59.7484 1681.75 -50.7251 1602.86 -25.4597C1577.43 -17.3387 1553.91 -7.51323 1532.84 3.91634C1427.12 61.2647 1399.95 146.385 1333.77 218.171C1248.77 309.908 1073.04 380.691 885.637 364.549C800.644 357.231 726.971 332.366 651.905 309.106C592.863 290.859 538.523 275.519 485.924 263.989C458.406 257.974 430.539 253.061 402.324 248.95C326.736 237.822 248.187 232.007 157.272 228.598C134.282 227.695 111.292 226.994 87.9537 226.693C33.2654 226.191 -20.2038 229.6 -70.0155 240.027C-169.465 260.781 -253.761 310.911 -280.235 372.069" stroke="#A67086" stroke-miterlimit="10"/>
<path d="M2211.22 -3.60325C2146.78 -18.9429 2080.07 -30.7736 2012.15 -40.2982C1962.86 -47.2161 1913.22 -52.1288 1863.24 -53.6327C1772.84 -56.44 1679.66 -47.2161 1600.07 -21.5497C1574.47 -13.3284 1550.61 -3.40273 1529.36 8.22736C1422.77 66.3778 1396.29 152.701 1328.89 225.189C1242.16 318.029 1061.37 387.609 872.227 370.565C787.233 362.945 713.213 338.281 638.495 314.62C579.975 296.072 525.983 279.73 473.385 266.796C445.867 259.979 417.826 254.164 389.437 249.151C313.152 235.415 233.558 226.993 142.643 223.184C119.653 222.181 96.6627 221.379 73.3244 221.279C18.4619 220.978 -35.0073 225.189 -84.819 236.318C-184.094 258.375 -267.171 309.106 -293.122 370.465" stroke="#AE6E80" stroke-miterlimit="10"/>
<path d="M2215.75 -0.393802C2150.26 -15.4327 2082.68 -27.4638 2014.06 -36.9885C1964.25 -43.9064 1914.09 -48.8191 1863.41 -50.323C1771.97 -53.03 1677.57 -43.7059 1597.46 -17.7387C1571.51 -9.31689 1547.64 0.709045 1526.05 12.5397C1418.59 71.5925 1392.81 159.019 1324.19 232.108C1235.71 325.951 1049.53 394.327 858.99 376.381C773.997 368.36 699.627 344.098 625.084 319.935C567.261 301.086 513.269 283.741 460.671 269.304C433.152 261.785 404.937 254.967 376.374 248.951C299.392 232.709 218.753 221.681 127.838 217.269C104.848 216.167 81.6839 215.364 58.3456 215.364C3.30895 215.364 -50.3344 220.377 -99.9719 232.208C-199.073 255.568 -280.931 306.801 -306.359 368.36" stroke="#B66D7A" stroke-miterlimit="10"/>
<path d="M2220.28 2.91436C2153.74 -11.7235 2085.47 -24.1557 2016.15 -33.6803C1965.82 -40.5982 1915.14 -45.5109 1863.76 -47.0148C1771.27 -49.7218 1675.48 -40.0969 1594.84 -13.9292C1568.72 -5.40717 1544.51 4.71903 1522.74 16.7502C1414.23 76.7053 1389.33 165.335 1319.31 239.025C1229.09 333.971 1037.86 401.145 845.579 382.296C760.76 373.974 685.694 350.012 611.499 325.248C554.198 306.099 500.555 287.651 447.782 271.81C420.09 263.489 391.875 255.869 363.311 248.851C285.633 230.002 203.949 216.467 113.034 211.454C90.0437 210.151 66.8795 209.449 43.367 209.549C-11.8438 209.75 -65.6613 215.665 -115.125 228.197C-213.703 252.961 -294.516 304.795 -319.422 366.555" stroke="#BE6B73" stroke-miterlimit="10"/>
<path d="M2224.8 6.22411C2157.23 -8.11299 2088.26 -20.8459 2018.07 -30.3706C1967.21 -37.2885 1915.83 -42.2012 1863.93 -43.7051C1770.4 -46.3118 1673.39 -36.5867 1592.06 -10.1182C1565.76 -1.49587 1541.2 8.83085 1519.43 20.9622C1410.05 81.8197 1385.84 171.552 1314.61 245.844C1222.65 341.893 1026.19 407.964 832.342 388.112C747.522 379.39 672.108 355.829 598.087 330.563C541.309 311.113 488.014 291.562 435.241 274.318C407.549 265.194 379.16 256.672 350.422 248.752C272.047 227.396 189.318 211.255 98.4032 205.64C75.4132 204.236 52.0748 203.434 28.5623 203.635C-26.8226 204.136 -80.8143 210.854 -130.103 223.988C-228.682 250.256 -308.102 302.691 -332.485 364.651" stroke="#C66A6D" stroke-miterlimit="10"/>
<path d="M2229.51 9.53217C2160.89 -4.50415 2091.04 -17.4376 2020.16 -27.0625C1968.78 -33.9804 1916.88 -38.8931 1864.28 -40.397C1769.71 -43.0038 1671.48 -33.0781 1589.62 -6.20855C1562.97 2.51401 1538.41 12.941 1516.29 25.2729C1405.87 86.9324 1382.53 177.868 1310.08 252.862C1216.03 349.913 1014.35 414.981 819.105 394.027C734.286 385.104 658.35 361.844 584.677 335.877C528.595 316.226 475.3 295.572 422.528 276.824C394.835 266.898 366.446 257.474 337.36 248.651C258.289 224.689 174.515 205.94 83.5996 199.925C60.6096 198.421 37.2713 197.619 13.5846 197.92C-41.9745 198.621 -96.1404 206.241 -145.43 220.077C-243.485 247.648 -321.686 300.585 -345.721 362.746" stroke="#CE6867" stroke-miterlimit="10"/>
<path d="M2234.04 12.7395C2164.37 -0.996057 2093.83 -14.2303 2022.07 -23.8552C1970.17 -30.7731 1917.75 -35.6858 1864.45 -37.1897C1768.84 -39.6962 1669.21 -29.57 1586.83 -2.49996C1560.01 6.32287 1535.1 16.9504 1512.81 29.4828C1401.52 92.0447 1378.88 184.183 1305.2 259.678C1209.41 357.832 1002.5 421.597 805.52 399.841C720.701 390.517 644.242 367.658 570.918 341.189C515.359 321.238 462.412 299.582 409.64 279.329C381.947 268.702 353.384 258.275 324.124 248.55C244.355 222.081 159.536 200.726 68.6213 194.109C45.6313 192.404 22.1188 191.703 -1.3937 192.104C-57.127 193.106 -111.293 201.428 -160.582 216.066C-258.29 245.041 -335.445 298.579 -358.784 360.94" stroke="#D66760" stroke-miterlimit="10"/>
<path d="M2238.56 16.048C2116.65 -7.11196 1992.99 -30.4724 1864.8 -33.781C1736.62 -37.0895 1601.11 -17.94 1509.68 33.7939C1397.34 97.2581 1375.57 190.499 1300.68 266.596C1202.97 365.753 991.008 428.315 792.458 405.756C644.068 388.812 520.235 332.467 397.1 281.836C273.964 231.205 134.979 182.98 -16.1979 186.288C-183.224 190.098 -337.361 264.992 -371.846 359.035" stroke="#DE655A" stroke-miterlimit="10"/>
<path d="M-362.441 357.834C-328.653 270.708 -190.887 201.229 -37.2717 190.401C-27.1701 189.699 -17.0684 189.197 -6.96674 189.097C137.94 186.39 271.7 230.705 391.352 278.328C395.532 279.932 399.538 281.637 403.718 283.241C526.506 332.669 650.512 387.31 797.509 402.75C994.317 423.203 1201.75 359.538 1301.02 262.086C1313.74 249.554 1325.23 236.52 1335.86 223.286C1388.46 157.816 1422.24 87.1333 1516.12 36.6026C1562.97 11.4375 1620.62 -5.60661 1682.8 -15.9333C1742.89 -25.859 1807.33 -29.4684 1869.85 -27.8642C1997.34 -24.7562 2120.48 -2.89961 2240.65 17.6536" stroke="#D56960" stroke-miterlimit="10"/>
<path d="M-353.21 356.629C-318.029 270.606 -180.263 203.031 -27.8671 193.006C-17.9396 192.304 -7.83794 191.903 2.26373 191.802C145.951 189.496 278.666 233.21 397.97 279.73C402.15 281.334 406.156 282.938 410.336 284.542C532.775 332.867 656.782 385.804 802.56 399.64C997.8 417.988 1200.7 353.12 1301.37 257.472C1314.44 245.14 1325.93 232.407 1336.9 219.474C1391.24 155.609 1427.99 87.7331 1522.56 39.4081C1569.76 15.3458 1627.24 -0.896196 1689.07 -10.6214C1748.81 -20.0457 1812.73 -23.3543 1875.08 -21.9507C2001.87 -19.0432 2124.31 1.30951 2242.74 19.3562" stroke="#CD6E67" stroke-miterlimit="10"/>
<path d="M-343.806 355.427C-307.231 270.507 -169.291 204.937 -18.2882 195.613C-8.36067 195.011 1.56684 194.61 11.4943 194.51C153.963 192.705 285.633 235.717 404.588 281.134C408.768 282.738 412.774 284.242 416.954 285.846C539.219 333.069 663.226 384.301 807.436 396.533C1001.11 412.775 1199.49 346.704 1301.55 252.861C1314.78 240.73 1326.63 228.298 1337.95 215.665C1394.03 153.304 1433.74 88.2351 1528.83 42.1158C1576.21 19.1564 1633.68 3.81672 1695.16 -5.40715C1754.55 -14.23 1818.13 -17.4383 1879.95 -16.1349C2006.05 -13.4279 2127.97 5.52112 2244.66 20.8608" stroke="#C4726D" stroke-miterlimit="10"/>
<path d="M-334.575 354.224C-296.607 270.407 -158.667 206.742 -8.70933 198.12C1.04401 197.518 10.9715 197.218 20.899 197.117C162.148 195.814 292.773 238.124 411.381 282.538C415.561 284.042 419.567 285.646 423.572 287.15C545.489 333.169 669.496 382.798 812.487 393.425C1004.42 407.462 1198.27 340.288 1302.07 248.149C1315.48 236.319 1327.67 224.087 1339.34 211.856C1397.16 151.098 1439.83 88.737 1535.45 44.9237C1583.17 23.0671 1640.47 8.52949 1701.43 -0.0928163C1760.48 -8.41435 1823.52 -11.3219 1885.01 -10.1188C2010.41 -7.61227 2131.62 9.83286 2246.57 22.6661" stroke="#BC7773" stroke-miterlimit="10"/>
<path d="M-325.17 353.021C-285.808 270.307 -147.868 208.547 0.870318 200.727C10.6237 200.226 20.377 199.925 30.1303 199.825C170.16 199.023 299.74 240.63 418 283.942C422.005 285.446 426.185 286.95 430.191 288.454C551.76 333.37 675.94 381.194 817.538 390.318C1007.9 402.249 1197.05 333.872 1302.42 243.538C1316 231.908 1328.54 219.977 1340.56 208.046C1400.13 148.893 1445.76 89.3389 1541.9 47.6309C1589.79 26.8772 1647.09 13.1417 1707.7 5.12094C1766.4 -2.69929 1829.1 -5.40629 1890.23 -4.30344C2014.93 -1.99747 2135.63 13.9438 2248.84 24.2705" stroke="#B37B7A" stroke-miterlimit="10"/>
<path d="M-315.764 351.817C-275.009 270.206 -137.069 210.451 10.4498 203.333C20.0289 202.831 29.7823 202.631 39.5356 202.631C178.346 202.33 307.056 243.236 424.792 285.545C428.798 287.049 432.978 288.453 436.984 289.957C558.204 333.67 682.559 379.889 822.763 387.409C1011.56 397.234 1196.18 327.654 1302.94 239.125C1316.7 227.696 1329.41 216.065 1341.78 204.435C1403.09 146.786 1451.68 90.0394 1548.34 50.5372C1596.59 30.8863 1653.54 18.0531 1713.97 10.5337C1772.32 3.21473 1834.67 0.70825 1895.28 1.8111C2019.46 3.91655 2139.29 18.3539 2250.76 26.0739" stroke="#AB7F80" stroke-miterlimit="10"/>
<path d="M-306.534 350.614C-264.386 270.106 -126.446 212.256 20.0286 205.84C29.6078 205.439 39.1869 205.238 48.9403 205.238C186.532 205.439 314.196 245.743 431.584 286.849C435.59 288.253 439.77 289.657 443.776 291.161C564.822 333.771 689.003 378.286 827.988 384.201C1015.04 391.821 1195.13 321.138 1303.46 234.314C1317.4 223.084 1330.46 211.755 1343.17 200.426C1406.22 144.381 1457.77 90.341 1554.96 53.1448C1603.55 34.5968 1660.33 22.5656 1720.24 15.5475C1778.24 8.72984 1840.07 6.52414 1900.51 7.42648C2023.99 9.23115 2143.12 22.2649 2253.02 27.4784" stroke="#A28486" stroke-miterlimit="10"/>
<path d="M-297.128 349.411C-253.587 270.005 -115.473 214.161 29.6083 208.446C39.1875 208.045 48.5924 207.945 58.1716 207.945C194.544 208.647 321.163 248.249 438.203 288.253C442.209 289.656 446.389 291.06 450.395 292.464C571.093 333.871 695.447 376.681 832.865 381.093C1018.35 386.607 1193.91 314.721 1303.64 229.701C1317.74 218.773 1331.16 207.644 1344.22 196.616C1409.18 142.175 1463.52 90.9421 1561.4 55.8513C1610.17 38.4062 1666.95 27.2774 1726.51 20.7605C1784.16 14.5444 1845.64 12.439 1905.56 13.241C2028.35 14.8452 2146.95 26.375 2254.94 28.9818" stroke="#9A888D" stroke-miterlimit="10"/>
<path d="M-287.724 348.208C-242.789 269.805 -104.674 215.966 39.1872 210.953C48.5922 210.652 57.9972 210.452 67.5764 210.552C202.73 211.755 328.304 250.656 444.996 289.657C449.001 290.96 453.007 292.364 457.187 293.667C577.536 333.971 702.066 375.078 838.09 377.885C1022.01 381.294 1192.87 308.205 1304.16 224.989C1318.44 214.262 1332.2 203.434 1345.61 192.806C1412.32 139.869 1469.62 91.4438 1568.02 58.659C1617.14 42.3167 1673.74 31.99 1732.96 26.0747C1790.26 20.3599 1851.22 18.5552 1910.78 19.257C2032.87 20.6607 2150.78 30.7869 2257.2 30.7869" stroke="#918C93" stroke-miterlimit="10"/>
<path d="M-278.493 346.906C-232.165 269.706 -94.0507 217.771 48.766 213.46C58.171 213.159 67.4019 213.059 76.8069 213.26C210.741 214.864 335.27 253.163 451.614 291.061C455.619 292.364 459.625 293.668 463.631 294.971C583.632 334.072 708.161 373.675 842.966 374.778C1025.14 376.282 1191.47 301.789 1304.33 220.378C1318.96 209.851 1332.72 199.324 1346.66 188.997C1415.1 137.664 1475.19 91.9459 1574.29 61.3667C1623.58 46.1273 1680.01 36.7029 1738.88 31.2889C1795.83 26.0754 1856.44 24.4713 1915.66 25.0728C2037.05 26.2759 2154.44 34.8983 2258.94 32.2915" stroke="#899199" stroke-miterlimit="10"/>
<path d="M-269.088 345.701C-221.366 269.604 -83.2523 219.575 58.3452 216.065C67.576 215.865 76.981 215.765 86.2119 215.965C218.927 218.071 342.411 255.668 458.406 292.563C462.412 293.867 466.418 295.07 470.424 296.373C590.076 334.372 714.779 372.27 848.191 371.768C1028.8 371.067 1190.6 295.471 1304.86 215.765C1319.66 205.538 1333.77 195.212 1347.88 185.186C1418.06 135.457 1481.11 92.5458 1580.74 64.1724C1630.37 50.0359 1686.63 41.4135 1745.15 36.6011C1801.75 31.8889 1862.02 30.5855 1920.71 31.0868C2041.41 32.0894 2158.1 39.2078 2261.03 34.0946" stroke="#8095A0" stroke-miterlimit="10"/>
<path d="M-259.683 344.499C-210.568 269.505 -72.4542 221.481 67.9241 218.673C77.155 218.473 86.3858 218.473 95.6166 218.673C227.112 221.28 349.552 258.276 465.198 293.968C469.204 295.171 473.21 296.475 477.216 297.678C596.694 334.573 721.397 370.767 853.242 368.661C1032.28 365.854 1189.38 289.055 1305.2 211.154C1320.18 201.128 1334.64 191.102 1349.09 181.377C1421.02 133.152 1487.03 93.0483 1587.18 66.8806C1637.17 53.8468 1693.25 46.1269 1751.42 41.8157C1807.85 37.7051 1867.41 36.5019 1925.93 36.903C2045.93 37.7051 2162.1 43.3196 2263.12 35.5996" stroke="#789AA6" stroke-miterlimit="10"/>
<path d="M-250.452 343.294C-199.944 269.403 -61.6552 223.284 77.5039 221.179C86.5606 221.078 95.7915 221.078 104.848 221.279C235.125 224.387 356.693 260.681 471.817 295.27C475.823 296.473 479.829 297.676 483.835 298.88C602.965 334.572 727.668 369.061 858.293 365.452C1035.59 360.539 1188.16 282.537 1305.55 206.44C1320.71 196.615 1335.51 186.89 1350.31 177.465C1423.99 130.845 1492.96 93.448 1593.62 69.5863C1643.78 57.6554 1699.87 50.7375 1757.52 47.0279C1813.6 43.4185 1872.81 42.5162 1930.81 42.817C2050.12 43.4186 2165.59 47.5292 2265.04 37.3027" stroke="#6F9EAC" stroke-miterlimit="10"/>
<path d="M-241.047 342.093C-189.145 269.304 -50.8569 225.09 87.0831 223.787C96.1398 223.686 105.196 223.787 114.253 223.987C243.311 227.596 363.834 263.189 478.61 296.775C482.616 297.979 486.621 299.081 490.627 300.285C609.409 334.874 734.286 367.659 863.518 362.445C1039.25 355.427 1187.29 276.122 1306.25 201.93C1321.58 192.305 1336.55 182.881 1351.88 173.857C1427.3 128.841 1499.23 94.1512 1600.59 72.4951C1651.1 61.6671 1707.01 55.6515 1764.31 52.343C1820.04 49.2349 1878.74 48.5331 1936.38 48.7336C2054.99 49.1347 2169.94 51.7414 2267.65 38.9082" stroke="#66A2B3" stroke-miterlimit="10"/>
<path d="M-231.642 340.889C-178.347 269.203 -40.0587 226.994 96.6621 226.292C105.545 226.292 114.601 226.393 123.484 226.693C251.322 230.804 370.8 265.694 485.228 298.178C489.234 299.281 493.24 300.384 497.071 301.587C615.505 334.974 740.556 366.154 868.395 359.337C1042.56 350.113 1185.9 269.705 1306.42 197.217C1321.92 187.893 1337.25 178.669 1352.75 169.947C1429.91 126.434 1504.8 94.6518 1606.69 75.2015C1657.54 65.4763 1713.1 60.2628 1770.23 57.5558C1825.61 54.9491 1883.96 54.4478 1941.26 54.548C2059.17 54.7485 2173.43 55.9517 2269.39 40.5117" stroke="#5EA7B9" stroke-miterlimit="10"/>
<path d="M-222.411 339.687C-167.723 269.104 -29.4345 228.8 106.241 228.9C115.124 228.9 124.006 229.1 132.889 229.401C259.508 234.013 377.941 268.202 492.021 299.683C496.026 300.786 499.858 301.889 503.864 302.891C622.123 335.175 747.001 364.551 873.62 356.229C1046.04 344.9 1184.86 263.289 1306.95 192.606C1322.62 183.482 1338.3 174.559 1354.15 166.137C1433.04 124.229 1510.9 95.1538 1613.31 77.9092C1664.34 69.2868 1719.9 64.8754 1776.5 62.77C1831.54 60.7648 1889.53 60.464 1946.31 60.464C2063.53 60.464 2177.08 60.1632 2271.48 42.2168" stroke="#55ABC0" stroke-miterlimit="10"/>
<path d="M-213.006 338.483C-156.75 269.004 -18.4619 230.604 115.821 231.406C124.529 231.507 133.411 231.707 142.12 232.008C267.52 237.121 384.908 270.608 498.639 300.986C502.645 301.989 506.477 303.092 510.482 304.094C628.393 335.175 753.445 362.947 878.497 353.021C1049.35 339.486 1183.64 256.772 1307.12 187.894C1322.97 178.971 1338.99 170.348 1355.19 162.227C1435.83 121.823 1516.64 95.5548 1619.58 80.6162C1670.96 73.0967 1726.34 69.5876 1782.6 67.9835C1837.28 66.4796 1894.76 66.3793 1951.19 66.2791C2067.88 66.0786 2180.74 64.2739 2273.22 43.7207" stroke="#4DB0C6" stroke-miterlimit="10"/>
<path d="M-203.601 337.279C-145.952 268.902 -7.66337 232.508 125.4 234.012C134.108 234.112 142.817 234.313 151.525 234.714C275.88 240.328 392.049 273.213 505.432 302.389C509.437 303.391 513.269 304.394 517.275 305.397C634.837 335.374 760.063 361.442 883.722 349.912C1053.01 334.271 1182.59 250.354 1307.64 183.281C1323.84 174.658 1339.86 166.236 1356.58 158.416C1438.96 119.616 1522.74 96.1551 1626.19 83.3219C1677.75 76.9053 1733.13 74.1983 1789.04 73.1957C1843.38 72.1931 1900.51 72.3936 1956.59 72.1931C2072.58 71.6918 2184.75 68.4835 2275.66 45.4238" stroke="#44B4CC" stroke-miterlimit="10"/>
<path d="M-194.37 336.077C-135.327 268.802 2.96098 234.313 134.979 236.619C143.688 236.719 152.222 237.02 160.93 237.522C284.066 243.537 399.19 275.821 512.224 303.994C516.23 304.996 520.062 305.898 524.068 306.901C641.282 335.676 766.508 360.039 888.947 347.005C1056.5 329.159 1181.55 244.139 1308.17 178.77C1324.54 170.348 1340.91 162.227 1357.8 154.808C1441.93 117.611 1528.66 96.8576 1632.64 86.2301C1684.54 80.9163 1739.58 79.1117 1795.14 78.6104C1849.13 78.1091 1905.73 78.5101 1961.47 78.2093C2076.76 77.5075 2188.4 72.7953 2277.4 47.1289" stroke="#3CB8D3" stroke-miterlimit="10"/>
<path d="M-184.965 334.873C-124.529 268.702 13.7593 236.218 144.559 239.126C153.093 239.326 161.627 239.627 170.161 240.128C292.078 246.645 406.157 278.227 518.843 305.297C522.674 306.199 526.68 307.202 530.512 308.104C647.378 335.776 772.778 358.234 893.824 343.897C1059.8 323.745 1180.33 237.722 1308.34 174.158C1324.89 165.936 1341.61 158.116 1358.85 150.998C1444.71 115.305 1534.41 97.3589 1639.08 89.0374C1691.33 84.8265 1746.2 83.8239 1801.41 83.9241C1855.05 83.9241 1911.31 84.6259 1966.69 84.2249C2081.29 83.3226 2192.24 77.1065 2279.67 48.9336" stroke="#33BDD9" stroke-miterlimit="10"/>
<path d="M-175.734 333.671C-113.905 268.603 24.3831 238.024 153.963 241.733C162.497 241.934 170.857 242.335 179.391 242.836C300.089 249.854 413.297 280.734 525.461 306.701C529.292 307.604 533.298 308.506 537.13 309.408C653.821 335.977 779.047 356.731 898.7 340.789C1062.94 318.532 1178.93 231.306 1308.51 169.546C1325.23 161.626 1342.3 154.006 1359.89 147.188C1447.5 113.1 1540.16 97.9611 1645.35 91.745C1697.78 88.637 1752.64 88.5367 1807.5 89.038C1860.8 89.6396 1916.7 90.4417 1971.57 89.9404C2085.47 88.8375 2195.89 81.2178 2281.41 50.3379" stroke="#2BC1DF" stroke-miterlimit="10"/>
<path d="M-166.33 332.467C-103.107 268.501 35.3554 239.927 163.716 244.339C172.076 244.639 180.436 245.04 188.796 245.542C308.275 253.061 420.438 283.239 532.253 308.204C536.084 309.106 540.09 309.908 543.922 310.811C660.265 336.176 785.665 355.326 903.925 337.78C1066.6 313.417 1178.06 224.989 1309.04 164.933C1325.93 157.213 1343.17 149.894 1361.29 143.377C1450.63 110.893 1546.25 98.4611 1651.97 94.551C1704.74 92.6461 1759.43 93.2476 1813.77 94.3505C1866.72 95.4534 1922.1 96.5562 1976.62 95.8544C2089.83 94.551 2199.55 85.4274 2283.5 52.041" stroke="#22C5E6" stroke-miterlimit="10"/>
<path d="M-156.925 331.164C-92.3092 268.301 46.1533 241.632 173.295 246.745C181.655 247.046 189.841 247.548 198.201 248.049C316.46 256.07 427.578 285.546 539.045 309.408C542.877 310.21 546.708 311.012 550.714 311.914C666.709 336.177 792.109 353.522 909.149 334.472C1070.08 307.904 1177.02 218.372 1309.56 160.121C1326.63 152.602 1344.22 145.684 1362.5 139.368C1453.77 108.387 1552.17 98.7626 1658.41 97.0582C1711.53 96.2561 1765.87 97.76 1820.04 99.3641C1872.64 100.968 1927.68 102.272 1981.84 101.57C2094.35 100.066 2203.56 89.4384 2285.59 53.4453" stroke="#1ACAEC" stroke-miterlimit="10"/>
<path d="M-147.694 329.96C-81.6844 268.2 56.778 243.436 182.701 249.352C190.886 249.753 199.072 250.254 207.432 250.856C324.472 259.378 434.545 288.252 545.664 311.011C549.495 311.813 553.327 312.615 557.333 313.317C672.98 336.377 798.554 352.118 914.2 331.464C1073.56 302.79 1175.8 212.055 1310.08 155.609C1327.32 148.29 1345.26 141.673 1363.9 135.758C1456.9 106.382 1558.27 99.564 1665.03 100.065C1718.33 100.366 1772.67 102.672 1826.49 104.878C1878.74 106.983 1933.25 108.487 1987.07 107.685C2098.88 105.981 2207.39 93.8492 2287.85 55.3496" stroke="#11CEF2" stroke-miterlimit="10"/>
<path d="M-138.288 328.757C-70.8858 268.1 67.5767 245.341 192.454 251.858C200.64 252.259 208.826 252.861 216.838 253.462C332.658 262.486 441.687 290.658 552.631 312.315C556.463 313.016 560.294 313.818 564.126 314.52C679.598 336.477 805.172 350.513 919.252 328.256C1077.05 297.476 1174.75 205.538 1310.43 150.897C1327.85 143.879 1346.13 137.462 1365.12 131.848C1459.87 104.076 1564.19 99.965 1671.48 102.672C1725.12 104.076 1779.29 107.284 1832.58 109.991C1884.48 112.698 1938.65 114.402 1992.12 113.5C2103.24 111.595 2211.22 97.9599 2289.77 56.8535" stroke="#09D3F9" stroke-miterlimit="10"/>
<path d="M-128.883 327.555C-60.087 268.001 78.5497 247.147 202.034 254.466C325.518 261.785 441.165 291.763 559.25 313.719C677.509 335.776 807.785 349.813 924.303 325.149C1100.56 288.053 1196.53 174.259 1366.34 128.039C1510.9 88.7373 1679.84 105.38 1838.85 115.206C1997.87 125.031 2177.95 123.026 2291.86 58.459" stroke="#00D7FF" stroke-miterlimit="10"/>
</g>
</g>
</svg>
