<svg width="25" height="24" viewBox="0 0 25 24" fill="none" xmlns="http://www.w3.org/2000/svg">
<path d="M2.95483 21.0173C2.98942 20.9815 3.0308 20.9529 3.07655 20.9333C3.1223 20.9136 3.17151 20.9033 3.2213 20.9028C3.2711 20.9024 3.32048 20.9119 3.36656 20.9308C3.41265 20.9496 3.45452 20.9775 3.48973 21.0127C3.52494 21.0479 3.55278 21.0897 3.57164 21.1358C3.59049 21.1819 3.59998 21.2313 3.59955 21.2811C3.59912 21.3309 3.58877 21.3801 3.56912 21.4258C3.54946 21.4716 3.5209 21.513 3.48508 21.5476L2.42458 22.6081C2.35385 22.6764 2.25913 22.7142 2.1608 22.7133C2.06248 22.7125 1.96843 22.673 1.8989 22.6035C1.82937 22.534 1.78993 22.4399 1.78908 22.3416C1.78822 22.2433 1.82602 22.1485 1.89433 22.0778L2.95483 21.0173Z" fill="#402A32"/>
<path d="M21.4235 6.07576C21.7482 5.92059 22.031 5.68979 22.248 5.40273C22.4651 5.11567 22.6101 4.78073 22.671 4.42602C22.7318 4.07131 22.7067 3.70718 22.5977 3.3642C22.4887 3.02121 22.299 2.70937 22.0446 2.45486C21.7901 2.20035 21.4783 2.01059 21.1354 1.9015C20.7924 1.79242 20.4283 1.76719 20.0736 1.82794C19.7188 1.88869 19.3839 2.03365 19.0967 2.25064C18.8096 2.46763 18.5788 2.75033 18.4235 3.07501L18.3335 2.98501L10.676 9.10501C10.6753 9.31492 10.6325 9.52255 10.5502 9.71564C10.4679 9.90873 10.3477 10.0834 10.1968 10.2292C10.0458 10.3751 9.86715 10.4892 9.67134 10.5648C9.47553 10.6404 9.26655 10.676 9.05675 10.6695L9.008 10.7183C8.83928 10.8871 8.68709 11.0717 8.5535 11.2695L3.21875 19.1595L3.92675 20.6265L5.33975 21.2813L13.2298 15.9458C13.4278 15.8123 13.6122 15.66 13.781 15.4913L13.8335 15.4388L13.8403 15.216C13.8464 15.0224 13.8919 14.832 13.9738 14.6564C14.0558 14.4809 14.1725 14.3238 14.317 14.1947C14.4614 14.0656 14.6306 13.9671 14.8142 13.9054C14.9979 13.8436 15.1921 13.8197 15.3853 13.8353L21.5135 6.16651L21.4235 6.07576Z" fill="#0074BA"/>
<path d="M22.5748 6.16648L18.8623 2.45398L18.332 2.98423L22.0445 6.69673L18.0673 10.674C17.999 10.7447 17.9612 10.8394 17.962 10.9378C17.9629 11.0361 18.0023 11.1301 18.0719 11.1997C18.1414 11.2692 18.2354 11.3086 18.3338 11.3095C18.4321 11.3103 18.5268 11.2725 18.5975 11.2042L22.5748 7.22698C22.7154 7.08633 22.7944 6.8956 22.7944 6.69673C22.7944 6.49786 22.7154 6.30713 22.5748 6.16648ZM9.05154 10.674L10.4008 9.32548L10.6693 9.11023L15.3883 13.8292L15.173 14.0977L13.8245 15.4477L9.05154 10.674ZM5.33754 21.282L3.21654 19.161L2.95104 19.4257C2.81172 19.5651 2.70122 19.7305 2.62584 19.9126C2.55046 20.0947 2.51168 20.2898 2.51172 20.4869C2.51175 20.6839 2.5506 20.879 2.62604 21.0611C2.70149 21.2431 2.81205 21.4085 2.95141 21.5479C3.09078 21.6872 3.25622 21.7977 3.43829 21.8731C3.62036 21.9484 3.8155 21.9872 4.01255 21.9872C4.20961 21.9871 4.40473 21.9483 4.58678 21.8728C4.76882 21.7974 4.93422 21.6868 5.07354 21.5475L5.33754 21.282Z" fill="#F9C23C"/>
</svg>
