<svg width="25" height="24" viewBox="0 0 25 24" fill="none" xmlns="http://www.w3.org/2000/svg">
<path d="M17.3215 12.8513C16.2171 10.3838 15.1484 8.80876 15.1484 8.80876V8.80688H9.13523C8.77711 9.50813 8.17711 10.6463 7.31461 12.2344C6.26648 14.1656 3.89648 20.3813 3.89648 20.3813C3.89648 20.3813 4.03523 21.2025 6.05273 21.5719C7.39148 21.8175 7.79461 21.6075 8.91398 22.215C9.90211 22.7513 10.5865 23.2519 12.2609 23.2519C13.9352 23.2519 14.3571 22.8375 15.7202 22.215C16.8809 21.6844 17.5071 21.9431 18.8402 21.6694C21.6659 21.09 21.8515 19.0238 21.8515 19.0238C21.8515 19.0238 19.6915 18.1444 17.3215 12.8513Z" fill="#1565C0"/>
<path d="M15.9772 1.27495C15.9809 1.12308 15.8816 0.988076 15.7372 0.946826L15.0884 0.763076C14.8972 0.708701 14.7041 0.832451 14.6722 1.02933L14.3516 3.00745C14.3516 3.00745 13.3578 3.17808 12.2572 4.07433L12.1841 4.07245C11.0834 3.1762 10.0672 3.00745 10.0672 3.00745L9.74468 1.02745C9.73708 0.981485 9.7199 0.937631 9.69425 0.898733C9.66861 0.859835 9.63508 0.826761 9.59583 0.801657C9.55658 0.776552 9.5125 0.759978 9.46643 0.753008C9.42036 0.746039 9.37335 0.74883 9.32843 0.761201L8.67968 0.944951C8.53343 0.986201 8.43406 1.1212 8.43968 1.27308C8.45656 1.8787 8.51468 3.46308 8.68905 5.06808C8.86718 6.71058 9.25156 8.38683 9.19906 8.97745C9.19906 8.97745 10.7066 9.1837 12.1634 9.1987V9.20058H12.2609V9.1987C13.7159 9.18558 15.2253 8.97745 15.2253 8.97745C15.1728 8.38683 15.5572 6.71058 15.7353 5.06808C15.9022 3.46308 15.9603 1.88058 15.9772 1.27495Z" fill="#1565C0"/>
<path d="M12.3497 9.40505C10.6435 9.40505 9.47535 9.2663 9.07785 9.2213C9.05874 9.21901 9.04029 9.21296 9.02353 9.20351C9.00677 9.19406 8.99205 9.18139 8.9802 9.16623C8.96835 9.15108 8.95962 9.13373 8.95449 9.11518C8.94937 9.09664 8.94796 9.07727 8.95035 9.05818L9.06285 8.25568C9.06754 8.21798 9.0869 8.18366 9.11674 8.16014C9.14657 8.13662 9.18447 8.12581 9.22222 8.13005C9.60285 8.1713 10.7391 8.27818 12.3497 8.27818C13.8985 8.27818 14.8303 8.1788 15.1622 8.13755C15.2391 8.12818 15.3103 8.18068 15.3235 8.25755L15.4097 9.05443C15.4228 9.13505 15.3685 9.21193 15.286 9.22318C14.9316 9.26818 14.0147 9.40505 12.3497 9.40505Z" fill="url(#paint0_linear_741_759)"/>
<path d="M14.3421 3.01683C14.1846 2.99245 13.7365 3.1687 13.6202 3.2137C13.1084 3.41058 12.6846 3.68245 12.2777 4.04808C12.2759 4.04995 12.2515 4.06495 12.2215 4.06495C12.1915 4.06495 12.1709 4.04808 12.169 4.0462C11.7621 3.68058 11.3346 3.41245 10.8227 3.21558C10.7046 3.17058 10.2565 2.99433 10.1009 3.0187C9.91335 3.04683 10.1402 3.25495 10.4796 3.5512C10.8209 3.84745 11.3027 4.2637 11.7115 4.6312C11.8521 4.75683 12.0396 4.81308 12.2215 4.82808C12.4034 4.81308 12.5909 4.75683 12.7315 4.6312C13.1402 4.2637 13.6221 3.84745 13.9634 3.5512C14.3046 3.25495 14.5296 3.04495 14.3421 3.01683Z" fill="#0D47A1"/>
<path d="M7.92578 21.7613C8.62516 16.4682 10.4645 11.8519 10.4645 11.8519C10.4645 11.8519 9.84953 17.2932 9.71266 22.6501C9.71266 22.6501 9.17828 22.3126 8.68891 22.0969C8.19953 21.8813 7.92578 21.7613 7.92578 21.7613Z" fill="url(#paint1_linear_741_759)"/>
<path d="M15.0222 22.5488C14.5628 19.7157 14.2872 16.8957 14.4203 14.6082C14.4203 14.6082 15.4609 18.9188 16.9553 21.87C16.9553 21.87 16.4472 21.9432 15.9615 22.1119C15.6222 22.23 15.0222 22.5488 15.0222 22.5488Z" fill="url(#paint2_linear_741_759)"/>
<defs>
<linearGradient id="paint0_linear_741_759" x1="7.55291" y1="8.76568" x2="16.6543" y2="8.76568" gradientUnits="userSpaceOnUse">
<stop stop-color="#03A9F4"/>
<stop offset="0.061" stop-color="#20B4F7"/>
<stop offset="0.147" stop-color="#42C1FA"/>
<stop offset="0.235" stop-color="#5DCBFC"/>
<stop offset="0.323" stop-color="#71D2FE"/>
<stop offset="0.414" stop-color="#7CD7FF"/>
<stop offset="0.509" stop-color="#80D8FF"/>
<stop offset="0.609" stop-color="#7DD7FF"/>
<stop offset="0.696" stop-color="#72D3FE"/>
<stop offset="0.777" stop-color="#60CCFC"/>
<stop offset="0.856" stop-color="#47C3FA"/>
<stop offset="0.931" stop-color="#27B7F7"/>
<stop offset="1" stop-color="#03A9F4"/>
</linearGradient>
<linearGradient id="paint1_linear_741_759" x1="8.83084" y1="22.1176" x2="10.1636" y2="12.1771" gradientUnits="userSpaceOnUse">
<stop offset="0.297" stop-color="#0D47A1"/>
<stop offset="1" stop-color="#0D47A1" stop-opacity="0.2"/>
</linearGradient>
<linearGradient id="paint2_linear_741_759" x1="16.0213" y1="22.5235" x2="14.937" y2="14.6082" gradientUnits="userSpaceOnUse">
<stop offset="0.297" stop-color="#0D47A1"/>
<stop offset="1" stop-color="#0D47A1" stop-opacity="0.2"/>
</linearGradient>
</defs>
</svg>
