<svg width="160" height="64" viewBox="0 0 160 64" fill="none" xmlns="http://www.w3.org/2000/svg">
<path d="M1 59.5093L2.95062 62.6355L4.90123 60.8987L7.6321 55.3409L9.19259 58.1198L10.7531 56.383L13.8741 58.1198L15.4346 54.6462L19.3358 51.1726L22.8469 52.2147L24.4074 47.0043L27.9185 41.4465L31.0395 47.0043L32.6 45.6148L34.1605 48.3937L36.1111 44.5727L41.963 40.0571L43.5235 44.5727L46.2543 39.015L49.7654 36.5834L52.1062 39.015L53.2765 32.4151L55.2272 35.5414L58.7383 32.4151L61.079 34.1519V28.9415L64.9802 27.2047L67.321 34.1519L70.0519 31.373V35.5414L74.3432 32.4151L76.6839 39.015L79.8049 41.4465L82.1457 39.015L84.8765 30.331L87.2173 35.5414L88.7778 30.331L93.4593 34.1519V30.331L95.8 27.2047V32.4151L99.7012 39.015L100.872 34.1519L101.652 29.9836L102.822 32.4151L105.553 27.2047L107.504 29.9836L109.844 38.3202L112.575 36.5834L114.916 32.4151L117.257 34.1519L119.207 29.9836L122.719 28.9415V21.2996L125.84 20.2575V16.0892L130.911 17.826L132.081 9.83666L135.202 6.36305V11.2261L137.153 16.0892H139.104L141.444 5.66833L143.785 11.2261L145.346 8.79458L147.686 8.09986L149.247 3.93153L151.978 6.36305L152.563 4.79993L156.269 1.5L159 8.09986" stroke="#16A34A" stroke-width="2" stroke-linecap="round" stroke-linejoin="round"/>
</svg>
