<svg width="25" height="24" viewBox="0 0 25 24" fill="none" xmlns="http://www.w3.org/2000/svg">
<path d="M12.3821 11.6527C10.3271 11.6527 8.40711 12.4477 6.97461 13.7827V22.5952H17.7596V13.7602C16.2973 12.4043 14.3763 11.6514 12.3821 11.6527Z" fill="url(#paint0_radial_1178_4556)"/>
<path d="M12.3821 11.6527C10.3271 11.6527 8.40711 12.4477 6.97461 13.7827V22.5952H17.7596V13.7602C16.2973 12.4043 14.3763 11.6514 12.3821 11.6527Z" fill="url(#paint1_linear_1178_4556)"/>
<path d="M12.3821 11.6527C10.3271 11.6527 8.40711 12.4477 6.97461 13.7827V22.5952H17.7596V13.7602C16.2973 12.4043 14.3763 11.6514 12.3821 11.6527Z" fill="url(#paint2_linear_1178_4556)"/>
<path d="M12.3821 11.6527C10.3271 11.6527 8.40711 12.4477 6.97461 13.7827V22.5952H17.7596V13.7602C16.2973 12.4043 14.3763 11.6514 12.3821 11.6527Z" fill="url(#paint3_linear_1178_4556)"/>
<path d="M12.3821 11.6527C10.3271 11.6527 8.40711 12.4477 6.97461 13.7827V22.5952H17.7596V13.7602C16.2973 12.4043 14.3763 11.6514 12.3821 11.6527Z" fill="url(#paint4_radial_1178_4556)"/>
<path d="M12.3821 11.6527C10.3271 11.6527 8.40711 12.4477 6.97461 13.7827V22.5952H17.7596V13.7602C16.2973 12.4043 14.3763 11.6514 12.3821 11.6527Z" fill="url(#paint5_radial_1178_4556)"/>
<path d="M12.3821 11.6527C10.3271 11.6527 8.40711 12.4477 6.97461 13.7827V22.5952H17.7596V13.7602C16.2973 12.4043 14.3763 11.6514 12.3821 11.6527Z" fill="url(#paint6_radial_1178_4556)"/>
<path d="M12.6582 11.6527C12.8457 11.6602 13.0407 11.6752 13.2357 11.6902C13.0407 11.6752 12.8532 11.6602 12.6582 11.6527Z" fill="url(#paint7_linear_1178_4556)"/>
<path d="M12.4109 11.6527H12.3809C12.4559 11.6527 12.5234 11.6527 12.5984 11.6602C12.5384 11.6527 12.4709 11.6527 12.4109 11.6527Z" fill="url(#paint8_linear_1178_4556)"/>
<path d="M4.8357 17.1727L4.8132 17.2327C4.4232 18.4702 4.2207 19.7527 4.2207 21.0502V22.5952H6.9732V13.7827C5.98183 14.7108 5.24577 15.8781 4.8357 17.1727Z" fill="url(#paint9_radial_1178_4556)"/>
<path d="M4.8357 17.1727L4.8132 17.2327C4.4232 18.4702 4.2207 19.7527 4.2207 21.0502V22.5952H6.9732V13.7827C5.98183 14.7108 5.24577 15.8781 4.8357 17.1727Z" fill="url(#paint10_radial_1178_4556)"/>
<path d="M4.8357 17.1727L4.8132 17.2327C4.4232 18.4702 4.2207 19.7527 4.2207 21.0502V22.5952H6.9732V13.7827C5.98183 14.7108 5.24577 15.8781 4.8357 17.1727Z" fill="url(#paint11_linear_1178_4556)"/>
<path d="M20.5123 21.0728C20.5198 19.7603 20.3248 18.4553 19.9348 17.2028C19.5148 15.8528 18.7498 14.6753 17.7598 13.7603V22.5953H20.4973L20.5123 21.0728Z" fill="url(#paint12_radial_1178_4556)"/>
<path d="M20.5123 21.0728C20.5198 19.7603 20.3248 18.4553 19.9348 17.2028C19.5148 15.8528 18.7498 14.6753 17.7598 13.7603V22.5953H20.4973L20.5123 21.0728Z" fill="url(#paint13_radial_1178_4556)"/>
<path d="M20.5123 21.0728C20.5198 19.7603 20.3248 18.4553 19.9348 17.2028C19.5148 15.8528 18.7498 14.6753 17.7598 13.7603V22.5953H20.4973L20.5123 21.0728Z" fill="url(#paint14_linear_1178_4556)"/>
<path d="M12.7621 16.9807C12.7621 16.9507 12.7546 16.8284 12.7621 16.7984L14.7586 12.0809C14.7661 12.0584 14.7811 12.0359 14.7886 12.0209C14.0311 11.7809 13.2286 11.6534 12.4036 11.6534C11.5711 11.6534 10.7611 11.7884 9.99609 12.0284C10.0036 12.0434 10.0186 12.0659 10.0261 12.0809L12.0061 16.8509C12.0136 16.8734 12.0473 16.8884 12.0473 16.9184L12.0886 19.6184H12.0961V22.5959H12.6886V19.6184L12.7471 17.0564L12.7621 16.9807Z" fill="url(#paint15_radial_1178_4556)"/>
<path d="M12.7621 16.9807C12.7621 16.9507 12.7546 16.8284 12.7621 16.7984L14.7586 12.0809C14.7661 12.0584 14.7811 12.0359 14.7886 12.0209C14.0311 11.7809 13.2286 11.6534 12.4036 11.6534C11.5711 11.6534 10.7611 11.7884 9.99609 12.0284C10.0036 12.0434 10.0186 12.0659 10.0261 12.0809L12.0061 16.8509C12.0136 16.8734 12.0473 16.8884 12.0473 16.9184L12.0886 19.6184H12.0961V22.5959H12.6886V19.6184L12.7471 17.0564L12.7621 16.9807Z" fill="url(#paint16_radial_1178_4556)"/>
<path d="M12.6582 11.6527C12.8457 11.6602 13.0407 11.6752 13.2357 11.6902C13.0407 11.6752 12.8532 11.6602 12.6582 11.6527Z" fill="url(#paint17_linear_1178_4556)"/>
<path d="M12.4109 11.6527H12.3809C12.4559 11.6527 12.5234 11.6527 12.5984 11.6602C12.5384 11.6527 12.4709 11.6527 12.4109 11.6527Z" fill="url(#paint18_linear_1178_4556)"/>
<g filter="url(#filter0_f_1178_4556)">
<path d="M8.04759 15.2115L8.59659 15.309C8.62455 15.3141 8.65064 15.3266 8.67217 15.3451C8.69369 15.3637 8.70987 15.3877 8.71905 15.4146C8.72822 15.4415 8.73005 15.4703 8.72434 15.4982C8.71863 15.526 8.7056 15.5518 8.68659 15.573L8.15859 16.1505C8.13132 16.1815 8.11691 16.2217 8.1183 16.263C8.1197 16.3042 8.13679 16.3434 8.16609 16.3725L11.5448 19.8217C11.6281 19.905 11.7743 19.8495 11.7743 19.7317V17.2342C11.7743 17.2072 11.7668 17.1862 11.7608 17.1585L9.85584 12.7425C9.85064 12.7241 9.84083 12.7073 9.82734 12.6937C9.20111 12.893 8.6047 13.1761 8.05434 13.5352L7.91484 15.0375C7.91085 15.0779 7.92232 15.1183 7.94696 15.1506C7.97159 15.1829 8.00755 15.2047 8.04759 15.2115Z" fill="#A49EA5"/>
</g>
<g filter="url(#filter1_f_1178_4556)">
<path d="M16.8107 15.2115L16.2617 15.309C16.2338 15.3141 16.2077 15.3266 16.1862 15.3451C16.1646 15.3637 16.1485 15.3877 16.1393 15.4146C16.1301 15.4415 16.1283 15.4703 16.134 15.4982C16.1397 15.526 16.1527 15.5518 16.1717 15.573L16.6997 16.1505C16.727 16.1815 16.7414 16.2217 16.74 16.263C16.7386 16.3042 16.7215 16.3434 16.6922 16.3725L13.3135 19.8217C13.2295 19.905 13.084 19.8495 13.084 19.7317V17.2342C13.084 17.2072 13.0907 17.1862 13.0975 17.1585L15.0025 12.7425C15.0077 12.7241 15.0175 12.7073 15.031 12.6937C15.6572 12.893 16.2536 13.1761 16.804 13.5352L16.9427 15.0375C16.9468 15.0778 16.9354 15.1181 16.9109 15.1504C16.8864 15.1827 16.8506 15.2045 16.8107 15.2115Z" fill="url(#paint19_linear_1178_4556)"/>
</g>
<path d="M12.8781 16.3643C12.6816 16.7505 12.6816 17.0693 12.6816 17.343V19.5863C12.6816 19.7138 12.8376 19.7813 12.9269 19.6838L16.5404 15.9638C16.6079 15.8963 16.6079 15.7913 16.5479 15.7238L15.9831 15.1013C15.9626 15.0785 15.9486 15.0506 15.9424 15.0206C15.9362 14.9906 15.9382 14.9595 15.948 14.9304C15.9579 14.9014 15.9753 14.8755 15.9985 14.8555C16.0216 14.8354 16.0497 14.8219 16.0799 14.8163L16.6671 14.7113C16.71 14.7036 16.7483 14.6799 16.7744 14.6452C16.8006 14.6104 16.8126 14.567 16.8081 14.5238L16.6679 12.9795C16.6654 12.9513 16.6564 12.9241 16.6417 12.8999C16.627 12.8758 16.607 12.8553 16.5831 12.84C16.0154 12.4798 15.404 12.1937 14.7636 11.9888C14.7507 12.0072 14.7406 12.0274 14.7336 12.0488L12.8781 16.3643Z" fill="url(#paint20_linear_1178_4556)"/>
<path d="M12.8781 16.3643C12.6816 16.7505 12.6816 17.0693 12.6816 17.343V19.5863C12.6816 19.7138 12.8376 19.7813 12.9269 19.6838L16.5404 15.9638C16.6079 15.8963 16.6079 15.7913 16.5479 15.7238L15.9831 15.1013C15.9626 15.0785 15.9486 15.0506 15.9424 15.0206C15.9362 14.9906 15.9382 14.9595 15.948 14.9304C15.9579 14.9014 15.9753 14.8755 15.9985 14.8555C16.0216 14.8354 16.0497 14.8219 16.0799 14.8163L16.6671 14.7113C16.71 14.7036 16.7483 14.6799 16.7744 14.6452C16.8006 14.6104 16.8126 14.567 16.8081 14.5238L16.6679 12.9795C16.6654 12.9513 16.6564 12.9241 16.6417 12.8999C16.627 12.8758 16.607 12.8553 16.5831 12.84C16.0154 12.4798 15.404 12.1937 14.7636 11.9888C14.7507 12.0072 14.7406 12.0274 14.7336 12.0488L12.8781 16.3643Z" fill="url(#paint21_linear_1178_4556)"/>
<path d="M12.8781 16.3643C12.6816 16.7505 12.6816 17.0693 12.6816 17.343V19.5863C12.6816 19.7138 12.8376 19.7813 12.9269 19.6838L16.5404 15.9638C16.6079 15.8963 16.6079 15.7913 16.5479 15.7238L15.9831 15.1013C15.9626 15.0785 15.9486 15.0506 15.9424 15.0206C15.9362 14.9906 15.9382 14.9595 15.948 14.9304C15.9579 14.9014 15.9753 14.8755 15.9985 14.8555C16.0216 14.8354 16.0497 14.8219 16.0799 14.8163L16.6671 14.7113C16.71 14.7036 16.7483 14.6799 16.7744 14.6452C16.8006 14.6104 16.8126 14.567 16.8081 14.5238L16.6679 12.9795C16.6654 12.9513 16.6564 12.9241 16.6417 12.8999C16.627 12.8758 16.607 12.8553 16.5831 12.84C16.0154 12.4798 15.404 12.1937 14.7636 11.9888C14.7507 12.0072 14.7406 12.0274 14.7336 12.0488L12.8781 16.3643Z" fill="url(#paint22_linear_1178_4556)"/>
<path d="M12.8781 16.3643C12.6816 16.7505 12.6816 17.0693 12.6816 17.343V19.5863C12.6816 19.7138 12.8376 19.7813 12.9269 19.6838L16.5404 15.9638C16.6079 15.8963 16.6079 15.7913 16.5479 15.7238L15.9831 15.1013C15.9626 15.0785 15.9486 15.0506 15.9424 15.0206C15.9362 14.9906 15.9382 14.9595 15.948 14.9304C15.9579 14.9014 15.9753 14.8755 15.9985 14.8555C16.0216 14.8354 16.0497 14.8219 16.0799 14.8163L16.6671 14.7113C16.71 14.7036 16.7483 14.6799 16.7744 14.6452C16.8006 14.6104 16.8126 14.567 16.8081 14.5238L16.6679 12.9795C16.6654 12.9513 16.6564 12.9241 16.6417 12.8999C16.627 12.8758 16.607 12.8553 16.5831 12.84C16.0154 12.4798 15.404 12.1937 14.7636 11.9888C14.7507 12.0072 14.7406 12.0274 14.7336 12.0488L12.8781 16.3643Z" fill="url(#paint23_radial_1178_4556)"/>
<path d="M12.8781 16.3643C12.6816 16.7505 12.6816 17.0693 12.6816 17.343V19.5863C12.6816 19.7138 12.8376 19.7813 12.9269 19.6838L16.5404 15.9638C16.6079 15.8963 16.6079 15.7913 16.5479 15.7238L15.9831 15.1013C15.9626 15.0785 15.9486 15.0506 15.9424 15.0206C15.9362 14.9906 15.9382 14.9595 15.948 14.9304C15.9579 14.9014 15.9753 14.8755 15.9985 14.8555C16.0216 14.8354 16.0497 14.8219 16.0799 14.8163L16.6671 14.7113C16.71 14.7036 16.7483 14.6799 16.7744 14.6452C16.8006 14.6104 16.8126 14.567 16.8081 14.5238L16.6679 12.9795C16.6654 12.9513 16.6564 12.9241 16.6417 12.8999C16.627 12.8758 16.607 12.8553 16.5831 12.84C16.0154 12.4798 15.404 12.1937 14.7636 11.9888C14.7507 12.0072 14.7406 12.0274 14.7336 12.0488L12.8781 16.3643Z" fill="url(#paint24_radial_1178_4556)"/>
<path d="M12.8781 16.3643C12.6816 16.7505 12.6816 17.0693 12.6816 17.343V19.5863C12.6816 19.7138 12.8376 19.7813 12.9269 19.6838L16.5404 15.9638C16.6079 15.8963 16.6079 15.7913 16.5479 15.7238L15.9831 15.1013C15.9626 15.0785 15.9486 15.0506 15.9424 15.0206C15.9362 14.9906 15.9382 14.9595 15.948 14.9304C15.9579 14.9014 15.9753 14.8755 15.9985 14.8555C16.0216 14.8354 16.0497 14.8219 16.0799 14.8163L16.6671 14.7113C16.71 14.7036 16.7483 14.6799 16.7744 14.6452C16.8006 14.6104 16.8126 14.567 16.8081 14.5238L16.6679 12.9795C16.6654 12.9513 16.6564 12.9241 16.6417 12.8999C16.627 12.8758 16.607 12.8553 16.5831 12.84C16.0154 12.4798 15.404 12.1937 14.7636 11.9888C14.7507 12.0072 14.7406 12.0274 14.7336 12.0488L12.8781 16.3643Z" fill="url(#paint25_radial_1178_4556)"/>
<path d="M11.9204 16.3643C12.1176 16.7505 12.1176 17.0693 12.1176 17.343V19.5863C12.1176 19.7138 11.9609 19.7813 11.8716 19.6838L8.25815 15.9638C8.22664 15.9322 8.20832 15.8898 8.20693 15.8453C8.20554 15.8007 8.22117 15.7572 8.25065 15.7238L8.81615 15.1013C8.9054 15.0038 8.85365 14.8388 8.7194 14.8163L8.13215 14.7113C8.08933 14.7036 8.05101 14.6799 8.02487 14.6452C7.99872 14.6104 7.98668 14.567 7.99115 14.5238L8.1314 12.9795C8.13393 12.9513 8.14289 12.9241 8.15758 12.8999C8.17227 12.8758 8.19231 12.8553 8.21615 12.84C8.78384 12.4798 9.39531 12.1937 10.0356 11.9888C10.0486 12.0072 10.0587 12.0274 10.0656 12.0488L11.9204 16.3643Z" fill="url(#paint26_radial_1178_4556)"/>
<path d="M11.9204 16.3643C12.1176 16.7505 12.1176 17.0693 12.1176 17.343V19.5863C12.1176 19.7138 11.9609 19.7813 11.8716 19.6838L8.25815 15.9638C8.22664 15.9322 8.20832 15.8898 8.20693 15.8453C8.20554 15.8007 8.22117 15.7572 8.25065 15.7238L8.81615 15.1013C8.9054 15.0038 8.85365 14.8388 8.7194 14.8163L8.13215 14.7113C8.08933 14.7036 8.05101 14.6799 8.02487 14.6452C7.99872 14.6104 7.98668 14.567 7.99115 14.5238L8.1314 12.9795C8.13393 12.9513 8.14289 12.9241 8.15758 12.8999C8.17227 12.8758 8.19231 12.8553 8.21615 12.84C8.78384 12.4798 9.39531 12.1937 10.0356 11.9888C10.0486 12.0072 10.0587 12.0274 10.0656 12.0488L11.9204 16.3643Z" fill="url(#paint27_radial_1178_4556)"/>
<path d="M11.9204 16.3643C12.1176 16.7505 12.1176 17.0693 12.1176 17.343V19.5863C12.1176 19.7138 11.9609 19.7813 11.8716 19.6838L8.25815 15.9638C8.22664 15.9322 8.20832 15.8898 8.20693 15.8453C8.20554 15.8007 8.22117 15.7572 8.25065 15.7238L8.81615 15.1013C8.9054 15.0038 8.85365 14.8388 8.7194 14.8163L8.13215 14.7113C8.08933 14.7036 8.05101 14.6799 8.02487 14.6452C7.99872 14.6104 7.98668 14.567 7.99115 14.5238L8.1314 12.9795C8.13393 12.9513 8.14289 12.9241 8.15758 12.8999C8.17227 12.8758 8.19231 12.8553 8.21615 12.84C8.78384 12.4798 9.39531 12.1937 10.0356 11.9888C10.0486 12.0072 10.0587 12.0274 10.0656 12.0488L11.9204 16.3643Z" fill="url(#paint28_linear_1178_4556)"/>
<path d="M11.9204 16.3643C12.1176 16.7505 12.1176 17.0693 12.1176 17.343V19.5863C12.1176 19.7138 11.9609 19.7813 11.8716 19.6838L8.25815 15.9638C8.22664 15.9322 8.20832 15.8898 8.20693 15.8453C8.20554 15.8007 8.22117 15.7572 8.25065 15.7238L8.81615 15.1013C8.9054 15.0038 8.85365 14.8388 8.7194 14.8163L8.13215 14.7113C8.08933 14.7036 8.05101 14.6799 8.02487 14.6452C7.99872 14.6104 7.98668 14.567 7.99115 14.5238L8.1314 12.9795C8.13393 12.9513 8.14289 12.9241 8.15758 12.8999C8.17227 12.8758 8.19231 12.8553 8.21615 12.84C8.78384 12.4798 9.39531 12.1937 10.0356 11.9888C10.0486 12.0072 10.0587 12.0274 10.0656 12.0488L11.9204 16.3643Z" fill="url(#paint29_radial_1178_4556)"/>
<path d="M11.9204 16.3643C12.1176 16.7505 12.1176 17.0693 12.1176 17.343V19.5863C12.1176 19.7138 11.9609 19.7813 11.8716 19.6838L8.25815 15.9638C8.22664 15.9322 8.20832 15.8898 8.20693 15.8453C8.20554 15.8007 8.22117 15.7572 8.25065 15.7238L8.81615 15.1013C8.9054 15.0038 8.85365 14.8388 8.7194 14.8163L8.13215 14.7113C8.08933 14.7036 8.05101 14.6799 8.02487 14.6452C7.99872 14.6104 7.98668 14.567 7.99115 14.5238L8.1314 12.9795C8.13393 12.9513 8.14289 12.9241 8.15758 12.8999C8.17227 12.8758 8.19231 12.8553 8.21615 12.84C8.78384 12.4798 9.39531 12.1937 10.0356 11.9888C10.0486 12.0072 10.0587 12.0274 10.0656 12.0488L11.9204 16.3643Z" fill="url(#paint30_radial_1178_4556)"/>
<path d="M11.9204 16.3643C12.1176 16.7505 12.1176 17.0693 12.1176 17.343V19.5863C12.1176 19.7138 11.9609 19.7813 11.8716 19.6838L8.25815 15.9638C8.22664 15.9322 8.20832 15.8898 8.20693 15.8453C8.20554 15.8007 8.22117 15.7572 8.25065 15.7238L8.81615 15.1013C8.9054 15.0038 8.85365 14.8388 8.7194 14.8163L8.13215 14.7113C8.08933 14.7036 8.05101 14.6799 8.02487 14.6452C7.99872 14.6104 7.98668 14.567 7.99115 14.5238L8.1314 12.9795C8.13393 12.9513 8.14289 12.9241 8.15758 12.8999C8.17227 12.8758 8.19231 12.8553 8.21615 12.84C8.78384 12.4798 9.39531 12.1937 10.0356 11.9888C10.0486 12.0072 10.0587 12.0274 10.0656 12.0488L11.9204 16.3643Z" fill="url(#paint31_radial_1178_4556)"/>
<path d="M12.3816 14.1353C12.1748 14.1353 11.97 14.0945 11.7789 14.0154C11.5878 13.9362 11.4142 13.8202 11.2679 13.674C11.1217 13.5277 11.0057 13.3541 10.9265 13.163C10.8474 12.9719 10.8066 12.7671 10.8066 12.5603V11.5253H13.9566V12.5603C13.9566 12.978 13.7907 13.3786 13.4953 13.674C13.2 13.9693 12.7994 14.1353 12.3816 14.1353Z" fill="url(#paint32_radial_1178_4556)"/>
<path fill-rule="evenodd" clip-rule="evenodd" d="M12.3427 11.4361C11.6983 11.4361 11.0802 11.6921 10.6245 12.1478C10.1688 12.6035 9.91273 13.2216 9.91273 13.8661V15.4786H9.17773V13.8661C9.17773 13.0266 9.51119 12.2216 10.1047 11.6281C10.6983 11.0345 11.5033 10.701 12.3427 10.701C13.1821 10.701 13.9872 11.0345 14.5807 11.6281C15.1743 12.2216 15.5077 13.0266 15.5077 13.8661V19.206H14.7727V13.8661C14.7727 13.2216 14.5167 12.6035 14.061 12.1478C13.6053 11.6921 12.9872 11.4361 12.3427 11.4361Z" fill="#5A4B7E"/>
<path fill-rule="evenodd" clip-rule="evenodd" d="M12.3427 11.4361C11.6983 11.4361 11.0802 11.6921 10.6245 12.1478C10.1688 12.6035 9.91273 13.2216 9.91273 13.8661V15.4786H9.17773V13.8661C9.17773 13.0266 9.51119 12.2216 10.1047 11.6281C10.6983 11.0345 11.5033 10.701 12.3427 10.701C13.1821 10.701 13.9872 11.0345 14.5807 11.6281C15.1743 12.2216 15.5077 13.0266 15.5077 13.8661V19.206H14.7727V13.8661C14.7727 13.2216 14.5167 12.6035 14.061 12.1478C13.6053 11.6921 12.9872 11.4361 12.3427 11.4361Z" fill="url(#paint33_linear_1178_4556)"/>
<path fill-rule="evenodd" clip-rule="evenodd" d="M12.3427 11.4361C11.6983 11.4361 11.0802 11.6921 10.6245 12.1478C10.1688 12.6035 9.91273 13.2216 9.91273 13.8661V15.4786H9.17773V13.8661C9.17773 13.0266 9.51119 12.2216 10.1047 11.6281C10.6983 11.0345 11.5033 10.701 12.3427 10.701C13.1821 10.701 13.9872 11.0345 14.5807 11.6281C15.1743 12.2216 15.5077 13.0266 15.5077 13.8661V19.206H14.7727V13.8661C14.7727 13.2216 14.5167 12.6035 14.061 12.1478C13.6053 11.6921 12.9872 11.4361 12.3427 11.4361Z" fill="url(#paint34_radial_1178_4556)"/>
<path fill-rule="evenodd" clip-rule="evenodd" d="M12.3427 11.4361C11.6983 11.4361 11.0802 11.6921 10.6245 12.1478C10.1688 12.6035 9.91273 13.2216 9.91273 13.8661V15.4786H9.17773V13.8661C9.17773 13.0266 9.51119 12.2216 10.1047 11.6281C10.6983 11.0345 11.5033 10.701 12.3427 10.701C13.1821 10.701 13.9872 11.0345 14.5807 11.6281C15.1743 12.2216 15.5077 13.0266 15.5077 13.8661V19.206H14.7727V13.8661C14.7727 13.2216 14.5167 12.6035 14.061 12.1478C13.6053 11.6921 12.9872 11.4361 12.3427 11.4361Z" fill="url(#paint35_radial_1178_4556)"/>
<path fill-rule="evenodd" clip-rule="evenodd" d="M12.3427 11.4361C11.6983 11.4361 11.0802 11.6921 10.6245 12.1478C10.1688 12.6035 9.91273 13.2216 9.91273 13.8661V15.4786H9.17773V13.8661C9.17773 13.0266 9.51119 12.2216 10.1047 11.6281C10.6983 11.0345 11.5033 10.701 12.3427 10.701C13.1821 10.701 13.9872 11.0345 14.5807 11.6281C15.1743 12.2216 15.5077 13.0266 15.5077 13.8661V19.206H14.7727V13.8661C14.7727 13.2216 14.5167 12.6035 14.061 12.1478C13.6053 11.6921 12.9872 11.4361 12.3427 11.4361Z" fill="url(#paint36_radial_1178_4556)"/>
<g filter="url(#filter2_f_1178_4556)">
<path d="M14.5247 20.3145C14.6351 20.3179 14.7451 20.299 14.848 20.2591C14.951 20.2191 15.0449 20.1589 15.1241 20.082C15.2034 20.0051 15.2664 19.9131 15.3094 19.8114C15.3524 19.7097 15.3746 19.6004 15.3746 19.4899C15.3746 19.3795 15.3524 19.2702 15.3094 19.1685C15.2664 19.0668 15.2034 18.9747 15.1241 18.8978C15.0449 18.8209 14.951 18.7607 14.848 18.7208C14.7451 18.6808 14.6351 18.662 14.5247 18.6653C14.3103 18.6718 14.1069 18.7615 13.9575 18.9154C13.8081 19.0694 13.7246 19.2754 13.7246 19.4899C13.7246 19.7044 13.8081 19.9105 13.9575 20.0644C14.1069 20.2184 14.3103 20.3081 14.5247 20.3145Z" fill="#AFA3C5"/>
</g>
<path d="M15.1481 20.1428C15.3988 20.1428 15.6391 20.0432 15.8163 19.866C15.9936 19.6888 16.0931 19.4484 16.0931 19.1978C16.0931 18.9472 15.9936 18.7068 15.8163 18.5296C15.6391 18.3524 15.3988 18.2528 15.1481 18.2528C14.8975 18.2528 14.6571 18.3524 14.4799 18.5296C14.3027 18.7068 14.2031 18.9472 14.2031 19.1978C14.2031 19.4484 14.3027 19.6888 14.4799 19.866C14.6571 20.0432 14.8975 20.1428 15.1481 20.1428Z" fill="url(#paint37_radial_1178_4556)"/>
<g filter="url(#filter3_i_1178_4556)">
<path d="M15.1477 19.7303C15.289 19.7303 15.4244 19.6742 15.5243 19.5743C15.6241 19.4745 15.6802 19.339 15.6802 19.1978C15.6802 19.0566 15.6241 18.9211 15.5243 18.8212C15.4244 18.7214 15.289 18.6653 15.1477 18.6653C15.0065 18.6653 14.8711 18.7214 14.7712 18.8212C14.6713 18.9211 14.6152 19.0566 14.6152 19.1978C14.6152 19.339 14.6713 19.4745 14.7712 19.5743C14.8711 19.6742 15.0065 19.7303 15.1477 19.7303Z" fill="url(#paint38_radial_1178_4556)"/>
</g>
<g filter="url(#filter4_i_1178_4556)">
<path fill-rule="evenodd" clip-rule="evenodd" d="M9.54485 15.741C8.83985 15.741 8.26235 16.3125 8.26235 17.0235V19.4977H8.76485C8.86241 19.4977 8.95598 19.5365 9.02497 19.6055C9.09396 19.6745 9.13272 19.768 9.13272 19.8656C9.13272 19.9632 9.09396 20.0567 9.02497 20.1257C8.95598 20.1947 8.86241 20.2335 8.76485 20.2335H8.01485C7.95077 20.2337 7.88729 20.2212 7.82805 20.1968C7.76882 20.1723 7.715 20.1364 7.66969 20.0911C7.62438 20.0458 7.58848 19.992 7.56405 19.9328C7.53962 19.8735 7.52715 19.8101 7.52735 19.746V17.0235C7.52735 16.4884 7.7399 15.9752 8.11826 15.5969C8.49661 15.2185 9.00977 15.006 9.54485 15.006C10.0799 15.006 10.5931 15.2185 10.9714 15.5969C11.3498 15.9752 11.5623 16.4884 11.5623 17.0235V19.746C11.5623 20.016 11.3448 20.2335 11.0748 20.2335H10.3773C10.2798 20.2335 10.1862 20.1947 10.1172 20.1257C10.0482 20.0567 10.0095 19.9632 10.0095 19.8656C10.0095 19.768 10.0482 19.6745 10.1172 19.6055C10.1862 19.5365 10.2798 19.4977 10.3773 19.4977H10.8273V17.0227C10.8271 16.6827 10.6919 16.3567 10.4514 16.1164C10.211 15.876 9.88486 15.741 9.54485 15.741Z" fill="url(#paint39_linear_1178_4556)"/>
</g>
<g filter="url(#filter5_f_1178_4556)">
<path d="M8.78602 19.815H8.03602C7.96852 19.815 7.91602 19.7625 7.91602 19.695V16.9725C7.91602 16.5349 8.08985 16.1152 8.39929 15.8058C8.70872 15.4963 9.12841 15.3225 9.56602 15.3225C10.0036 15.3225 10.4233 15.4963 10.7327 15.8058C11.0422 16.1152 11.216 16.5349 11.216 16.9725V19.695C11.216 19.7625 11.1635 19.815 11.096 19.815H10.3985" stroke="#6A5D85" stroke-width="0.225" stroke-miterlimit="10" stroke-linecap="round" stroke-linejoin="round"/>
</g>
<path fill-rule="evenodd" clip-rule="evenodd" d="M7.52734 19.7378V17.8853H8.26234V19.4903H8.44984V20.2253H8.01484C7.9508 20.2254 7.88736 20.2128 7.82817 20.1883C7.76898 20.1639 7.7152 20.128 7.66991 20.0827C7.62462 20.0374 7.58872 19.9836 7.56425 19.9244C7.53979 19.8652 7.52725 19.8018 7.52734 19.7378Z" fill="url(#paint40_linear_1178_4556)"/>
<path fill-rule="evenodd" clip-rule="evenodd" d="M7.52734 19.7378V17.8853H8.26234V19.4903H8.44984V20.2253H8.01484C7.9508 20.2254 7.88736 20.2128 7.82817 20.1883C7.76898 20.1639 7.7152 20.128 7.66991 20.0827C7.62462 20.0374 7.58872 19.9836 7.56425 19.9244C7.53979 19.8652 7.52725 19.8018 7.52734 19.7378Z" fill="url(#paint41_radial_1178_4556)"/>
<path fill-rule="evenodd" clip-rule="evenodd" d="M11.5631 17.8927V19.7452C11.5634 19.8093 11.551 19.8729 11.5266 19.9322C11.5023 19.9915 11.4664 20.0455 11.421 20.0908C11.3757 20.1362 11.3219 20.1722 11.2626 20.1967C11.2033 20.2211 11.1398 20.2336 11.0756 20.2335H10.6406V19.4977H10.8281V17.8927H11.5631Z" fill="url(#paint42_linear_1178_4556)"/>
<path fill-rule="evenodd" clip-rule="evenodd" d="M11.5631 17.8927V19.7452C11.5634 19.8093 11.551 19.8729 11.5266 19.9322C11.5023 19.9915 11.4664 20.0455 11.421 20.0908C11.3757 20.1362 11.3219 20.1722 11.2626 20.1967C11.2033 20.2211 11.1398 20.2336 11.0756 20.2335H10.6406V19.4977H10.8281V17.8927H11.5631Z" fill="url(#paint43_linear_1178_4556)"/>
<path d="M16.0262 9.24455C16.2775 9.23705 16.5137 9.15155 16.705 9.01355V9.71105C16.705 10.3816 16.306 10.9786 15.6992 11.2261C15.8267 10.9538 15.9145 10.6576 15.9587 10.3411L16.0262 9.24455Z" fill="url(#paint44_radial_1178_4556)"/>
<path d="M16.0262 9.24455C16.2775 9.23705 16.5137 9.15155 16.705 9.01355V9.71105C16.705 10.3816 16.306 10.9786 15.6992 11.2261C15.8267 10.9538 15.9145 10.6576 15.9587 10.3411L16.0262 9.24455Z" fill="url(#paint45_radial_1178_4556)"/>
<path d="M8.73539 9.24455C8.49122 9.23666 8.25493 9.15625 8.05664 9.01355V9.71105C8.05664 10.3816 8.45564 10.9786 9.06164 11.2261C8.93125 10.9458 8.84401 10.6474 8.80289 10.3411L8.73539 9.24455Z" fill="url(#paint46_radial_1178_4556)"/>
<path d="M8.73539 9.24455C8.49122 9.23666 8.25493 9.15625 8.05664 9.01355V9.71105C8.05664 10.3816 8.45564 10.9786 9.06164 11.2261C8.93125 10.9458 8.84401 10.6474 8.80289 10.3411L8.73539 9.24455Z" fill="url(#paint47_radial_1178_4556)"/>
<g filter="url(#filter6_ii_1178_4556)">
<path d="M8.76248 10.3814C8.85552 11.0884 9.20255 11.7373 9.73881 12.2072C10.2751 12.6771 10.964 12.9358 11.677 12.9352H13.0915C13.8045 12.9358 14.4934 12.6771 15.0297 12.2072C15.5659 11.7373 15.9129 11.0884 16.006 10.3814C16.0945 8.96844 16.1837 7.56144 16.249 6.14919C16.2459 5.8721 16.1371 5.60665 15.9449 5.40705C15.7527 5.20744 15.4915 5.08874 15.2147 5.07519H14.1647C13.4485 5.07519 12.7997 4.65294 12.5057 3.99294C12.4689 3.90063 12.4053 3.82144 12.3231 3.76557C12.2409 3.7097 12.1439 3.67971 12.0445 3.67944H11.0897C9.70523 3.67944 8.58398 4.81344 8.58398 6.21369C8.58398 7.60869 8.67098 8.98194 8.76248 10.3814Z" fill="url(#paint48_radial_1178_4556)"/>
</g>
<path d="M8.76248 10.3814C8.85552 11.0884 9.20255 11.7373 9.73881 12.2072C10.2751 12.6771 10.964 12.9358 11.677 12.9352H13.0915C13.8045 12.9358 14.4934 12.6771 15.0297 12.2072C15.5659 11.7373 15.9129 11.0884 16.006 10.3814C16.0945 8.96844 16.1837 7.56144 16.249 6.14919C16.2459 5.8721 16.1371 5.60665 15.9449 5.40705C15.7527 5.20744 15.4915 5.08874 15.2147 5.07519H14.1647C13.4485 5.07519 12.7997 4.65294 12.5057 3.99294C12.4689 3.90063 12.4053 3.82144 12.3231 3.76557C12.2409 3.7097 12.1439 3.67971 12.0445 3.67944H11.0897C9.70523 3.67944 8.58398 4.81344 8.58398 6.21369C8.58398 7.60869 8.67098 8.98194 8.76248 10.3814Z" fill="url(#paint49_radial_1178_4556)"/>
<path d="M8.76248 10.3814C8.85552 11.0884 9.20255 11.7373 9.73881 12.2072C10.2751 12.6771 10.964 12.9358 11.677 12.9352H13.0915C13.8045 12.9358 14.4934 12.6771 15.0297 12.2072C15.5659 11.7373 15.9129 11.0884 16.006 10.3814C16.0945 8.96844 16.1837 7.56144 16.249 6.14919C16.2459 5.8721 16.1371 5.60665 15.9449 5.40705C15.7527 5.20744 15.4915 5.08874 15.2147 5.07519H14.1647C13.4485 5.07519 12.7997 4.65294 12.5057 3.99294C12.4689 3.90063 12.4053 3.82144 12.3231 3.76557C12.2409 3.7097 12.1439 3.67971 12.0445 3.67944H11.0897C9.70523 3.67944 8.58398 4.81344 8.58398 6.21369C8.58398 7.60869 8.67098 8.98194 8.76248 10.3814Z" fill="url(#paint50_radial_1178_4556)"/>
<path d="M8.76248 10.3814C8.85552 11.0884 9.20255 11.7373 9.73881 12.2072C10.2751 12.6771 10.964 12.9358 11.677 12.9352H13.0915C13.8045 12.9358 14.4934 12.6771 15.0297 12.2072C15.5659 11.7373 15.9129 11.0884 16.006 10.3814C16.0945 8.96844 16.1837 7.56144 16.249 6.14919C16.2459 5.8721 16.1371 5.60665 15.9449 5.40705C15.7527 5.20744 15.4915 5.08874 15.2147 5.07519H14.1647C13.4485 5.07519 12.7997 4.65294 12.5057 3.99294C12.4689 3.90063 12.4053 3.82144 12.3231 3.76557C12.2409 3.7097 12.1439 3.67971 12.0445 3.67944H11.0897C9.70523 3.67944 8.58398 4.81344 8.58398 6.21369C8.58398 7.60869 8.67098 8.98194 8.76248 10.3814Z" fill="url(#paint51_radial_1178_4556)"/>
<path d="M8.76248 10.3814C8.85552 11.0884 9.20255 11.7373 9.73881 12.2072C10.2751 12.6771 10.964 12.9358 11.677 12.9352H13.0915C13.8045 12.9358 14.4934 12.6771 15.0297 12.2072C15.5659 11.7373 15.9129 11.0884 16.006 10.3814C16.0945 8.96844 16.1837 7.56144 16.249 6.14919C16.2459 5.8721 16.1371 5.60665 15.9449 5.40705C15.7527 5.20744 15.4915 5.08874 15.2147 5.07519H14.1647C13.4485 5.07519 12.7997 4.65294 12.5057 3.99294C12.4689 3.90063 12.4053 3.82144 12.3231 3.76557C12.2409 3.7097 12.1439 3.67971 12.0445 3.67944H11.0897C9.70523 3.67944 8.58398 4.81344 8.58398 6.21369C8.58398 7.60869 8.67098 8.98194 8.76248 10.3814Z" fill="url(#paint52_radial_1178_4556)"/>
<g filter="url(#filter7_f_1178_4556)">
<path d="M12.0162 7.91778L11.54 9.29703C11.459 9.58053 11.654 9.86403 11.93 9.86403H12.5202C12.797 9.86403 12.992 9.57603 12.9102 9.29703L12.5127 7.91778C12.4265 7.61253 12.1055 7.61253 12.0162 7.91778Z" fill="#EE9020"/>
</g>
<g filter="url(#filter8_f_1178_4556)">
<path d="M12.0933 7.77154L11.6943 9.15004C11.6133 9.43429 11.8083 9.71779 12.0843 9.71779H12.6745C12.9513 9.71779 13.147 9.42979 13.0645 9.15004L12.667 7.77154C12.5808 7.46629 12.1825 7.46629 12.0933 7.77154Z" fill="url(#paint53_linear_1178_4556)"/>
<path d="M12.0933 7.77154L11.6943 9.15004C11.6133 9.43429 11.8083 9.71779 12.0843 9.71779H12.6745C12.9513 9.71779 13.147 9.42979 13.0645 9.15004L12.667 7.77154C12.5808 7.46629 12.1825 7.46629 12.0933 7.77154Z" fill="url(#paint54_linear_1178_4556)"/>
<path d="M12.0933 7.77154L11.6943 9.15004C11.6133 9.43429 11.8083 9.71779 12.0843 9.71779H12.6745C12.9513 9.71779 13.147 9.42979 13.0645 9.15004L12.667 7.77154C12.5808 7.46629 12.1825 7.46629 12.0933 7.77154Z" fill="url(#paint55_linear_1178_4556)"/>
<path d="M12.0933 7.77154L11.6943 9.15004C11.6133 9.43429 11.8083 9.71779 12.0843 9.71779H12.6745C12.9513 9.71779 13.147 9.42979 13.0645 9.15004L12.667 7.77154C12.5808 7.46629 12.1825 7.46629 12.0933 7.77154Z" fill="url(#paint56_linear_1178_4556)"/>
</g>
<g filter="url(#filter9_f_1178_4556)">
<path d="M11.3677 10.1835C11.6595 10.3357 12.0082 10.4235 12.3802 10.4235C12.7552 10.4235 13.1002 10.3357 13.3927 10.1835C13.4257 10.1664 13.4641 10.1604 13.5007 10.1665C13.5374 10.1726 13.571 10.1904 13.5967 10.2172C13.623 10.2438 13.6392 10.2788 13.6425 10.316C13.6458 10.3532 13.6359 10.3905 13.6147 10.4212M11.3677 10.1835L13.5675 10.3905M11.3677 10.1835C11.3345 10.1663 11.2959 10.1604 11.259 10.1667C11.2222 10.1731 11.1884 10.1914 11.163 10.2187C11.1369 10.2452 11.1209 10.2799 11.1178 10.3169C11.1146 10.3539 11.1245 10.3908 11.1457 10.4212M11.3677 10.1835L11.193 10.3905M13.6147 10.4212L13.5675 10.3905M13.6147 10.4212C13.4795 10.6247 13.296 10.7915 13.0806 10.9067C12.8651 11.0219 12.6245 11.0819 12.3802 11.0812C12.1359 11.0819 11.8953 11.0219 11.6798 10.9067C11.4644 10.7915 11.2809 10.6247 11.1457 10.4212M13.5675 10.3905C13.4374 10.5863 13.2615 10.7467 13.0542 10.8575C12.8469 10.9682 12.6153 11.0258 12.3802 11.025C12.1453 11.0257 11.9138 10.9681 11.7066 10.8574C11.4994 10.7467 11.3229 10.5862 11.193 10.3905M11.1457 10.4212L11.193 10.3905" stroke="url(#paint57_radial_1178_4556)" stroke-width="0.1125"/>
</g>
<path d="M12.3806 10.4797C11.9996 10.4797 11.6418 10.3897 11.3411 10.2337C11.2391 10.1812 11.1281 10.2967 11.1933 10.3904C11.4446 10.7707 11.8818 11.0249 12.3806 11.0249C12.8793 11.0249 13.3166 10.7707 13.5678 10.3904C13.6331 10.2929 13.5228 10.1812 13.4193 10.2329C13.0981 10.3979 12.7417 10.4828 12.3806 10.4804" fill="url(#paint58_radial_1178_4556)"/>
<g filter="url(#filter10_ii_1178_4556)">
<path d="M16.0226 3.3255C16.4081 3.45825 16.7546 3.7275 16.9729 4.11375C17.1398 4.40484 17.2209 4.73723 17.2068 5.07249C17.1928 5.40775 17.0841 5.73217 16.8934 6.00825C16.7617 6.20182 16.6912 6.43042 16.6909 6.6645V7.5555C16.5399 7.45449 16.3695 7.38604 16.1906 7.3545L16.2491 6.14925C16.246 5.87216 16.1372 5.60671 15.945 5.40711C15.7528 5.2075 15.4916 5.0888 15.2149 5.07525H14.1649C13.4486 5.07525 12.7999 4.653 12.5059 3.993C12.469 3.90069 12.4054 3.8215 12.3232 3.76563C12.241 3.70976 12.144 3.67976 12.0446 3.6795H11.0899C9.70536 3.6795 8.58411 4.8135 8.58411 6.21375L8.60661 7.3665C8.41405 7.3912 8.2295 7.45887 8.06661 7.5645V6.6645C8.06628 6.43042 7.99574 6.20182 7.86411 6.00825C7.68249 5.7407 7.57663 5.42899 7.55775 5.10616C7.53886 4.78333 7.60767 4.46141 7.75686 4.1745C7.96279 3.77949 8.311 3.47739 8.73111 3.32925C9.16156 3.17759 9.52762 2.88401 9.76911 2.49675C9.98894 2.14242 10.3285 1.87858 10.7261 1.7531C11.1238 1.62761 11.5532 1.64877 11.9366 1.81275C12.0778 1.8745 12.2303 1.90637 12.3844 1.90637C12.5385 1.90637 12.6909 1.8745 12.8321 1.81275C13.0429 1.72425 13.2739 1.67175 13.5161 1.67175C14.1491 1.67175 14.7011 2.01375 15.0086 2.52075C15.2389 2.90325 15.6011 3.18075 16.0226 3.3255Z" fill="url(#paint59_linear_1178_4556)"/>
<path d="M16.0226 3.3255C16.4081 3.45825 16.7546 3.7275 16.9729 4.11375C17.1398 4.40484 17.2209 4.73723 17.2068 5.07249C17.1928 5.40775 17.0841 5.73217 16.8934 6.00825C16.7617 6.20182 16.6912 6.43042 16.6909 6.6645V7.5555C16.5399 7.45449 16.3695 7.38604 16.1906 7.3545L16.2491 6.14925C16.246 5.87216 16.1372 5.60671 15.945 5.40711C15.7528 5.2075 15.4916 5.0888 15.2149 5.07525H14.1649C13.4486 5.07525 12.7999 4.653 12.5059 3.993C12.469 3.90069 12.4054 3.8215 12.3232 3.76563C12.241 3.70976 12.144 3.67976 12.0446 3.6795H11.0899C9.70536 3.6795 8.58411 4.8135 8.58411 6.21375L8.60661 7.3665C8.41405 7.3912 8.2295 7.45887 8.06661 7.5645V6.6645C8.06628 6.43042 7.99574 6.20182 7.86411 6.00825C7.68249 5.7407 7.57663 5.42899 7.55775 5.10616C7.53886 4.78333 7.60767 4.46141 7.75686 4.1745C7.96279 3.77949 8.311 3.47739 8.73111 3.32925C9.16156 3.17759 9.52762 2.88401 9.76911 2.49675C9.98894 2.14242 10.3285 1.87858 10.7261 1.7531C11.1238 1.62761 11.5532 1.64877 11.9366 1.81275C12.0778 1.8745 12.2303 1.90637 12.3844 1.90637C12.5385 1.90637 12.6909 1.8745 12.8321 1.81275C13.0429 1.72425 13.2739 1.67175 13.5161 1.67175C14.1491 1.67175 14.7011 2.01375 15.0086 2.52075C15.2389 2.90325 15.6011 3.18075 16.0226 3.3255Z" fill="url(#paint60_radial_1178_4556)"/>
<path d="M16.0226 3.3255C16.4081 3.45825 16.7546 3.7275 16.9729 4.11375C17.1398 4.40484 17.2209 4.73723 17.2068 5.07249C17.1928 5.40775 17.0841 5.73217 16.8934 6.00825C16.7617 6.20182 16.6912 6.43042 16.6909 6.6645V7.5555C16.5399 7.45449 16.3695 7.38604 16.1906 7.3545L16.2491 6.14925C16.246 5.87216 16.1372 5.60671 15.945 5.40711C15.7528 5.2075 15.4916 5.0888 15.2149 5.07525H14.1649C13.4486 5.07525 12.7999 4.653 12.5059 3.993C12.469 3.90069 12.4054 3.8215 12.3232 3.76563C12.241 3.70976 12.144 3.67976 12.0446 3.6795H11.0899C9.70536 3.6795 8.58411 4.8135 8.58411 6.21375L8.60661 7.3665C8.41405 7.3912 8.2295 7.45887 8.06661 7.5645V6.6645C8.06628 6.43042 7.99574 6.20182 7.86411 6.00825C7.68249 5.7407 7.57663 5.42899 7.55775 5.10616C7.53886 4.78333 7.60767 4.46141 7.75686 4.1745C7.96279 3.77949 8.311 3.47739 8.73111 3.32925C9.16156 3.17759 9.52762 2.88401 9.76911 2.49675C9.98894 2.14242 10.3285 1.87858 10.7261 1.7531C11.1238 1.62761 11.5532 1.64877 11.9366 1.81275C12.0778 1.8745 12.2303 1.90637 12.3844 1.90637C12.5385 1.90637 12.6909 1.8745 12.8321 1.81275C13.0429 1.72425 13.2739 1.67175 13.5161 1.67175C14.1491 1.67175 14.7011 2.01375 15.0086 2.52075C15.2389 2.90325 15.6011 3.18075 16.0226 3.3255Z" fill="url(#paint61_radial_1178_4556)"/>
<path d="M16.0226 3.3255C16.4081 3.45825 16.7546 3.7275 16.9729 4.11375C17.1398 4.40484 17.2209 4.73723 17.2068 5.07249C17.1928 5.40775 17.0841 5.73217 16.8934 6.00825C16.7617 6.20182 16.6912 6.43042 16.6909 6.6645V7.5555C16.5399 7.45449 16.3695 7.38604 16.1906 7.3545L16.2491 6.14925C16.246 5.87216 16.1372 5.60671 15.945 5.40711C15.7528 5.2075 15.4916 5.0888 15.2149 5.07525H14.1649C13.4486 5.07525 12.7999 4.653 12.5059 3.993C12.469 3.90069 12.4054 3.8215 12.3232 3.76563C12.241 3.70976 12.144 3.67976 12.0446 3.6795H11.0899C9.70536 3.6795 8.58411 4.8135 8.58411 6.21375L8.60661 7.3665C8.41405 7.3912 8.2295 7.45887 8.06661 7.5645V6.6645C8.06628 6.43042 7.99574 6.20182 7.86411 6.00825C7.68249 5.7407 7.57663 5.42899 7.55775 5.10616C7.53886 4.78333 7.60767 4.46141 7.75686 4.1745C7.96279 3.77949 8.311 3.47739 8.73111 3.32925C9.16156 3.17759 9.52762 2.88401 9.76911 2.49675C9.98894 2.14242 10.3285 1.87858 10.7261 1.7531C11.1238 1.62761 11.5532 1.64877 11.9366 1.81275C12.0778 1.8745 12.2303 1.90637 12.3844 1.90637C12.5385 1.90637 12.6909 1.8745 12.8321 1.81275C13.0429 1.72425 13.2739 1.67175 13.5161 1.67175C14.1491 1.67175 14.7011 2.01375 15.0086 2.52075C15.2389 2.90325 15.6011 3.18075 16.0226 3.3255Z" fill="url(#paint62_radial_1178_4556)"/>
<path d="M16.0226 3.3255C16.4081 3.45825 16.7546 3.7275 16.9729 4.11375C17.1398 4.40484 17.2209 4.73723 17.2068 5.07249C17.1928 5.40775 17.0841 5.73217 16.8934 6.00825C16.7617 6.20182 16.6912 6.43042 16.6909 6.6645V7.5555C16.5399 7.45449 16.3695 7.38604 16.1906 7.3545L16.2491 6.14925C16.246 5.87216 16.1372 5.60671 15.945 5.40711C15.7528 5.2075 15.4916 5.0888 15.2149 5.07525H14.1649C13.4486 5.07525 12.7999 4.653 12.5059 3.993C12.469 3.90069 12.4054 3.8215 12.3232 3.76563C12.241 3.70976 12.144 3.67976 12.0446 3.6795H11.0899C9.70536 3.6795 8.58411 4.8135 8.58411 6.21375L8.60661 7.3665C8.41405 7.3912 8.2295 7.45887 8.06661 7.5645V6.6645C8.06628 6.43042 7.99574 6.20182 7.86411 6.00825C7.68249 5.7407 7.57663 5.42899 7.55775 5.10616C7.53886 4.78333 7.60767 4.46141 7.75686 4.1745C7.96279 3.77949 8.311 3.47739 8.73111 3.32925C9.16156 3.17759 9.52762 2.88401 9.76911 2.49675C9.98894 2.14242 10.3285 1.87858 10.7261 1.7531C11.1238 1.62761 11.5532 1.64877 11.9366 1.81275C12.0778 1.8745 12.2303 1.90637 12.3844 1.90637C12.5385 1.90637 12.6909 1.8745 12.8321 1.81275C13.0429 1.72425 13.2739 1.67175 13.5161 1.67175C14.1491 1.67175 14.7011 2.01375 15.0086 2.52075C15.2389 2.90325 15.6011 3.18075 16.0226 3.3255Z" fill="url(#paint63_radial_1178_4556)"/>
</g>
<g filter="url(#filter11_i_1178_4556)">
<path d="M15.1799 6.07281C15.0325 5.9334 14.8564 5.82793 14.6639 5.76381C14.4359 5.69256 14.1502 5.67306 13.7549 5.72106C13.7002 5.72772 13.6504 5.75584 13.6164 5.79923C13.5825 5.84262 13.5671 5.89773 13.5738 5.95243C13.5805 6.00713 13.6086 6.05695 13.652 6.09092C13.6954 6.12488 13.7505 6.14022 13.8052 6.13356C14.1659 6.09006 14.3872 6.11331 14.5394 6.16056C14.6879 6.20781 14.7884 6.28356 14.9069 6.38631C14.9485 6.42251 15.0027 6.44071 15.0577 6.43692C15.1127 6.43312 15.164 6.40763 15.2002 6.36606C15.2364 6.32449 15.2546 6.27023 15.2508 6.21524C15.247 6.16024 15.2215 6.10901 15.1799 6.07281Z" fill="#C05029"/>
</g>
<g filter="url(#filter12_i_1178_4556)">
<path d="M9.82379 5.99096C10.2172 5.76047 10.6754 5.6656 11.128 5.72096C11.1551 5.7243 11.1813 5.73296 11.205 5.74641C11.2288 5.75987 11.2496 5.77788 11.2664 5.7994C11.2832 5.82092 11.2956 5.84553 11.3028 5.87184C11.3101 5.89814 11.3121 5.92562 11.3088 5.95271C11.3054 5.97979 11.2968 6.00595 11.2833 6.02969C11.2699 6.05344 11.2519 6.07429 11.2303 6.09108C11.2088 6.10786 11.1842 6.12024 11.1579 6.12751C11.1316 6.13479 11.1041 6.13681 11.077 6.13346C10.7162 6.08947 10.3508 6.16481 10.0368 6.34796C10.0132 6.36201 9.99017 6.37703 9.96779 6.39296L9.96629 6.39371C9.92273 6.42752 9.86752 6.44265 9.8128 6.43575C9.75809 6.42886 9.70835 6.40052 9.67454 6.35696C9.64072 6.31339 9.6256 6.25818 9.63249 6.20347C9.63938 6.14876 9.66773 6.09902 9.71129 6.06521L9.82379 5.99096Z" fill="#C05029"/>
</g>
<g filter="url(#filter13_f_1178_4556)">
<path d="M12.5551 4.09576C12.5375 4.06203 12.521 4.02776 12.5056 3.99301C12.4687 3.9007 12.4051 3.82151 12.3229 3.76564C12.2407 3.70977 12.1437 3.67977 12.0443 3.67951H11.0896C9.70506 3.67951 8.58381 4.81351 8.58381 6.21376V6.42001C8.32881 6.22576 8.00781 5.81701 8.00781 5.15401C8.00781 4.35076 8.59431 3.94426 8.96781 3.68476C9.07356 3.61201 9.16281 3.54976 9.21606 3.49501L9.29106 3.41626C9.55356 3.13876 10.0201 2.64301 10.8361 2.42626C11.2052 2.33271 11.5856 2.29106 11.9663 2.30251C12.3211 2.31151 12.5708 2.61751 12.5708 2.97226V4.08601L12.5551 4.09576Z" fill="url(#paint64_radial_1178_4556)"/>
<path d="M12.5551 4.09576C12.5375 4.06203 12.521 4.02776 12.5056 3.99301C12.4687 3.9007 12.4051 3.82151 12.3229 3.76564C12.2407 3.70977 12.1437 3.67977 12.0443 3.67951H11.0896C9.70506 3.67951 8.58381 4.81351 8.58381 6.21376V6.42001C8.32881 6.22576 8.00781 5.81701 8.00781 5.15401C8.00781 4.35076 8.59431 3.94426 8.96781 3.68476C9.07356 3.61201 9.16281 3.54976 9.21606 3.49501L9.29106 3.41626C9.55356 3.13876 10.0201 2.64301 10.8361 2.42626C11.2052 2.33271 11.5856 2.29106 11.9663 2.30251C12.3211 2.31151 12.5708 2.61751 12.5708 2.97226V4.08601L12.5551 4.09576Z" fill="url(#paint65_radial_1178_4556)"/>
</g>
<g filter="url(#filter14_f_1178_4556)">
<path d="M16.2908 6.62476L16.2683 6.15226C16.2608 5.57926 15.7875 5.10676 15.2145 5.08276H14.1645C13.8386 5.08278 13.5187 4.99504 13.2384 4.82876C12.9581 4.66248 12.7278 4.42379 12.5715 4.13776C12.5715 4.13776 12.5273 4.03576 12.4815 3.86176C12.2895 3.13426 12.9848 2.57776 13.7235 2.72026C14.4533 2.86276 15.285 3.10801 15.9 3.50926C17.208 4.36276 16.98 5.90101 16.2908 6.62476Z" fill="url(#paint66_radial_1178_4556)"/>
<path d="M16.2908 6.62476L16.2683 6.15226C16.2608 5.57926 15.7875 5.10676 15.2145 5.08276H14.1645C13.8386 5.08278 13.5187 4.99504 13.2384 4.82876C12.9581 4.66248 12.7278 4.42379 12.5715 4.13776C12.5715 4.13776 12.5273 4.03576 12.4815 3.86176C12.2895 3.13426 12.9848 2.57776 13.7235 2.72026C14.4533 2.86276 15.285 3.10801 15.9 3.50926C17.208 4.36276 16.98 5.90101 16.2908 6.62476Z" fill="url(#paint67_radial_1178_4556)"/>
<path d="M16.2908 6.62476L16.2683 6.15226C16.2608 5.57926 15.7875 5.10676 15.2145 5.08276H14.1645C13.8386 5.08278 13.5187 4.99504 13.2384 4.82876C12.9581 4.66248 12.7278 4.42379 12.5715 4.13776C12.5715 4.13776 12.5273 4.03576 12.4815 3.86176C12.2895 3.13426 12.9848 2.57776 13.7235 2.72026C14.4533 2.86276 15.285 3.10801 15.9 3.50926C17.208 4.36276 16.98 5.90101 16.2908 6.62476Z" fill="url(#paint68_radial_1178_4556)"/>
<path d="M16.2908 6.62476L16.2683 6.15226C16.2608 5.57926 15.7875 5.10676 15.2145 5.08276H14.1645C13.8386 5.08278 13.5187 4.99504 13.2384 4.82876C12.9581 4.66248 12.7278 4.42379 12.5715 4.13776C12.5715 4.13776 12.5273 4.03576 12.4815 3.86176C12.2895 3.13426 12.9848 2.57776 13.7235 2.72026C14.4533 2.86276 15.285 3.10801 15.9 3.50926C17.208 4.36276 16.98 5.90101 16.2908 6.62476Z" fill="url(#paint69_radial_1178_4556)"/>
<path d="M16.2908 6.62476L16.2683 6.15226C16.2608 5.57926 15.7875 5.10676 15.2145 5.08276H14.1645C13.8386 5.08278 13.5187 4.99504 13.2384 4.82876C12.9581 4.66248 12.7278 4.42379 12.5715 4.13776C12.5715 4.13776 12.5273 4.03576 12.4815 3.86176C12.2895 3.13426 12.9848 2.57776 13.7235 2.72026C14.4533 2.86276 15.285 3.10801 15.9 3.50926C17.208 4.36276 16.98 5.90101 16.2908 6.62476Z" fill="url(#paint70_radial_1178_4556)"/>
</g>
<path d="M14.1737 7.05896C14.6635 7.05896 15.0775 7.39646 15.19 7.85246C15.1977 7.88292 15.1983 7.91473 15.1917 7.94546C15.1852 7.97618 15.1717 8.005 15.1523 8.0297C15.1329 8.0544 15.1081 8.07432 15.0798 8.08793C15.0514 8.10154 15.0204 8.10848 14.989 8.10821H13.3157C13.2904 8.10831 13.2653 8.1028 13.2423 8.09209C13.2193 8.08138 13.1989 8.06572 13.1826 8.04624C13.1664 8.02676 13.1546 8.00393 13.1482 7.97938C13.1418 7.95483 13.1408 7.92916 13.1455 7.90421C13.1925 7.66607 13.3208 7.45164 13.5083 7.29749C13.6958 7.14335 13.931 7.05904 14.1737 7.05896Z" fill="white"/>
<path d="M14.0186 7.26221C14.1215 7.26223 14.2231 7.28601 14.3153 7.33169C14.4076 7.37738 14.488 7.44373 14.5504 7.52559C14.6128 7.60746 14.6555 7.70262 14.6751 7.80367C14.6948 7.90472 14.6908 8.00894 14.6636 8.10821H13.3706C13.3439 8.00873 13.3405 7.90445 13.3605 7.80343C13.3805 7.70241 13.4235 7.60734 13.4862 7.52558C13.5488 7.44382 13.6294 7.37754 13.7217 7.33188C13.814 7.28621 13.9156 7.26237 14.0186 7.26221Z" fill="url(#paint71_radial_1178_4556)"/>
<path d="M13.6348 7.93197C13.6348 7.71897 13.805 7.54872 14.018 7.54872C14.084 7.54826 14.149 7.5649 14.2066 7.59702C14.2642 7.62914 14.3125 7.67564 14.3468 7.73199C14.3811 7.78835 14.4002 7.85262 14.4023 7.91856C14.4043 7.98449 14.3893 8.04984 14.3585 8.10822H13.6805C13.6498 8.05459 13.6341 7.99374 13.6348 7.93197Z" fill="black"/>
<g filter="url(#filter15_f_1178_4556)">
<path d="M13.9685 7.404C14.0165 7.46775 13.9167 7.545 13.8035 7.6305C13.6902 7.71525 13.6062 7.7745 13.5582 7.71075C13.511 7.647 13.5642 7.52625 13.6775 7.4415C13.79 7.35675 13.9212 7.34025 13.9685 7.404Z" fill="#C7A7A3"/>
<path d="M13.9685 7.404C14.0165 7.46775 13.9167 7.545 13.8035 7.6305C13.6902 7.71525 13.6062 7.7745 13.5582 7.71075C13.511 7.647 13.5642 7.52625 13.6775 7.4415C13.79 7.35675 13.9212 7.34025 13.9685 7.404Z" fill="url(#paint72_radial_1178_4556)"/>
</g>
<g filter="url(#filter16_f_1178_4556)">
<path d="M14.6151 7.84345C14.595 7.71253 14.5341 7.59128 14.4411 7.49695L14.2461 7.7107L14.3346 7.8817L14.6151 7.84345Z" fill="url(#paint73_linear_1178_4556)"/>
</g>
<path d="M10.5878 7.05823C10.0973 7.05823 9.68328 7.39573 9.57078 7.85248C9.53778 7.98298 9.63828 8.10748 9.77178 8.10748H11.445C11.4703 8.10755 11.4953 8.10206 11.5183 8.09139C11.5412 8.08072 11.5615 8.06514 11.5778 8.04575C11.594 8.02635 11.6058 8.00362 11.6123 7.97916C11.6188 7.95471 11.6198 7.92912 11.6153 7.90423C11.568 7.66627 11.4398 7.45201 11.2526 7.2978C11.0653 7.14359 10.8304 7.05895 10.5878 7.05823Z" fill="white"/>
<path d="M10.7428 7.26221C10.6399 7.26238 10.5385 7.28626 10.4463 7.33199C10.3541 7.37772 10.2737 7.44407 10.2114 7.52589C10.149 7.60771 10.1063 7.7028 10.0866 7.80379C10.0669 7.90478 10.0707 8.00894 10.0978 8.10821H11.3908C11.4067 8.05078 11.415 7.99153 11.4156 7.93196C11.4144 7.75418 11.343 7.58406 11.217 7.45862C11.091 7.33319 10.9206 7.2626 10.7428 7.26221Z" fill="url(#paint74_radial_1178_4556)"/>
<path d="M11.1258 7.93197C11.126 7.88159 11.1163 7.83166 11.0971 7.78507C11.0779 7.73849 11.0497 7.69616 11.014 7.66053C10.9784 7.6249 10.9361 7.59668 10.8895 7.57749C10.8429 7.5583 10.793 7.54852 10.7426 7.54872C10.6766 7.54813 10.6115 7.56468 10.5538 7.59674C10.4961 7.62881 10.4476 7.6753 10.4133 7.73168C10.3789 7.78805 10.3597 7.85238 10.3576 7.91838C10.3555 7.98437 10.3706 8.04979 10.4013 8.10822H11.0801C11.1094 8.05404 11.1251 7.99356 11.1258 7.93197Z" fill="black"/>
<g filter="url(#filter17_f_1178_4556)">
<path d="M11.3536 7.85247C11.3536 7.63647 11.1781 7.49247 11.1301 7.44897L10.9141 7.65822L11.0476 7.92897L11.3536 7.85247Z" fill="url(#paint75_linear_1178_4556)"/>
</g>
<g filter="url(#filter18_f_1178_4556)">
<path d="M10.6097 7.67936C10.7524 7.60374 10.8372 7.48398 10.799 7.41187C10.7608 7.33976 10.6141 7.34262 10.4714 7.41824C10.3286 7.49387 10.2439 7.61363 10.2821 7.68573C10.3203 7.75784 10.4669 7.75499 10.6097 7.67936Z" fill="#C7A7A3" fill-opacity="0.9"/>
<path d="M10.6097 7.67936C10.7524 7.60374 10.8372 7.48398 10.799 7.41187C10.7608 7.33976 10.6141 7.34262 10.4714 7.41824C10.3286 7.49387 10.2439 7.61363 10.2821 7.68573C10.3203 7.75784 10.4669 7.75499 10.6097 7.67936Z" fill="url(#paint76_radial_1178_4556)"/>
</g>
<path d="M16.0723 9.31279C16.1218 8.51479 16.169 7.71754 16.2103 6.92029C16.4998 6.97344 16.76 7.13055 16.9418 7.36207C17.1237 7.59359 17.2147 7.88357 17.1977 8.17748C17.1808 8.47139 17.057 8.74898 16.8498 8.95805C16.6425 9.16712 16.366 9.29328 16.0723 9.31279Z" fill="url(#paint77_linear_1178_4556)"/>
<path d="M16.0723 9.31279C16.1218 8.51479 16.169 7.71754 16.2103 6.92029C16.4998 6.97344 16.76 7.13055 16.9418 7.36207C17.1237 7.59359 17.2147 7.88357 17.1977 8.17748C17.1808 8.47139 17.057 8.74898 16.8498 8.95805C16.6425 9.16712 16.366 9.29328 16.0723 9.31279Z" fill="url(#paint78_radial_1178_4556)"/>
<path d="M16.0723 9.31279C16.1218 8.51479 16.169 7.71754 16.2103 6.92029C16.4998 6.97344 16.76 7.13055 16.9418 7.36207C17.1237 7.59359 17.2147 7.88357 17.1977 8.17748C17.1808 8.47139 17.057 8.74898 16.8498 8.95805C16.6425 9.16712 16.366 9.29328 16.0723 9.31279Z" fill="url(#paint79_radial_1178_4556)"/>
<path d="M8.59045 6.91345C8.29485 6.95691 8.02586 7.10842 7.83548 7.33869C7.64509 7.56896 7.54684 7.86163 7.55972 8.16013C7.57259 8.45864 7.69567 8.74176 7.90517 8.95479C8.11467 9.16781 8.39571 9.2956 8.69395 9.31345C8.64301 8.51425 8.60851 7.71408 8.59045 6.91345Z" fill="url(#paint80_linear_1178_4556)"/>
<path d="M8.59045 6.91345C8.29485 6.95691 8.02586 7.10842 7.83548 7.33869C7.64509 7.56896 7.54684 7.86163 7.55972 8.16013C7.57259 8.45864 7.69567 8.74176 7.90517 8.95479C8.11467 9.16781 8.39571 9.2956 8.69395 9.31345C8.64301 8.51425 8.60851 7.71408 8.59045 6.91345Z" fill="url(#paint81_radial_1178_4556)"/>
<g filter="url(#filter19_f_1178_4556)">
<path d="M8.6021 7.4093C8.43807 7.44633 8.29227 7.53983 8.19019 7.67345C8.08811 7.80708 8.03625 7.97234 8.04367 8.14033C8.05108 8.30832 8.11731 8.46837 8.23077 8.59248C8.34422 8.71659 8.4977 8.79688 8.66435 8.8193C8.63795 8.34957 8.6172 7.87953 8.6021 7.4093Z" fill="#DD8224"/>
</g>
<g filter="url(#filter20_f_1178_4556)">
<path d="M16.1016 8.82447C16.1301 8.34897 16.1586 7.87272 16.1841 7.39722C16.3629 7.42165 16.5259 7.51263 16.6406 7.65198C16.7553 7.79133 16.8132 7.96881 16.8028 8.14899C16.7924 8.32917 16.7144 8.4988 16.5844 8.624C16.4544 8.74921 16.282 8.8208 16.1016 8.82447Z" fill="#FFC837"/>
</g>
<g filter="url(#filter21_f_1178_4556)">
<path d="M9.85156 6.20101C10.0443 6.06226 10.5243 5.81851 11.0928 5.91451" stroke="#C96953" stroke-width="0.1125" stroke-linecap="round"/>
</g>
<g filter="url(#filter22_f_1178_4556)">
<path d="M15.051 6.16571C14.859 6.02771 14.3783 5.78471 13.8105 5.87996" stroke="#C96953" stroke-width="0.1125" stroke-linecap="round"/>
</g>
<defs>
<filter id="filter0_f_1178_4556" x="7.16406" y="11.9437" width="5.35938" height="8.66785" filterUnits="userSpaceOnUse" color-interpolation-filters="sRGB">
<feFlood flood-opacity="0" result="BackgroundImageFix"/>
<feBlend mode="normal" in="SourceGraphic" in2="BackgroundImageFix" result="shape"/>
<feGaussianBlur stdDeviation="0.375" result="effect1_foregroundBlur_1178_4556"/>
</filter>
<filter id="filter1_f_1178_4556" x="12.334" y="11.9437" width="5.35938" height="8.66785" filterUnits="userSpaceOnUse" color-interpolation-filters="sRGB">
<feFlood flood-opacity="0" result="BackgroundImageFix"/>
<feBlend mode="normal" in="SourceGraphic" in2="BackgroundImageFix" result="shape"/>
<feGaussianBlur stdDeviation="0.375" result="effect1_foregroundBlur_1178_4556"/>
</filter>
<filter id="filter2_f_1178_4556" x="13.1621" y="18.1024" width="2.77539" height="2.77502" filterUnits="userSpaceOnUse" color-interpolation-filters="sRGB">
<feFlood flood-opacity="0" result="BackgroundImageFix"/>
<feBlend mode="normal" in="SourceGraphic" in2="BackgroundImageFix" result="shape"/>
<feGaussianBlur stdDeviation="0.28125" result="effect1_foregroundBlur_1178_4556"/>
</filter>
<filter id="filter3_i_1178_4556" x="14.6152" y="18.6653" width="1.06445" height="1.06494" filterUnits="userSpaceOnUse" color-interpolation-filters="sRGB">
<feFlood flood-opacity="0" result="BackgroundImageFix"/>
<feBlend mode="normal" in="SourceGraphic" in2="BackgroundImageFix" result="shape"/>
<feColorMatrix in="SourceAlpha" type="matrix" values="0 0 0 0 0 0 0 0 0 0 0 0 0 0 0 0 0 0 127 0" result="hardAlpha"/>
<feOffset/>
<feGaussianBlur stdDeviation="0.075"/>
<feComposite in2="hardAlpha" operator="arithmetic" k2="-1" k3="1"/>
<feColorMatrix type="matrix" values="0 0 0 0 0.14902 0 0 0 0 0.411765 0 0 0 0 0.721569 0 0 0 1 0"/>
<feBlend mode="normal" in2="shape" result="effect1_innerShadow_1178_4556"/>
</filter>
<filter id="filter4_i_1178_4556" x="7.52734" y="14.856" width="4.03516" height="5.37754" filterUnits="userSpaceOnUse" color-interpolation-filters="sRGB">
<feFlood flood-opacity="0" result="BackgroundImageFix"/>
<feBlend mode="normal" in="SourceGraphic" in2="BackgroundImageFix" result="shape"/>
<feColorMatrix in="SourceAlpha" type="matrix" values="0 0 0 0 0 0 0 0 0 0 0 0 0 0 0 0 0 0 127 0" result="hardAlpha"/>
<feOffset dy="-0.15"/>
<feGaussianBlur stdDeviation="0.075"/>
<feComposite in2="hardAlpha" operator="arithmetic" k2="-1" k3="1"/>
<feColorMatrix type="matrix" values="0 0 0 0 0.333333 0 0 0 0 0.239216 0 0 0 0 0.501961 0 0 0 1 0"/>
<feBlend mode="normal" in2="shape" result="effect1_innerShadow_1178_4556"/>
</filter>
<filter id="filter5_f_1178_4556" x="7.57773" y="14.985" width="3.97539" height="5.16753" filterUnits="userSpaceOnUse" color-interpolation-filters="sRGB">
<feFlood flood-opacity="0" result="BackgroundImageFix"/>
<feBlend mode="normal" in="SourceGraphic" in2="BackgroundImageFix" result="shape"/>
<feGaussianBlur stdDeviation="0.1125" result="effect1_foregroundBlur_1178_4556"/>
</filter>
<filter id="filter6_ii_1178_4556" x="8.58398" y="3.67944" width="8.03906" height="9.40574" filterUnits="userSpaceOnUse" color-interpolation-filters="sRGB">
<feFlood flood-opacity="0" result="BackgroundImageFix"/>
<feBlend mode="normal" in="SourceGraphic" in2="BackgroundImageFix" result="shape"/>
<feColorMatrix in="SourceAlpha" type="matrix" values="0 0 0 0 0 0 0 0 0 0 0 0 0 0 0 0 0 0 127 0" result="hardAlpha"/>
<feOffset dx="0.375"/>
<feGaussianBlur stdDeviation="0.375"/>
<feComposite in2="hardAlpha" operator="arithmetic" k2="-1" k3="1"/>
<feColorMatrix type="matrix" values="0 0 0 0 0.823529 0 0 0 0 0.623529 0 0 0 0 0.313726 0 0 0 1 0"/>
<feBlend mode="normal" in2="shape" result="effect1_innerShadow_1178_4556"/>
<feColorMatrix in="SourceAlpha" type="matrix" values="0 0 0 0 0 0 0 0 0 0 0 0 0 0 0 0 0 0 127 0" result="hardAlpha"/>
<feOffset dy="0.15"/>
<feGaussianBlur stdDeviation="0.28125"/>
<feComposite in2="hardAlpha" operator="arithmetic" k2="-1" k3="1"/>
<feColorMatrix type="matrix" values="0 0 0 0 0.980392 0 0 0 0 0.54902 0 0 0 0 0.0941176 0 0 0 1 0"/>
<feBlend mode="normal" in2="effect1_innerShadow_1178_4556" result="effect2_innerShadow_1178_4556"/>
</filter>
<filter id="filter7_f_1178_4556" x="10.7715" y="6.93884" width="2.9082" height="3.67517" filterUnits="userSpaceOnUse" color-interpolation-filters="sRGB">
<feFlood flood-opacity="0" result="BackgroundImageFix"/>
<feBlend mode="normal" in="SourceGraphic" in2="BackgroundImageFix" result="shape"/>
<feGaussianBlur stdDeviation="0.375" result="effect1_foregroundBlur_1178_4556"/>
</filter>
<filter id="filter8_f_1178_4556" x="11.6008" y="7.4676" width="1.5582" height="2.32517" filterUnits="userSpaceOnUse" color-interpolation-filters="sRGB">
<feFlood flood-opacity="0" result="BackgroundImageFix"/>
<feBlend mode="normal" in="SourceGraphic" in2="BackgroundImageFix" result="shape"/>
<feGaussianBlur stdDeviation="0.0375" result="effect1_foregroundBlur_1178_4556"/>
</filter>
<filter id="filter9_f_1178_4556" x="10.9855" y="10.0329" width="2.78867" height="1.17954" filterUnits="userSpaceOnUse" color-interpolation-filters="sRGB">
<feFlood flood-opacity="0" result="BackgroundImageFix"/>
<feBlend mode="normal" in="SourceGraphic" in2="BackgroundImageFix" result="shape"/>
<feGaussianBlur stdDeviation="0.0375" result="effect1_foregroundBlur_1178_4556"/>
</filter>
<filter id="filter10_ii_1178_4556" x="7.55469" y="1.29675" width="9.6543" height="6.2677" filterUnits="userSpaceOnUse" color-interpolation-filters="sRGB">
<feFlood flood-opacity="0" result="BackgroundImageFix"/>
<feBlend mode="normal" in="SourceGraphic" in2="BackgroundImageFix" result="shape"/>
<feColorMatrix in="SourceAlpha" type="matrix" values="0 0 0 0 0 0 0 0 0 0 0 0 0 0 0 0 0 0 127 0" result="hardAlpha"/>
<feOffset dy="-0.375"/>
<feGaussianBlur stdDeviation="0.46875"/>
<feComposite in2="hardAlpha" operator="arithmetic" k2="-1" k3="1"/>
<feColorMatrix type="matrix" values="0 0 0 0 0.945098 0 0 0 0 0.509804 0 0 0 0 0.0627451 0 0 0 1 0"/>
<feBlend mode="normal" in2="shape" result="effect1_innerShadow_1178_4556"/>
<feColorMatrix in="SourceAlpha" type="matrix" values="0 0 0 0 0 0 0 0 0 0 0 0 0 0 0 0 0 0 127 0" result="hardAlpha"/>
<feOffset dy="-0.15"/>
<feGaussianBlur stdDeviation="0.15"/>
<feComposite in2="hardAlpha" operator="arithmetic" k2="-1" k3="1"/>
<feColorMatrix type="matrix" values="0 0 0 0 0.862745 0 0 0 0 0.486275 0 0 0 0 0.0470588 0 0 0 1 0"/>
<feBlend mode="normal" in2="effect1_innerShadow_1178_4556" result="effect2_innerShadow_1178_4556"/>
</filter>
<filter id="filter11_i_1178_4556" x="13.5723" y="5.5447" width="1.75469" height="0.892676" filterUnits="userSpaceOnUse" color-interpolation-filters="sRGB">
<feFlood flood-opacity="0" result="BackgroundImageFix"/>
<feBlend mode="normal" in="SourceGraphic" in2="BackgroundImageFix" result="shape"/>
<feColorMatrix in="SourceAlpha" type="matrix" values="0 0 0 0 0 0 0 0 0 0 0 0 0 0 0 0 0 0 127 0" result="hardAlpha"/>
<feOffset dx="0.075" dy="-0.15"/>
<feGaussianBlur stdDeviation="0.09375"/>
<feComposite in2="hardAlpha" operator="arithmetic" k2="-1" k3="1"/>
<feColorMatrix type="matrix" values="0 0 0 0 0.603922 0 0 0 0 0.243137 0 0 0 0 0.152941 0 0 0 1 0"/>
<feBlend mode="normal" in2="shape" result="effect1_innerShadow_1178_4556"/>
</filter>
<filter id="filter12_i_1178_4556" x="9.63086" y="5.55557" width="1.75469" height="0.881812" filterUnits="userSpaceOnUse" color-interpolation-filters="sRGB">
<feFlood flood-opacity="0" result="BackgroundImageFix"/>
<feBlend mode="normal" in="SourceGraphic" in2="BackgroundImageFix" result="shape"/>
<feColorMatrix in="SourceAlpha" type="matrix" values="0 0 0 0 0 0 0 0 0 0 0 0 0 0 0 0 0 0 127 0" result="hardAlpha"/>
<feOffset dx="0.075" dy="-0.15"/>
<feGaussianBlur stdDeviation="0.09375"/>
<feComposite in2="hardAlpha" operator="arithmetic" k2="-1" k3="1"/>
<feColorMatrix type="matrix" values="0 0 0 0 0.603922 0 0 0 0 0.243137 0 0 0 0 0.152941 0 0 0 1 0"/>
<feBlend mode="normal" in2="shape" result="effect1_innerShadow_1178_4556"/>
</filter>
<filter id="filter13_f_1178_4556" x="7.82031" y="2.11316" width="4.9375" height="4.49438" filterUnits="userSpaceOnUse" color-interpolation-filters="sRGB">
<feFlood flood-opacity="0" result="BackgroundImageFix"/>
<feBlend mode="normal" in="SourceGraphic" in2="BackgroundImageFix" result="shape"/>
<feGaussianBlur stdDeviation="0.09375" result="effect1_foregroundBlur_1178_4556"/>
</filter>
<filter id="filter14_f_1178_4556" x="12.2617" y="2.51038" width="4.77148" height="4.30188" filterUnits="userSpaceOnUse" color-interpolation-filters="sRGB">
<feFlood flood-opacity="0" result="BackgroundImageFix"/>
<feBlend mode="normal" in="SourceGraphic" in2="BackgroundImageFix" result="shape"/>
<feGaussianBlur stdDeviation="0.09375" result="effect1_foregroundBlur_1178_4556"/>
</filter>
<filter id="filter15_f_1178_4556" x="13.466" y="7.29023" width="0.589453" height="0.522314" filterUnits="userSpaceOnUse" color-interpolation-filters="sRGB">
<feFlood flood-opacity="0" result="BackgroundImageFix"/>
<feBlend mode="normal" in="SourceGraphic" in2="BackgroundImageFix" result="shape"/>
<feGaussianBlur stdDeviation="0.0375" result="effect1_foregroundBlur_1178_4556"/>
</filter>
<filter id="filter16_f_1178_4556" x="14.0961" y="7.34695" width="0.669141" height="0.684766" filterUnits="userSpaceOnUse" color-interpolation-filters="sRGB">
<feFlood flood-opacity="0" result="BackgroundImageFix"/>
<feBlend mode="normal" in="SourceGraphic" in2="BackgroundImageFix" result="shape"/>
<feGaussianBlur stdDeviation="0.075" result="effect1_foregroundBlur_1178_4556"/>
</filter>
<filter id="filter17_f_1178_4556" x="10.7641" y="7.29897" width="0.739453" height="0.77998" filterUnits="userSpaceOnUse" color-interpolation-filters="sRGB">
<feFlood flood-opacity="0" result="BackgroundImageFix"/>
<feBlend mode="normal" in="SourceGraphic" in2="BackgroundImageFix" result="shape"/>
<feGaussianBlur stdDeviation="0.075" result="effect1_foregroundBlur_1178_4556"/>
</filter>
<filter id="filter18_f_1178_4556" x="10.1984" y="7.28462" width="0.685156" height="0.528418" filterUnits="userSpaceOnUse" color-interpolation-filters="sRGB">
<feFlood flood-opacity="0" result="BackgroundImageFix"/>
<feBlend mode="normal" in="SourceGraphic" in2="BackgroundImageFix" result="shape"/>
<feGaussianBlur stdDeviation="0.0375" result="effect1_foregroundBlur_1178_4556"/>
</filter>
<filter id="filter19_f_1178_4556" x="7.85547" y="7.2218" width="0.996094" height="1.78503" filterUnits="userSpaceOnUse" color-interpolation-filters="sRGB">
<feFlood flood-opacity="0" result="BackgroundImageFix"/>
<feBlend mode="normal" in="SourceGraphic" in2="BackgroundImageFix" result="shape"/>
<feGaussianBlur stdDeviation="0.09375" result="effect1_foregroundBlur_1178_4556"/>
</filter>
<filter id="filter20_f_1178_4556" x="15.9141" y="7.20972" width="1.07812" height="1.80225" filterUnits="userSpaceOnUse" color-interpolation-filters="sRGB">
<feFlood flood-opacity="0" result="BackgroundImageFix"/>
<feBlend mode="normal" in="SourceGraphic" in2="BackgroundImageFix" result="shape"/>
<feGaussianBlur stdDeviation="0.09375" result="effect1_foregroundBlur_1178_4556"/>
</filter>
<filter id="filter21_f_1178_4556" x="9.60742" y="5.64893" width="1.72852" height="0.795898" filterUnits="userSpaceOnUse" color-interpolation-filters="sRGB">
<feFlood flood-opacity="0" result="BackgroundImageFix"/>
<feBlend mode="normal" in="SourceGraphic" in2="BackgroundImageFix" result="shape"/>
<feGaussianBlur stdDeviation="0.09375" result="effect1_foregroundBlur_1178_4556"/>
</filter>
<filter id="filter22_f_1178_4556" x="13.5664" y="5.61462" width="1.72852" height="0.7948" filterUnits="userSpaceOnUse" color-interpolation-filters="sRGB">
<feFlood flood-opacity="0" result="BackgroundImageFix"/>
<feBlend mode="normal" in="SourceGraphic" in2="BackgroundImageFix" result="shape"/>
<feGaussianBlur stdDeviation="0.09375" result="effect1_foregroundBlur_1178_4556"/>
</filter>
<radialGradient id="paint0_radial_1178_4556" cx="0" cy="0" r="1" gradientUnits="userSpaceOnUse" gradientTransform="translate(17.7889 18.0435) rotate(180) scale(8.1 15.5194)">
<stop stop-color="#EFEAFB"/>
<stop offset="1" stop-color="#D4CAE9"/>
</radialGradient>
<linearGradient id="paint1_linear_1178_4556" x1="17.8744" y1="18.5535" x2="17.6404" y2="18.5535" gradientUnits="userSpaceOnUse">
<stop offset="0.225" stop-color="#D4CCDC"/>
<stop offset="1" stop-color="#D4CCDC" stop-opacity="0"/>
</linearGradient>
<linearGradient id="paint2_linear_1178_4556" x1="6.94086" y1="18.5535" x2="7.19286" y2="18.5535" gradientUnits="userSpaceOnUse">
<stop offset="0.383" stop-color="#B7AFC3"/>
<stop offset="1" stop-color="#B7AFC3" stop-opacity="0"/>
</linearGradient>
<linearGradient id="paint3_linear_1178_4556" x1="12.5246" y1="23.3175" x2="12.5246" y2="21.9577" gradientUnits="userSpaceOnUse">
<stop stop-color="#C8B7DE"/>
<stop offset="1" stop-color="#C8B7DE" stop-opacity="0"/>
</linearGradient>
<radialGradient id="paint4_radial_1178_4556" cx="0" cy="0" r="1" gradientUnits="userSpaceOnUse" gradientTransform="translate(16.9546 21.7007) rotate(-121.204) scale(12.4405 12.2614)">
<stop offset="0.587" stop-color="#BEBAC5" stop-opacity="0"/>
<stop offset="1" stop-color="#BEBAC5"/>
</radialGradient>
<radialGradient id="paint5_radial_1178_4556" cx="0" cy="0" r="1" gradientUnits="userSpaceOnUse" gradientTransform="translate(13.9309 18.465) rotate(77.152) scale(2.74049 3.03218)">
<stop stop-color="#B2A6C7"/>
<stop offset="1" stop-color="#B2A6C7" stop-opacity="0"/>
</radialGradient>
<radialGradient id="paint6_radial_1178_4556" cx="0" cy="0" r="1" gradientUnits="userSpaceOnUse" gradientTransform="translate(12.3671 22.5952) rotate(-90) scale(5.98126 0.720203)">
<stop stop-color="#B1909E"/>
<stop offset="1" stop-color="#B1909E" stop-opacity="0"/>
</radialGradient>
<linearGradient id="paint7_linear_1178_4556" x1="7.0032" y1="11.6752" x2="17.7852" y2="11.6752" gradientUnits="userSpaceOnUse">
<stop offset="0.006" stop-color="#CCCCCC"/>
<stop offset="1" stop-color="#E6E6E6"/>
</linearGradient>
<linearGradient id="paint8_linear_1178_4556" x1="7.00338" y1="11.652" x2="17.7853" y2="11.652" gradientUnits="userSpaceOnUse">
<stop offset="0.006" stop-color="#CCCCCC"/>
<stop offset="1" stop-color="#E6E6E6"/>
</linearGradient>
<radialGradient id="paint9_radial_1178_4556" cx="0" cy="0" r="1" gradientUnits="userSpaceOnUse" gradientTransform="translate(4.39095 18.63) rotate(5.18546) scale(2.59322 7.19967)">
<stop stop-color="#D3D0D5"/>
<stop offset="1" stop-color="#C8BFD6"/>
</radialGradient>
<radialGradient id="paint10_radial_1178_4556" cx="0" cy="0" r="1" gradientUnits="userSpaceOnUse" gradientTransform="translate(7.50886 13.4267) rotate(107.994) scale(5.00743 5.6081)">
<stop stop-color="#C4C3C3"/>
<stop offset="1" stop-color="#C4C3C3" stop-opacity="0"/>
</radialGradient>
<linearGradient id="paint11_linear_1178_4556" x1="5.6382" y1="23.1772" x2="5.6382" y2="22.0822" gradientUnits="userSpaceOnUse">
<stop stop-color="#C8B7DE"/>
<stop offset="1" stop-color="#C8B7DE" stop-opacity="0"/>
</linearGradient>
<radialGradient id="paint12_radial_1178_4556" cx="0" cy="0" r="1" gradientUnits="userSpaceOnUse" gradientTransform="translate(20.066 16.5675) rotate(155.425) scale(2.53598 6.70783)">
<stop stop-color="#FCF9FF"/>
<stop offset="1" stop-color="#E6DDF3"/>
</radialGradient>
<radialGradient id="paint13_radial_1178_4556" cx="0" cy="0" r="1" gradientUnits="userSpaceOnUse" gradientTransform="translate(18.8 15.3488) rotate(90) scale(8.25 6.34798)">
<stop offset="0.781" stop-color="#D1C0E3" stop-opacity="0"/>
<stop offset="0.974" stop-color="#D1C0E3"/>
</radialGradient>
<linearGradient id="paint14_linear_1178_4556" x1="17.3923" y1="19.332" x2="17.9765" y2="19.332" gradientUnits="userSpaceOnUse">
<stop offset="0.643" stop-color="#D4CCDC"/>
<stop offset="1" stop-color="#D4CCDC" stop-opacity="0"/>
</linearGradient>
<radialGradient id="paint15_radial_1178_4556" cx="0" cy="0" r="1" gradientUnits="userSpaceOnUse" gradientTransform="translate(12.3923 14.0122) rotate(90) scale(4.24219 2.25844)">
<stop offset="0.398" stop-color="#E56E23"/>
<stop offset="1" stop-color="#B04418"/>
</radialGradient>
<radialGradient id="paint16_radial_1178_4556" cx="0" cy="0" r="1" gradientUnits="userSpaceOnUse" gradientTransform="translate(12.6653 22.9649) rotate(-90) scale(4.89844 2.14537)">
<stop offset="0.344" stop-color="#E35628"/>
<stop offset="1" stop-color="#E35628" stop-opacity="0"/>
</radialGradient>
<linearGradient id="paint17_linear_1178_4556" x1="7.0032" y1="11.6752" x2="17.7852" y2="11.6752" gradientUnits="userSpaceOnUse">
<stop offset="0.006" stop-color="#CCCCCC"/>
<stop offset="1" stop-color="#E6E6E6"/>
</linearGradient>
<linearGradient id="paint18_linear_1178_4556" x1="7.00338" y1="11.652" x2="17.7853" y2="11.652" gradientUnits="userSpaceOnUse">
<stop offset="0.006" stop-color="#CCCCCC"/>
<stop offset="1" stop-color="#E6E6E6"/>
</linearGradient>
<linearGradient id="paint19_linear_1178_4556" x1="12.523" y1="20.3407" x2="18.2417" y2="14.6452" gradientUnits="userSpaceOnUse">
<stop stop-color="#AD9EC2"/>
<stop offset="1" stop-color="#D3CFDA"/>
</linearGradient>
<linearGradient id="paint20_linear_1178_4556" x1="16.8089" y1="13.8878" x2="12.9726" y2="18.0263" gradientUnits="userSpaceOnUse">
<stop stop-color="#FDF6F9"/>
<stop offset="1" stop-color="#BDB2D2"/>
</linearGradient>
<linearGradient id="paint21_linear_1178_4556" x1="15.4244" y1="11.8485" x2="15.3066" y2="13.395" gradientUnits="userSpaceOnUse">
<stop stop-color="#EDD8CE"/>
<stop offset="1" stop-color="#EDD8CE" stop-opacity="0"/>
</linearGradient>
<linearGradient id="paint22_linear_1178_4556" x1="13.5786" y1="14.2823" x2="14.4456" y2="14.6453" gradientUnits="userSpaceOnUse">
<stop stop-color="#B49089"/>
<stop offset="1" stop-color="#DED4E6" stop-opacity="0"/>
</linearGradient>
<radialGradient id="paint23_radial_1178_4556" cx="0" cy="0" r="1" gradientUnits="userSpaceOnUse" gradientTransform="translate(14.7456 13.6845) rotate(90) scale(4.64063 0.634192)">
<stop stop-color="#AA98A1"/>
<stop offset="1" stop-color="#DAD1E4" stop-opacity="0"/>
</radialGradient>
<radialGradient id="paint24_radial_1178_4556" cx="0" cy="0" r="1" gradientUnits="userSpaceOnUse" gradientTransform="translate(12.7266 20.016) rotate(-48.5804) scale(3.05196 1.04236)">
<stop stop-color="#B7A3CF"/>
<stop offset="1" stop-color="#B7A3CF" stop-opacity="0"/>
</radialGradient>
<radialGradient id="paint25_radial_1178_4556" cx="0" cy="0" r="1" gradientUnits="userSpaceOnUse" gradientTransform="translate(14.7456 18.747) rotate(-90) scale(3.63281 0.414952)">
<stop stop-color="#A298B4"/>
<stop offset="1" stop-color="#A298B4" stop-opacity="0"/>
</radialGradient>
<radialGradient id="paint26_radial_1178_4556" cx="0" cy="0" r="1" gradientUnits="userSpaceOnUse" gradientTransform="translate(11.259 14.9726) rotate(158.705) scale(2.44004 4.79081)">
<stop offset="0.088" stop-color="#EFE1E3"/>
<stop offset="1" stop-color="#BDB0D0"/>
</radialGradient>
<radialGradient id="paint27_radial_1178_4556" cx="0" cy="0" r="1" gradientUnits="userSpaceOnUse" gradientTransform="translate(7.9904 18.7875) rotate(-69.7629) scale(7.50435 6.09246)">
<stop offset="0.691" stop-color="#B3A299" stop-opacity="0"/>
<stop offset="1" stop-color="#B3A299"/>
</radialGradient>
<linearGradient id="paint28_linear_1178_4556" x1="9.5954" y1="17.505" x2="9.8414" y2="17.235" gradientUnits="userSpaceOnUse">
<stop stop-color="#B2A6C6"/>
<stop offset="1" stop-color="#B2A6C6" stop-opacity="0"/>
</linearGradient>
<radialGradient id="paint29_radial_1178_4556" cx="0" cy="0" r="1" gradientUnits="userSpaceOnUse" gradientTransform="translate(8.11865 14.7165) rotate(-81.961) scale(2.0948 1.60492)">
<stop stop-color="#CBC5CF"/>
<stop offset="1" stop-color="#BDB1AD" stop-opacity="0"/>
</radialGradient>
<radialGradient id="paint30_radial_1178_4556" cx="0" cy="0" r="1" gradientUnits="userSpaceOnUse" gradientTransform="translate(9.4664 13.8375) rotate(101.232) scale(1.68461 0.517206)">
<stop offset="0.439" stop-color="#ADA5AB"/>
<stop offset="1" stop-color="#ADA5AB" stop-opacity="0"/>
</radialGradient>
<radialGradient id="paint31_radial_1178_4556" cx="0" cy="0" r="1" gradientUnits="userSpaceOnUse" gradientTransform="translate(9.72406 16.0986) rotate(49.295) scale(2.10236 0.730688)">
<stop stop-color="#B5A9BF"/>
<stop offset="1" stop-color="#B5A9BF" stop-opacity="0"/>
</radialGradient>
<radialGradient id="paint32_radial_1178_4556" cx="0" cy="0" r="1" gradientUnits="userSpaceOnUse" gradientTransform="translate(12.3816 14.1353) rotate(-90) scale(2.04471 2.41688)">
<stop offset="0.135" stop-color="#E18E23"/>
<stop offset="0.577" stop-color="#CC711F"/>
<stop offset="1" stop-color="#964B08"/>
</radialGradient>
<linearGradient id="paint33_linear_1178_4556" x1="15.6232" y1="17.8561" x2="15.1192" y2="17.8681" gradientUnits="userSpaceOnUse">
<stop offset="0.294" stop-color="#746992"/>
<stop offset="1" stop-color="#746992" stop-opacity="0"/>
</linearGradient>
<radialGradient id="paint34_radial_1178_4556" cx="0" cy="0" r="1" gradientUnits="userSpaceOnUse" gradientTransform="translate(14.2702 12.384) rotate(90) scale(1.33594 0.978285)">
<stop offset="0.123" stop-color="#552E54"/>
<stop offset="1" stop-color="#552E54" stop-opacity="0"/>
</radialGradient>
<radialGradient id="paint35_radial_1178_4556" cx="0" cy="0" r="1" gradientUnits="userSpaceOnUse" gradientTransform="translate(9.82798 15.126) rotate(-90) scale(2.35546 0.445313)">
<stop stop-color="#716687"/>
<stop offset="1" stop-color="#716687" stop-opacity="0"/>
</radialGradient>
<radialGradient id="paint36_radial_1178_4556" cx="0" cy="0" r="1" gradientUnits="userSpaceOnUse" gradientTransform="translate(10.52 12.1847) rotate(117.031) scale(1.28927 1.37747)">
<stop offset="0.145" stop-color="#4A2657"/>
<stop offset="1" stop-color="#4A2657" stop-opacity="0"/>
</radialGradient>
<radialGradient id="paint37_radial_1178_4556" cx="0" cy="0" r="1" gradientUnits="userSpaceOnUse" gradientTransform="translate(15.5161 18.7848) rotate(121.842) scale(1.42807 1.28378)">
<stop offset="0.213" stop-color="#49A3E6"/>
<stop offset="1" stop-color="#2B86DD"/>
</radialGradient>
<radialGradient id="paint38_radial_1178_4556" cx="0" cy="0" r="1" gradientUnits="userSpaceOnUse" gradientTransform="translate(14.8275 19.5263) rotate(-45) scale(0.834188 0.551087)">
<stop offset="0.204" stop-color="#4C7BBF"/>
<stop offset="1" stop-color="#2C6DBD"/>
</radialGradient>
<linearGradient id="paint39_linear_1178_4556" x1="9.54485" y1="15.0052" x2="9.54485" y2="21.4425" gradientUnits="userSpaceOnUse">
<stop stop-color="#5D4F77"/>
<stop offset="1" stop-color="#553C83"/>
</linearGradient>
<linearGradient id="paint40_linear_1178_4556" x1="7.52659" y1="19.0545" x2="8.19784" y2="19.0545" gradientUnits="userSpaceOnUse">
<stop stop-color="#3A97DB"/>
<stop offset="1" stop-color="#49A3E2"/>
</linearGradient>
<radialGradient id="paint41_radial_1178_4556" cx="0" cy="0" r="1" gradientUnits="userSpaceOnUse" gradientTransform="translate(7.98859 17.775) rotate(90) scale(2.625 0.210555)">
<stop offset="0.442" stop-color="#46A4E7"/>
<stop offset="1" stop-color="#46A4E7" stop-opacity="0"/>
</radialGradient>
<linearGradient id="paint42_linear_1178_4556" x1="10.8071" y1="19.062" x2="11.3111" y2="19.062" gradientUnits="userSpaceOnUse">
<stop stop-color="#3A97DB"/>
<stop offset="1" stop-color="#49A3E2"/>
</linearGradient>
<linearGradient id="paint43_linear_1178_4556" x1="11.6044" y1="18.7005" x2="11.4229" y2="18.7005" gradientUnits="userSpaceOnUse">
<stop stop-color="#3D9AD9"/>
<stop offset="1" stop-color="#3D9AD9" stop-opacity="0"/>
</linearGradient>
<radialGradient id="paint44_radial_1178_4556" cx="0" cy="0" r="1" gradientUnits="userSpaceOnUse" gradientTransform="translate(16.542 9.01362) rotate(103.169) scale(2.87173 3.41139)">
<stop offset="0.043" stop-color="#FFC135"/>
<stop offset="1" stop-color="#E26839"/>
</radialGradient>
<radialGradient id="paint45_radial_1178_4556" cx="0" cy="0" r="1" gradientUnits="userSpaceOnUse" gradientTransform="translate(15.9822 9.21404) rotate(53.902) scale(0.373395 0.317198)">
<stop stop-color="#E18C2A"/>
<stop offset="1" stop-color="#E18C2A" stop-opacity="0"/>
</radialGradient>
<radialGradient id="paint46_radial_1178_4556" cx="0" cy="0" r="1" gradientUnits="userSpaceOnUse" gradientTransform="translate(8.21939 9.1013) rotate(71.2341) scale(3.1078 1.41265)">
<stop stop-color="#D57A26"/>
<stop offset="1" stop-color="#D06A3C"/>
</radialGradient>
<radialGradient id="paint47_radial_1178_4556" cx="0" cy="0" r="1" gradientUnits="userSpaceOnUse" gradientTransform="translate(8.71689 9.09501) rotate(72.29) scale(0.785183 0.68877)">
<stop offset="0.263" stop-color="#BE691E"/>
<stop offset="0.977" stop-color="#BE691E" stop-opacity="0"/>
</radialGradient>
<radialGradient id="paint48_radial_1178_4556" cx="0" cy="0" r="1" gradientUnits="userSpaceOnUse" gradientTransform="translate(14.4872 8.30769) rotate(180) scale(3.92089 6.93601)">
<stop stop-color="#FFE846"/>
<stop offset="1" stop-color="#F5A129"/>
</radialGradient>
<radialGradient id="paint49_radial_1178_4556" cx="0" cy="0" r="1" gradientUnits="userSpaceOnUse" gradientTransform="translate(12.2357 13.0589) rotate(-90) scale(2.53936 9.8784)">
<stop offset="0.082" stop-color="#E27426"/>
<stop offset="1" stop-color="#FFA041" stop-opacity="0"/>
</radialGradient>
<radialGradient id="paint50_radial_1178_4556" cx="0" cy="0" r="1" gradientUnits="userSpaceOnUse" gradientTransform="translate(16.249 8.13369) rotate(93.7745) scale(4.58639 1.68615)">
<stop offset="0.39" stop-color="#FFD930"/>
<stop offset="1" stop-color="#FFD930" stop-opacity="0"/>
</radialGradient>
<radialGradient id="paint51_radial_1178_4556" cx="0" cy="0" r="1" gradientUnits="userSpaceOnUse" gradientTransform="translate(10.8122 7.42194) rotate(-90) scale(1.06039 1.27666)">
<stop offset="0.276" stop-color="#F59632"/>
<stop offset="1" stop-color="#F59632" stop-opacity="0"/>
</radialGradient>
<radialGradient id="paint52_radial_1178_4556" cx="0" cy="0" r="1" gradientUnits="userSpaceOnUse" gradientTransform="translate(14.248 7.11369) rotate(-90) scale(1.15143 1.49344)">
<stop offset="0.178" stop-color="#FFBE3A"/>
<stop offset="1" stop-color="#FFBE3A" stop-opacity="0"/>
</radialGradient>
<linearGradient id="paint53_linear_1178_4556" x1="12.3798" y1="8.92879" x2="13.021" y2="8.92879" gradientUnits="userSpaceOnUse">
<stop stop-color="#FFC92F"/>
<stop offset="1" stop-color="#FFEA47"/>
</linearGradient>
<linearGradient id="paint54_linear_1178_4556" x1="11.575" y1="8.81254" x2="12.3805" y2="8.85679" gradientUnits="userSpaceOnUse">
<stop stop-color="#F49F22"/>
<stop offset="1" stop-color="#F49F22" stop-opacity="0"/>
</linearGradient>
<linearGradient id="paint55_linear_1178_4556" x1="12.3798" y1="9.22804" x2="12.3798" y2="9.86704" gradientUnits="userSpaceOnUse">
<stop stop-color="#E88830" stop-opacity="0"/>
<stop offset="0.845" stop-color="#E88830"/>
</linearGradient>
<linearGradient id="paint56_linear_1178_4556" x1="12.3798" y1="7.54279" x2="12.3798" y2="7.85704" gradientUnits="userSpaceOnUse">
<stop stop-color="#FAC137"/>
<stop offset="1" stop-color="#FAC137" stop-opacity="0"/>
</linearGradient>
<radialGradient id="paint57_radial_1178_4556" cx="0" cy="0" r="1" gradientUnits="userSpaceOnUse" gradientTransform="translate(11.5349 10.7743) rotate(-60.732) scale(0.532575 1.54979)">
<stop stop-color="#FFB534"/>
<stop offset="1" stop-color="#FFB534" stop-opacity="0"/>
</radialGradient>
<radialGradient id="paint58_radial_1178_4556" cx="0" cy="0" r="1" gradientUnits="userSpaceOnUse" gradientTransform="translate(12.3806 10.9619) rotate(-90) scale(0.540555 2.17478)">
<stop stop-color="#89014E"/>
<stop offset="1" stop-color="#87004D"/>
</radialGradient>
<linearGradient id="paint59_linear_1178_4556" x1="16.4036" y1="4.0605" x2="8.81136" y2="4.0605" gradientUnits="userSpaceOnUse">
<stop stop-color="#FFE235"/>
<stop offset="1" stop-color="#D29935"/>
</linearGradient>
<radialGradient id="paint60_radial_1178_4556" cx="0" cy="0" r="1" gradientUnits="userSpaceOnUse" gradientTransform="translate(8.45886 7.12125) rotate(-90) scale(4.28923 7.59968)">
<stop offset="0.315" stop-color="#C98537"/>
<stop offset="1" stop-color="#C98537" stop-opacity="0"/>
</radialGradient>
<radialGradient id="paint61_radial_1178_4556" cx="0" cy="0" r="1" gradientUnits="userSpaceOnUse" gradientTransform="translate(16.0264 7.12125) rotate(-90) scale(2.72449 4.82726)">
<stop stop-color="#FFB52A"/>
<stop offset="1" stop-color="#FFB52A" stop-opacity="0"/>
</radialGradient>
<radialGradient id="paint62_radial_1178_4556" cx="0" cy="0" r="1" gradientUnits="userSpaceOnUse" gradientTransform="translate(15.4609 2.4135) rotate(-160.666) scale(3.26396 1.73828)">
<stop offset="0.347" stop-color="#FFE639"/>
<stop offset="1" stop-color="#FFE639" stop-opacity="0"/>
</radialGradient>
<radialGradient id="paint63_radial_1178_4556" cx="0" cy="0" r="1" gradientUnits="userSpaceOnUse" gradientTransform="translate(11.7026 1.2195) rotate(58.465) scale(1.29793 3.00537)">
<stop offset="0.287" stop-color="#F3C130"/>
<stop offset="1" stop-color="#F3C130" stop-opacity="0"/>
</radialGradient>
<radialGradient id="paint64_radial_1178_4556" cx="0" cy="0" r="1" gradientUnits="userSpaceOnUse" gradientTransform="translate(12.5708 2.30101) rotate(160.16) scale(3.03536 0.844808)">
<stop stop-color="#FFDD30"/>
<stop offset="1" stop-color="#FFDC2B" stop-opacity="0"/>
</radialGradient>
<radialGradient id="paint65_radial_1178_4556" cx="0" cy="0" r="1" gradientUnits="userSpaceOnUse" gradientTransform="translate(8.30856 5.87101) rotate(-57.724) scale(4.51996 5.00766)">
<stop offset="0.093" stop-color="#D67227"/>
<stop offset="0.233" stop-color="#EF8A23"/>
<stop offset="1" stop-color="#EF8A23" stop-opacity="0"/>
</radialGradient>
<radialGradient id="paint66_radial_1178_4556" cx="0" cy="0" r="1" gradientUnits="userSpaceOnUse" gradientTransform="translate(15.096 3.17144) rotate(13.307) scale(2.6094 1.45936)">
<stop stop-color="#FFEB3B"/>
<stop offset="1" stop-color="#FFEB3B" stop-opacity="0"/>
</radialGradient>
<radialGradient id="paint67_radial_1178_4556" cx="0" cy="0" r="1" gradientUnits="userSpaceOnUse" gradientTransform="translate(16.2274 6.62484) rotate(-120.119) scale(3.21136 1.79095)">
<stop stop-color="#EB8F29"/>
<stop offset="1" stop-color="#EB8F29" stop-opacity="0"/>
</radialGradient>
<radialGradient id="paint68_radial_1178_4556" cx="0" cy="0" r="1" gradientUnits="userSpaceOnUse" gradientTransform="translate(15.7625 6.39924) rotate(-120.695) scale(1.92083 1.37581)">
<stop offset="0.394" stop-color="#E48421"/>
<stop offset="1" stop-color="#E48421" stop-opacity="0"/>
</radialGradient>
<radialGradient id="paint69_radial_1178_4556" cx="0" cy="0" r="1" gradientUnits="userSpaceOnUse" gradientTransform="translate(15.9765 3.08401) rotate(166.509) scale(3.70094 4.00086)">
<stop offset="0.735" stop-color="#F29415" stop-opacity="0"/>
<stop offset="1" stop-color="#F29415"/>
</radialGradient>
<radialGradient id="paint70_radial_1178_4556" cx="0" cy="0" r="1" gradientUnits="userSpaceOnUse" gradientTransform="translate(14.9708 2.99026) rotate(107.002) scale(0.30095 1.3759)">
<stop offset="0.461" stop-color="#FFCE3C"/>
<stop offset="1" stop-color="#FFCE3C" stop-opacity="0"/>
</radialGradient>
<radialGradient id="paint71_radial_1178_4556" cx="0" cy="0" r="1" gradientUnits="userSpaceOnUse" gradientTransform="translate(14.0171 7.61996) rotate(90) scale(0.60849 0.967867)">
<stop offset="0.802" stop-color="#925C51"/>
<stop offset="1" stop-color="#85534D"/>
</radialGradient>
<radialGradient id="paint72_radial_1178_4556" cx="0" cy="0" r="1" gradientUnits="userSpaceOnUse" gradientTransform="translate(13.8457 7.68379) rotate(-127.812) scale(0.283718 0.390608)">
<stop offset="0.766" stop-color="#FFE6E2" stop-opacity="0"/>
<stop offset="0.966" stop-color="#FFE6E2"/>
</radialGradient>
<linearGradient id="paint73_linear_1178_4556" x1="14.6008" y1="7.66045" x2="14.3653" y2="7.80595" gradientUnits="userSpaceOnUse">
<stop stop-color="#B4948D"/>
<stop offset="1" stop-color="#B4948D" stop-opacity="0"/>
</linearGradient>
<radialGradient id="paint74_radial_1178_4556" cx="0" cy="0" r="1" gradientUnits="userSpaceOnUse" gradientTransform="translate(10.7443 7.61996) rotate(90) scale(0.60852 0.96792)">
<stop offset="0.802" stop-color="#925C51"/>
<stop offset="1" stop-color="#85534D"/>
</radialGradient>
<linearGradient id="paint75_linear_1178_4556" x1="11.3018" y1="7.66047" x2="11.0663" y2="7.80597" gradientUnits="userSpaceOnUse">
<stop stop-color="#B4948D"/>
<stop offset="1" stop-color="#B4948D" stop-opacity="0"/>
</linearGradient>
<radialGradient id="paint76_radial_1178_4556" cx="0" cy="0" r="1" gradientUnits="userSpaceOnUse" gradientTransform="translate(10.6405 7.76318) rotate(-118.811) scale(0.370606 0.445495)">
<stop offset="0.766" stop-color="#FFE6E2" stop-opacity="0"/>
<stop offset="0.966" stop-color="#FFE6E2"/>
</radialGradient>
<linearGradient id="paint77_linear_1178_4556" x1="17.2078" y1="7.68079" x2="16.3025" y2="9.31279" gradientUnits="userSpaceOnUse">
<stop stop-color="#FFE343"/>
<stop offset="1" stop-color="#FFC136"/>
</linearGradient>
<radialGradient id="paint78_radial_1178_4556" cx="0" cy="0" r="1" gradientUnits="userSpaceOnUse" gradientTransform="translate(15.8435 7.63054) rotate(74.3475) scale(1.74726 1.66701)">
<stop offset="0.856" stop-color="#E1943D" stop-opacity="0"/>
<stop offset="1" stop-color="#E08F2E"/>
</radialGradient>
<radialGradient id="paint79_radial_1178_4556" cx="0" cy="0" r="1" gradientUnits="userSpaceOnUse" gradientTransform="translate(16.1143 8.03929) rotate(-53.9198) scale(1.00326 0.840932)">
<stop offset="0.664" stop-color="#FFBD22"/>
<stop offset="1" stop-color="#FFBD22" stop-opacity="0"/>
</radialGradient>
<linearGradient id="paint80_linear_1178_4556" x1="7.99345" y1="8.2087" x2="9.08695" y2="8.11345" gradientUnits="userSpaceOnUse">
<stop stop-color="#E39726"/>
<stop offset="1" stop-color="#D9851D"/>
</linearGradient>
<radialGradient id="paint81_radial_1178_4556" cx="0" cy="0" r="1" gradientUnits="userSpaceOnUse" gradientTransform="translate(8.43381 7.75589) rotate(101.248) scale(1.58751 1.56067)">
<stop offset="0.775" stop-color="#C77937" stop-opacity="0"/>
<stop offset="1" stop-color="#C77937"/>
</radialGradient>
</defs>
</svg>
