<svg width="24" height="24" viewBox="0 0 24 24" fill="none" xmlns="http://www.w3.org/2000/svg">
<path d="M21.0006 15L12.0006 14.25L3.0006 15L1.5156 21.6683C1.4331 22.2428 2.24685 22.125 2.6256 22.125H21.3756C21.7543 22.125 22.5681 22.2428 22.4856 21.6683L21.0006 15Z" fill="#D3D3D3"/>
<path d="M20.25 1.5H3.75C3.3375 1.5 3 1.8375 3 2.25V14.9925H21V2.25C21 1.8375 20.6625 1.5 20.25 1.5Z" fill="#7167A4"/>
<path d="M3.75 14.055V2.4375C3.75 2.3325 3.8325 2.25 3.9375 2.25H20.0625C20.1675 2.25 20.25 2.3325 20.25 2.4375V14.055C20.25 14.16 20.1675 14.2425 20.0625 14.2425H3.9375C3.8325 14.2425 3.75 14.16 3.75 14.055Z" fill="#26C9FC"/>
<path fill-rule="evenodd" clip-rule="evenodd" d="M20.4532 15.9601L20.9932 18.3976C21.0022 18.439 21.0017 18.482 20.992 18.5233C20.9822 18.5645 20.9633 18.6031 20.9367 18.6362C20.9101 18.6692 20.8765 18.6959 20.8382 18.7143C20.8 18.7328 20.7582 18.7424 20.7157 18.7426H3.28574C3.10574 18.7426 2.97074 18.5701 3.00824 18.3976L3.54824 15.9601C3.57824 15.8326 3.69074 15.7426 3.82574 15.7426H20.1757C20.3107 15.7426 20.4232 15.8326 20.4532 15.9601ZM6.14024 18.3751H5.06549L5.15924 17.8126H6.21074L6.14024 18.3751ZM7.59374 18.3751H6.51824L6.58874 17.8126H7.64174L7.59374 18.3751ZM8.97224 18.3751H7.97024L8.01674 17.8126H8.99624L8.97224 18.3751ZM10.3597 18.3751H9.34724L9.37124 17.8126H10.3837L10.3597 18.3751ZM11.8132 18.3751H10.7355L10.7587 17.8126H11.8132V18.3751ZM13.266 18.3751H12.1882V17.8126H13.2427L13.266 18.3751ZM14.6535 18.3751H13.641L13.6185 17.8126H14.6302L14.6535 18.3751ZM16.0312 18.3751H15.0292L15.0052 17.8126H15.9847L16.0312 18.3751ZM17.484 18.3751H16.4077L16.3605 17.8126H17.4135L17.484 18.3751ZM18.936 18.3751H17.8612L17.7915 17.8126H18.8415L18.936 18.3751ZM20.2507 18.3751H19.3155L19.2217 17.8126H20.157L20.2507 18.3751ZM20.001 16.8751L20.0947 17.4376H19.1595L19.0657 16.8751H20.001ZM19.8757 16.1251L19.938 16.5001H19.0035L18.9405 16.1251H19.8757ZM17.5807 16.1251H18.561L18.6232 16.5001H17.6272L17.5807 16.1251ZM16.2202 16.1251H17.2027L17.2492 16.5001H16.2517L16.2202 16.1251ZM14.9355 16.1251H15.8437L15.8752 16.5001H14.9505L14.9355 16.1251ZM13.548 16.1251H14.5605L14.5755 16.5001H13.563L13.548 16.1251ZM12.1882 16.1251H13.1722L13.188 16.5001H12.1882V16.1251ZM10.8292 16.1251H11.8132V16.5001H10.8135L10.8292 16.1251ZM9.44174 16.1251H10.4542L10.4377 16.5001H9.42524L9.44174 16.1251ZM8.15774 16.1251H9.06599L9.05099 16.5001H8.12624L8.15774 16.1251ZM6.79874 16.1251H7.78124L7.74974 16.5001H6.75224L6.79874 16.1251ZM5.44124 16.1251H6.42074L6.37349 16.5001H5.37824L5.44124 16.1251ZM4.12574 16.1251H5.06099L4.99799 16.5001H4.06349L4.12574 16.1251ZM3.90674 17.4376L4.00049 16.8751H4.93574L4.84199 17.4376H3.90674ZM3.75074 18.3751L3.84449 17.8126H4.77974L4.68599 18.3751H3.75074ZM18.7792 17.4376L18.6855 16.8751H17.6737L17.7442 17.4376H18.7792ZM17.3662 17.4376L17.2965 16.8751H16.2825L16.3297 17.4376H17.3662ZM15.9532 17.4376L15.9067 16.8751H14.9662L14.9902 17.4376H15.9532ZM14.6145 17.4376L14.5912 16.8751H13.5787L13.6027 17.4376H14.6145ZM13.227 17.4376L13.2037 16.8751H12.1882V17.4376H13.227ZM5.31599 16.8751L5.22224 17.4376H6.25724L6.32774 16.8751H5.31599ZM6.70499 16.8751L6.63524 17.4376H7.67174L7.71899 16.8751H6.70499ZM8.09549 16.8751L8.04824 17.4376H9.01124L9.03524 16.8751H8.09549ZM9.41024 16.8751L9.38699 17.4376H10.3995L10.422 16.8751H9.41024ZM10.7977 16.8751L10.7745 17.4376H11.8132V16.8751H10.7977Z" fill="#9B9B9B"/>
<path d="M21.8175 21.7501C21.9416 21.7499 22.0633 21.7155 22.1692 21.6507C22.275 21.5858 22.361 21.4931 22.4175 21.3826L22.485 21.6676L22.4872 21.6848C22.5065 21.7837 22.5036 21.8857 22.4789 21.9834C22.4541 22.0811 22.4081 22.1721 22.3442 22.25C22.2802 22.3278 22.1998 22.3906 22.1088 22.4339C22.0177 22.4771 21.9183 22.4997 21.8175 22.5001H2.1825C1.8075 22.5001 1.5 22.1926 1.5 21.8176C1.5 21.7651 1.5075 21.7201 1.5225 21.6751L1.5825 21.3901C1.695 21.6001 1.92 21.7501 2.1825 21.7501H21.8175ZM8.115 20.9926H15.885C16.005 20.9926 16.095 20.8801 16.065 20.7601L15.78 19.6351C15.7695 19.595 15.7462 19.5595 15.7138 19.5338C15.6813 19.5081 15.6414 19.4936 15.6 19.4926H8.4C8.3175 19.4926 8.2425 19.5526 8.22 19.6351L7.935 20.7601C7.905 20.8801 7.995 20.9926 8.115 20.9926Z" fill="#9B9B9B"/>
</svg>
