<svg width="25" height="24" viewBox="0 0 25 24" fill="none" xmlns="http://www.w3.org/2000/svg">
<path d="M9.06723 13.2544C9.02598 13.2825 8.99598 13.3106 8.94723 13.2956C8.95098 13.3856 8.95286 13.4906 8.88161 13.5638C8.81036 13.635 8.69036 13.6556 8.60036 13.6106C8.63598 13.7325 8.57223 13.8769 8.45786 13.9331C8.34348 13.9894 8.19161 13.9519 8.11661 13.8488C8.17098 14.1506 7.67036 14.1863 7.49786 14.0775C7.42984 14.0338 7.37482 13.9727 7.33853 13.9004C7.30225 13.8282 7.28604 13.7475 7.29161 13.6669C7.29161 13.6594 7.29348 13.6519 7.28973 13.6444C7.28598 13.6388 7.27848 13.635 7.27286 13.6313C7.14536 13.5769 6.99723 13.545 6.89036 13.4531C6.51536 13.1325 6.79098 12.3694 6.79098 12.3694C7.12848 12.3769 7.46598 12.3863 7.80348 12.3938L8.48786 12.4106C8.75786 12.4181 8.89848 12.4556 9.05036 12.7088C9.11598 12.8175 9.18348 12.9338 9.17598 13.0613C9.17223 13.1363 9.12723 13.2131 9.06723 13.2544Z" fill="url(#paint0_linear_741_708)"/>
<path d="M9.00773 13.0556C9.10523 13.2787 8.95336 13.3856 8.95336 13.3856C8.94586 13.2787 8.90086 13.1456 8.83148 13.0669C8.74711 12.9469 8.64961 12.9394 8.54461 12.915C8.54461 12.915 8.87648 12.7594 9.00773 13.0556ZM8.60273 13.2694C8.68148 13.32 8.73773 13.4156 8.75086 13.5094C8.76211 13.8094 8.49023 13.9144 8.49023 13.9144C8.55211 13.8019 8.58586 13.6612 8.56523 13.5356C8.55961 13.4719 8.53148 13.4137 8.49023 13.365C8.45086 13.3144 8.39461 13.2806 8.33836 13.2469C8.33836 13.2487 8.47711 13.1906 8.60273 13.2694ZM8.16773 13.545C8.22023 13.6219 8.22773 13.7081 8.22211 13.7831C8.17523 14.055 7.94086 14.1037 7.94086 14.1037C7.99148 13.9987 8.02523 13.8787 8.03461 13.7625C8.05523 13.65 8.02523 13.5244 7.92586 13.4587C7.92961 13.4587 8.05336 13.3912 8.16773 13.545ZM7.54148 13.4794C7.59586 13.4812 7.65211 13.5019 7.68586 13.5431C7.71961 13.5862 7.72523 13.6519 7.69148 13.6931C7.66711 13.7231 7.62398 13.7381 7.58648 13.7269C7.53023 13.7137 7.51148 13.6444 7.51148 13.6444C7.49273 13.6462 7.44586 13.6706 7.33148 13.665C7.19273 13.6594 7.03711 13.5394 7.03711 13.5394C7.04461 13.5356 7.20773 13.5769 7.35398 13.515C7.40648 13.4962 7.48523 13.4794 7.54148 13.4794Z" fill="#EDA600"/>
<path d="M16.8937 23.1768C17.4899 23.1768 17.7487 23.175 17.7487 23.175C17.833 23.175 17.9043 23.1075 17.9062 23.0231L17.9137 22.8C17.9137 22.185 17.4674 22.2506 17.2199 22.2056C16.9162 22.1493 16.723 21.93 16.6218 21.7743C16.5693 21.6956 14.788 21.1218 14.788 21.1218C14.3887 21.9468 14.3418 22.3912 14.3493 22.6987L14.3605 23.0268C14.3624 23.1112 14.4337 23.1787 14.518 23.1787L15.1518 23.1768C15.2399 23.1768 15.3093 23.1056 15.3093 23.0193C15.3093 22.9725 15.3243 22.9293 15.3543 22.8956C15.3974 22.8487 15.5193 22.8206 15.6243 22.8468C16.2674 23.01 16.1399 23.1768 16.8937 23.1768ZM8.47867 23.1768C9.07492 23.1768 9.33367 23.175 9.33367 23.175C9.41804 23.175 9.48929 23.1075 9.49117 23.0231L9.49867 22.8C9.49867 22.185 9.05242 22.2506 8.80492 22.2056C8.50117 22.1493 8.30804 21.93 8.20679 21.7743C8.15429 21.6956 6.37304 21.1218 6.37304 21.1218C5.97367 21.9468 5.92679 22.3912 5.93429 22.6987L5.94554 23.0268C5.94742 23.1112 6.01867 23.1787 6.10304 23.1787L6.73679 23.1768C6.82492 23.1768 6.89429 23.1056 6.89429 23.0193C6.89429 22.9725 6.90929 22.9293 6.93929 22.8956C6.98242 22.8487 7.10429 22.8206 7.20929 22.8468C7.85429 23.01 7.72679 23.1768 8.47867 23.1768Z" fill="#455A64"/>
<path d="M16.889 3.04313C16.5365 2.84438 16.2327 3.00563 16.034 3.35438L15.1734 5.76563L12.5184 6.59813C12.269 6.915 12.4902 7.56188 12.7152 7.9125C12.9796 8.325 13.1952 8.52375 13.5965 8.42438C13.5965 8.42438 15.0796 7.87125 15.8352 7.51688C16.4727 7.21875 16.7034 7.11563 16.874 6.44625C17.0427 5.77688 17.3971 4.03875 17.3971 4.03875C17.5959 3.69188 17.2415 3.24188 16.889 3.04313Z" fill="#AEEAF5"/>
<path d="M17.7922 4.26001L17.5484 2.78626L16.2097 2.52563L15.7578 4.06313C16.3578 4.51313 17.7922 4.26001 17.7922 4.26001Z" fill="#00BFA5"/>
<path d="M13.6542 6.95817C16.4029 8.49192 16.6954 12.0413 16.6954 12.0413C16.6954 12.0413 15.171 13.0557 13.8585 13.0557C12.546 13.0557 12.9154 9.27754 12.9154 9.27754C12.9154 9.27754 10.2885 5.08129 13.6542 6.95817Z" fill="#AEEAF5"/>
<path d="M13.3156 7.17749C16.0137 8.66436 16.4056 12.2212 16.4056 12.2212C16.4056 12.2212 15.1737 13.0556 13.8612 13.0556C12.5487 13.0556 12.9181 9.27749 12.9181 9.27749C12.9181 9.27749 9.94055 5.31561 13.3156 7.17749Z" fill="#74CCF2"/>
<path d="M9.97094 13.0556C9.59594 14.3681 9.15156 16.2337 8.71656 16.95C7.88406 18.3262 5.52344 20.8181 5.52344 20.8181C6.53594 22.2656 8.81031 22.2037 8.81031 22.2037C8.81031 22.2037 9.67469 19.2075 11.9847 16.4943C12.6728 15.6862 12.9859 15.6037 13.1978 15.7612C13.6722 16.1156 15.1778 17.7787 15.1778 17.7787C14.8909 18.6393 13.5109 21.5512 13.5109 21.5512C14.9941 22.65 17.0753 22.1775 17.0753 22.1775C17.0753 22.1775 17.2047 20.7131 17.4072 18.3581C17.4934 17.3587 17.5122 16.7568 16.9834 16.0875C16.6628 15.6806 15.5528 14.3925 15.0953 13.5956C14.8253 13.125 14.7334 12.3543 14.7334 11.835C14.7334 11.835 14.3322 11.8893 14.2047 11.8893H10.5128C10.3028 11.895 10.4847 11.2593 9.97094 13.0556Z" fill="#C2EDF5"/>
<path d="M12.2459 14.2819C12.2459 14.2819 12.6209 13.1569 12.754 11.7863C12.9096 10.1757 12.424 8.52379 11.5259 7.17754C11.3027 6.84379 11.1209 6.63754 10.7459 6.79317C10.5452 6.87567 10.2471 7.16067 10.0334 7.17754C9.65837 7.20567 9.05649 8.00067 9.11087 8.41879C9.11087 8.41879 10.1384 10.5375 10.1665 11.1469C10.204 11.9794 9.54399 13.0519 9.24774 13.4907C9.17274 13.6013 9.21399 13.7513 9.33399 13.8075C9.77649 14.0213 10.8396 14.4225 12.2459 14.2819Z" fill="#C2EDF5"/>
<path d="M11.9908 14.3269L12.1745 14.3663C12.2852 13.5769 12.4895 11.2087 11.312 10.0031L11.942 9.31687C11.2389 8.97 10.3089 8.95875 10.3089 8.95875L10.1289 8.90625L10.1327 9.12188L10.307 9.14625C10.3145 9.14625 11.012 9.1575 11.6252 9.38437L11.0533 10.0069C11.0533 10.0069 12.482 11.4825 11.9908 14.3269Z" fill="#74CCF2"/>
<path d="M11.3093 6.7819C10.0606 6.72565 9.56182 6.68065 8.6712 7.2544C8.05807 7.65003 7.48432 7.99315 6.92182 8.36815C6.35932 8.74315 5.98432 9.11815 6.17182 10.0557C6.28245 10.6069 6.92182 12.6807 6.92182 12.6807C6.92182 12.6807 8.03182 12.4332 8.00182 12.0338L7.85745 9.66753L10.2668 8.81253C10.5893 8.57065 10.5556 7.53003 10.2874 7.1794L11.3093 6.7819Z" fill="#C2EDF5"/>
<path d="M12.7339 12.2213C12.9289 8.25756 11.5714 7.77569 10.9714 8.25756C10.7276 8.45444 10.0995 9.22881 10.0995 9.22881C10.0995 9.22881 10.0151 7.11006 10.2401 6.74256C10.4651 6.37319 11.1289 6.31694 11.5264 6.25319C11.907 6.19131 12.2126 6.31881 12.5951 6.40319C14.4101 6.80631 14.532 7.41756 14.532 7.41756C14.532 7.41756 13.6432 7.13819 13.6207 7.49631C13.6076 7.70069 14.0107 8.03631 14.3089 8.84444C14.607 9.65256 14.7345 10.2507 14.7345 12.0619L12.7339 12.2213Z" fill="url(#paint1_linear_741_708)"/>
<path d="M5.93164 11.7843L6.70977 12.8606L8.02602 12.4012L7.99602 11.1281C6.65539 10.8712 5.93164 11.7843 5.93164 11.7843Z" fill="#00BFA5"/>
<path d="M12.563 9.54002C12.4205 9.2569 12.2668 8.98502 12.098 8.7394C11.9274 8.50127 11.7137 8.28002 11.4905 8.25752C11.4343 8.25565 11.3799 8.25377 11.3218 8.26877C11.2693 8.28002 11.213 8.30815 11.1549 8.34377C11.0349 8.41127 10.9205 8.51064 10.8024 8.60439C10.6843 8.70002 10.5699 8.80502 10.4593 8.91377C10.3393 9.01502 10.2305 9.12752 10.1068 9.23064L10.0918 9.21939C10.2774 8.96627 10.4762 8.72065 10.6974 8.49752C10.808 8.3869 10.9262 8.28002 11.0574 8.19189C11.1868 8.10189 11.3518 8.0494 11.513 8.07002C11.6743 8.09065 11.8187 8.17877 11.933 8.28752C12.0493 8.39627 12.1412 8.52752 12.2218 8.66252C12.3812 8.9344 12.4955 9.23065 12.5818 9.53252L12.563 9.54002Z" fill="#009688"/>
<path d="M11.3065 6.2512L12.409 6.4162L12.9303 8.25558C12.9303 8.25558 11.134 7.33308 10.7272 6.54933L10.5978 6.36933L11.3065 6.2512ZM13.3447 4.0537L12.8628 4.02933L10.2509 3.9037L9.76904 3.87933C9.38279 3.86058 9.05279 4.17933 9.03404 4.5862C9.01529 4.99308 9.31529 5.34183 9.69966 5.36058L10.1815 5.38495L12.7915 5.51245L13.2734 5.53683C13.6597 5.55558 13.9897 5.23683 14.0084 4.82995C14.029 4.4212 13.729 4.07245 13.3447 4.0537Z" fill="#E59600"/>
<path d="M11.7042 1.32374C10.5661 1.26749 9.4561 2.42437 9.37547 4.16249C9.29485 5.89124 10.3411 6.79874 11.4492 6.85312C12.5555 6.90749 13.6805 6.10499 13.7611 4.37624C13.8398 2.63812 12.8423 1.37999 11.7042 1.32374Z" fill="#FFCA28"/>
<path d="M10.0535 3.90938C10.0535 3.90938 10.2035 3.70312 10.5335 3.70312C10.8991 3.70312 11.0416 3.96187 11.0416 3.96187C11.0735 4.00875 11.0585 4.0725 11.0116 4.1025C10.9835 4.12125 10.9478 4.12313 10.9178 4.11188L10.8991 4.10437C10.8991 4.10437 10.7303 3.96563 10.481 3.98813C10.2878 4.005 10.2185 4.05562 10.2128 4.0575C10.1885 4.06875 10.1753 4.0725 10.1753 4.0725C10.121 4.09125 10.0591 4.06312 10.0403 4.00875C10.0339 3.99243 10.0318 3.97475 10.0341 3.95737C10.0364 3.93999 10.0431 3.92348 10.0535 3.90938ZM13.0366 4.19438C13.0366 4.19438 12.9372 4.11 12.6878 4.09125C12.4816 4.07625 12.3335 4.17188 12.3335 4.17188L12.3147 4.1775C12.2603 4.19438 12.2022 4.1625 12.1872 4.10812C12.1778 4.07437 12.1778 4.05 12.206 4.01625C12.251 3.95813 12.416 3.80625 12.6785 3.80625C12.9953 3.80625 13.1266 3.96187 13.196 4.06125C13.2297 4.11 13.2128 4.18313 13.1622 4.20563C13.1266 4.2225 13.0741 4.22438 13.0366 4.19438Z" fill="#6D4C41"/>
<path d="M10.8439 4.52292C10.8448 4.33964 10.7011 4.19035 10.523 4.18949C10.3449 4.18863 10.1998 4.33652 10.1989 4.51981C10.198 4.7031 10.3417 4.85238 10.5198 4.85324C10.6979 4.8541 10.843 4.70621 10.8439 4.52292Z" fill="#404040"/>
<path d="M12.9943 4.62888C12.9951 4.44559 12.8515 4.29631 12.6734 4.29545C12.4953 4.29459 12.3501 4.44248 12.3493 4.62577C12.3484 4.80906 12.492 4.95834 12.6702 4.9592C12.8483 4.96006 12.9934 4.81217 12.9943 4.62888Z" fill="#404040"/>
<path d="M12.0782 5.78254C11.8644 5.89504 11.1819 5.86129 10.9775 5.72817C10.8613 5.65129 10.7338 5.75442 10.7788 5.86504C10.8219 5.97379 11.1838 6.23817 11.5063 6.25317C11.8288 6.26817 12.2075 6.04129 12.2619 5.93629C12.3163 5.83317 12.2 5.71879 12.0782 5.78254Z" fill="#795548"/>
<path d="M11.7772 5.17119C11.7709 5.1676 11.7638 5.16566 11.7566 5.16557L11.2934 5.14307C11.2864 5.14323 11.2794 5.1445 11.2728 5.14682C11.2297 5.16182 11.2053 5.20307 11.2222 5.24994C11.2391 5.29682 11.3253 5.42994 11.5109 5.43932C11.6966 5.44869 11.7941 5.32307 11.8166 5.27994C11.8391 5.23307 11.8184 5.18994 11.7772 5.17119Z" fill="#E59600"/>
<path d="M13.7899 0.793132C13.7749 0.789382 13.758 0.781882 13.7411 0.778132C13.6849 0.768757 13.608 0.768757 13.5799 0.823132C13.4186 1.15313 12.8749 1.26188 12.3105 1.18876C12.1211 1.16438 11.4236 1.52063 11.2624 1.65001C11.0711 1.80376 12.6255 2.62126 12.6255 2.62126C13.1993 2.70188 13.5799 3.49313 13.8761 3.13313C14.7386 2.08876 14.133 0.984382 13.7899 0.793132Z" fill="url(#paint2_radial_741_708)"/>
<path d="M11.684 1.10063H11.6821C8.83401 1.01251 9.22964 4.26938 9.22964 4.26938C9.22964 4.26938 9.34589 4.60876 9.39839 4.75876C9.40589 4.78126 9.43776 4.77938 9.44339 4.75688C9.51464 4.48688 9.83901 3.54751 9.96089 3.25876C10.0321 3.08813 10.214 2.99438 10.3959 3.03376C10.6734 3.09376 11.1159 3.17251 11.6053 3.19126H11.6165C12.1059 3.20813 12.554 3.16313 12.8334 3.12188C13.0153 3.09563 13.1915 3.20251 13.2496 3.37688C13.349 3.67313 13.6096 4.65751 13.6621 4.93688C13.6659 4.95938 13.6978 4.96313 13.7071 4.94251L13.8328 4.44938C13.829 4.44938 14.5303 1.21876 11.684 1.10063Z" fill="#543930"/>
<path d="M11.684 1.10063H11.6821C8.83401 1.01251 9.22964 4.26938 9.22964 4.26938C9.22964 4.26938 9.34589 4.60876 9.39839 4.75876C9.40589 4.78126 9.43776 4.77938 9.44339 4.75688C9.51464 4.48688 9.83901 3.54751 9.96089 3.25876C10.0321 3.08813 10.214 2.99438 10.3959 3.03376C10.6734 3.09376 11.1159 3.17251 11.6053 3.19126H11.6165C12.1059 3.20813 12.554 3.16313 12.8334 3.12188C13.0153 3.09563 13.1915 3.20251 13.2496 3.37688C13.349 3.67313 13.6096 4.65751 13.6621 4.93688C13.6659 4.95938 13.6978 4.96313 13.7071 4.94251L13.8328 4.44938C13.829 4.44938 14.5303 1.21876 11.684 1.10063Z" fill="url(#paint3_radial_741_708)"/>
<path d="M16.5666 1.48875C16.5666 1.48875 16.5497 1.17938 16.8366 1.19438C17.1553 1.21125 17.0635 1.515 17.0635 1.515L16.5666 1.48875Z" fill="url(#paint4_linear_741_708)"/>
<path d="M16.1122 2.27996L16.0747 2.21059C16.0222 1.71371 16.0635 0.973086 16.1272 0.386211C16.1572 0.108711 16.2828 0.0693359 16.356 0.0693359C16.4535 0.0693359 16.5735 0.127461 16.5828 0.395586C16.5903 0.590586 16.5885 0.779961 16.5847 0.963711C16.581 1.18496 16.5772 1.39496 16.5978 1.55996L16.5622 1.56559L16.1422 2.23121C16.1441 2.24621 16.146 2.26121 16.146 2.27621L16.1122 2.27996Z" fill="url(#paint5_linear_741_708)"/>
<path d="M16.1908 1.87126C16.2227 1.82251 16.2977 1.69126 16.324 1.65564C16.6071 1.49251 16.9671 1.62939 17.0252 1.60689L17.0665 1.36689C17.0871 1.25626 17.2183 1.20189 17.3365 1.23564C17.5633 1.30126 17.5352 1.47939 17.5352 1.47939C17.5427 1.48126 17.6233 1.37064 17.794 1.40439C18.1333 1.47189 18.0696 3.06564 16.9708 3.00564C16.9708 3.00564 16.894 3.00751 16.8433 2.99814C16.264 2.91001 16.1777 2.62501 16.1308 2.49376C16.099 2.40376 16.0821 2.30626 16.0746 2.21064C16.069 2.11126 16.129 1.96314 16.1908 1.87126Z" fill="url(#paint6_linear_741_708)"/>
<path d="M17.1315 2.10745C17.2308 2.13745 17.2571 2.08683 17.3115 2.05308C17.3621 2.2087 17.5477 2.21058 17.5477 2.2162C17.5402 2.29308 17.4465 2.4937 17.394 2.54808C17.2102 2.73933 17.0771 2.66995 17.0771 2.66995C17.0771 2.66995 16.8821 2.3962 16.8315 2.32683C16.7808 2.25745 16.6102 2.12808 16.6083 2.1187C16.6027 2.04745 16.6233 1.9612 16.6608 1.9312C16.6871 1.9087 16.974 1.90308 16.974 1.90308C16.974 1.90308 17.0021 2.06995 17.1315 2.10745Z" fill="url(#paint7_linear_741_708)"/>
<path d="M17.7235 2.00065C17.7066 2.03065 17.686 2.06815 17.6597 2.10003C17.6316 2.13378 17.6016 2.1544 17.5585 2.16378C17.5172 2.17315 17.4853 2.1469 17.4666 2.1094C17.4516 2.0794 17.4497 2.04378 17.4497 2.01003C17.4497 1.98003 17.4516 1.94815 17.4572 1.91815C17.4797 1.77565 17.5547 1.64628 17.5753 1.50378C17.5772 1.4869 17.5791 1.46815 17.566 1.45503C17.5617 1.45059 17.5561 1.44765 17.55 1.44663C17.5439 1.44562 17.5377 1.44659 17.5322 1.4494C17.5097 1.46065 17.4966 1.50565 17.4853 1.52628C17.4703 1.55815 17.4553 1.5919 17.4403 1.62378C17.4066 1.6969 17.3747 1.7719 17.3428 1.8469L17.3035 1.94253L17.2941 1.96503C17.2922 1.96878 17.2941 1.96878 17.2847 1.98565C17.281 1.99503 17.2753 2.0044 17.266 2.01378C17.236 2.0494 17.1872 2.0644 17.1441 2.0494C17.101 2.03815 17.0672 1.9969 17.0578 1.95003C17.056 1.93878 17.056 1.92565 17.056 1.91628L17.0616 1.86753C17.0653 1.84315 17.0672 1.8169 17.0691 1.79253L17.071 1.7644C17.0785 1.67253 17.0803 1.5769 17.0935 1.4869C17.0991 1.45315 17.101 1.4194 17.101 1.38565C17.101 1.37253 17.0991 1.36128 17.0953 1.35003C17.0897 1.33503 17.0691 1.31628 17.0522 1.32753C17.0391 1.33503 17.0428 1.35378 17.041 1.3669C17.0335 1.41378 17.0203 1.45878 17.011 1.50565C16.9941 1.58628 16.9791 1.66878 16.966 1.7494L16.9622 1.7719C16.9585 1.79815 16.9528 1.8244 16.9491 1.85065L16.9416 1.90503C16.934 1.96192 16.9468 2.01967 16.9777 2.06806C17.0085 2.11644 17.0555 2.15234 17.1103 2.1694C17.1553 2.18253 17.2041 2.18253 17.2491 2.1694C17.2847 2.15815 17.3166 2.13565 17.3428 2.1094C17.3447 2.11503 17.3428 2.12253 17.3447 2.12815C17.3522 2.15815 17.3653 2.18628 17.386 2.20878C17.4047 2.2294 17.4272 2.24815 17.4572 2.26128C17.4835 2.2744 17.5116 2.2819 17.5397 2.28565C17.5697 2.2894 17.6016 2.28565 17.6297 2.2744C17.6785 2.25753 17.7197 2.22378 17.7591 2.17315C17.7947 2.1244 17.7628 2.17128 17.8266 2.04565C17.866 1.9444 17.8828 1.83378 17.9091 1.72878C17.9147 1.70253 17.9203 1.6744 17.9091 1.65003C17.9053 1.64065 17.896 1.63128 17.8847 1.63128C17.8716 1.63128 17.8641 1.6444 17.8585 1.65565C17.8453 1.68565 17.8341 1.71753 17.8303 1.7494C17.8266 1.7794 17.8153 1.8019 17.8041 1.83003C17.7778 1.88628 17.7535 1.9444 17.7235 2.00065Z" fill="#EDA600"/>
<path d="M16.0751 2.21064C16.0583 2.49189 16.2776 2.76751 16.3883 2.84439C16.632 3.01126 17.0408 3.02814 17.0614 3.00751C17.067 3.00189 17.0558 2.77876 17.0595 2.73189C17.0764 2.55001 16.932 2.34189 16.7745 2.24251C16.7089 2.20126 16.5233 2.00814 16.8308 1.97814C17.0314 1.95751 17.1589 1.87689 17.1889 1.78689C17.2189 1.69689 17.1064 1.55251 17.052 1.54501C17.052 1.54501 16.3733 1.31251 16.1726 1.85251C16.1314 1.95751 16.0808 2.11126 16.0751 2.21064Z" fill="url(#paint8_linear_741_708)"/>
<path d="M16.9891 1.46812C16.9234 1.45312 16.8541 1.44374 16.7809 1.44187C16.7078 1.43999 16.6366 1.44374 16.5709 1.45499C16.4847 1.46999 16.4209 1.49062 16.3647 1.52249C16.2447 1.58999 16.1922 1.70624 16.1472 1.83187C16.1228 1.89749 16.1041 1.96687 16.0909 2.03624C16.0853 2.06999 16.0797 2.10374 16.0759 2.13749C16.0741 2.15624 16.0797 2.21812 16.0703 2.23124C16.1866 2.08124 16.2222 1.88249 16.3366 1.73249C16.3609 1.70062 16.3891 1.67249 16.4209 1.64812C16.5728 1.53749 16.7866 1.53937 16.9628 1.57874C17.0359 1.59562 17.0866 1.61624 17.1222 1.64437C17.1391 1.65749 17.1503 1.67437 17.1503 1.68749C17.1503 1.69124 17.1503 1.69499 17.1484 1.70437C17.1484 1.71187 17.1466 1.71937 17.1466 1.72499C17.1447 1.73999 17.1409 1.75312 17.1372 1.76624C17.1241 1.80937 17.0903 1.87874 17.0472 1.90124C17.0022 1.92562 16.9403 1.91249 16.8953 1.90312C16.8559 1.89562 16.8147 1.88624 16.7753 1.87874C16.7453 1.87312 16.7116 1.86749 16.6891 1.88624C16.6797 1.89374 16.6722 1.90499 16.6666 1.91624C16.6422 1.96499 16.6234 2.01749 16.6141 2.06999C16.6047 2.11687 16.6197 2.14312 16.6478 2.18249C16.6853 2.23499 16.7378 2.27437 16.7884 2.31749C16.8747 2.39062 16.9591 2.47687 16.9909 2.58562C17.0041 2.62687 17.0078 2.66999 17.0209 2.70937C17.0266 2.72437 17.0341 2.73937 17.0491 2.74499C17.0697 2.75062 17.0884 2.72999 17.0941 2.70937C17.1222 2.59312 17.0659 2.47312 17.0003 2.37937C16.9216 2.26874 16.8297 2.17687 16.7097 2.11124C16.7378 2.07374 16.7566 2.03062 16.7659 1.98562C16.7622 2.00249 16.9197 2.00437 16.9347 2.00437C17.0359 2.00812 17.1278 1.98937 17.2009 1.91062C17.2234 1.88624 17.2422 1.85812 17.2534 1.82812C17.2722 1.77749 17.2684 1.72124 17.2647 1.66687C17.2609 1.61624 17.2272 1.58812 17.1916 1.55624C17.1259 1.50562 17.0528 1.48312 16.9891 1.46812Z" fill="#EDA600"/>
<defs>
<linearGradient id="paint0_linear_741_708" x1="7.30269" y1="12.3314" x2="8.78197" y2="13.9663" gradientUnits="userSpaceOnUse">
<stop offset="0.5" stop-color="#FFCA28"/>
<stop offset="1" stop-color="#FFB300"/>
</linearGradient>
<linearGradient id="paint1_linear_741_708" x1="12.4091" y1="12.79" x2="12.4091" y2="8.18275" gradientUnits="userSpaceOnUse">
<stop offset="0.116" stop-color="#00AB94"/>
<stop offset="0.377" stop-color="#00B29A"/>
<stop offset="1" stop-color="#00BFA5"/>
</linearGradient>
<radialGradient id="paint2_radial_741_708" cx="0" cy="0" r="1" gradientUnits="userSpaceOnUse" gradientTransform="translate(11.8232 2.5955) rotate(9.735) scale(1.40006)">
<stop stop-color="#6D4C41" stop-opacity="0"/>
<stop offset="1" stop-color="#6D4C41"/>
</radialGradient>
<radialGradient id="paint3_radial_741_708" cx="0" cy="0" r="1" gradientUnits="userSpaceOnUse" gradientTransform="translate(11.534 3.6387) scale(2.5125 2.54918)">
<stop offset="0.646" stop-color="#6D4C41" stop-opacity="0"/>
<stop offset="1" stop-color="#6D4C41"/>
</radialGradient>
<linearGradient id="paint4_linear_741_708" x1="16.5666" y1="1.35338" x2="17.0764" y2="1.35338" gradientUnits="userSpaceOnUse">
<stop offset="0.5" stop-color="#FFCA28"/>
<stop offset="1" stop-color="#FFB300"/>
</linearGradient>
<linearGradient id="paint5_linear_741_708" x1="16.0509" y1="1.17521" x2="16.5995" y2="1.17521" gradientUnits="userSpaceOnUse">
<stop offset="0.5" stop-color="#FFCA28"/>
<stop offset="1" stop-color="#FFB300"/>
</linearGradient>
<linearGradient id="paint6_linear_741_708" x1="16.0759" y1="2.11633" x2="17.9773" y2="2.11633" gradientUnits="userSpaceOnUse">
<stop offset="0.5" stop-color="#FFCA28"/>
<stop offset="1" stop-color="#FFB300"/>
</linearGradient>
<linearGradient id="paint7_linear_741_708" x1="16.9084" y1="1.99925" x2="17.394" y2="2.53857" gradientUnits="userSpaceOnUse">
<stop stop-color="#FFB300"/>
<stop offset="0.311" stop-color="#FFB707" stop-opacity="0.689"/>
<stop offset="0.774" stop-color="#FFC31C" stop-opacity="0.226"/>
<stop offset="1" stop-color="#FFCA28" stop-opacity="0"/>
</linearGradient>
<linearGradient id="paint8_linear_741_708" x1="16.25" y1="2.70682" x2="17.2839" y2="1.77569" gradientUnits="userSpaceOnUse">
<stop offset="0.5" stop-color="#FFCA28"/>
<stop offset="1" stop-color="#FFB300"/>
</linearGradient>
</defs>
</svg>
