<svg width="24" height="24" viewBox="0 0 24 24" fill="none" xmlns="http://www.w3.org/2000/svg">
<path d="M7.61439 6.18467C7.61439 6.18467 7.22272 5.86334 7.61439 5.56234C7.61439 5.56234 6.80305 5.08301 7.19472 4.71067C7.43805 4.47967 9.62272 3.35667 11.9394 3.10067C13.3544 2.94467 15.0664 3.11167 16.0537 4.00267C16.0537 4.00267 17.2587 4.94601 16.1677 5.41501C16.1677 5.41501 16.8111 6.05834 16.1677 6.19834L7.61439 6.18467Z" fill="#3F3F3F"/>
<path d="M18.811 19.735C18.811 19.735 19.5374 14.725 15.18 14.725C14.0214 15.495 13.0284 16.0266 11.9124 16.0243H11.9577C10.8417 16.0263 9.84903 15.4946 8.69003 14.7253C4.33303 14.7253 5.05903 19.735 5.05903 19.735" fill="white"/>
<path d="M14.9256 14.692C13.6579 15.537 12.9759 15.8917 11.3516 16.127C16.5749 16.2917 16.5749 18.1344 16.8799 19.7337H18.9246C18.9246 19.7337 19.7242 14.692 14.9256 14.692Z" fill="#D0CFCE"/>
<path d="M16.6694 17.754C16.6694 17.754 15.3694 18.0274 14.6094 16.7307L14.4961 16.534C14.5661 16.4107 14.6094 16.274 14.6194 16.134H14.6228L14.9694 16.184C16.4661 16.434 16.6694 17.754 16.6694 17.754Z" fill="#EA5A47"/>
<path d="M14.4976 16.534C14.402 16.7073 14.2553 16.847 14.0776 16.934C13.9876 16.9807 13.8909 17.0107 13.7942 17.024C13.7309 17.0373 13.6642 17.044 13.6009 17.0373C13.4205 17.0332 13.2446 16.9802 13.0919 16.8839C12.9393 16.7876 12.8157 16.6517 12.7342 16.4907L12.5742 16.1273V16.124C13.1909 16.0107 13.7876 15.724 14.4209 15.334V15.3373L14.5209 15.594C14.6076 15.7673 14.6409 15.954 14.6209 16.134C14.6109 16.274 14.5676 16.4107 14.4976 16.534Z" fill="#EA5A47"/>
<path d="M14.4031 17.0673C15.3598 18.0873 14.5464 19.214 14.5464 19.214C14.5464 19.214 13.3598 18.5773 13.7298 17.244L13.7931 17.0307V17.024C13.8898 17.0107 13.9864 16.9807 14.0764 16.934C14.1164 16.914 14.1531 16.894 14.1864 16.8707L14.2164 16.9207L14.4031 17.0673ZM13.5998 17.0373L13.5931 17.1507C9.1231 18.3073 9.00977 14.984 9.00977 14.984C10.0598 15.684 10.9598 16.1707 11.9664 16.1807H12.0098C12.1998 16.1773 12.3864 16.1607 12.5731 16.124V16.1273L12.7331 16.4907C12.8145 16.6517 12.9382 16.7876 13.0908 16.8839C13.2434 16.9802 13.4193 17.0332 13.5998 17.0373Z" fill="#EA5A47"/>
<path d="M5.41675 19.8887C5.17254 19.7028 4.9449 19.4962 4.73641 19.271C3.62308 18.059 3.39975 16.5783 3.71908 15.4227C4.09575 14.0613 5.52141 13.2653 6.90275 13.6497C7.55675 13.8317 9.54175 14.1873 9.89075 17.5047C11.1727 17.113 12.4824 18.1387 11.5674 19.4917C11.4294 19.6957 11.2407 19.907 10.9941 20.1223C9.72808 21.226 7.11408 21.1813 5.41675 19.8887Z" fill="#F1B31C"/>
<path d="M5.95011 15.4477C5.90295 15.6181 5.79 15.7629 5.63613 15.85C5.48226 15.9372 5.30006 15.9597 5.12961 15.9125C4.95916 15.8653 4.81444 15.7524 4.72726 15.5985C4.64009 15.4447 4.61761 15.2625 4.66478 15.092C4.71194 14.9216 4.82488 14.7768 4.97876 14.6897C5.13263 14.6025 5.31483 14.58 5.48528 14.6272C5.65572 14.6743 5.80045 14.7873 5.88762 14.9412C5.9748 15.095 5.99727 15.2772 5.95011 15.4477Z" fill="#EA5A47"/>
<path d="M7.87525 19.3154C7.82637 19.4837 7.71311 19.6261 7.56002 19.7116C7.40694 19.797 7.22634 19.8188 7.05735 19.772C6.88835 19.7253 6.74457 19.6139 6.65715 19.4619C6.56972 19.3099 6.54569 19.1296 6.59025 18.96C6.63914 18.7916 6.7524 18.6493 6.90548 18.5638C7.05857 18.4784 7.23917 18.4566 7.40816 18.5034C7.57715 18.5501 7.72093 18.6615 7.80836 18.8135C7.89579 18.9655 7.91982 19.1458 7.87525 19.3154Z" fill="#61B2E4"/>
<path d="M20.0913 14.7317L18.8013 19.7207C18.751 19.8984 18.6331 20.0493 18.473 20.1412C18.3128 20.2332 18.123 20.2588 17.9442 20.2126C17.7654 20.1663 17.6117 20.052 17.5162 19.894C17.4206 19.736 17.3906 19.5468 17.4326 19.367L18.723 14.3777L20.0913 14.7317Z" fill="#3F3F3F"/>
<path d="M20.384 13.5987L20.091 14.7317L18.7227 14.3777L19.0157 13.245L19.361 13.3343L20.045 13.511L20.384 13.5987Z" fill="#9B9B9A"/>
<path d="M20.4368 10.6304C20.4368 10.6304 21.7551 12.0837 20.2901 13.316L20.0468 13.5114L19.3625 13.3344L19.2025 13.0344C18.5475 11.2127 20.4368 10.6304 20.4368 10.6304Z" fill="#A57939"/>
<path d="M6.10636 17.737C6.08301 17.8214 6.04326 17.9004 5.98939 17.9694C5.93551 18.0384 5.86857 18.0962 5.79238 18.1393C5.71619 18.1825 5.63224 18.2102 5.54533 18.221C5.45842 18.2317 5.37026 18.2252 5.28586 18.2018C5.20146 18.1785 5.12249 18.1387 5.05346 18.0848C4.98442 18.031 4.92667 17.964 4.88351 17.8878C4.84035 17.8116 4.81261 17.7277 4.80189 17.6408C4.79117 17.5539 4.79767 17.4657 4.82103 17.3813C4.86819 17.2109 4.98113 17.0661 5.13501 16.979C5.28888 16.8918 5.47108 16.8693 5.64153 16.9165C5.81197 16.9637 5.9567 17.0766 6.04387 17.2305C6.13105 17.3843 6.15352 17.5665 6.10636 17.737Z" fill="#FCEA2B"/>
<path d="M9.7883 6.88403C9.7883 6.88403 11.803 8.22136 11.324 7.2057C11.324 7.2057 13.324 8.53803 13.0323 7.3977C13.0323 7.3977 14.839 9.35003 14.967 7.56003C14.967 7.56003 15.1496 9.31536 15.7656 9.2267C16.14 9.2267 16.817 7.18936 15.8983 6.19836H8.21097C8.21097 6.19836 7.08763 8.21636 8.21497 9.2267C8.84663 8.9817 9.7883 6.88403 9.7883 6.88403Z" fill="#F4AA41"/>
<path d="M14.9666 7.56003C14.8389 9.35003 13.0323 7.39737 13.0323 7.39737C13.3239 8.5377 11.3239 7.2057 11.3239 7.2057C11.8029 8.22137 9.78827 6.88403 9.78827 6.88403C9.78827 6.88403 8.8576 8.95603 8.22594 9.2207C8.21827 9.34337 8.21094 9.46603 8.21094 9.59103C8.21094 12.2004 9.90327 14.3154 11.9906 14.3154C14.0779 14.3154 15.7699 12.2004 15.7699 9.59103C15.7699 9.4677 15.7626 9.34703 15.7553 9.22637C15.1479 9.29303 14.9666 7.56003 14.9666 7.56003Z" fill="#FCEA2B"/>
<path d="M13.9906 8.98162C13.9905 9.06919 13.9732 9.15589 13.9397 9.23678C13.9061 9.31767 13.857 9.39115 13.795 9.45304C13.7331 9.51493 13.6595 9.56402 13.5786 9.59749C13.4977 9.63096 13.411 9.64816 13.3234 9.64812C13.2358 9.64808 13.1491 9.63078 13.0682 9.59723C12.9874 9.56368 12.9139 9.51453 12.852 9.45257C12.7901 9.39062 12.741 9.31709 12.7075 9.23616C12.6741 9.15524 12.6569 9.06852 12.6569 8.98095C12.657 8.8041 12.7273 8.63452 12.8524 8.50953C12.9776 8.38454 13.1472 8.31436 13.3241 8.31445C13.5009 8.31454 13.6705 8.38488 13.7955 8.51C13.9205 8.63512 13.9907 8.80476 13.9906 8.98162ZM11.3239 8.98162C11.3239 9.06919 11.3066 9.15589 11.273 9.23678C11.2395 9.31767 11.1903 9.39115 11.1284 9.45304C11.0664 9.51493 10.9929 9.56402 10.9119 9.59749C10.831 9.63096 10.7443 9.64816 10.6567 9.64812C10.5692 9.64808 10.4825 9.63078 10.4016 9.59723C10.3207 9.56368 10.2472 9.51453 10.1853 9.45257C10.1234 9.39062 10.0743 9.31709 10.0409 9.23616C10.0074 9.15524 9.99019 9.06852 9.99023 8.98095C9.99032 8.8041 10.0607 8.63452 10.1858 8.50953C10.3109 8.38454 10.4805 8.31436 10.6574 8.31445C10.8343 8.31454 11.0038 8.38488 11.1288 8.51C11.2538 8.63512 11.324 8.80476 11.3239 8.98162ZM11.9906 12.3156C11.6066 12.3156 11.2226 12.2203 10.8416 12.0296C10.8021 12.0103 10.7668 11.9833 10.7378 11.9502C10.7087 11.9172 10.6865 11.8787 10.6725 11.837C10.6584 11.7953 10.6527 11.7513 10.6557 11.7074C10.6587 11.6635 10.6704 11.6206 10.6901 11.5813C10.7097 11.5419 10.737 11.5069 10.7703 11.4781C10.8036 11.4493 10.8422 11.4274 10.884 11.4137C10.9258 11.3999 10.9699 11.3946 11.0137 11.3979C11.0576 11.4013 11.1004 11.4133 11.1396 11.4333C11.7122 11.72 12.2689 11.72 12.8416 11.4333C12.9207 11.3938 13.0123 11.3873 13.0962 11.4153C13.1801 11.4433 13.2494 11.5035 13.2889 11.5826C13.3284 11.6617 13.3349 11.7533 13.3069 11.8372C13.2789 11.9211 13.2187 11.9904 13.1396 12.03C12.7586 12.22 12.3746 12.3156 11.9906 12.3156Z" fill="black"/>
<path d="M11.9905 14.493C9.7225 14.493 7.87717 12.224 7.87717 9.435C7.87717 9.361 7.87884 9.28733 7.8815 9.21433L8.54784 9.23933C8.5455 9.30433 8.54417 9.36933 8.54417 9.435C8.54417 11.8563 10.0898 13.826 11.9905 13.826C13.8912 13.826 15.4365 11.8567 15.4365 9.435C15.4365 9.369 15.4355 9.303 15.4332 9.23766L16.0995 9.21566C16.1022 9.28833 16.1032 9.36166 16.1032 9.435C16.1032 12.224 14.2582 14.493 11.9905 14.493ZM16.1675 6.53166H16.1665L7.61317 6.51833C7.5362 6.51799 7.46168 6.49115 7.40217 6.44233C7.35217 6.401 7.10117 6.17833 7.1065 5.84733C7.1075 5.786 7.1175 5.71266 7.14784 5.634C6.97384 5.48166 6.78717 5.26266 6.75784 5.00666C6.7355 4.808 6.80884 4.61733 6.9645 4.46933C7.3065 4.144 9.6025 3.02366 11.9025 2.76933C12.7822 2.67333 14.9678 2.57466 16.2765 3.75533C16.3882 3.84166 17.0298 4.378 16.9508 4.98466C16.9308 5.13733 16.8595 5.33133 16.6558 5.506C16.7538 5.67533 16.8252 5.886 16.7635 6.09566C16.7268 6.221 16.6095 6.44333 16.2378 6.524C16.2146 6.52907 16.1913 6.53164 16.1675 6.53166ZM7.78784 5.85166L16.0922 5.865C16.0477 5.78718 15.9937 5.71518 15.9315 5.65066C15.893 5.61217 15.8645 5.56483 15.8485 5.51278C15.8325 5.46073 15.8295 5.40556 15.8398 5.35209C15.85 5.29861 15.8733 5.24847 15.9074 5.20603C15.9415 5.1636 15.9855 5.13017 16.0355 5.10866C16.1078 5.07766 16.2772 4.99533 16.2898 4.89866C16.3118 4.733 16.0418 4.41866 15.8472 4.26466C15.0612 3.55633 13.6215 3.25033 11.9755 3.43233C9.7245 3.681 7.6325 4.778 7.42684 4.95C7.4635 5.03066 7.63084 5.18533 7.7835 5.27566C7.83057 5.3033 7.8701 5.34209 7.89863 5.38862C7.92717 5.43514 7.94381 5.48797 7.9471 5.54245C7.9504 5.59692 7.94024 5.65137 7.91752 5.701C7.8948 5.75062 7.86023 5.79389 7.81684 5.827C7.80663 5.83456 7.79694 5.8428 7.78784 5.85166Z" fill="black"/>
<path d="M11.9397 3.43435C11.8513 3.43435 11.7666 3.39923 11.704 3.33672C11.6415 3.2742 11.6064 3.18942 11.6064 3.10101V2.07235C11.6064 1.98394 11.6415 1.89916 11.704 1.83664C11.7666 1.77413 11.8513 1.73901 11.9397 1.73901C12.0282 1.73901 12.1129 1.77413 12.1754 1.83664C12.238 1.89916 12.2731 1.98394 12.2731 2.07235V3.10101C12.2731 3.18942 12.238 3.2742 12.1754 3.33672C12.1129 3.39923 12.0282 3.43435 11.9397 3.43435ZM15.7211 9.56335C15.5761 9.56335 15.4364 9.51368 15.3127 9.41735C15.0851 9.23968 14.9301 8.89935 14.8261 8.55735C14.7909 8.57644 14.7542 8.59271 14.7164 8.60601C14.2274 8.77735 13.6341 8.39335 13.2197 8.03935C13.2023 8.05544 13.1838 8.07036 13.1644 8.08401C12.8137 8.33268 12.1894 8.10135 11.6111 7.77401C11.6006 7.7853 11.5894 7.79598 11.5777 7.80601C11.4567 7.91035 11.1857 8.14301 9.92975 7.37035C9.58875 8.07701 8.92275 9.30968 8.33608 9.53735C8.27867 9.55966 8.21621 9.56564 8.15561 9.55464C8.09502 9.54364 8.03865 9.51608 7.99275 9.47501C6.68275 8.30035 7.86908 6.12835 7.92008 6.03601C7.949 5.98414 7.99126 5.94094 8.04248 5.91088C8.0937 5.88081 8.15202 5.86498 8.21141 5.86501H15.8984C15.9443 5.86498 15.9898 5.87443 16.0319 5.89279C16.074 5.91115 16.1118 5.938 16.1431 5.97168C16.9271 6.81735 16.7367 8.21268 16.4174 8.94435C16.2454 9.33835 16.0357 9.54501 15.7937 9.55935C15.7696 9.56205 15.7454 9.56339 15.7211 9.56335ZM15.7287 8.89668L15.7334 8.89868C15.7487 8.89635 15.7504 8.89335 15.7661 8.89335C15.7537 8.89339 15.741 8.89451 15.7287 8.89668ZM14.9677 7.22668C15.0501 7.22673 15.1296 7.25727 15.1907 7.31242C15.2519 7.36757 15.2905 7.44342 15.2991 7.52535C15.3604 8.10768 15.5507 8.73668 15.7011 8.87601C15.8011 8.73135 15.9814 8.31368 16.0197 7.76068C16.0401 7.46135 16.0274 6.92635 15.7421 6.53168H8.41775C8.21941 6.95835 7.77975 8.08368 8.26775 8.78601C8.60508 8.44601 9.12641 7.54535 9.48475 6.74768C9.5045 6.70351 9.53365 6.66418 9.57016 6.63242C9.60667 6.60066 9.64966 6.57724 9.69614 6.56378C9.74262 6.55033 9.79148 6.54717 9.8393 6.55452C9.88713 6.56187 9.93278 6.57956 9.97308 6.60635C10.3341 6.84568 10.7304 7.06401 10.9924 7.17568C10.9974 7.11804 11.0173 7.0627 11.0502 7.01512C11.0831 6.96754 11.1279 6.92936 11.18 6.90436C11.2322 6.87935 11.29 6.86838 11.3477 6.87253C11.4054 6.87668 11.461 6.8958 11.5091 6.92801C11.9561 7.22535 12.4791 7.47801 12.7191 7.52068C12.7163 7.50706 12.7131 7.4935 12.7097 7.48001C12.6915 7.40822 12.6976 7.33239 12.7273 7.26449C12.7569 7.19659 12.8083 7.1405 12.8733 7.10506C12.9384 7.06963 13.0134 7.05688 13.0865 7.06882C13.1596 7.08076 13.2267 7.11672 13.2771 7.17101C13.7207 7.64935 14.3117 8.03901 14.4957 7.97701C14.5341 7.96368 14.6124 7.85401 14.6351 7.53635C14.6411 7.45234 14.6788 7.37374 14.7404 7.31635C14.8021 7.25897 14.8832 7.22705 14.9674 7.22701" fill="black"/>
<path d="M14.4209 15.3373L14.5209 15.5939C14.6076 15.7673 14.6409 15.9539 14.6209 16.1339C14.6109 16.2739 14.5676 16.4106 14.4976 16.5339C14.402 16.7073 14.2553 16.8469 14.0776 16.9339C13.9876 16.9806 13.8909 17.0106 13.7942 17.0239C13.7309 17.0373 13.6642 17.0439 13.6009 17.0373C13.4205 17.0332 13.2446 16.9801 13.0919 16.8839C12.9393 16.7876 12.8157 16.6517 12.7342 16.4906L12.5742 16.1273" stroke="black" stroke-width="0.666667" stroke-miterlimit="10" stroke-linecap="round" stroke-linejoin="round"/>
<path d="M16.9761 15.514C16.4927 15.1907 15.8427 14.984 14.9661 14.984C14.7794 15.1073 14.5994 15.224 14.4194 15.334C13.7861 15.724 13.1894 16.0107 12.5727 16.124C12.3861 16.1607 12.1994 16.1773 12.0094 16.1807H11.9661C11.0544 16.1717 10.2304 15.7717 9.30273 15.1763M14.2161 16.9207L14.4027 17.0673C15.3594 18.0873 14.5461 19.214 14.5461 19.214C14.5461 19.214 13.3594 18.5773 13.7294 17.244L13.7927 17.0307M9.8204 16.7037C9.9524 16.8247 10.1057 16.937 10.2837 17.035C10.4776 17.14 10.6834 17.2212 10.8967 17.2767C10.9661 17.295 11.0381 17.3117 11.1124 17.326C11.7361 17.447 12.5447 17.422 13.5927 17.1507M14.4894 16.5207L14.4961 16.534L14.6094 16.7307C15.3694 18.0273 16.6694 17.754 16.6694 17.754C16.6694 17.754 16.4661 16.434 14.9694 16.184L14.6227 16.134" stroke="black" stroke-width="0.666667" stroke-miterlimit="10" stroke-linecap="round" stroke-linejoin="round"/>
<path d="M8.55287 21.2386C7.39153 21.2386 6.15854 20.8726 5.21487 20.154C4.95453 19.9569 4.71244 19.7368 4.49153 19.4963C3.41087 18.321 3.0022 16.7646 3.3982 15.3336C3.49835 14.9691 3.66991 14.6281 3.90292 14.3305C4.13593 14.0328 4.42574 13.7844 4.75553 13.5996C5.09185 13.4087 5.46273 13.2864 5.84667 13.2398C6.23061 13.1932 6.61998 13.2233 6.9922 13.3283L7.09554 13.3563C7.82554 13.5496 9.71887 14.0506 10.1762 17.1043C10.8729 17.019 11.5589 17.2696 11.9309 17.7733C12.3292 18.3126 12.2975 19.007 11.8432 19.6786C11.6845 19.914 11.4725 20.1476 11.2132 20.3736C10.5482 20.9536 9.57787 21.2386 8.55287 21.2386ZM5.6192 19.6233C7.13887 20.7813 9.59687 20.8986 10.7759 19.871C10.9912 19.6833 11.1645 19.493 11.2915 19.3053C11.5819 18.8756 11.6185 18.4723 11.3949 18.1696C11.1235 17.803 10.5325 17.658 9.98887 17.823C9.94191 17.8374 9.89234 17.8413 9.84371 17.8343C9.79509 17.8273 9.74861 17.8096 9.70763 17.7825C9.66664 17.7554 9.63217 17.7196 9.60668 17.6776C9.58119 17.6356 9.56532 17.5885 9.5602 17.5396C9.2522 14.6163 7.62154 14.1853 6.9252 14.001L6.81387 13.971C6.52605 13.8895 6.22492 13.866 5.92794 13.9018C5.63097 13.9376 5.34406 14.0321 5.08387 14.1796C4.8305 14.3215 4.60783 14.5122 4.42879 14.7408C4.24974 14.9694 4.11788 15.2313 4.04087 15.5113C3.70687 16.719 4.05887 18.0403 4.9822 19.0453C5.17663 19.2568 5.38984 19.4503 5.6192 19.6233Z" fill="black"/>
<path d="M19.3613 13.3344L19.2013 13.0344C18.5463 11.2127 20.4356 10.6304 20.4356 10.6304C20.4356 10.6304 21.754 12.0837 20.289 13.316L20.0456 13.5114M20.0913 14.7317L18.8013 19.7207C18.751 19.8984 18.6331 20.0493 18.473 20.1413C18.3128 20.2332 18.123 20.2588 17.9442 20.2126C17.7654 20.1664 17.6117 20.052 17.5162 19.894C17.4206 19.736 17.3906 19.5469 17.4326 19.367L18.723 14.3777" stroke="black" stroke-width="0.666667" stroke-miterlimit="10" stroke-linecap="round" stroke-linejoin="round"/>
<path d="M20.091 14.7317L20.384 13.5987L20.045 13.511L19.361 13.3343L19.0157 13.245L18.7227 14.3777L20.091 14.7317Z" stroke="black" stroke-width="0.666667" stroke-miterlimit="10" stroke-linecap="round" stroke-linejoin="round"/>
</svg>
