<svg width="28" height="20" viewBox="0 0 28 20" fill="none" xmlns="http://www.w3.org/2000/svg">
<g clip-path="url(#clip0_1149_4202)">
<path d="M27.379 3.11944C27.2184 2.51651 26.9052 1.96683 26.4705 1.52514C26.0358 1.08346 25.4948 0.765179 24.9014 0.602C22.729 0 13.9858 0 13.9858 0C13.9858 0 5.24206 0.0182222 3.06964 0.620222C2.47623 0.783411 1.93525 1.10171 1.50057 1.54341C1.06589 1.98512 0.752678 2.53482 0.592123 3.13778C-0.0649833 7.05978 -0.319887 13.036 0.610166 16.8011C0.770738 17.404 1.08396 17.9537 1.51864 18.3954C1.95332 18.8371 2.49429 19.1554 3.08768 19.3186C5.2601 19.9206 14.0036 19.9206 14.0036 19.9206C14.0036 19.9206 22.747 19.9206 24.9193 19.3186C25.5127 19.1554 26.0537 18.8371 26.4884 18.3954C26.9231 17.9538 27.2363 17.4041 27.3969 16.8011C28.09 12.8736 28.3035 6.901 27.379 3.11944Z" fill="#FF0000"/>
<path d="M11.2029 14.229L18.4561 9.96032L11.2029 5.69165V14.229Z" fill="white"/>
</g>
<defs>
<clipPath id="clip0_1149_4202">
<rect width="28" height="20" fill="white"/>
</clipPath>
</defs>
</svg>
