<svg width="1440" height="803" viewBox="0 0 1440 803" fill="none" xmlns="http://www.w3.org/2000/svg">
<g opacity="0.24">
<mask id="mask0_1036_1467" style="mask-type:luminance" maskUnits="userSpaceOnUse" x="-650" y="0" width="2090" height="803">
<path d="M1440 0H-650V802.075H1440V0Z" fill="white"/>
</mask>
<g mask="url(#mask0_1036_1467)">
<path d="M-681.351 639.361C-645.472 582.113 -538.186 542.711 -432.989 548.025C-358.097 551.835 -286.341 575.696 -211.797 569.781C-121.056 562.663 -61.1432 516.443 -0.184885 482.054C76.2743 438.942 150.992 420.896 258.104 439.344C337.524 452.979 403.011 484.36 488.527 484.46C645.799 484.661 722.781 389.916 773.115 318.431C823.798 246.444 873.957 170.247 1002.32 133.352C1107.51 103.073 1212.54 106.282 1321.91 125.532C1374.51 134.755 1426.07 140.972 1469.61 162.527" stroke="#0D8EFF" stroke-miterlimit="10"/>
<path d="M1474.49 165.937C1429.9 144.682 1377.47 138.165 1324.18 128.941C1284.99 122.123 1246.33 117.411 1208.01 115.406C1137.82 111.696 1068.68 117.511 999.881 137.363C978.633 143.579 959.3 150.797 941.883 158.918C853.232 200.426 812.129 264.692 768.413 325.449C716.338 397.937 634.131 491.579 475.291 490.476C389.601 489.975 323.766 458.995 244.694 444.758C174.157 432.226 117.552 435.033 64.9542 450.072C38.3067 457.692 12.8784 468.52 -13.0725 481.954C-74.7275 514.037 -135.86 557.45 -226.427 563.967C-248.894 565.571 -271.013 564.668 -293.132 562.563C-344.686 557.55 -395.542 545.92 -447.792 544.015C-552.815 540.005 -658.882 580.008 -694.238 637.457" stroke="#158CF9" stroke-miterlimit="10"/>
<path d="M1479.01 169.245C1433.38 148.291 1380.26 141.473 1326.09 132.25C1286.38 125.432 1247.02 120.62 1208.18 118.715C1136.95 115.105 1066.41 121.021 997.267 141.173C975.671 147.489 956.338 154.808 938.747 163.23C849.225 205.639 808.819 271.009 763.884 332.468C710.066 406.058 622.461 498.397 462.053 496.392C376.537 495.489 310.18 464.81 231.282 450.172C161.441 437.339 104.837 439.043 52.2389 452.679C25.5914 459.496 -0.0110982 469.522 -26.1361 481.954C-88.3136 511.732 -150.665 552.337 -241.232 558.352C-263.699 559.856 -285.993 558.954 -308.112 556.848C-359.839 552.136 -410.87 541.308 -462.946 540.005C-567.794 537.498 -672.643 578.003 -707.476 635.652" stroke="#1D8BF2" stroke-miterlimit="10"/>
<path d="M1483.54 172.554C1436.86 151.901 1383.05 144.882 1328.01 135.558C1287.78 128.741 1247.89 123.928 1208.36 122.023C1136.08 118.414 1064.32 124.53 994.481 145.083C972.71 151.5 953.029 159.019 935.264 167.541C844.872 210.853 805.162 277.425 759.008 339.386C703.274 414.079 610.618 504.914 448.643 502.307C363.127 501.004 296.421 470.625 217.698 455.486C148.554 442.252 92.1236 443.154 39.5253 455.286C12.8778 461.401 -12.8989 470.525 -39.0239 481.955C-101.898 509.426 -165.295 547.123 -256.036 552.638C-278.503 553.941 -300.796 553.039 -323.09 551.134C-374.991 546.622 -426.196 536.696 -478.098 536.095C-582.424 534.892 -686.053 575.998 -720.538 633.848" stroke="#2589EC" stroke-miterlimit="10"/>
<path d="M1488.07 175.762C1440.35 155.41 1385.66 148.091 1330.1 138.767C1289.35 131.949 1248.94 127.137 1208.71 125.232C1135.38 121.723 1062.41 128.039 992.043 148.793C970.098 155.309 950.069 162.929 932.13 171.652C840.692 215.766 801.853 283.541 754.48 346.203C697.005 421.899 599.123 511.431 435.58 508.122C350.064 506.318 282.836 476.34 204.461 460.8C135.84 447.165 79.5837 447.165 26.9854 457.792C0.337911 463.206 -25.4387 471.427 -51.9121 481.854C-115.483 506.919 -179.925 541.91 -270.665 546.822C-293.133 548.026 -315.6 547.123 -337.894 545.319C-389.97 541.108 -441.349 531.984 -493.076 532.084C-597.054 532.185 -699.638 573.892 -733.426 631.943" stroke="#2D88E6" stroke-miterlimit="10"/>
<path d="M1492.77 179.071C1444.01 159.019 1388.62 151.399 1332.19 142.175C1290.91 135.358 1249.81 130.545 1209.05 128.64C1134.69 125.131 1060.32 131.648 989.43 152.703C967.137 159.32 947.108 167.14 928.82 176.063C836.512 221.08 798.37 289.958 749.777 353.222C690.386 430.02 587.454 518.249 422.17 514.038C336.654 511.932 269.077 482.255 190.876 466.214C122.951 452.278 66.8696 451.275 14.0971 460.399C-12.7245 465.011 -38.5012 472.43 -65.1487 481.854C-129.242 504.613 -194.903 536.797 -285.644 541.108C-308.111 542.211 -330.579 541.308 -352.872 539.604C-405.122 535.593 -456.501 527.272 -508.403 528.074C-612.206 529.578 -713.397 571.887 -746.837 630.138" stroke="#3586DF" stroke-miterlimit="10"/>
<path d="M1497.3 182.379C1447.49 162.628 1391.41 154.808 1334.11 145.484C1292.31 138.666 1250.68 133.854 1209.23 131.949C1133.81 128.54 1058.23 135.157 986.644 156.513C964.176 163.23 943.799 171.15 925.337 180.274C831.984 226.193 794.712 296.274 744.726 360.039C683.594 437.941 575.262 524.866 408.585 519.853C323.069 517.346 255.144 487.97 177.117 471.427C109.889 457.19 53.8072 455.185 1.20889 462.805C-25.6128 466.715 -51.5636 473.232 -78.3853 481.654C-143.349 502.107 -209.881 531.483 -300.622 535.293C-323.264 536.195 -345.557 535.293 -368.025 533.688C-420.449 529.979 -472.002 522.459 -523.73 523.963C-627.185 526.871 -727.156 569.682 -760.074 628.133" stroke="#3D85D9" stroke-miterlimit="10"/>
<path d="M1501.83 185.688C1450.97 166.237 1394.02 158.116 1336.2 148.792C1293.87 141.975 1251.73 137.162 1209.58 135.257C1133.12 131.849 1056.31 138.666 984.206 160.422C961.565 167.24 940.839 175.361 922.203 184.585C827.979 231.406 791.404 302.59 740.199 367.057C677.151 445.961 563.768 531.583 395.349 525.868C310.007 522.96 241.56 493.986 163.707 476.941C97.0013 462.404 41.2679 459.396 -11.5046 465.512C-38.3262 468.62 -64.4512 474.335 -91.447 481.754C-157.108 499.901 -224.684 526.369 -315.425 529.678C-338.067 530.48 -360.535 529.578 -383.002 528.074C-435.6 524.565 -487.328 517.948 -538.881 520.153C-641.988 524.364 -740.915 567.776 -773.31 626.428" stroke="#4583D3" stroke-miterlimit="10"/>
<path d="M1506.36 188.895C1454.46 169.846 1396.81 161.324 1338.11 152C1295.27 145.182 1252.42 140.369 1209.75 138.465C1132.07 135.156 1054.05 142.174 981.419 164.131C958.429 171.049 937.703 179.27 918.719 188.795C823.45 236.418 787.746 308.805 735.321 373.874C670.531 453.881 551.924 538.199 381.937 531.582C296.595 528.273 227.8 499.599 150.121 482.154C84.1122 467.215 28.3788 463.305 -24.2196 467.917C-51.2154 470.323 -77.3404 475.136 -104.336 481.552C-170.694 497.293 -239.315 521.054 -330.056 523.761C-352.698 524.463 -375.165 523.561 -397.807 522.157C-450.58 518.949 -502.481 513.134 -553.86 515.941C-656.619 521.556 -754.326 565.469 -786.199 624.422" stroke="#4D81CC" stroke-miterlimit="10"/>
<path d="M1510.89 192.205C1457.94 173.456 1399.59 164.734 1340.03 155.309C1296.66 148.492 1253.29 143.679 1209.93 141.875C1131.2 138.566 1051.96 145.785 978.633 168.042C955.469 175.06 934.395 183.482 915.411 193.107C819.271 241.633 784.263 315.123 730.62 380.893C663.914 462.003 540.256 545.018 368.701 537.598C283.36 533.889 214.041 505.616 136.711 487.569C71.399 472.33 15.6656 467.317 -36.9327 470.525C-63.9286 472.129 -90.2278 476.139 -117.398 481.553C-184.626 494.988 -254.119 515.942 -344.859 518.148C-367.501 518.649 -390.143 517.847 -412.784 516.544C-465.731 513.536 -517.807 508.623 -569.012 512.133C-671.596 519.151 -767.91 563.666 -799.26 622.719" stroke="#5580C6" stroke-miterlimit="10"/>
<path d="M1515.59 195.514C1461.6 177.066 1402.38 168.042 1342.12 158.718C1298.23 151.901 1254.34 146.988 1210.45 145.284C1130.68 142.075 1050.21 149.394 976.368 172.053C953.03 179.171 931.607 187.693 912.449 197.519C815.264 246.947 781.127 321.64 726.265 387.911C657.817 470.024 528.934 551.836 355.638 543.614C270.296 539.504 200.629 511.531 123.474 493.083C58.6836 477.543 3.29868 471.528 -49.2997 473.232C-76.2955 474.134 -102.769 477.242 -130.113 481.654C-198.038 492.682 -268.576 510.93 -359.316 512.534C-381.958 512.935 -404.6 512.033 -427.241 510.829C-480.362 508.122 -532.438 503.911 -583.643 508.223C-685.879 516.544 -781.148 561.661 -811.976 620.914" stroke="#5D7EC0" stroke-miterlimit="10"/>
<path d="M1520.12 198.822C1465.08 180.675 1405.17 171.351 1344.21 162.027C1299.62 155.209 1255.21 150.296 1210.8 148.592C1129.98 145.384 1048.12 153.003 973.755 175.862C950.069 183.181 928.646 191.804 909.139 201.83C811.084 252.16 777.644 327.956 721.562 394.929C651.025 477.944 516.916 558.553 342.053 549.429C256.711 545.018 186.696 517.346 109.715 498.297C45.6213 482.456 -9.76372 475.438 -62.362 475.638C-89.532 475.738 -116.005 478.044 -143.524 481.453C-212.32 490.075 -283.728 505.515 -374.469 506.618C-397.11 506.819 -419.926 506.017 -442.568 504.914C-495.863 502.407 -548.113 499.099 -599.144 504.011C-701.031 513.737 -795.081 559.355 -825.386 618.909" stroke="#657DB9" stroke-miterlimit="10"/>
<path d="M1524.64 202.029C1468.56 184.182 1407.95 174.658 1346.12 165.233C1301.01 158.416 1256.08 153.503 1210.97 151.799C1129.11 148.691 1046.03 156.411 970.969 179.57C947.108 186.99 925.337 195.712 905.656 205.939C806.73 257.071 773.986 334.07 716.511 401.645C644.406 485.863 505.073 565.268 328.642 555.242C243.475 550.43 172.937 523.159 96.1298 503.609C32.7331 487.467 -22.4778 479.446 -75.2503 478.143C-102.42 477.441 -129.242 478.845 -156.76 481.351C-226.427 487.567 -298.706 500.3 -389.447 500.802C-412.089 500.902 -434.904 500.1 -457.72 499.097C-511.189 496.892 -563.614 494.385 -614.47 500C-716.009 511.128 -808.84 557.348 -838.797 617.002" stroke="#6D7BB3" stroke-miterlimit="10"/>
<path d="M1529.17 205.337C1472.05 187.792 1410.57 177.967 1348.04 168.542C1302.41 161.725 1256.95 156.812 1211.14 155.107C1128.24 151.999 1043.94 159.92 968.356 183.481C944.321 191 922.202 199.923 902.347 210.25C802.375 262.285 770.503 340.487 711.809 408.664C637.962 493.984 493.404 572.086 315.405 561.258C230.238 556.045 159.178 529.175 82.7188 509.123C19.8446 492.681 -35.1921 483.658 -87.7904 480.85C-114.96 479.447 -141.956 479.948 -169.475 481.452C-240.012 485.262 -313.162 495.288 -403.903 495.288C-426.719 495.288 -449.36 494.385 -472.35 493.583C-525.994 491.578 -578.592 489.974 -629.275 496.29C-730.64 508.722 -822.251 555.544 -851.511 615.398" stroke="#757AAD" stroke-miterlimit="10"/>
<path d="M1533.7 208.647C1475.53 191.402 1413.35 181.276 1349.96 171.852C1303.8 164.934 1257.65 160.121 1211.32 158.417C1127.37 155.309 1041.68 163.43 965.569 187.292C941.36 194.911 918.893 203.935 898.864 214.462C798.021 267.399 766.845 346.704 706.932 415.482C631.169 501.906 481.56 578.704 301.994 567.074C216.827 561.56 145.419 534.891 69.1336 514.338C6.95606 497.595 -48.0807 487.468 -100.679 483.257C-127.849 481.052 -155.019 480.651 -182.712 481.252C-254.12 482.656 -328.141 489.975 -418.882 489.373C-441.697 489.173 -464.513 488.371 -487.503 487.569C-541.321 485.764 -594.093 485.062 -644.602 491.98C-745.618 505.816 -836.011 553.138 -864.922 613.294" stroke="#7E78A6" stroke-miterlimit="10"/>
<path d="M1538.4 211.955C1479.19 195.111 1416.14 184.684 1352.22 175.26C1305.54 168.342 1258.87 163.53 1211.84 161.825C1126.85 158.818 1039.94 167.139 963.131 191.201C938.574 198.921 916.107 208.145 895.729 218.873C793.842 272.712 763.537 353.12 702.404 422.5C624.9 509.926 470.066 585.522 288.932 572.989C203.765 567.074 132.008 540.806 55.8975 519.751C-5.75747 502.707 -60.4458 491.579 -113.044 485.864C-140.388 482.956 -167.558 481.653 -195.425 481.252C-267.704 480.149 -342.596 484.861 -433.511 483.658C-456.327 483.357 -479.142 482.555 -502.132 481.853C-556.124 480.349 -608.897 480.349 -659.405 488.069C-760.073 503.309 -849.247 551.133 -877.636 611.489" stroke="#8676A0" stroke-miterlimit="10"/>
<path d="M1542.93 215.264C1482.67 198.721 1418.92 187.993 1354.13 178.569C1306.94 171.651 1259.74 166.838 1212.01 165.134C1125.98 162.126 1037.85 170.648 960.518 195.011C935.786 202.831 912.97 212.156 892.593 223.084C789.835 277.725 760.226 359.437 697.875 429.418C618.455 517.947 458.396 592.339 275.695 578.905C190.527 572.689 118.422 546.721 42.4855 525.065C-18.4728 507.72 -73.1611 495.589 -125.759 488.37C-153.104 484.661 -180.448 482.455 -208.489 481.152C-281.639 477.542 -357.401 479.547 -448.316 477.843C-471.132 477.442 -494.122 476.54 -517.112 476.038C-571.278 474.735 -624.224 475.637 -674.559 484.059C-775.053 500.602 -863.007 549.128 -890.874 609.584" stroke="#8E7599" stroke-miterlimit="10"/>
<path d="M1547.46 218.471C1486.15 202.229 1421.71 191.201 1356.05 181.777C1308.33 174.859 1260.43 170.046 1212.19 168.342C1125.11 165.434 1035.58 174.057 957.732 198.821C932.827 206.741 909.662 216.266 889.111 227.294C785.307 282.838 756.57 365.652 692.825 436.235C611.663 525.867 446.379 599.056 261.936 584.719C176.943 578.102 104.141 552.536 28.5531 530.379C-31.8828 512.733 -86.3969 499.499 -138.995 490.876C-166.339 486.365 -194.032 483.357 -221.899 481.051C-295.745 474.935 -372.553 474.334 -463.468 472.128C-486.284 471.526 -509.274 470.724 -532.438 470.323C-586.778 469.321 -639.899 471.025 -690.059 480.048C-790.205 497.995 -876.94 547.022 -904.284 607.779" stroke="#967393" stroke-miterlimit="10"/>
<path d="M1551.99 221.78C1489.64 205.839 1424.32 194.61 1357.97 185.086C1309.72 178.168 1261.3 173.255 1212.54 171.751C1124.41 168.843 1033.67 177.767 955.293 202.731C930.039 210.752 906.875 220.377 885.975 231.706C781.301 288.152 753.26 372.069 688.296 443.354C605.218 533.988 434.883 605.975 248.873 590.735C163.88 583.817 90.7297 558.552 15.3155 535.893C-44.4236 517.947 -98.7637 503.71 -151.362 493.584C-178.88 488.37 -206.573 484.36 -234.614 481.152C-309.331 472.529 -387.01 469.321 -477.925 466.514C-500.74 465.812 -523.905 465.01 -547.069 464.709C-601.583 463.907 -654.878 466.514 -704.864 476.239C-804.661 495.589 -890.177 545.117 -917.173 606.075" stroke="#9E728D" stroke-miterlimit="10"/>
<path d="M1556.69 225.088C1493.29 209.448 1427.28 197.918 1360.23 188.393C1311.46 181.475 1262.52 176.563 1213.06 175.059C1123.71 172.252 1031.75 181.275 952.855 206.54C927.427 214.661 903.914 224.487 882.84 235.916C777.121 293.265 749.951 378.385 683.768 450.171C598.774 541.908 423.04 612.691 235.637 596.549C150.643 589.231 76.9709 564.366 1.9051 541.106C-57.1374 522.859 -111.477 507.519 -164.076 495.989C-191.594 489.974 -219.461 485.061 -247.676 480.95C-323.264 469.822 -401.813 464.007 -492.728 460.598C-515.718 459.695 -538.708 458.994 -562.047 458.693C-616.735 458.191 -670.204 461.6 -720.016 472.027C-819.465 492.781 -903.762 542.911 -930.235 604.069" stroke="#A67086" stroke-miterlimit="10"/>
<path d="M1561.22 228.397C1496.78 213.057 1430.07 201.226 1362.15 191.702C1312.86 184.784 1263.22 179.871 1213.24 178.367C1122.84 175.56 1029.66 184.784 950.069 210.45C924.467 218.672 900.606 228.597 879.357 240.227C772.767 298.378 746.294 384.701 678.892 457.189C592.157 550.029 411.372 619.609 222.227 602.565C137.233 594.945 63.2124 570.281 -11.5051 546.62C-70.0251 528.072 -124.017 511.73 -176.615 498.796C-204.133 491.979 -232.174 486.164 -260.563 481.151C-336.848 467.415 -416.443 458.993 -507.358 455.184C-530.348 454.181 -553.338 453.379 -576.676 453.279C-631.538 452.978 -685.008 457.189 -734.819 468.318C-834.094 490.375 -917.172 541.106 -943.123 602.465" stroke="#AE6E80" stroke-miterlimit="10"/>
<path d="M1565.75 231.606C1500.26 216.567 1432.68 204.536 1364.06 195.012C1314.25 188.094 1264.09 183.181 1213.41 181.677C1121.97 178.97 1027.57 188.294 947.456 214.261C921.506 222.683 897.645 232.709 876.048 244.54C768.587 303.592 742.811 391.019 674.189 464.108C585.712 557.951 399.528 626.327 208.99 608.381C123.997 600.36 49.6274 576.098 -24.916 551.935C-82.7393 533.086 -136.731 515.741 -189.329 501.304C-216.848 493.785 -245.063 486.967 -273.626 480.951C-350.608 464.709 -431.247 453.681 -522.162 449.269C-545.152 448.167 -568.316 447.364 -591.654 447.364C-646.691 447.364 -700.334 452.377 -749.972 464.208C-849.073 487.568 -930.931 538.801 -956.359 600.36" stroke="#B66D7A" stroke-miterlimit="10"/>
<path d="M1570.28 234.914C1503.74 220.276 1435.47 207.844 1366.15 198.32C1315.82 191.402 1265.14 186.489 1213.76 184.985C1121.27 182.278 1025.48 191.903 944.844 218.071C918.719 226.593 894.51 236.719 872.739 248.75C764.233 308.705 739.327 397.335 669.312 471.025C579.094 565.971 387.859 633.145 195.579 614.296C110.76 605.974 35.694 582.012 -38.501 557.248C-95.8019 538.099 -149.445 519.651 -202.218 503.81C-229.91 495.489 -258.125 487.869 -286.689 480.851C-364.367 462.002 -446.051 448.467 -536.966 443.454C-559.956 442.151 -583.12 441.449 -606.633 441.549C-661.844 441.75 -715.661 447.665 -765.124 460.197C-863.703 484.961 -944.516 536.795 -969.422 598.555" stroke="#BE6B73" stroke-miterlimit="10"/>
<path d="M1574.8 238.224C1507.23 223.887 1438.26 211.154 1368.07 201.629C1317.21 194.712 1265.83 189.799 1213.93 188.295C1120.4 185.688 1023.39 195.413 942.056 221.882C915.757 230.504 891.2 240.831 869.429 252.962C760.052 313.82 735.843 403.552 664.609 477.844C572.649 573.893 376.189 639.964 182.341 620.112C97.5222 611.39 22.108 587.829 -51.9128 562.563C-108.691 543.113 -161.986 523.562 -214.759 506.318C-242.451 497.194 -270.84 488.672 -299.578 480.752C-377.953 459.396 -460.682 443.255 -551.597 437.64C-574.587 436.236 -597.925 435.434 -621.438 435.635C-676.823 436.136 -730.815 442.854 -780.104 455.988C-878.682 482.256 -958.102 534.691 -982.485 596.651" stroke="#C66A6D" stroke-miterlimit="10"/>
<path d="M1579.51 241.532C1510.89 227.496 1441.04 214.562 1370.16 204.937C1318.78 198.02 1266.88 193.107 1214.28 191.603C1119.71 188.996 1021.48 198.922 939.619 225.791C912.971 234.514 888.414 244.941 866.295 257.273C755.873 318.932 732.535 409.868 660.081 484.862C566.031 581.913 364.346 646.981 169.105 626.027C84.2863 617.104 8.34967 593.844 -65.3228 567.877C-121.405 548.226 -174.7 527.572 -227.472 508.824C-255.165 498.898 -283.554 489.474 -312.64 480.651C-391.711 456.689 -475.485 437.94 -566.4 431.925C-589.39 430.421 -612.729 429.619 -636.415 429.92C-691.975 430.621 -746.14 438.241 -795.43 452.077C-893.485 479.648 -971.686 532.585 -995.721 594.746" stroke="#CE6867" stroke-miterlimit="10"/>
<path d="M1584.04 244.739C1514.37 231.004 1443.83 217.77 1372.07 208.145C1320.17 201.227 1267.75 196.314 1214.45 194.81C1118.84 192.304 1019.21 202.43 936.832 229.5C910.01 238.323 885.105 248.95 862.811 261.483C751.519 324.045 728.877 416.183 655.205 491.678C559.413 589.832 352.503 653.597 155.52 631.841C70.7013 622.517 -5.75788 599.658 -79.082 573.189C-134.641 553.238 -187.588 531.582 -240.36 511.329C-268.053 500.702 -296.616 490.275 -325.876 480.55C-405.645 454.081 -490.464 432.726 -581.379 426.109C-604.369 424.404 -627.881 423.703 -651.394 424.104C-707.127 425.106 -761.293 433.428 -810.582 448.066C-908.29 477.041 -985.445 530.579 -1008.78 592.94" stroke="#D66760" stroke-miterlimit="10"/>
<path d="M1588.56 248.048C1466.65 224.888 1342.99 201.528 1214.8 198.219C1086.62 194.91 951.114 214.06 859.676 265.794C747.339 329.258 725.568 422.499 650.676 498.596C552.969 597.753 341.008 660.315 142.458 637.756C-5.93208 620.812 -129.765 564.467 -252.9 513.836C-376.036 463.205 -515.021 414.98 -666.198 418.288C-833.224 422.098 -987.361 496.992 -1021.85 591.035" stroke="#DE655A" stroke-miterlimit="10"/>
<path d="M-1012.44 589.834C-978.653 502.708 -840.887 433.229 -687.272 422.401C-677.17 421.699 -667.068 421.197 -656.967 421.097C-512.06 418.39 -378.3 462.705 -258.648 510.328C-254.468 511.932 -250.462 513.637 -246.282 515.241C-123.494 564.669 0.512417 619.31 147.509 634.75C344.317 655.203 551.75 591.538 651.025 494.086C663.739 481.554 675.234 468.52 685.858 455.286C738.457 389.816 772.245 319.133 866.121 268.603C912.972 243.437 970.621 226.393 1032.8 216.067C1092.89 206.141 1157.33 202.532 1219.85 204.136C1347.34 207.244 1470.48 229.1 1590.65 249.654" stroke="#D56960" stroke-miterlimit="10"/>
<path d="M-1003.21 588.629C-968.029 502.606 -830.263 435.031 -677.867 425.006C-667.94 424.304 -657.838 423.903 -647.736 423.802C-504.049 421.496 -371.334 465.21 -252.03 511.73C-247.85 513.334 -243.844 514.938 -239.664 516.542C-117.225 564.867 6.78202 617.804 152.56 631.64C347.8 649.988 550.705 585.12 651.373 489.472C664.435 477.14 675.93 464.407 686.903 451.474C741.243 387.609 777.992 319.733 872.565 271.408C919.764 247.346 977.239 231.104 1039.07 221.379C1098.81 211.954 1162.73 208.646 1225.08 210.049C1351.87 212.957 1474.31 233.31 1592.74 251.356" stroke="#CD6E67" stroke-miterlimit="10"/>
<path d="M-993.806 587.427C-957.231 502.507 -819.291 436.937 -668.288 427.613C-658.361 427.011 -648.433 426.61 -638.506 426.51C-496.037 424.705 -364.367 467.717 -245.412 513.134C-241.232 514.738 -237.226 516.242 -233.046 517.846C-110.781 565.069 13.226 616.301 157.436 628.533C351.109 644.775 549.485 578.704 651.547 484.861C664.784 472.73 676.627 460.298 687.948 447.665C744.029 385.304 783.739 320.235 878.834 274.116C926.208 251.156 983.683 235.817 1045.16 226.593C1104.55 217.77 1168.13 214.562 1229.95 215.865C1356.05 218.572 1477.97 237.521 1594.66 252.861" stroke="#C4726D" stroke-miterlimit="10"/>
<path d="M-984.575 586.224C-946.607 502.407 -808.667 438.742 -658.709 430.12C-648.956 429.518 -639.028 429.218 -629.101 429.117C-487.852 427.814 -357.227 470.124 -238.619 514.538C-234.439 516.042 -230.433 517.646 -226.428 519.15C-104.511 565.169 19.4957 614.798 162.487 625.425C354.418 639.462 548.266 572.288 652.069 480.149C665.48 468.319 677.672 456.087 689.341 443.856C747.164 383.098 789.835 320.737 885.452 276.924C933.174 255.067 990.475 240.529 1051.43 231.907C1110.48 223.586 1173.52 220.678 1235.01 221.881C1360.41 224.388 1481.62 241.833 1596.57 254.666" stroke="#BC7773" stroke-miterlimit="10"/>
<path d="M-975.17 585.021C-935.808 502.307 -797.868 440.547 -649.13 432.727C-639.377 432.226 -629.623 431.925 -619.87 431.825C-479.84 431.023 -350.26 472.63 -232.001 515.942C-227.995 517.446 -223.815 518.95 -219.809 520.454C-98.2407 565.37 25.9401 613.194 167.538 622.318C357.902 634.249 547.047 565.872 652.418 475.538C666.003 463.908 678.543 451.977 690.56 440.046C750.125 380.893 795.757 321.339 891.897 279.631C939.793 258.877 997.093 245.142 1057.7 237.121C1116.4 229.301 1179.1 226.594 1240.23 227.697C1364.93 230.003 1485.63 245.944 1598.84 256.27" stroke="#B37B7A" stroke-miterlimit="10"/>
<path d="M-965.764 583.817C-925.009 502.206 -787.069 442.451 -639.55 435.333C-629.971 434.831 -620.217 434.631 -610.464 434.631C-471.653 434.33 -342.944 475.236 -225.208 517.545C-221.202 519.049 -217.022 520.453 -213.016 521.957C-91.7959 565.67 32.5592 611.889 172.763 619.409C361.56 629.234 546.177 559.654 652.941 471.125C666.7 459.696 679.414 448.065 691.78 436.435C753.087 378.786 801.679 322.039 898.342 282.537C946.586 262.886 1003.54 250.053 1063.97 242.534C1122.32 235.215 1184.67 232.708 1245.28 233.811C1369.46 235.917 1489.29 250.354 1600.76 258.074" stroke="#AB7F80" stroke-miterlimit="10"/>
<path d="M-956.534 582.614C-914.385 502.106 -776.445 444.256 -629.971 437.84C-620.392 437.439 -610.813 437.238 -601.059 437.238C-463.468 437.439 -335.804 477.743 -218.415 518.849C-214.409 520.253 -210.229 521.657 -206.224 523.161C-85.1778 565.771 39.0031 610.286 177.988 616.201C365.043 623.821 545.131 553.138 653.463 466.314C667.396 455.084 680.459 443.755 693.173 432.426C756.221 376.381 807.775 322.341 904.96 285.145C953.552 266.597 1010.33 254.566 1070.24 247.547C1128.24 240.73 1190.07 238.524 1250.51 239.426C1373.99 241.231 1493.12 254.265 1603.02 259.478" stroke="#A28486" stroke-miterlimit="10"/>
<path d="M-947.128 581.411C-903.587 502.005 -765.473 446.161 -620.392 440.446C-610.813 440.045 -601.408 439.945 -591.828 439.945C-455.456 440.647 -328.837 480.249 -211.797 520.253C-207.791 521.656 -203.611 523.06 -199.605 524.464C-78.9075 565.871 45.4475 608.681 182.865 613.093C368.352 618.607 543.912 546.721 653.637 461.701C667.745 450.773 681.156 439.644 694.218 428.616C759.182 374.175 813.523 322.942 911.404 287.851C960.171 270.406 1016.95 259.277 1076.51 252.76C1134.16 246.544 1195.64 244.439 1255.56 245.241C1378.35 246.845 1496.95 258.375 1604.94 260.982" stroke="#9A888D" stroke-miterlimit="10"/>
<path d="M-937.724 580.208C-892.789 501.805 -754.674 447.966 -610.813 442.953C-601.408 442.652 -592.003 442.452 -582.424 442.552C-447.27 443.755 -321.696 482.656 -205.004 521.657C-200.999 522.96 -196.993 524.364 -192.813 525.667C-72.4636 565.971 52.0656 607.078 188.09 609.885C372.01 613.294 542.867 540.205 654.16 456.989C668.441 446.262 682.201 435.434 695.611 424.806C762.317 371.869 819.618 323.444 918.022 290.659C967.137 274.317 1023.74 263.99 1082.96 258.075C1140.26 252.36 1201.22 250.555 1260.78 251.257C1382.87 252.661 1500.78 262.787 1607.2 262.787" stroke="#918C93" stroke-miterlimit="10"/>
<path d="M-928.493 578.906C-882.165 501.706 -744.051 449.771 -601.234 445.46C-591.829 445.159 -582.598 445.059 -573.193 445.26C-439.259 446.864 -314.73 485.163 -198.386 523.061C-194.381 524.364 -190.375 525.668 -186.369 526.971C-66.3681 566.072 58.1611 605.675 192.966 606.778C375.144 608.282 541.474 533.789 654.334 452.378C668.964 441.851 682.723 431.324 696.656 420.997C765.104 369.664 825.191 323.946 924.292 293.367C973.581 278.127 1030.01 268.703 1088.88 263.289C1145.83 258.075 1206.44 256.471 1265.66 257.073C1387.05 258.276 1504.44 266.898 1608.94 264.292" stroke="#899199" stroke-miterlimit="10"/>
<path d="M-919.088 577.701C-871.367 501.604 -733.253 451.575 -591.655 448.065C-582.424 447.865 -573.019 447.765 -563.788 447.965C-431.073 450.071 -307.589 487.668 -191.594 524.563C-187.588 525.867 -183.583 527.07 -179.577 528.373C-59.9242 566.372 64.7791 604.27 198.191 603.768C378.802 603.067 540.602 527.471 654.856 447.765C669.66 437.538 683.768 427.212 697.875 417.186C768.064 367.457 831.112 324.546 930.736 296.172C980.373 282.036 1036.63 273.414 1095.15 268.601C1151.75 263.889 1212.02 262.586 1270.71 263.087C1391.41 264.089 1508.1 271.208 1611.03 266.095" stroke="#8095A0" stroke-miterlimit="10"/>
<path d="M-909.683 576.499C-860.568 501.505 -722.454 453.481 -582.076 450.673C-572.845 450.473 -563.614 450.473 -554.383 450.673C-422.887 453.28 -300.448 490.276 -184.801 525.968C-180.796 527.171 -176.79 528.475 -172.784 529.678C-53.3057 566.573 71.3977 602.767 203.242 600.661C382.285 597.854 539.383 521.055 655.204 443.154C670.183 433.128 684.638 423.102 699.094 413.377C771.025 365.152 837.034 325.048 937.18 298.881C987.166 285.847 1043.25 278.127 1101.42 273.816C1157.85 269.705 1217.41 268.502 1275.93 268.903C1395.94 269.705 1512.1 275.32 1613.12 267.6" stroke="#789AA6" stroke-miterlimit="10"/>
<path d="M-900.452 575.294C-849.943 501.403 -711.655 455.284 -572.496 453.179C-563.439 453.078 -554.208 453.078 -545.152 453.279C-414.875 456.387 -293.307 492.681 -178.182 527.27C-174.177 528.473 -170.171 529.676 -166.165 530.88C-47.035 566.572 77.6683 601.061 208.293 597.452C385.595 592.539 538.165 514.537 655.553 438.44C670.706 428.615 685.51 418.89 700.314 409.465C773.987 362.845 842.957 325.448 943.625 301.586C993.785 289.655 1049.87 282.737 1107.52 279.028C1163.6 275.419 1222.81 274.516 1280.81 274.817C1400.12 275.419 1515.59 279.529 1615.04 269.303" stroke="#6F9EAC" stroke-miterlimit="10"/>
<path d="M-891.047 574.093C-839.145 501.304 -700.857 457.09 -562.917 455.787C-553.86 455.686 -544.804 455.787 -535.747 455.987C-406.689 459.596 -286.166 495.189 -171.39 528.775C-167.384 529.979 -163.379 531.081 -159.373 532.285C-40.591 566.874 84.2865 599.659 213.518 594.445C389.252 587.427 537.294 508.122 656.25 433.93C671.577 424.305 686.555 414.881 701.882 405.857C777.296 360.841 849.227 326.151 950.592 304.495C1001.1 293.667 1057.01 287.652 1114.31 284.343C1170.04 281.235 1228.74 280.533 1286.38 280.734C1404.99 281.135 1519.94 283.741 1617.65 270.908" stroke="#66A2B3" stroke-miterlimit="10"/>
<path d="M-881.642 572.889C-828.347 501.203 -690.059 458.994 -553.338 458.292C-544.455 458.292 -535.399 458.393 -526.516 458.693C-398.678 462.804 -279.2 497.694 -164.772 530.178C-160.766 531.281 -156.76 532.384 -152.929 533.587C-34.4954 566.974 90.5563 598.154 218.395 591.337C392.561 582.113 535.9 501.705 656.424 429.217C671.925 419.893 687.251 410.669 702.752 401.947C779.908 358.434 854.8 326.652 956.687 307.201C1007.54 297.476 1063.1 292.263 1120.23 289.556C1175.61 286.949 1233.96 286.448 1291.26 286.548C1409.17 286.749 1523.43 287.952 1619.39 272.512" stroke="#5EA7B9" stroke-miterlimit="10"/>
<path d="M-872.411 571.687C-817.723 501.104 -679.434 460.8 -543.759 460.9C-534.876 460.9 -525.994 461.1 -517.111 461.401C-390.492 466.013 -272.059 500.202 -157.979 531.683C-153.974 532.786 -150.142 533.889 -146.136 534.891C-27.877 567.175 97.0005 596.551 223.62 588.229C396.045 576.9 534.856 495.289 656.946 424.606C672.621 415.482 688.296 406.559 704.146 398.137C783.043 356.229 860.896 327.154 963.306 309.909C1014.34 301.287 1069.9 296.875 1126.5 294.77C1181.54 292.765 1239.53 292.464 1296.31 292.464C1413.53 292.464 1527.08 292.163 1621.48 274.217" stroke="#55ABC0" stroke-miterlimit="10"/>
<path d="M-863.006 570.483C-806.751 501.004 -668.462 462.604 -534.18 463.406C-525.471 463.507 -516.589 463.707 -507.88 464.008C-382.48 469.121 -265.092 502.608 -151.361 532.986C-147.355 533.989 -143.524 535.092 -139.518 536.094C-21.607 567.175 103.445 594.947 228.496 585.021C399.354 571.486 533.636 488.772 657.121 419.894C672.97 410.971 688.993 402.348 705.19 394.227C785.83 353.823 866.643 327.555 969.576 312.616C1020.95 305.097 1076.34 301.588 1132.6 299.983C1187.28 298.48 1244.76 298.379 1301.19 298.279C1417.88 298.079 1530.74 296.274 1623.22 275.721" stroke="#4DB0C6" stroke-miterlimit="10"/>
<path d="M-853.601 569.279C-795.951 500.902 -657.663 464.508 -524.6 466.012C-515.891 466.112 -507.183 466.313 -498.475 466.714C-374.12 472.328 -257.951 505.213 -144.568 534.389C-140.562 535.391 -136.731 536.394 -132.725 537.397C-15.1624 567.374 110.064 593.442 233.722 581.912C403.012 566.271 532.592 482.354 657.643 415.281C673.841 406.658 689.864 398.236 706.584 390.416C788.965 351.616 872.739 328.155 976.194 315.322C1027.75 308.905 1083.13 306.198 1139.04 305.196C1193.38 304.193 1250.51 304.394 1306.59 304.193C1422.58 303.692 1534.75 300.483 1625.66 277.424" stroke="#44B4CC" stroke-miterlimit="10"/>
<path d="M-844.37 568.077C-785.327 500.802 -647.039 466.313 -515.02 468.619C-506.312 468.719 -497.778 469.02 -489.07 469.522C-365.934 475.537 -250.81 507.821 -137.775 535.994C-133.77 536.996 -129.938 537.898 -125.932 538.901C-8.71784 567.676 116.508 592.039 238.947 579.005C406.495 561.159 531.547 476.139 658.166 410.77C674.538 402.348 690.91 394.227 707.804 386.808C791.926 349.611 878.661 328.858 982.639 318.23C1034.54 312.916 1089.58 311.112 1145.14 310.61C1199.13 310.109 1255.73 310.51 1311.47 310.209C1426.76 309.508 1538.4 304.795 1627.4 279.129" stroke="#3CB8D3" stroke-miterlimit="10"/>
<path d="M-834.965 566.873C-774.529 500.702 -636.241 468.218 -505.441 471.126C-496.907 471.326 -488.373 471.627 -479.839 472.128C-357.922 478.645 -243.843 510.227 -131.157 537.297C-127.326 538.199 -123.32 539.202 -119.488 540.104C-2.62231 567.776 122.778 590.234 243.824 575.897C409.804 555.745 530.328 469.722 658.34 406.158C674.886 397.936 691.606 390.116 708.849 382.998C794.713 347.305 884.408 329.359 989.083 321.037C1041.33 316.826 1096.2 315.824 1151.41 315.924C1205.05 315.924 1261.31 316.626 1316.69 316.225C1431.29 315.323 1542.24 309.106 1629.67 280.934" stroke="#33BDD9" stroke-miterlimit="10"/>
<path d="M-825.734 565.671C-763.905 500.603 -625.617 470.024 -496.037 473.733C-487.503 473.934 -479.143 474.335 -470.609 474.836C-349.911 481.854 -236.703 512.734 -124.539 538.701C-120.708 539.604 -116.702 540.506 -112.87 541.408C3.82144 567.977 129.047 588.731 248.7 572.789C412.939 550.532 528.934 463.306 658.514 401.546C675.234 393.626 692.302 386.006 709.893 379.188C797.499 345.1 890.155 329.961 995.352 323.745C1047.78 320.637 1102.64 320.537 1157.5 321.038C1210.8 321.64 1266.7 322.442 1321.57 321.94C1435.47 320.838 1545.89 313.218 1631.41 282.338" stroke="#2BC1DF" stroke-miterlimit="10"/>
<path d="M-816.33 564.467C-753.107 500.501 -614.645 471.927 -486.284 476.339C-477.924 476.639 -469.564 477.04 -461.204 477.542C-341.725 485.061 -229.562 515.239 -117.747 540.204C-113.916 541.106 -109.91 541.908 -106.078 542.811C10.2653 568.176 135.665 587.326 253.925 569.78C416.596 545.417 528.063 456.989 659.036 396.933C675.93 389.213 693.173 381.894 711.286 375.377C800.634 342.893 896.251 330.461 1001.97 326.551C1054.74 324.646 1109.43 325.248 1163.77 326.35C1216.72 327.453 1272.1 328.556 1326.62 327.854C1439.83 326.551 1549.55 317.427 1633.5 284.041" stroke="#22C5E6" stroke-miterlimit="10"/>
<path d="M-806.925 563.164C-742.309 500.301 -603.847 473.632 -476.705 478.745C-468.345 479.046 -460.159 479.548 -451.799 480.049C-333.54 488.07 -222.422 517.546 -110.955 541.408C-107.124 542.21 -103.292 543.012 -99.2861 543.914C16.7089 568.177 142.109 585.522 259.149 566.472C420.079 539.904 527.017 450.372 659.558 392.121C676.626 384.602 694.217 377.684 712.505 371.368C803.768 340.387 902.172 330.763 1008.41 329.058C1061.53 328.256 1115.87 329.76 1170.04 331.364C1222.64 332.968 1277.68 334.272 1331.84 333.57C1444.35 332.066 1553.56 321.438 1635.59 285.445" stroke="#1ACAEC" stroke-miterlimit="10"/>
<path d="M-797.694 561.96C-731.685 500.2 -593.222 475.436 -467.3 481.352C-459.114 481.753 -450.928 482.254 -442.568 482.856C-325.528 491.378 -215.455 520.252 -104.336 543.011C-100.505 543.813 -96.6731 544.615 -92.6673 545.317C22.9794 568.377 148.554 584.118 264.2 563.464C423.563 534.79 525.798 444.055 660.081 387.609C677.323 380.29 695.263 373.673 713.898 367.758C806.903 338.382 908.269 331.564 1015.03 332.065C1068.33 332.366 1122.67 334.672 1176.49 336.878C1228.74 338.983 1283.25 340.487 1337.07 339.685C1448.88 337.981 1557.39 325.849 1637.85 287.35" stroke="#11CEF2" stroke-miterlimit="10"/>
<path d="M-788.288 560.757C-720.886 500.1 -582.423 477.341 -457.546 483.858C-449.36 484.259 -441.174 484.861 -433.162 485.462C-317.341 494.486 -208.313 522.658 -97.3689 544.315C-93.5372 545.016 -89.7055 545.818 -85.8738 546.52C29.5987 568.477 155.173 582.513 269.252 560.256C427.047 529.476 524.755 437.538 660.43 382.897C677.847 375.879 696.134 369.462 715.119 363.848C809.865 336.076 914.191 331.965 1021.48 334.672C1075.12 336.076 1129.29 339.284 1182.58 341.991C1234.48 344.698 1288.65 346.402 1342.12 345.5C1453.24 343.595 1561.22 329.96 1639.77 288.854" stroke="#09D3F9" stroke-miterlimit="10"/>
<path d="M-778.883 559.555C-710.087 500.001 -571.45 479.147 -447.966 486.466C-324.482 493.785 -208.835 523.763 -90.7504 545.719C27.5088 567.776 157.785 581.813 274.303 557.149C450.56 520.053 546.525 406.259 716.338 360.039C860.896 320.737 1029.84 337.38 1188.85 347.206C1347.87 357.031 1527.95 355.026 1641.86 290.459" stroke="#00D7FF" stroke-miterlimit="10"/>
</g>
</g>
</svg>
