<svg width="376" height="286" viewBox="0 0 376 286" fill="none" xmlns="http://www.w3.org/2000/svg">
<path d="M188 286C86.3678 286 0.5 275.845 0.5 263.825C0.5 251.805 86.3678 241.651 188 241.651C289.632 241.651 375.5 251.809 375.5 263.825C375.5 275.841 289.632 286 188 286Z" fill="#252526"/>
<path d="M69.9378 262.819C66.4483 262.815 63.1027 261.427 60.6353 258.96C58.1678 256.492 56.78 253.146 56.7764 249.657V73.5225C56.775 70.0276 58.1599 66.6748 60.6273 64.1997C63.0947 61.7246 66.443 60.3293 69.9378 60.3198H299.497C302.992 60.3293 306.341 61.7246 308.808 64.1997C311.275 66.6748 312.66 70.0276 312.659 73.5225V249.657C312.655 253.146 311.267 256.492 308.8 258.96C306.333 261.427 302.987 262.815 299.497 262.819H69.9378Z" fill="#252526" stroke="#FDFDFD" stroke-width="2"/>
<path d="M299.498 60.8275C302.858 60.8367 306.077 62.1784 308.449 64.5583C310.822 66.9382 312.153 70.1619 312.151 73.5222V249.657C312.148 253.012 310.813 256.229 308.441 258.601C306.069 260.974 302.853 262.309 299.498 262.313H69.9381C66.5831 262.309 63.3668 260.974 60.9946 258.601C58.6224 256.229 57.2882 253.012 57.2845 249.657V73.5222C57.2829 70.1619 58.6142 66.9382 60.9864 64.5583C63.3586 62.1784 66.5779 60.8367 69.9381 60.8275H299.498ZM299.498 59.8125H69.9381C66.3078 59.8187 62.8286 61.2664 60.2654 63.8373C57.7022 66.4082 56.2649 69.8918 56.2695 73.5222V249.657C56.2681 251.453 56.6206 253.231 57.307 254.89C57.9933 256.549 59.0001 258.057 60.2696 259.326C61.5391 260.596 63.0465 261.603 64.7055 262.289C66.3645 262.976 68.1426 263.328 69.9381 263.327H299.498C301.293 263.328 303.071 262.976 304.73 262.289C306.389 261.603 307.897 260.596 309.166 259.326C310.436 258.057 311.442 256.549 312.129 254.89C312.815 253.231 313.168 251.453 313.166 249.657V73.5222C313.171 69.8918 311.733 66.4082 309.17 63.8373C306.607 61.2664 303.128 59.8187 299.498 59.8125Z" fill="#1E90FF" stroke="#FDFDFD" stroke-width="4"/>
<path d="M56.7764 105.943V73.523C56.775 70.0281 58.1599 66.6753 60.6273 64.2002C63.0947 61.7251 66.443 60.3297 69.9378 60.3203H299.497C302.992 60.3295 306.341 61.7247 308.809 64.1999C311.276 66.675 312.661 70.0279 312.66 73.523V105.944L56.7764 105.943Z" fill="#1E90FF" stroke="#FDFDFD" stroke-width="2"/>
<path d="M299.498 60.8275C302.858 60.8367 306.077 62.1784 308.449 64.5583C310.822 66.9382 312.153 70.1619 312.151 73.5222V105.435H57.2845V73.5222C57.2829 70.1619 58.6142 66.9382 60.9864 64.5583C63.3586 62.1784 66.5779 60.8367 69.9381 60.8275H299.498ZM299.498 59.8125H69.9381C66.3078 59.8187 62.8286 61.2664 60.2654 63.8373C57.7022 66.4082 56.2649 69.8918 56.2695 73.5222V106.45H313.166V73.5222C313.171 69.8918 311.733 66.4082 309.17 63.8373C306.607 61.2664 303.128 59.8187 299.498 59.8125Z" fill="black" stroke="#FDFDFD" stroke-width="2"/>
<path d="M121.596 88.6325C122.513 89.2454 123.592 89.5725 124.695 89.5726L121.596 88.6325ZM121.596 88.6325C120.679 88.0196 119.964 87.1485 119.542 86.1293M121.596 88.6325L119.542 86.1293M119.542 86.1293C119.12 85.1101 119.009 83.9886 119.224 82.9066M119.542 86.1293L119.224 82.9066M119.224 82.9066C119.44 81.8246 119.971 80.8308 120.751 80.0507M119.224 82.9066L120.751 80.0507M120.751 80.0507C121.531 79.2706 122.525 78.7394 123.607 78.5242M120.751 80.0507L123.607 78.5242M123.607 78.5242C124.689 78.309 125.81 78.4194 126.829 78.8416M123.607 78.5242L126.829 78.8416M126.829 78.8416C127.849 79.2637 128.72 79.9787 129.333 80.8959M126.829 78.8416L129.333 80.8959M129.333 80.8959C129.946 81.8132 130.273 82.8916 130.273 83.9947L129.333 80.8959ZM130.273 83.9948C130.27 85.4734 129.682 86.8908 128.637 87.9363C127.591 88.9819 126.174 89.5703 124.695 89.5726L130.273 83.9948Z" fill="#1E90FF" stroke="#FDFDFD"/>
<path d="M124.696 78.4173C125.798 78.4173 126.875 78.7441 127.791 79.3563C128.708 79.9685 129.422 80.8387 129.843 81.8568C130.265 82.8748 130.375 83.9951 130.16 85.0759C129.946 86.1567 129.415 87.1494 128.636 87.9286C127.856 88.7078 126.864 89.2385 125.783 89.4535C124.702 89.6684 123.582 89.5581 122.564 89.1364C121.546 88.7147 120.676 88.0006 120.063 87.0843C119.451 86.1681 119.124 85.0909 119.124 83.9889C119.126 82.5118 119.714 81.0957 120.758 80.0512C121.803 79.0068 123.219 78.4192 124.696 78.4173ZM124.696 77.4023C123.393 77.4023 122.12 77.7886 121.037 78.5124C119.953 79.2361 119.109 80.2648 118.611 81.4683C118.112 82.6719 117.982 83.9962 118.236 85.2739C118.49 86.5516 119.117 87.7252 120.039 88.6463C120.96 89.5675 122.133 90.1948 123.411 90.4489C124.689 90.7031 126.013 90.5727 127.217 90.0741C128.42 89.5756 129.449 88.7314 130.172 87.6482C130.896 86.5651 131.283 85.2916 131.283 83.9889C131.282 82.2421 130.588 80.5669 129.353 79.3318C128.118 78.0966 126.443 77.4026 124.696 77.4023Z" fill="black" stroke="#FDFDFD" stroke-width="2"/>
<path d="M101.607 88.6325C102.524 89.2454 103.602 89.5725 104.706 89.5726L101.607 88.6325ZM101.607 88.6325C100.69 88.0196 99.9747 87.1485 99.5525 86.1293M101.607 88.6325L99.5525 86.1293M99.5525 86.1293C99.1303 85.1101 99.0199 83.9886 99.2351 82.9066M99.5525 86.1293L99.2351 82.9066M99.2351 82.9066C99.4503 81.8246 99.9816 80.8308 100.762 80.0507M99.2351 82.9066L100.762 80.0507M100.762 80.0507C101.542 79.2706 102.536 78.7394 103.618 78.5242M100.762 80.0507L103.618 78.5242M103.618 78.5242C104.7 78.309 105.821 78.4194 106.84 78.8416M103.618 78.5242L106.84 78.8416M106.84 78.8416C107.859 79.2637 108.731 79.9787 109.343 80.8959M106.84 78.8416L109.343 80.8959M109.343 80.8959C109.956 81.8132 110.283 82.8916 110.283 83.9947L109.343 80.8959ZM110.283 83.9948C110.281 85.4734 109.693 86.8908 108.647 87.9363C107.602 88.9819 106.184 89.5703 104.706 89.5726L110.283 83.9948Z" fill="#1E90FF" stroke="#FDFDFD"/>
<path d="M104.705 78.4173C105.807 78.4173 106.884 78.7441 107.8 79.3563C108.716 79.9685 109.431 80.8387 109.852 81.8568C110.274 82.8748 110.384 83.9951 110.169 85.0759C109.954 86.1567 109.424 87.1494 108.644 87.9286C107.865 88.7078 106.872 89.2385 105.792 89.4535C104.711 89.6684 103.591 89.5581 102.573 89.1364C101.555 88.7147 100.684 88.0006 100.072 87.0843C99.4599 86.1681 99.1332 85.0909 99.1332 83.9889C99.135 82.5118 99.7226 81.0957 100.767 80.0512C101.812 79.0068 103.228 78.4192 104.705 78.4173ZM104.705 77.4023C103.402 77.4023 102.129 77.7886 101.045 78.5124C99.9623 79.2361 99.1181 80.2648 98.6195 81.4683C98.121 82.6719 97.9906 83.9962 98.2447 85.2739C98.4989 86.5516 99.1262 87.7252 100.047 88.6463C100.968 89.5675 102.142 90.1948 103.42 90.4489C104.697 90.7031 106.022 90.5727 107.225 90.0741C108.429 89.5756 109.458 88.7314 110.181 87.6482C110.905 86.5651 111.291 85.2916 111.291 83.9889C111.291 82.2421 110.597 80.5669 109.362 79.3318C108.127 78.0966 106.452 77.4026 104.705 77.4023Z" fill="black" stroke="#FDFDFD" stroke-width="2"/>
<path d="M81.6166 88.6325C82.5339 89.2454 83.6123 89.5725 84.7154 89.5726L81.6166 88.6325ZM81.6166 88.6325C80.6994 88.0196 79.9844 87.1485 79.5623 86.1293M81.6166 88.6325L79.5623 86.1293M79.5623 86.1293C79.1401 85.1101 79.0297 83.9886 79.2449 82.9066M79.5623 86.1293L79.2449 82.9066M79.2449 82.9066C79.4601 81.8246 79.9913 80.8308 80.7714 80.0507M79.2449 82.9066L80.7714 80.0507M80.7714 80.0507C81.5515 79.2706 82.5453 78.7394 83.6273 78.5242M80.7714 80.0507L83.6273 78.5242M83.6273 78.5242C84.7093 78.309 85.8308 78.4194 86.85 78.8416M83.6273 78.5242L86.85 78.8416M86.85 78.8416C87.8692 79.2637 88.7403 79.9787 89.3532 80.8959M86.85 78.8416L89.3532 80.8959M89.3532 80.8959C89.9661 81.8132 90.2932 82.8916 90.2933 83.9947L89.3532 80.8959ZM90.2933 83.9948C90.291 85.4734 89.7026 86.8908 88.657 87.9363C87.6115 88.9819 86.1941 89.5703 84.7155 89.5726L90.2933 83.9948Z" fill="#1E90FF" stroke="#FDFDFD"/>
<path d="M84.7155 78.4173C85.8174 78.4173 86.8946 78.7441 87.8109 79.3563C88.7271 79.9685 89.4413 80.8387 89.863 81.8568C90.2847 82.8748 90.395 83.9951 90.18 85.0759C89.965 86.1567 89.4344 87.1494 88.6552 87.9286C87.876 88.7078 86.8832 89.2385 85.8025 89.4535C84.7217 89.6684 83.6014 89.5581 82.5833 89.1364C81.5653 88.7147 80.6951 88.0006 80.0829 87.0843C79.4707 86.1681 79.1439 85.0909 79.1439 83.9889C79.1457 82.5118 79.7333 81.0957 80.7778 80.0512C81.8223 79.0068 83.2384 78.4192 84.7155 78.4173ZM84.7155 77.4023C83.4128 77.4023 82.1393 77.7886 81.0562 78.5124C79.973 79.2361 79.1288 80.2648 78.6303 81.4683C78.1318 82.6719 78.0013 83.9962 78.2555 85.2739C78.5096 86.5516 79.1369 87.7252 80.0581 88.6463C80.9792 89.5675 82.1528 90.1948 83.4305 90.4489C84.7082 90.7031 86.0325 90.5727 87.2361 90.0741C88.4396 89.5756 89.4683 88.7314 90.192 87.6482C90.9158 86.5651 91.3021 85.2916 91.3021 83.9889C91.3018 82.2421 90.6078 80.5669 89.3726 79.3318C88.1375 78.0966 86.4623 77.4026 84.7155 77.4023Z" fill="black" stroke="#FDFDFD" stroke-width="2"/>
<path d="M278.204 92.3096L278.052 92.1299C269.515 82.0443 264.952 69.1892 265.221 55.9781C265.49 42.7669 270.572 30.1082 279.512 20.3783C288.453 10.6484 300.637 4.51656 313.778 3.13386C326.919 1.75115 340.113 5.21269 350.883 12.8686C361.652 20.5246 369.257 31.8484 372.27 44.7143C375.283 57.5802 373.496 71.1033 367.244 82.745C360.993 94.3866 350.708 103.346 338.319 107.942C325.931 112.537 312.291 112.453 299.96 107.704L299.765 107.63L273.778 118.917L278.204 92.3096Z" fill="#1E90FF" stroke="#FDFDFD" stroke-width="4"/>
<path d="M319.518 3.01499C327.429 3.01965 335.241 4.76544 342.401 8.12846C349.561 11.4915 355.894 16.3893 360.948 22.4743C366.003 28.5593 369.657 35.6823 371.65 43.3379C373.643 50.9934 373.927 58.9938 372.481 66.7713C371.035 74.5488 367.895 81.9127 363.284 88.3404C358.672 94.7681 352.703 100.102 345.799 103.964C338.895 107.825 331.226 110.12 323.336 110.685C315.445 111.25 307.527 110.071 300.144 107.232L299.756 107.083L299.374 107.249L274.432 118.086L278.668 92.6275L278.745 92.163L278.441 91.8044C271.778 83.9649 267.499 74.3818 266.108 64.1877C264.718 53.9936 266.275 43.6145 270.595 34.2769C274.914 24.9393 281.817 17.0336 290.487 11.4938C299.156 5.9541 309.23 3.01192 319.518 3.01499ZM319.518 2C309.037 1.99818 298.775 4.9965 289.943 10.6407C281.111 16.2849 274.08 24.3392 269.679 33.8519C265.278 43.3646 263.692 53.9382 265.108 64.3235C266.524 74.7089 270.883 84.4719 277.67 92.4591L273.128 119.757L299.783 108.179C307.307 111.077 315.377 112.282 323.419 111.709C331.462 111.137 339.28 108.801 346.318 104.866C353.356 100.932 359.442 95.4966 364.142 88.9455C368.843 82.3945 372.044 74.8887 373.518 66.9613C374.991 59.0339 374.701 50.8792 372.668 43.0765C370.635 35.2738 366.91 28.0143 361.755 21.8137C356.601 15.6132 350.145 10.6235 342.845 7.19915C335.545 3.77479 327.581 1.99972 319.518 2Z" fill="black" stroke="#FDFDFD" stroke-width="2"/>
<path d="M305.214 33.5099C309.091 30.8958 313.605 29.3858 318.275 29.1416C322.944 28.8974 327.592 29.9283 331.72 32.1237C335.848 34.3192 339.301 37.5965 341.709 41.6044C344.117 45.6124 345.389 50.2001 345.389 54.8759C345.389 56.8216 345.798 61.5684 345.389 63.39" stroke="#FDFDFD" stroke-width="3" stroke-miterlimit="10"/>
<path d="M334.503 75.9129C330.15 78.9864 324.953 80.6357 319.625 80.6339C314.297 80.6322 309.1 78.9794 304.75 75.903C300.399 72.8266 297.109 68.4778 295.332 63.4548C293.555 58.4318 293.377 52.9814 294.825 47.8535" stroke="#FDFDFD" stroke-width="3" stroke-miterlimit="10"/>
<path d="M336.018 53.8169L343.841 64.5303L354.214 55.5169" stroke="#FDFDFD" stroke-width="3" stroke-miterlimit="10"/>
<path d="M284.822 54.6293L295.778 47.1484L302.541 59.1112" stroke="#FDFDFD" stroke-width="3" stroke-miterlimit="10"/>
<path d="M32.3477 66.2445C33.567 59.6585 36.657 53.5629 41.2484 48.6864C45.8398 43.8098 51.7384 40.3586 58.239 38.7451" fill="#252526"/>
<path d="M32.3477 66.2445C33.567 59.6585 36.657 53.5629 41.2484 48.6864C45.8398 43.8098 51.7384 40.3586 58.239 38.7451" stroke="#FDFDFD" stroke-width="2"/>
<path d="M32.3477 66.2445C33.567 59.6585 36.657 53.5629 41.2484 48.6864C45.8398 43.8098 51.7384 40.3586 58.239 38.7451" stroke="#FDFDFD" stroke-width="4" stroke-miterlimit="10"/>
<path d="M9.15137 62.4258C11.0432 51.7204 15.8887 41.7565 23.1413 33.6582C30.3939 25.5599 39.7651 19.6494 50.1977 16.5933" fill="#252526"/>
<path d="M9.15137 62.4258C11.0432 51.7204 15.8887 41.7565 23.1413 33.6582C30.3939 25.5599 39.7651 19.6494 50.1977 16.5933" stroke="#FDFDFD" stroke-width="2"/>
<path d="M9.15137 62.4258C11.0432 51.7204 15.8887 41.7565 23.1413 33.6582C30.3939 25.5599 39.7651 19.6494 50.1977 16.5933" stroke="#FDFDFD" stroke-width="4" stroke-miterlimit="10"/>
<path d="M230.916 153.225C232.194 153.225 233.444 153.604 234.506 154.314C235.569 155.024 236.397 156.034 236.887 157.215C237.376 158.395 237.504 159.695 237.254 160.948C237.005 162.202 236.389 163.353 235.486 164.257C234.582 165.161 233.43 165.777 232.177 166.026C230.923 166.275 229.624 166.147 228.443 165.658C227.262 165.169 226.253 164.341 225.543 163.278C224.833 162.215 224.454 160.966 224.454 159.688C224.456 157.974 225.137 156.332 226.349 155.12C227.56 153.909 229.203 153.227 230.916 153.225ZM230.916 152.048C229.405 152.048 227.928 152.496 226.671 153.336C225.415 154.175 224.435 155.368 223.857 156.765C223.279 158.161 223.127 159.697 223.422 161.179C223.717 162.661 224.445 164.023 225.513 165.091C226.582 166.16 227.943 166.888 229.425 167.182C230.908 167.477 232.444 167.326 233.84 166.748C235.236 166.169 236.429 165.19 237.269 163.933C238.109 162.677 238.557 161.2 238.557 159.688C238.557 158.685 238.359 157.692 237.975 156.765C237.591 155.838 237.028 154.995 236.319 154.286C235.609 153.576 234.767 153.013 233.84 152.629C232.913 152.245 231.919 152.048 230.916 152.048Z" stroke="#FDFDFD" stroke-width="3"/>
<path d="M138.414 153.225C139.692 153.225 140.942 153.604 142.004 154.314C143.067 155.024 143.895 156.034 144.385 157.215C144.874 158.395 145.002 159.695 144.752 160.948C144.503 162.202 143.887 163.353 142.984 164.257C142.08 165.161 140.928 165.777 139.675 166.026C138.421 166.275 137.122 166.147 135.941 165.658C134.76 165.169 133.751 164.341 133.041 163.278C132.331 162.215 131.952 160.966 131.952 159.688C131.954 157.974 132.635 156.332 133.847 155.12C135.058 153.909 136.701 153.227 138.414 153.225ZM138.414 152.048C136.903 152.048 135.426 152.496 134.169 153.336C132.913 154.175 131.933 155.368 131.355 156.765C130.777 158.161 130.625 159.697 130.92 161.179C131.215 162.661 131.943 164.023 133.011 165.091C134.08 166.16 135.441 166.888 136.923 167.182C138.406 167.477 139.942 167.326 141.338 166.748C142.734 166.169 143.927 165.19 144.767 163.933C145.607 162.677 146.055 161.2 146.055 159.688C146.055 158.685 145.857 157.692 145.473 156.765C145.089 155.838 144.526 154.995 143.817 154.286C143.107 153.576 142.265 153.013 141.338 152.629C140.411 152.245 139.417 152.048 138.414 152.048Z" stroke="#FDFDFD" stroke-width="3"/>
<path d="M206.407 211.057C204.273 206.979 201.064 203.562 197.126 201.179C193.189 198.795 188.675 197.535 184.072 197.535C179.47 197.535 174.955 198.795 171.018 201.179C167.081 203.562 163.871 206.979 161.737 211.057" fill="#252526"/>
<path d="M206.407 211.057C204.273 206.979 201.064 203.562 197.126 201.179C193.189 198.795 188.675 197.535 184.072 197.535C179.47 197.535 174.955 198.795 171.018 201.179C167.081 203.562 163.871 206.979 161.737 211.057" stroke="#FDFDFD" stroke-width="4"/>
</svg>
