<svg width="20" height="20" viewBox="0 0 20 20" fill="none" xmlns="http://www.w3.org/2000/svg">
<path d="M7.50016 4.16676C7.27915 4.16676 7.06719 4.25455 6.91091 4.41083C6.75463 4.56711 6.66683 4.77908 6.66683 5.00009C6.66683 5.2211 6.75463 5.43306 6.91091 5.58934C7.06719 5.74562 7.27915 5.83342 7.50016 5.83342C7.72118 5.83342 7.93314 5.74562 8.08942 5.58934C8.2457 5.43306 8.3335 5.2211 8.3335 5.00009C8.3335 4.77908 8.2457 4.56711 8.08942 4.41083C7.93314 4.25455 7.72118 4.16676 7.50016 4.16676ZM5.14183 4.16676C5.314 3.67881 5.63328 3.25628 6.05566 2.95741C6.47805 2.65854 6.98273 2.49805 7.50016 2.49805C8.01759 2.49805 8.52228 2.65854 8.94466 2.95741C9.36705 3.25628 9.68633 3.67881 9.8585 4.16676H15.8335C16.0545 4.16676 16.2665 4.25455 16.4228 4.41083C16.579 4.56711 16.6668 4.77908 16.6668 5.00009C16.6668 5.2211 16.579 5.43306 16.4228 5.58934C16.2665 5.74562 16.0545 5.83342 15.8335 5.83342H9.8585C9.68633 6.32137 9.36705 6.74389 8.94466 7.04276C8.52228 7.34163 8.01759 7.50213 7.50016 7.50213C6.98273 7.50213 6.47805 7.34163 6.05566 7.04276C5.63328 6.74389 5.314 6.32137 5.14183 5.83342H4.16683C3.94582 5.83342 3.73385 5.74562 3.57757 5.58934C3.42129 5.43306 3.3335 5.2211 3.3335 5.00009C3.3335 4.77908 3.42129 4.56711 3.57757 4.41083C3.73385 4.25455 3.94582 4.16676 4.16683 4.16676H5.14183ZM12.5002 9.16676C12.2791 9.16676 12.0672 9.25455 11.9109 9.41083C11.7546 9.56711 11.6668 9.77908 11.6668 10.0001C11.6668 10.2211 11.7546 10.4331 11.9109 10.5893C12.0672 10.7456 12.2791 10.8334 12.5002 10.8334C12.7212 10.8334 12.9331 10.7456 13.0894 10.5893C13.2457 10.4331 13.3335 10.2211 13.3335 10.0001C13.3335 9.77908 13.2457 9.56711 13.0894 9.41083C12.9331 9.25455 12.7212 9.16676 12.5002 9.16676ZM10.1418 9.16676C10.314 8.67881 10.6333 8.25628 11.0557 7.95741C11.478 7.65854 11.9827 7.49805 12.5002 7.49805C13.0176 7.49805 13.5223 7.65854 13.9447 7.95741C14.367 8.25628 14.6863 8.67881 14.8585 9.16676H15.8335C16.0545 9.16676 16.2665 9.25455 16.4228 9.41083C16.579 9.56711 16.6668 9.77908 16.6668 10.0001C16.6668 10.2211 16.579 10.4331 16.4228 10.5893C16.2665 10.7456 16.0545 10.8334 15.8335 10.8334H14.8585C14.6863 11.3214 14.367 11.7439 13.9447 12.0428C13.5223 12.3416 13.0176 12.5021 12.5002 12.5021C11.9827 12.5021 11.478 12.3416 11.0557 12.0428C10.6333 11.7439 10.314 11.3214 10.1418 10.8334H4.16683C3.94582 10.8334 3.73385 10.7456 3.57757 10.5893C3.42129 10.4331 3.3335 10.2211 3.3335 10.0001C3.3335 9.77908 3.42129 9.56711 3.57757 9.41083C3.73385 9.25455 3.94582 9.16676 4.16683 9.16676H10.1418ZM7.50016 14.1668C7.27915 14.1668 7.06719 14.2546 6.91091 14.4108C6.75463 14.5671 6.66683 14.7791 6.66683 15.0001C6.66683 15.2211 6.75463 15.4331 6.91091 15.5893C7.06719 15.7456 7.27915 15.8334 7.50016 15.8334C7.72118 15.8334 7.93314 15.7456 8.08942 15.5893C8.2457 15.4331 8.3335 15.2211 8.3335 15.0001C8.3335 14.7791 8.2457 14.5671 8.08942 14.4108C7.93314 14.2546 7.72118 14.1668 7.50016 14.1668ZM5.14183 14.1668C5.314 13.6788 5.63328 13.2563 6.05566 12.9574C6.47805 12.6585 6.98273 12.498 7.50016 12.498C8.01759 12.498 8.52228 12.6585 8.94466 12.9574C9.36705 13.2563 9.68633 13.6788 9.8585 14.1668H15.8335C16.0545 14.1668 16.2665 14.2546 16.4228 14.4108C16.579 14.5671 16.6668 14.7791 16.6668 15.0001C16.6668 15.2211 16.579 15.4331 16.4228 15.5893C16.2665 15.7456 16.0545 15.8334 15.8335 15.8334H9.8585C9.68633 16.3214 9.36705 16.7439 8.94466 17.0428C8.52228 17.3416 8.01759 17.5021 7.50016 17.5021C6.98273 17.5021 6.47805 17.3416 6.05566 17.0428C5.63328 16.7439 5.314 16.3214 5.14183 15.8334H4.16683C3.94582 15.8334 3.73385 15.7456 3.57757 15.5893C3.42129 15.4331 3.3335 15.2211 3.3335 15.0001C3.3335 14.7791 3.42129 14.5671 3.57757 14.4108C3.73385 14.2546 3.94582 14.1668 4.16683 14.1668H5.14183Z" fill="#ADADAD"/>
</svg>
