<svg width="24" height="24" viewBox="0 0 24 24" fill="none" xmlns="http://www.w3.org/2000/svg">
<path d="M7 8.48002L8.635 6.86602L7 5.25002L5.384 6.86602L7 8.48002ZM3 13.77V2.77002H21V13.77H16.314C16.3447 13.6034 16.365 13.4367 16.375 13.27C16.385 13.1034 16.3863 12.9367 16.379 12.77H20V3.77002H4V12.77H7.621C7.613 12.9367 7.61433 13.1034 7.625 13.27C7.63567 13.4367 7.65633 13.6034 7.687 13.77H3ZM16.498 7.27002C16.7747 7.27002 17.011 7.17269 17.207 6.97802C17.403 6.78335 17.5007 6.54802 17.5 6.27202C17.4993 5.99602 17.4023 5.75935 17.209 5.56202C17.0157 5.36469 16.78 5.26702 16.502 5.26902C16.224 5.27102 15.9877 5.36802 15.793 5.56002C15.5983 5.75202 15.5007 5.98769 15.5 6.26702C15.4993 6.54635 15.5963 6.78269 15.791 6.97602C15.9857 7.16935 16.2213 7.26802 16.498 7.27002ZM6 21.231V19.823C6 19.4324 6.108 19.067 6.324 18.727C6.54 18.387 6.83133 18.137 7.198 17.977C7.96333 17.6324 8.746 17.3704 9.546 17.191C10.346 17.0117 11.164 16.9224 12 16.923C12.836 16.9237 13.654 17.013 14.454 17.191C15.254 17.369 16.0367 17.631 16.802 17.977C17.1687 18.137 17.46 18.3854 17.676 18.722C17.892 19.0594 18 19.4244 18 19.817V21.231H6ZM7 20.231H17V19.823C17 19.623 16.9417 19.4397 16.825 19.273C16.7083 19.1064 16.5583 18.9814 16.375 18.898C15.675 18.5814 14.9583 18.3397 14.225 18.173C13.4917 18.0064 12.75 17.923 12 17.923C11.25 17.923 10.5083 18.0064 9.775 18.173C9.04167 18.3397 8.325 18.5814 7.625 18.898C7.44167 18.9814 7.29167 19.1064 7.175 19.273C7.05833 19.4397 7 19.623 7 19.823V20.231ZM12 15.538C11.3027 15.538 10.7117 15.2957 10.227 14.811C9.74233 14.327 9.5 13.736 9.5 13.038C9.5 12.34 9.74233 11.749 10.227 11.265C10.7117 10.781 11.3027 10.5387 12 10.538C12.6973 10.5374 13.2883 10.7797 13.773 11.265C14.2577 11.7504 14.5 12.3414 14.5 13.038C14.5 13.7347 14.2577 14.3257 13.773 14.811C13.2883 15.2964 12.6973 15.5387 12 15.538ZM12 14.538C12.4167 14.538 12.771 14.3924 13.063 14.101C13.355 13.8097 13.5007 13.4554 13.5 13.038C13.4993 12.6207 13.3537 12.2667 13.063 11.976C12.7723 11.6854 12.418 11.5394 12 11.538C11.582 11.5367 11.228 11.6827 10.938 11.976C10.648 12.2694 10.502 12.6234 10.5 13.038C10.498 13.4527 10.644 13.807 10.938 14.101C11.232 14.395 11.586 14.5407 12 14.538Z" fill="#EBEBEB"/>
</svg>
