<svg width="18" height="9" viewBox="0 0 18 9" fill="none" xmlns="http://www.w3.org/2000/svg">
<path d="M7.616 8.75656H4.077C2.949 8.75656 1.98767 8.35923 1.193 7.56456C0.398334 6.7699 0.000667503 5.80823 8.3682e-07 4.67956C-0.00066583 3.5509 0.397001 2.58923 1.193 1.79456C1.989 0.999896 2.95033 0.602229 4.077 0.601562H7.616V1.60156H4.077C3.23033 1.60156 2.506 1.9029 1.904 2.50556C1.30133 3.1089 1 3.83356 1 4.67956C1 5.52556 1.30133 6.2499 1.904 6.85256C2.50667 7.45523 3.231 7.75656 4.077 7.75656H7.616V8.75656ZM5.5 5.17956V4.17956H12.5V5.17956H5.5ZM10.385 8.75656V7.75656H13.923C14.7697 7.75656 15.494 7.45523 16.096 6.85256C16.6987 6.2499 17 5.52556 17 4.67956C17 3.83356 16.6987 3.10923 16.096 2.50656C15.4933 1.9039 14.769 1.60256 13.923 1.60256H10.385V0.602562H13.923C15.051 0.602562 16.0127 0.999896 16.808 1.79456C17.6033 2.58923 18.0007 3.5509 18 4.67956C17.9993 5.80823 17.6017 6.7699 16.807 7.56456C16.0123 8.35923 15.051 8.7569 13.923 8.75756L10.385 8.75656Z" fill="#FDFDFD"/>
</svg>
