<svg width="25" height="24" viewBox="0 0 25 24" fill="none" xmlns="http://www.w3.org/2000/svg">
<path d="M22.21 9.387C22.3407 9.89567 22.424 10.4207 22.46 10.962C22.5131 11.8018 22.5131 12.6442 22.46 13.484C22.186 17.73 18.854 21.112 14.67 21.39C13.2249 21.4852 11.7751 21.4852 10.33 21.39C9.82 21.3549 9.3186 21.2402 8.84404 21.05C8.33204 20.84 8.07604 20.734 7.94504 20.75C7.81504 20.766 7.62604 20.905 7.24904 21.184C6.58304 21.675 5.74404 22.029 4.49904 21.998C3.87004 21.983 3.55604 21.975 3.41504 21.735C3.27404 21.495 3.44904 21.162 3.80004 20.497C4.28704 19.574 4.59504 18.517 4.12804 17.671C3.32304 16.462 2.64004 15.031 2.54004 13.484C2.48698 12.6442 2.48698 11.8018 2.54004 10.962C2.81404 6.716 6.14604 3.334 10.33 3.056C10.7197 3.0302 11.1097 3.01153 11.5 3M12.495 12.5H12.505M16.491 12.5H16.5M8.50004 12.5H8.50904" stroke="#FDFDFD" stroke-width="1.5" stroke-linecap="round" stroke-linejoin="round"/>
<path d="M14.5 4.5H22.5M14.5 4.5C14.5 3.8 16.494 2.492 17 2M14.5 4.5C14.5 5.2 16.494 6.508 17 7" stroke="#FDFDFD" stroke-width="1.5" stroke-linecap="round" stroke-linejoin="round"/>
</svg>
