<svg width="56" height="56" viewBox="0 0 56 56" fill="none" xmlns="http://www.w3.org/2000/svg">
<g clip-path="url(#clip0_1101_8848)">
<path d="M17.6863 9.51992L14.3497 6.18325C8.74966 10.4533 5.06299 17.0333 4.73633 24.4999H9.403C9.753 18.3166 12.9263 12.9033 17.6863 9.51992ZM46.5963 24.4999H51.263C50.913 17.0333 47.2263 10.4533 41.6497 6.18325L38.3363 9.51992C43.0497 12.9033 46.2463 18.3166 46.5963 24.4999ZM41.9997 25.6666C41.9997 18.5033 38.173 12.5066 31.4997 10.9199V9.33325C31.4997 7.39659 29.9363 5.83325 27.9997 5.83325C26.063 5.83325 24.4997 7.39659 24.4997 9.33325V10.9199C17.803 12.5066 13.9997 18.4799 13.9997 25.6666V37.3333L9.33299 41.9999V44.3333H46.6663V41.9999L41.9997 37.3333V25.6666ZM27.9997 51.3333C28.3263 51.3333 28.6297 51.3099 28.933 51.2399C30.4497 50.9132 31.6863 49.8866 32.293 48.4866C32.5263 47.9266 32.643 47.3199 32.643 46.6666H23.3097C23.333 49.2332 25.4097 51.3333 27.9997 51.3333Z" fill="#EBEBEB"/>
</g>
<defs>
<clipPath id="clip0_1101_8848">
<rect width="56" height="56" fill="white"/>
</clipPath>
</defs>
</svg>
