<svg width="15" height="16" viewBox="0 0 15 16" fill="none" xmlns="http://www.w3.org/2000/svg">
<path d="M7.5 1.75C5.8424 1.75 4.25269 2.40848 3.08058 3.58058C1.90848 4.75269 1.25 6.3424 1.25 8C1.25 9.6576 1.90848 11.2473 3.08058 12.4194C4.25269 13.5915 5.8424 14.25 7.5 14.25C9.1576 14.25 10.7473 13.5915 11.9194 12.4194C13.0915 11.2473 13.75 9.6576 13.75 8C13.75 6.3424 13.0915 4.75269 11.9194 3.58058C10.7473 2.40848 9.1576 1.75 7.5 1.75ZM0 8C-1.46764e-08 7.01509 0.193993 6.03982 0.570903 5.12987C0.947814 4.21993 1.50026 3.39314 2.1967 2.6967C2.89314 2.00026 3.71993 1.44781 4.62987 1.0709C5.53982 0.693993 6.51509 0.5 7.5 0.5C8.48491 0.5 9.46018 0.693993 10.3701 1.0709C11.2801 1.44781 12.1069 2.00026 12.8033 2.6967C13.4997 3.39314 14.0522 4.21993 14.4291 5.12987C14.806 6.03982 15 7.01509 15 8C15 9.98912 14.2098 11.8968 12.8033 13.3033C11.3968 14.7098 9.48912 15.5 7.5 15.5C5.51088 15.5 3.60322 14.7098 2.1967 13.3033C0.790176 11.8968 2.96403e-08 9.98912 0 8Z" fill="#ADADAD"/>
</svg>
