<svg width="15" height="16" viewBox="0 0 15 16" fill="none" xmlns="http://www.w3.org/2000/svg">
<path d="M7.5 11.75C8.49456 11.75 9.44839 11.3549 10.1517 10.6517C10.8549 9.94839 11.25 8.99456 11.25 8C11.25 7.00544 10.8549 6.05161 10.1517 5.34835C9.44839 4.64509 8.49456 4.25 7.5 4.25C6.50544 4.25 5.55161 4.64509 4.84835 5.34835C4.14509 6.05161 3.75 7.00544 3.75 8C3.75 8.99456 4.14509 9.94839 4.84835 10.6517C5.55161 11.3549 6.50544 11.75 7.5 11.75ZM7.5 0.5C6.51509 0.5 5.53982 0.693993 4.62987 1.0709C3.71993 1.44781 2.89314 2.00026 2.1967 2.6967C1.50026 3.39314 0.947814 4.21993 0.570904 5.12987C0.193993 6.03982 0 7.01509 0 8C0 8.98491 0.193993 9.96018 0.570904 10.8701C0.947814 11.7801 1.50026 12.6069 2.1967 13.3033C2.89314 13.9997 3.71993 14.5522 4.62987 14.9291C5.53982 15.306 6.51509 15.5 7.5 15.5C9.48912 15.5 11.3968 14.7098 12.8033 13.3033C14.2098 11.8968 15 9.98912 15 8C15 6.01088 14.2098 4.10322 12.8033 2.6967C11.3968 1.29018 9.48912 0.5 7.5 0.5ZM1.25 8C1.25 6.3424 1.90848 4.75269 3.08058 3.58058C4.25269 2.40848 5.8424 1.75 7.5 1.75C9.1576 1.75 10.7473 2.40848 11.9194 3.58058C13.0915 4.75269 13.75 6.3424 13.75 8C13.75 9.6576 13.0915 11.2473 11.9194 12.4194C10.7473 13.5915 9.1576 14.25 7.5 14.25C5.8424 14.25 4.25269 13.5915 3.08058 12.4194C1.90848 11.2473 1.25 9.6576 1.25 8Z" fill="#FDFDFD"/>
</svg>
