<svg width="25" height="24" viewBox="0 0 25 24" fill="none" xmlns="http://www.w3.org/2000/svg">
<path d="M7.5 8.47953L9.135 6.86553L7.5 5.24953L5.884 6.86553L7.5 8.47953ZM3.5 13.7695V2.76953H21.5V13.7695H16.814C16.8447 13.6029 16.865 13.4362 16.875 13.2695C16.885 13.1029 16.8863 12.9362 16.879 12.7695H20.5V3.76953H4.5V12.7695H8.121C8.113 12.9362 8.11433 13.1029 8.125 13.2695C8.13567 13.4362 8.15633 13.6029 8.187 13.7695H3.5ZM16.998 7.26953C17.2747 7.26953 17.511 7.1722 17.707 6.97753C17.903 6.78286 18.0007 6.54753 18 6.27153C17.9993 5.99553 17.9023 5.75886 17.709 5.56153C17.5157 5.3642 17.28 5.26653 17.002 5.26853C16.724 5.27053 16.4877 5.36753 16.293 5.55953C16.0983 5.75153 16.0007 5.9872 16 6.26653C15.9993 6.54586 16.0963 6.7822 16.291 6.97553C16.4857 7.16886 16.7213 7.26753 16.998 7.26953ZM6.5 21.2305V19.8225C6.5 19.4319 6.608 19.0665 6.824 18.7265C7.04 18.3865 7.33133 18.1365 7.698 17.9765C8.46333 17.6319 9.246 17.3699 10.046 17.1905C10.846 17.0112 11.664 16.9219 12.5 16.9225C13.336 16.9232 14.154 17.0125 14.954 17.1905C15.754 17.3685 16.5367 17.6305 17.302 17.9765C17.6687 18.1365 17.96 18.3849 18.176 18.7215C18.392 19.0589 18.5 19.4239 18.5 19.8165V21.2305H6.5ZM7.5 20.2305H17.5V19.8225C17.5 19.6225 17.4417 19.4392 17.325 19.2725C17.2083 19.1059 17.0583 18.9809 16.875 18.8975C16.175 18.5809 15.4583 18.3392 14.725 18.1725C13.9917 18.0059 13.25 17.9225 12.5 17.9225C11.75 17.9225 11.0083 18.0059 10.275 18.1725C9.54167 18.3392 8.825 18.5809 8.125 18.8975C7.94167 18.9809 7.79167 19.1059 7.675 19.2725C7.55833 19.4392 7.5 19.6225 7.5 19.8225V20.2305ZM12.5 15.5375C11.8027 15.5375 11.2117 15.2952 10.727 14.8105C10.2423 14.3265 10 13.7355 10 13.0375C10 12.3395 10.2423 11.7485 10.727 11.2645C11.2117 10.7805 11.8027 10.5382 12.5 10.5375C13.1973 10.5369 13.7883 10.7792 14.273 11.2645C14.7577 11.7499 15 12.3409 15 13.0375C15 13.7342 14.7577 14.3252 14.273 14.8105C13.7883 15.2959 13.1973 15.5382 12.5 15.5375ZM12.5 14.5375C12.9167 14.5375 13.271 14.3919 13.563 14.1005C13.855 13.8092 14.0007 13.4549 14 13.0375C13.9993 12.6202 13.8537 12.2662 13.563 11.9755C13.2723 11.6849 12.918 11.5389 12.5 11.5375C12.082 11.5362 11.728 11.6822 11.438 11.9755C11.148 12.2689 11.002 12.6229 11 13.0375C10.998 13.4522 11.144 13.8065 11.438 14.1005C11.732 14.3945 12.086 14.5402 12.5 14.5375Z" fill="#EBEBEB"/>
</svg>
