<svg width="21" height="20" viewBox="0 0 21 20" fill="none" xmlns="http://www.w3.org/2000/svg">
<path d="M6.33333 7.06693L7.69583 5.72193L6.33333 4.37526L4.98667 5.72193L6.33333 7.06693ZM3 11.4753V2.30859H18V11.4753H14.095C14.1206 11.3364 14.1375 11.1975 14.1458 11.0586C14.1542 10.9197 14.1553 10.7808 14.1492 10.6419H17.1667V3.14193H3.83333V10.6419H6.85083C6.84417 10.7808 6.84528 10.9197 6.85417 11.0586C6.86306 11.1975 6.88028 11.3364 6.90583 11.4753H3ZM14.2483 6.05859C14.4789 6.05859 14.6758 5.97748 14.8392 5.81526C15.0025 5.65304 15.0839 5.45693 15.0833 5.22693C15.0828 4.99693 15.0019 4.7997 14.8408 4.63526C14.6797 4.47082 14.4833 4.38943 14.2517 4.39109C14.02 4.39276 13.8231 4.47359 13.6608 4.63359C13.4986 4.79359 13.4172 4.98998 13.4167 5.22276C13.4161 5.45554 13.4969 5.65248 13.6592 5.81359C13.8214 5.9747 14.0178 6.05693 14.2483 6.05859ZM5.5 17.6928V16.5194C5.5 16.1939 5.59 15.8894 5.77 15.6061C5.95 15.3228 6.19278 15.1144 6.49833 14.9811C7.13611 14.6939 7.78833 14.4755 8.455 14.3261C9.12167 14.1766 9.80333 14.1022 10.5 14.1028C11.1967 14.1033 11.8783 14.1778 12.545 14.3261C13.2117 14.4744 13.8639 14.6928 14.5017 14.9811C14.8072 15.1144 15.05 15.3214 15.23 15.6019C15.41 15.883 15.5 16.1872 15.5 16.5144V17.6928H5.5ZM6.33333 16.8594H14.6667V16.5194C14.6667 16.3528 14.6181 16.2 14.5208 16.0611C14.4236 15.9222 14.2986 15.818 14.1458 15.7486C13.5625 15.4847 12.9653 15.2833 12.3542 15.1444C11.7431 15.0055 11.125 14.9361 10.5 14.9361C9.875 14.9361 9.25694 15.0055 8.64583 15.1444C8.03472 15.2833 7.4375 15.4847 6.85417 15.7486C6.70139 15.818 6.57639 15.9222 6.47917 16.0611C6.38194 16.2 6.33333 16.3528 6.33333 16.5194V16.8594ZM10.5 12.9486C9.91889 12.9486 9.42639 12.7466 9.0225 12.3428C8.61861 11.9394 8.41667 11.4469 8.41667 10.8653C8.41667 10.2836 8.61861 9.79109 9.0225 9.38776C9.42639 8.98443 9.91889 8.78248 10.5 8.78193C11.0811 8.78137 11.5736 8.98332 11.9775 9.38776C12.3814 9.79221 12.5833 10.2847 12.5833 10.8653C12.5833 11.4458 12.3814 11.9383 11.9775 12.3428C11.5736 12.7472 11.0811 12.9491 10.5 12.9486ZM10.5 12.1153C10.8472 12.1153 11.1425 11.9939 11.3858 11.7511C11.6292 11.5083 11.7506 11.213 11.75 10.8653C11.7494 10.5175 11.6281 10.2225 11.3858 9.98026C11.1436 9.73804 10.8483 9.61637 10.5 9.61526C10.1517 9.61415 9.85667 9.73582 9.615 9.98026C9.37333 10.2247 9.25167 10.5197 9.25 10.8653C9.24833 11.2108 9.37 11.5061 9.615 11.7511C9.86 11.9961 10.155 12.1175 10.5 12.1153Z" fill="#EBEBEB"/>
</svg>
