<svg width="80" height="81" viewBox="0 0 80 81" fill="none" xmlns="http://www.w3.org/2000/svg">
<path d="M39.875 38.375V78C39.875 78 56.25 66.5 67.75 63.125C67.75 63.125 68.25 38.625 75.375 26.375L39.875 38.375Z" fill="#076170"/>
<path d="M50.125 72C50.125 72 50.75 36.875 52 35.125C53.25 33.25 64 31.375 64 31.375C64 31.375 59.625 64.25 60.625 66.375C60.75 66.25 56.25 68.125 50.125 72Z" fill="#B3690E"/>
<path d="M39.875 78C39.875 78 28.375 68.25 10.5 63.125C10.5 63.125 11.875 43 5.375 27.625L39.875 38.375V78Z" fill="#3BAACF"/>
<path d="M17.75 66.375C17.75 66.375 28.25 70.625 29 72C29.75 73.375 29.75 36.625 29.75 36.625C29.75 36.625 15.375 32.625 14.125 32.625C14.125 32.625 18.5 47.5 17.75 66.375Z" fill="#E9C243"/>
<path opacity="0.3" d="M39.875 38.375V45L72 34C72.875 31.25 74 28.625 75.25 26.375L39.875 38.375ZM7.625 34.5C7 32.125 6.25 29.875 5.25 27.625L39.75 38.375V45L7.625 34.5Z" fill="black"/>
<path d="M2.5 24.125L38.125 32L77.5 22.5L38.875 20.375L2.5 24.125Z" fill="#4FC7E8"/>
<path d="M2.5 24.125L5.375 32L38.125 41.25V32L2.5 24.125Z" fill="#3BAACF"/>
<path d="M38.125 41.25C38.125 41.25 67.875 30.25 75.25 29.75C75.25 29.75 75.75 25.375 77.5 22.625L38.125 32V41.25Z" fill="#076170"/>
<path d="M13.125 26.5L20.375 33.375L28.375 29.75L40 26.25L54.5 28L62.125 29.5L68.25 24.75L13.125 26.5Z" fill="#F0AE11"/>
<path d="M28.375 29.75L40 26.25L54.5 28L68.25 24.75L39.25 22L13.125 26.5L28.375 29.75Z" fill="#F0AE11"/>
<path d="M13.125 26.5V35.25L27.75 39.25L28.375 29.75L13.125 26.5Z" fill="#F8D048"/>
<path d="M54.5 28L54.75 36.375L67.25 32.625L68.25 24.75L54.5 28Z" fill="#C47116"/>
<path d="M46.6244 22.125C46.6244 22.125 46.6244 13.375 55.1244 5.75C55.1244 5.75 49.9994 7.625 47.4994 7.125C44.4994 6.625 43.4994 3 43.4994 3C43.4994 3 36.2494 18.75 38.3744 20.75C40.4994 22.875 46.6244 22.125 46.6244 22.125Z" fill="#EA9F07"/>
<path d="M35.5 27.25C35.5 27.25 30.625 17.25 20.25 12C20.25 12 28.375 11.25 30.25 10.25C32.625 9.125 34 6 34 6C34 6 43 21.75 42.25 24.125C41.5 26.5 35.5 27.25 35.5 27.25Z" fill="#F8D048"/>
<path d="M40.7505 26.125C40.7505 26.125 33.1255 29.125 23.3755 29.125C2.87552 29 0.000518322 14.25 20.2505 15.625C36.8755 16.875 40.7505 26.125 40.7505 26.125Z" fill="#EA9F07"/>
<path d="M39.3756 26C39.3756 26 48.3756 26.75 56.7506 24.625C74.2506 20.125 67.7506 6.87503 51.2506 12.5C37.7506 17.125 39.3756 26 39.3756 26Z" fill="#F0AE11"/>
<path d="M40.7506 26.125C40.7506 26.125 36.0006 28 29.8756 28C17.1256 28 15.2506 18.75 27.8756 19.625C38.2506 20.375 40.7506 26.125 40.7506 26.125Z" fill="#824000"/>
<path d="M40.7502 26.125C40.7502 26.125 47.0002 26.625 52.8752 25.125C65.1252 22 60.5002 12.75 49.1252 16.625C39.6252 19.875 40.7502 26.125 40.7502 26.125Z" fill="#824000"/>
</svg>
