<svg width="402" height="283" viewBox="0 0 402 283" fill="none" xmlns="http://www.w3.org/2000/svg">
<mask id="path-1-inside-1_1105_10392" fill="white">
<path d="M391.243 190.103C391.265 191.823 390.944 193.531 390.3 195.126C389.656 196.722 388.7 198.174 387.489 199.398C386.278 200.622 384.836 201.593 383.245 202.256C381.655 202.919 379.949 203.26 378.225 203.26H285.248C286.599 205.725 287.113 208.561 286.714 211.342C286.315 214.124 285.024 216.702 283.035 218.69C282.275 219.444 281.427 220.105 280.51 220.659H297.686C304.87 220.659 310.951 226.32 311.043 233.484C311.064 235.204 310.743 236.911 310.099 238.506C309.454 240.102 308.498 241.554 307.288 242.778C306.077 244.002 304.635 244.974 303.045 245.638C301.455 246.302 299.749 246.644 298.026 246.645H212.649C209.799 246.645 207.029 245.711 204.762 243.988C202.495 242.265 200.858 239.847 200.1 237.105C199.342 234.363 199.506 231.449 200.567 228.809C201.628 226.17 203.527 223.95 205.973 222.492H154.828C147.644 222.492 141.563 216.831 141.471 209.667C141.441 207.347 142.034 205.062 143.187 203.048C144.341 201.034 146.014 199.365 148.033 198.215C145.918 197.12 144.145 195.465 142.909 193.433C141.672 191.4 141.018 189.068 141.018 186.689V170.776C141.016 168.744 141.493 166.74 142.409 164.925C143.325 163.111 144.656 161.536 146.293 160.329H54.3832C47.2057 160.329 41.1322 154.682 41.0257 147.525C41.0001 145.803 41.3181 144.092 41.961 142.493C42.604 140.894 43.5591 139.439 44.7709 138.212C45.9826 136.985 47.4267 136.011 49.0191 135.346C50.6115 134.682 52.3205 134.34 54.0465 134.341H60.5423C63.2095 134.341 65.7674 133.284 67.6534 131.401C69.5394 129.518 70.5989 126.965 70.5989 124.302V124.295C70.5989 121.633 69.5394 119.079 67.6534 117.197C65.7674 115.314 63.2095 114.256 60.5423 114.256H17.3025C13.8509 114.256 10.5406 112.888 8.09992 110.451C5.65924 108.015 4.28809 104.711 4.28809 101.265C4.28809 97.8198 5.65924 94.5155 8.09992 92.0792C10.5406 89.6428 13.8509 88.2741 17.3025 88.2741H79.8212C83.2729 88.275 86.5835 86.9072 89.0248 84.4715C91.4661 82.0358 92.8381 78.7318 92.839 75.2864C92.8399 71.8409 91.4696 68.5362 89.0295 66.0993C86.5895 63.6623 83.2796 62.2928 79.8279 62.2919H61.9711C54.7795 62.2919 48.6986 56.6167 48.6211 49.4387C48.6024 47.7206 48.9253 46.0159 49.5711 44.4232C50.2169 42.8306 51.1728 41.3817 52.3834 40.1603C53.5941 38.939 55.0354 37.9695 56.624 37.308C58.2126 36.6465 59.9168 36.3061 61.6381 36.3066H180.381C187.374 36.3066 193.378 41.6784 193.715 48.6586C193.83 50.9617 193.33 53.2538 192.266 55.3005H345.409C348.86 55.3005 352.171 56.6692 354.611 59.1055C357.052 61.5418 358.423 64.8462 358.423 68.2916C358.423 71.7371 357.052 75.0415 354.611 77.4778C352.171 79.9141 348.86 81.2828 345.409 81.2828H288.684C288.682 84.0783 287.568 86.7586 285.588 88.7356C283.608 90.7127 280.924 91.825 278.123 91.8286H214.183C216.078 93.6143 217.392 95.9267 217.955 98.4664C218.518 101.006 218.304 103.656 217.341 106.073C216.377 108.49 214.709 110.562 212.553 112.022C210.396 113.482 207.85 114.262 205.244 114.26H187.365C186.662 114.259 185.965 114.396 185.314 114.664C184.663 114.933 184.072 115.326 183.574 115.822C183.076 116.318 182.681 116.908 182.411 117.557C182.141 118.206 182.002 118.901 182.002 119.604V119.611C182.002 120.314 182.141 121.009 182.411 121.658C182.681 122.307 183.076 122.896 183.574 123.393C184.072 123.889 184.663 124.282 185.314 124.55C185.965 124.818 186.662 124.956 187.365 124.955H332.489C335.941 124.955 339.251 126.323 341.692 128.76C344.133 131.196 345.504 134.5 345.504 137.946C345.504 141.391 344.133 144.696 341.692 147.132C339.251 149.568 335.941 150.937 332.489 150.937H294.959C296.862 152.099 298.434 153.73 299.525 155.673C300.616 157.616 301.189 159.806 301.189 162.033V165.738C301.19 168.122 300.533 170.46 299.291 172.496C298.049 174.532 296.268 176.187 294.146 177.279H377.886C385.07 177.279 391.151 182.94 391.243 190.104"/>
</mask>
<path d="M391.243 190.103C391.265 191.823 390.944 193.531 390.3 195.126C389.656 196.722 388.7 198.174 387.489 199.398C386.278 200.622 384.836 201.593 383.245 202.256C381.655 202.919 379.949 203.26 378.225 203.26H285.248C286.599 205.725 287.113 208.561 286.714 211.342C286.315 214.124 285.024 216.702 283.035 218.69C282.275 219.444 281.427 220.105 280.51 220.659H297.686C304.87 220.659 310.951 226.32 311.043 233.484C311.064 235.204 310.743 236.911 310.099 238.506C309.454 240.102 308.498 241.554 307.288 242.778C306.077 244.002 304.635 244.974 303.045 245.638C301.455 246.302 299.749 246.644 298.026 246.645H212.649C209.799 246.645 207.029 245.711 204.762 243.988C202.495 242.265 200.858 239.847 200.1 237.105C199.342 234.363 199.506 231.449 200.567 228.809C201.628 226.17 203.527 223.95 205.973 222.492H154.828C147.644 222.492 141.563 216.831 141.471 209.667C141.441 207.347 142.034 205.062 143.187 203.048C144.341 201.034 146.014 199.365 148.033 198.215C145.918 197.12 144.145 195.465 142.909 193.433C141.672 191.4 141.018 189.068 141.018 186.689V170.776C141.016 168.744 141.493 166.74 142.409 164.925C143.325 163.111 144.656 161.536 146.293 160.329H54.3832C47.2057 160.329 41.1322 154.682 41.0257 147.525C41.0001 145.803 41.3181 144.092 41.961 142.493C42.604 140.894 43.5591 139.439 44.7709 138.212C45.9826 136.985 47.4267 136.011 49.0191 135.346C50.6115 134.682 52.3205 134.34 54.0465 134.341H60.5423C63.2095 134.341 65.7674 133.284 67.6534 131.401C69.5394 129.518 70.5989 126.965 70.5989 124.302V124.295C70.5989 121.633 69.5394 119.079 67.6534 117.197C65.7674 115.314 63.2095 114.256 60.5423 114.256H17.3025C13.8509 114.256 10.5406 112.888 8.09992 110.451C5.65924 108.015 4.28809 104.711 4.28809 101.265C4.28809 97.8198 5.65924 94.5155 8.09992 92.0792C10.5406 89.6428 13.8509 88.2741 17.3025 88.2741H79.8212C83.2729 88.275 86.5835 86.9072 89.0248 84.4715C91.4661 82.0358 92.8381 78.7318 92.839 75.2864C92.8399 71.8409 91.4696 68.5362 89.0295 66.0993C86.5895 63.6623 83.2796 62.2928 79.8279 62.2919H61.9711C54.7795 62.2919 48.6986 56.6167 48.6211 49.4387C48.6024 47.7206 48.9253 46.0159 49.5711 44.4232C50.2169 42.8306 51.1728 41.3817 52.3834 40.1603C53.5941 38.939 55.0354 37.9695 56.624 37.308C58.2126 36.6465 59.9168 36.3061 61.6381 36.3066H180.381C187.374 36.3066 193.378 41.6784 193.715 48.6586C193.83 50.9617 193.33 53.2538 192.266 55.3005H345.409C348.86 55.3005 352.171 56.6692 354.611 59.1055C357.052 61.5418 358.423 64.8462 358.423 68.2916C358.423 71.7371 357.052 75.0415 354.611 77.4778C352.171 79.9141 348.86 81.2828 345.409 81.2828H288.684C288.682 84.0783 287.568 86.7586 285.588 88.7356C283.608 90.7127 280.924 91.825 278.123 91.8286H214.183C216.078 93.6143 217.392 95.9267 217.955 98.4664C218.518 101.006 218.304 103.656 217.341 106.073C216.377 108.49 214.709 110.562 212.553 112.022C210.396 113.482 207.85 114.262 205.244 114.26H187.365C186.662 114.259 185.965 114.396 185.314 114.664C184.663 114.933 184.072 115.326 183.574 115.822C183.076 116.318 182.681 116.908 182.411 117.557C182.141 118.206 182.002 118.901 182.002 119.604V119.611C182.002 120.314 182.141 121.009 182.411 121.658C182.681 122.307 183.076 122.896 183.574 123.393C184.072 123.889 184.663 124.282 185.314 124.55C185.965 124.818 186.662 124.956 187.365 124.955H332.489C335.941 124.955 339.251 126.323 341.692 128.76C344.133 131.196 345.504 134.5 345.504 137.946C345.504 141.391 344.133 144.696 341.692 147.132C339.251 149.568 335.941 150.937 332.489 150.937H294.959C296.862 152.099 298.434 153.73 299.525 155.673C300.616 157.616 301.189 159.806 301.189 162.033V165.738C301.19 168.122 300.533 170.46 299.291 172.496C298.049 174.532 296.268 176.187 294.146 177.279H377.886C385.07 177.279 391.151 182.94 391.243 190.104" fill="#121212"/>
<path d="M378.225 203.26L378.226 202.26H378.225V203.26ZM285.248 203.26V202.26H283.559L284.371 203.74L285.248 203.26ZM283.035 218.69L283.739 219.399L283.741 219.397L283.035 218.69ZM280.51 220.659L279.993 219.802L276.915 221.659H280.51V220.659ZM311.043 233.484L312.043 233.471L312.043 233.471L311.043 233.484ZM298.026 246.645V247.645H298.026L298.026 246.645ZM212.649 246.645L212.648 247.645H212.649V246.645ZM205.973 222.492L206.485 223.351L209.602 221.492H205.973V222.492ZM141.471 209.667L142.471 209.654L141.471 209.667ZM148.033 198.215L148.528 199.084L150.126 198.173L148.493 197.327L148.033 198.215ZM141.018 186.689L142.018 186.69V186.689H141.018ZM141.018 170.776H142.018V170.775L141.018 170.776ZM146.293 160.329L146.887 161.134L149.336 159.329H146.293V160.329ZM41.0257 147.525L40.0258 147.54V147.54L41.0257 147.525ZM54.0465 134.341L54.0459 135.341H54.0465V134.341ZM70.5989 124.295H71.5989H70.5989ZM4.28809 101.265H3.28809H4.28809ZM17.3025 88.2741V89.2741V88.2741ZM79.8212 88.2741L79.8215 87.2741H79.8212V88.2741ZM79.8279 62.2919L79.8282 61.2919H79.8279V62.2919ZM48.6211 49.4387L49.621 49.4279V49.4278L48.6211 49.4387ZM61.6381 36.3066L61.6378 37.3066H61.6381V36.3066ZM193.715 48.6586L192.716 48.7069L192.716 48.7083L193.715 48.6586ZM192.266 55.3005L191.378 54.8393L190.619 56.3005H192.266V55.3005ZM345.409 55.3005V54.3005V55.3005ZM288.684 81.2828V80.2828H287.685L287.684 81.2819L288.684 81.2828ZM278.123 91.8286V92.8286H278.124L278.123 91.8286ZM214.183 91.8286V90.8286H211.664L213.497 92.5563L214.183 91.8286ZM205.244 114.26L205.244 113.26H205.244V114.26ZM187.365 114.26L187.364 115.26H187.365V114.26ZM182.002 119.604L181.002 119.603V119.604H182.002ZM182.002 119.611H181.002V119.612L182.002 119.611ZM187.365 124.955V123.955L187.364 123.955L187.365 124.955ZM332.489 124.955V123.955V124.955ZM332.489 150.937V151.937V150.937ZM294.959 150.937V149.937H291.403L294.438 151.79L294.959 150.937ZM301.189 162.033L300.189 162.033V162.033H301.189ZM301.189 165.738H300.189V165.739L301.189 165.738ZM294.146 177.279L293.688 176.39L294.146 178.279V177.279ZM390.243 190.116C390.263 191.703 389.968 193.279 389.373 194.752L391.227 195.501C391.921 193.782 392.267 191.943 392.243 190.091L390.243 190.116ZM389.373 194.752C388.778 196.224 387.896 197.564 386.778 198.694L388.2 200.101C389.504 198.783 390.533 197.219 391.227 195.501L389.373 194.752ZM386.778 198.694C385.66 199.824 384.329 200.721 382.861 201.333L383.63 203.179C385.342 202.465 386.896 201.419 388.2 200.101L386.778 198.694ZM382.861 201.333C381.392 201.945 379.817 202.26 378.226 202.26L378.225 204.26C380.081 204.26 381.918 203.893 383.63 203.179L382.861 201.333ZM378.225 202.26H285.248V204.26H378.225V202.26ZM284.371 203.74C285.618 206.016 286.093 208.633 285.724 211.201L287.704 211.484C288.134 208.488 287.58 205.434 286.125 202.779L284.371 203.74ZM285.724 211.201C285.356 213.768 284.165 216.147 282.328 217.982L283.741 219.397C285.884 217.257 287.274 214.48 287.704 211.484L285.724 211.201ZM282.33 217.98C281.627 218.679 280.842 219.29 279.993 219.802L281.026 221.515C282.012 220.921 282.923 220.21 283.739 219.399L282.33 217.98ZM280.51 221.659H297.686V219.659H280.51V221.659ZM297.686 221.659C304.358 221.659 309.959 226.914 310.043 233.497L312.043 233.471C311.943 225.725 305.382 219.659 297.686 219.659V221.659ZM310.043 233.496C310.063 235.083 309.766 236.659 309.171 238.132L311.026 238.881C311.72 237.163 312.066 235.324 312.043 233.471L310.043 233.496ZM309.171 238.132C308.576 239.604 307.694 240.944 306.577 242.075L307.999 243.481C309.302 242.163 310.331 240.599 311.026 238.881L309.171 238.132ZM306.577 242.075C305.459 243.205 304.128 244.102 302.66 244.715L303.43 246.561C305.142 245.846 306.695 244.799 307.999 243.481L306.577 242.075ZM302.66 244.715C301.192 245.328 299.616 245.644 298.025 245.645L298.026 247.645C299.882 247.644 301.718 247.276 303.43 246.561L302.66 244.715ZM298.026 245.645H212.649V247.645H298.026V245.645ZM212.649 245.645C210.018 245.645 207.46 244.783 205.367 243.192L204.157 244.784C206.598 246.64 209.581 247.645 212.648 247.645L212.649 245.645ZM205.367 243.192C203.275 241.601 201.763 239.369 201.064 236.839L199.136 237.371C199.952 240.324 201.716 242.928 204.157 244.784L205.367 243.192ZM201.064 236.839C200.364 234.308 200.516 231.619 201.495 229.182L199.639 228.437C198.497 231.28 198.32 234.418 199.136 237.371L201.064 236.839ZM201.495 229.182C202.474 226.746 204.227 224.697 206.485 223.351L205.461 221.633C202.827 223.204 200.782 225.594 199.639 228.437L201.495 229.182ZM205.973 221.492H154.828V223.492H205.973V221.492ZM154.828 221.492C148.156 221.492 142.555 216.236 142.471 209.654L140.471 209.68C140.571 217.425 147.132 223.492 154.828 223.492V221.492ZM142.471 209.654C142.443 207.513 142.99 205.404 144.055 203.545L142.32 202.551C141.077 204.719 140.439 207.181 140.471 209.68L142.471 209.654ZM144.055 203.545C145.12 201.686 146.665 200.146 148.528 199.084L147.538 197.346C145.364 198.585 143.563 200.382 142.32 202.551L144.055 203.545ZM148.493 197.327C146.541 196.316 144.904 194.789 143.763 192.913L142.054 193.953C143.387 196.142 145.296 197.924 147.573 199.103L148.493 197.327ZM143.763 192.913C142.621 191.037 142.018 188.884 142.018 186.69L140.018 186.689C140.018 189.251 140.722 191.764 142.054 193.953L143.763 192.913ZM142.018 186.689V170.776H140.018V186.689H142.018ZM142.018 170.775C142.016 168.9 142.456 167.051 143.301 165.376L141.516 164.475C140.529 166.429 140.016 168.588 140.018 170.777L142.018 170.775ZM143.301 165.376C144.147 163.701 145.375 162.248 146.887 161.134L145.7 159.524C143.936 160.824 142.503 162.52 141.516 164.475L143.301 165.376ZM146.293 159.329H54.3832V161.329H146.293V159.329ZM54.3832 159.329C47.7174 159.329 42.1235 154.087 42.0256 147.51L40.0258 147.54C40.141 155.278 46.694 161.329 54.3832 161.329V159.329ZM42.0256 147.51C42.002 145.921 42.2954 144.342 42.8888 142.866L41.0332 142.12C40.3407 143.842 39.9983 145.685 40.0258 147.54L42.0256 147.51ZM42.8888 142.866C43.4822 141.39 44.3638 140.047 45.4824 138.915L44.0594 137.509C42.7544 138.831 41.7257 140.398 41.0332 142.12L42.8888 142.866ZM45.4824 138.915C46.6009 137.782 47.934 136.883 49.4042 136.269L48.634 134.424C46.9193 135.139 45.3643 136.188 44.0594 137.509L45.4824 138.915ZM49.4042 136.269C50.8744 135.656 52.4523 135.34 54.0459 135.341L54.047 133.341C52.1887 133.34 50.3486 133.708 48.634 134.424L49.4042 136.269ZM54.0465 135.341H60.5423V133.341H54.0465V135.341ZM60.5423 135.341C63.4741 135.341 66.2862 134.179 68.3599 132.109L66.9469 130.693C65.2486 132.388 62.9448 133.341 60.5423 133.341V135.341ZM68.3599 132.109C70.4336 130.039 71.5989 127.231 71.5989 124.302H69.5989C69.5989 126.699 68.6452 128.998 66.9469 130.693L68.3599 132.109ZM71.5989 124.302V124.295H69.5989V124.302H71.5989ZM71.5989 124.295C71.5989 121.367 70.4336 118.559 68.3599 116.489L66.9469 117.904C68.6452 119.6 69.5989 121.898 69.5989 124.295H71.5989ZM68.3599 116.489C66.2862 114.419 63.4741 113.256 60.5423 113.256V115.256C62.9448 115.256 65.2486 116.209 66.9469 117.904L68.3599 116.489ZM60.5423 113.256H17.3025V115.256H60.5423V113.256ZM17.3025 113.256C14.1155 113.256 11.0594 111.993 8.80639 109.744L7.39344 111.159C10.0218 113.783 13.5862 115.256 17.3025 115.256V113.256ZM8.80639 109.744C6.55345 107.495 5.28809 104.445 5.28809 101.265H3.28809C3.28809 104.977 4.76503 108.535 7.39344 111.159L8.80639 109.744ZM5.28809 101.265C5.28809 98.0856 6.55345 95.0358 8.80639 92.7869L7.39344 91.3714C4.76503 93.9951 3.28809 97.554 3.28809 101.265H5.28809ZM8.80639 92.7869C11.0594 90.5379 14.1155 89.2741 17.3025 89.2741V87.2741C13.5862 87.2741 10.0218 88.7478 7.39344 91.3714L8.80639 92.7869ZM17.3025 89.2741H79.8212V87.2741H17.3025V89.2741ZM79.821 89.2741C83.5372 89.2751 87.1021 87.8024 89.7311 85.1794L88.3185 83.7636C86.0649 86.012 83.0085 87.275 79.8215 87.2741L79.821 89.2741ZM89.7311 85.1794C92.3602 82.5564 93.838 78.9979 93.839 75.2866L91.839 75.2861C91.8382 78.4658 90.572 81.5152 88.3185 83.7636L89.7311 85.1794ZM93.839 75.2866C93.8399 71.5754 92.3639 68.0161 89.7362 65.3917L88.3229 66.8068C90.5752 69.0563 91.8398 72.1064 91.839 75.2861L93.839 75.2866ZM89.7362 65.3917C87.1085 62.7674 83.5445 61.2928 79.8282 61.2919L79.8277 63.2919C83.0147 63.2927 86.0704 64.5573 88.3229 66.8068L89.7362 65.3917ZM79.8279 61.2919H61.9711V63.2919H79.8279V61.2919ZM61.9711 61.2919C55.2928 61.2919 49.6922 56.0237 49.621 49.4279L47.6211 49.4495C47.7049 57.2097 54.2662 63.2919 61.9711 63.2919V61.2919ZM49.621 49.4278C49.6037 47.8422 49.9017 46.2689 50.4978 44.799L48.6444 44.0475C47.9488 45.7629 47.601 47.599 47.6211 49.4496L49.621 49.4278ZM50.4978 44.799C51.0938 43.3291 51.9761 41.9917 53.0937 40.8643L51.6732 39.4563C50.3695 40.7716 49.3399 42.3321 48.6444 44.0475L50.4978 44.799ZM53.0937 40.8643C54.2112 39.7369 55.5418 38.8419 57.0084 38.2311L56.2396 36.3848C54.5291 37.0971 52.977 38.141 51.6732 39.4563L53.0937 40.8643ZM57.0084 38.2311C58.4751 37.6204 60.0486 37.3062 61.6378 37.3066L61.6384 35.3066C59.7851 35.3061 57.9501 35.6726 56.2396 36.3848L57.0084 38.2311ZM61.6381 37.3066H180.381V35.3066H61.6381V37.3066ZM180.381 37.3066C186.877 37.3066 192.406 42.2949 192.716 48.7069L194.714 48.6104C194.349 41.062 187.872 35.3066 180.381 35.3066V37.3066ZM192.716 48.7083C192.822 50.8341 192.36 52.9499 191.378 54.8393L193.153 55.7617C194.299 53.5577 194.837 51.0892 194.714 48.609L192.716 48.7083ZM192.266 56.3005H345.409V54.3005H192.266V56.3005ZM345.409 56.3005C348.596 56.3005 351.652 57.5643 353.905 59.8133L355.318 58.3978C352.689 55.7741 349.125 54.3005 345.409 54.3005V56.3005ZM353.905 59.8133C356.158 62.0622 357.423 65.112 357.423 68.2916H359.423C359.423 64.5804 357.946 61.0215 355.318 58.3978L353.905 59.8133ZM357.423 68.2916C357.423 71.4713 356.158 74.5211 353.905 76.77L355.318 78.1855C357.946 75.5618 359.423 72.0029 359.423 68.2916H357.423ZM353.905 76.77C351.652 79.019 348.596 80.2828 345.409 80.2828V82.2828C349.125 82.2828 352.689 80.8092 355.318 78.1855L353.905 76.77ZM345.409 80.2828H288.684V82.2828H345.409V80.2828ZM287.684 81.2819C287.682 83.8119 286.674 86.2381 284.882 88.028L286.295 89.4433C288.462 87.279 289.681 84.3446 289.684 81.2837L287.684 81.2819ZM284.882 88.028C283.089 89.818 280.658 90.8254 278.122 90.8286L278.124 92.8286C281.189 92.8247 284.128 91.6074 286.295 89.4433L284.882 88.028ZM278.123 90.8286H214.183V92.8286H278.123V90.8286ZM213.497 92.5563C215.246 94.2046 216.459 96.339 216.978 98.6828L218.931 98.25C218.325 95.5144 216.909 93.0239 214.869 91.1008L213.497 92.5563ZM216.978 98.6828C217.498 101.027 217.301 103.472 216.412 105.703L218.27 106.443C219.307 103.84 219.537 100.986 218.931 98.25L216.978 98.6828ZM216.412 105.703C215.523 107.933 213.983 109.846 211.992 111.194L213.113 112.85C215.436 111.278 217.232 109.046 218.27 106.443L216.412 105.703ZM211.992 111.194C210.001 112.542 207.65 113.261 205.244 113.26L205.243 115.26C208.049 115.262 210.791 114.422 213.113 112.85L211.992 111.194ZM205.244 113.26H187.365V115.26H205.244V113.26ZM187.367 113.26C186.532 113.259 185.705 113.422 184.933 113.74L185.695 115.589C186.224 115.371 186.791 115.259 187.364 115.26L187.367 113.26ZM184.933 113.74C184.161 114.058 183.46 114.525 182.868 115.114L184.28 116.531C184.685 116.127 185.166 115.807 185.695 115.589L184.933 113.74ZM182.868 115.114C182.277 115.703 181.808 116.402 181.488 117.173L183.334 117.941C183.554 117.413 183.875 116.934 184.28 116.531L182.868 115.114ZM181.488 117.173C181.167 117.943 181.002 118.769 181.002 119.603L183.002 119.604C183.002 119.033 183.115 118.468 183.334 117.941L181.488 117.173ZM181.002 119.604V119.611H183.002V119.604H181.002ZM181.002 119.612C181.002 120.446 181.167 121.272 181.488 122.042L183.334 121.274C183.115 120.747 183.002 120.182 183.002 119.611L181.002 119.612ZM181.488 122.042C181.808 122.812 182.277 123.512 182.868 124.101L184.28 122.684C183.875 122.281 183.554 121.801 183.334 121.274L181.488 122.042ZM182.868 124.101C183.46 124.69 184.161 125.157 184.933 125.475L185.695 123.626C185.166 123.408 184.685 123.088 184.28 122.684L182.868 124.101ZM184.933 125.475C185.705 125.793 186.532 125.956 187.367 125.955L187.364 123.955C186.791 123.956 186.224 123.844 185.695 123.626L184.933 125.475ZM187.365 125.955H332.489V123.955H187.365V125.955ZM332.489 125.955C335.676 125.955 338.732 127.218 340.985 129.467L342.398 128.052C339.77 125.428 336.206 123.955 332.489 123.955V125.955ZM340.985 129.467C343.238 131.716 344.504 134.766 344.504 137.946H346.504C346.504 134.235 345.027 130.676 342.398 128.052L340.985 129.467ZM344.504 137.946C344.504 141.125 343.238 144.175 340.985 146.424L342.398 147.84C345.027 145.216 346.504 141.657 346.504 137.946H344.504ZM340.985 146.424C338.732 148.673 335.676 149.937 332.489 149.937V151.937C336.206 151.937 339.77 150.463 342.398 147.84L340.985 146.424ZM332.489 149.937H294.959V151.937H332.489V149.937ZM294.438 151.79C296.195 152.864 297.646 154.369 298.653 156.162L300.397 155.183C299.222 153.091 297.529 151.335 295.48 150.083L294.438 151.79ZM298.653 156.162C299.66 157.956 300.189 159.977 300.189 162.033L302.189 162.033C302.189 159.634 301.572 157.276 300.397 155.183L298.653 156.162ZM300.189 162.033V165.738H302.189V162.033H300.189ZM300.189 165.739C300.19 167.939 299.584 170.096 298.437 171.975L300.145 173.017C301.483 170.824 302.19 168.306 302.189 165.738L300.189 165.739ZM298.437 171.975C297.291 173.854 295.648 175.381 293.688 176.39L294.604 178.168C296.889 176.992 298.806 175.21 300.145 173.017L298.437 171.975ZM294.146 178.279H377.886V176.279H294.146V178.279ZM377.886 178.279C384.558 178.279 390.158 183.535 390.243 190.117L392.243 190.091C392.143 182.345 385.582 176.279 377.886 176.279V178.279Z" fill="#737373" mask="url(#path-1-inside-1_1105_10392)"/>
<path d="M365.219 110.85V126.849" stroke="#1E90FF" stroke-width="2" stroke-miterlimit="10" stroke-linecap="round"/>
<path d="M357.205 118.85H373.233" stroke="#1E90FF" stroke-width="2" stroke-miterlimit="10" stroke-linecap="round"/>
<path d="M104.937 5.40771V19.5392" stroke="#1E90FF" stroke-width="2" stroke-miterlimit="10" stroke-linecap="round"/>
<path d="M97.8584 12.4731H112.015" stroke="#1E90FF" stroke-width="2" stroke-miterlimit="10" stroke-linecap="round"/>
<path d="M384.057 27.8977C384.057 29.7573 383.504 31.5752 382.469 33.1214C381.434 34.6675 379.963 35.8726 378.242 36.5842C376.521 37.2958 374.627 37.482 372.8 37.1191C370.973 36.7563 369.294 35.8608 367.977 34.5458C366.66 33.2308 365.763 31.5554 365.4 29.7315C365.036 27.9077 365.223 26.0172 365.936 24.2992C366.649 22.5812 367.856 21.1128 369.405 20.0798C370.954 19.0468 372.776 18.4955 374.638 18.4956C375.875 18.4956 377.1 18.7388 378.243 19.2113C379.386 19.6838 380.424 20.3764 381.298 21.2495C382.173 22.1225 382.867 23.159 383.34 24.2998C383.813 25.4405 384.057 26.6631 384.057 27.8977Z" stroke="#1E90FF" stroke-width="2" stroke-miterlimit="10"/>
<path d="M19.8379 181.423C19.8387 183.283 19.2869 185.101 18.2523 186.647C17.2178 188.194 15.7469 189.4 14.0259 190.112C12.3048 190.824 10.4108 191.011 8.58343 190.648C6.75607 190.286 5.07742 189.391 3.75981 188.076C2.4422 186.761 1.54482 185.086 1.18117 183.262C0.817519 181.438 1.00393 179.547 1.71684 177.829C2.42974 176.111 3.63711 174.642 5.18623 173.609C6.73535 172.576 8.55663 172.024 10.4197 172.024C12.917 172.025 15.312 173.015 17.0781 174.777C18.8443 176.54 19.837 178.93 19.8379 181.423Z" stroke="#1E90FF" stroke-width="2" stroke-miterlimit="10"/>
<path d="M401 161.765C401 162.665 400.732 163.545 400.231 164.293C399.73 165.041 399.018 165.624 398.185 165.969C397.352 166.313 396.436 166.403 395.551 166.228C394.667 166.052 393.855 165.619 393.217 164.982C392.58 164.346 392.145 163.535 391.969 162.652C391.794 161.77 391.884 160.855 392.229 160.023C392.574 159.192 393.158 158.481 393.908 157.981C394.657 157.481 395.539 157.214 396.44 157.213C397.649 157.213 398.809 157.693 399.664 158.547C400.519 159.4 401 160.558 401 161.765Z" stroke="#1E90FF" stroke-width="2" stroke-miterlimit="10"/>
<path d="M52.7928 143.461C52.7927 144.361 52.5252 145.241 52.0242 145.989C51.5232 146.738 50.8111 147.321 49.9781 147.665C49.1451 148.009 48.2285 148.1 47.3442 147.924C46.4599 147.748 45.6477 147.315 45.0101 146.678C44.3726 146.042 43.9384 145.231 43.7624 144.349C43.5865 143.466 43.6767 142.551 44.0217 141.719C44.3667 140.888 44.9509 140.177 45.7005 139.677C46.4501 139.177 47.3314 138.91 48.2331 138.91C49.4424 138.91 50.6022 139.389 51.4573 140.243C52.3124 141.096 52.7928 142.254 52.7928 143.461Z" stroke="#1E90FF" stroke-width="2" stroke-miterlimit="10"/>
<path d="M206.077 283C262.312 283 307.901 279.477 307.901 275.13C307.901 270.783 262.312 267.26 206.077 267.26C149.841 267.26 104.253 270.783 104.253 275.13C104.253 279.477 149.841 283 206.077 283Z" fill="#252526"/>
<mask id="path-12-inside-2_1105_10392" fill="white">
<path d="M193.432 1.32138L193.445 0H192.898L192.507 0.382212L193.432 1.32138ZM247.189 1.89693L248.132 0.974121L247.75 0.583729L247.202 0.57778L247.189 1.89693ZM155.012 38.8593L154.087 37.9164L153.696 38.2986L153.69 38.8451L155.012 38.8593ZM154.435 92.5207L153.111 92.5043L153.105 93.0509L153.488 93.4413L154.435 92.5207ZM192.04 130.874L191.096 131.797L191.479 132.188L192.026 132.193L192.04 130.874ZM245.798 131.45L245.783 132.769L246.33 132.775L246.721 132.393L245.798 131.45ZM284.22 93.909L285.144 94.8519L285.535 94.4697L285.542 93.9231L284.22 93.909ZM284.796 40.2476L286.117 40.2617L286.123 39.7151L285.741 39.3247L284.796 40.2476ZM241.736 11.1608L242.671 10.2283L242.283 9.8416H241.736V11.1608ZM196.291 11.1608V9.8416H195.743L195.356 10.2283L196.291 11.1608ZM273.871 43.2376H275.193V42.691L274.806 42.3044L273.871 43.2376ZM273.871 88.6019L274.806 89.5344L275.193 89.1477V88.6012L273.871 88.6019ZM241.736 120.679V121.999H242.283L242.671 121.612L241.736 120.679ZM196.291 120.679L195.357 121.612L195.744 121.999H196.292L196.291 120.679ZM164.157 88.6019H162.835V89.1484L163.222 89.5351L164.157 88.6019ZM164.157 43.2376L163.222 42.3044L162.835 42.691V43.2376H164.157ZM193.418 2.63682L247.175 3.21237L247.203 0.574062L193.445 0L193.418 2.63682ZM155.936 39.8021L194.356 2.26502L192.507 0.379238L154.087 37.9164L155.936 39.8021ZM155.757 92.5348L156.333 38.8734L153.69 38.8451L153.111 92.5043L155.757 92.5348ZM192.984 129.949L155.38 91.5979L153.491 93.4435L191.096 131.795L192.984 129.949ZM245.812 130.128L192.054 129.553L192.025 132.191L245.783 132.767L245.812 130.128ZM283.292 92.9676L244.873 130.502L246.722 132.388L285.141 94.8504L283.292 92.9676ZM283.475 40.2342L282.899 93.8956L285.542 93.9239L286.118 40.2624L283.475 40.2342ZM246.244 2.81975L283.848 41.1704L285.738 39.3247L248.132 0.974121L246.244 2.81975ZM241.736 9.8416H196.291L196.292 12.4799H241.736V9.8416ZM274.806 42.3044L242.671 10.2275L240.803 12.0932L272.937 44.1701L274.806 42.3044ZM275.193 88.6012V43.2376H272.55V88.6019L275.193 88.6012ZM242.671 121.612L274.806 89.5344L272.937 87.6687L240.803 119.746L242.671 121.612ZM196.292 121.999H241.736V119.36H196.292V121.999ZM163.222 89.5351L195.357 121.612L197.226 119.747L165.091 87.6709L163.222 89.5351ZM162.835 43.2376V88.6019L165.477 88.6026V43.2376H162.835ZM195.357 10.2275L163.222 42.3044L165.091 44.1701L197.226 12.0925L195.357 10.2275Z"/>
</mask>
<path d="M193.432 1.32138L193.445 0H192.898L192.507 0.382212L193.432 1.32138ZM247.189 1.89693L248.132 0.974121L247.75 0.583729L247.202 0.57778L247.189 1.89693ZM155.012 38.8593L154.087 37.9164L153.696 38.2986L153.69 38.8451L155.012 38.8593ZM154.435 92.5207L153.111 92.5043L153.105 93.0509L153.488 93.4413L154.435 92.5207ZM192.04 130.874L191.096 131.797L191.479 132.188L192.026 132.193L192.04 130.874ZM245.798 131.45L245.783 132.769L246.33 132.775L246.721 132.393L245.798 131.45ZM284.22 93.909L285.144 94.8519L285.535 94.4697L285.542 93.9231L284.22 93.909ZM284.796 40.2476L286.117 40.2617L286.123 39.7151L285.741 39.3247L284.796 40.2476ZM241.736 11.1608L242.671 10.2283L242.283 9.8416H241.736V11.1608ZM196.291 11.1608V9.8416H195.743L195.356 10.2283L196.291 11.1608ZM273.871 43.2376H275.193V42.691L274.806 42.3044L273.871 43.2376ZM273.871 88.6019L274.806 89.5344L275.193 89.1477V88.6012L273.871 88.6019ZM241.736 120.679V121.999H242.283L242.671 121.612L241.736 120.679ZM196.291 120.679L195.357 121.612L195.744 121.999H196.292L196.291 120.679ZM164.157 88.6019H162.835V89.1484L163.222 89.5351L164.157 88.6019ZM164.157 43.2376L163.222 42.3044L162.835 42.691V43.2376H164.157ZM193.418 2.63682L247.175 3.21237L247.203 0.574062L193.445 0L193.418 2.63682ZM155.936 39.8021L194.356 2.26502L192.507 0.379238L154.087 37.9164L155.936 39.8021ZM155.757 92.5348L156.333 38.8734L153.69 38.8451L153.111 92.5043L155.757 92.5348ZM192.984 129.949L155.38 91.5979L153.491 93.4435L191.096 131.795L192.984 129.949ZM245.812 130.128L192.054 129.553L192.025 132.191L245.783 132.767L245.812 130.128ZM283.292 92.9676L244.873 130.502L246.722 132.388L285.141 94.8504L283.292 92.9676ZM283.475 40.2342L282.899 93.8956L285.542 93.9239L286.118 40.2624L283.475 40.2342ZM246.244 2.81975L283.848 41.1704L285.738 39.3247L248.132 0.974121L246.244 2.81975ZM241.736 9.8416H196.291L196.292 12.4799H241.736V9.8416ZM274.806 42.3044L242.671 10.2275L240.803 12.0932L272.937 44.1701L274.806 42.3044ZM275.193 88.6012V43.2376H272.55V88.6019L275.193 88.6012ZM242.671 121.612L274.806 89.5344L272.937 87.6687L240.803 119.746L242.671 121.612ZM196.292 121.999H241.736V119.36H196.292V121.999ZM163.222 89.5351L195.357 121.612L197.226 119.747L165.091 87.6709L163.222 89.5351ZM162.835 43.2376V88.6019L165.477 88.6026V43.2376H162.835ZM195.357 10.2275L163.222 42.3044L165.091 44.1701L197.226 12.0925L195.357 10.2275Z" fill="#1E90FF"/>
<path d="M244.657 6.38169L244.269 5.99502L243.563 6.70276L243.95 7.08944L244.657 6.38169ZM279.107 91.5495L279.494 90.617L278.571 90.2334L278.183 91.1659L279.107 91.5495ZM243.561 126.485L244.495 126.098L244.112 125.174L243.178 125.561L243.561 126.485ZM193.679 126.098L194.614 126.485L194.996 125.561L194.062 125.174L193.679 126.098ZM193.432 1.32138L192.719 2.02289L194.407 3.73795L194.432 1.33153L193.432 1.32138ZM193.445 0L193.456 -1H193.445V0ZM192.898 0V-1H192.491L192.2 -0.71518L192.898 0ZM192.507 0.382212L191.808 -0.332967L191.091 0.368488L191.795 1.08372L192.507 0.382212ZM247.189 1.89693L246.189 1.88733L246.166 4.29713L247.889 2.61168L247.189 1.89693ZM247.75 0.583729L248.465 -0.115796L248.175 -0.411719L247.761 -0.416212L247.75 0.583729ZM247.202 0.57778L247.213 -0.422161L246.212 -0.433024L246.202 0.568173L247.202 0.57778ZM155.012 38.8593L155.001 39.8592L157.418 39.885L155.726 38.1592L155.012 38.8593ZM154.087 37.9164L153.388 37.2011L153.388 37.2012L154.087 37.9164ZM153.696 38.2986L152.997 37.5834L152.701 37.8731L152.696 38.2877L153.696 38.2986ZM153.69 38.8451L152.69 38.8342L152.69 38.8343L153.69 38.8451ZM154.435 92.5207L155.132 93.2376L156.867 91.5507L154.448 91.5208L154.435 92.5207ZM153.105 93.0509L152.106 93.04L152.101 93.4549L152.392 93.7511L153.105 93.0509ZM153.488 93.4413L152.774 94.1415L153.472 94.8523L154.185 94.1582L153.488 93.4413ZM192.04 130.874L193.04 130.885L193.066 128.474L191.341 130.159L192.04 130.874ZM191.096 131.797L190.397 131.082L189.68 131.782L190.382 132.497L191.096 131.797ZM191.479 132.188L190.765 132.888L191.054 133.183L191.468 133.187L191.479 132.188ZM192.026 132.193L192.015 133.193L193.015 133.204L193.026 132.204L192.026 132.193ZM245.798 131.45L246.512 130.75L244.825 129.027L244.798 131.439L245.798 131.45ZM245.783 132.769L244.783 132.758L244.772 133.758L245.772 133.769L245.783 132.769ZM246.33 132.775L246.319 133.775L246.733 133.779L247.029 133.49L246.33 132.775ZM246.721 132.393L247.42 133.108L248.135 132.408L247.435 131.693L246.721 132.393ZM284.22 93.909L284.231 92.909L281.815 92.8832L283.506 94.6088L284.22 93.909ZM285.144 94.8519L284.43 95.5517L285.128 96.2652L285.843 95.5671L285.144 94.8519ZM285.535 94.4697L286.234 95.1848L286.53 94.8957L286.535 94.4819L285.535 94.4697ZM285.542 93.9231L286.542 93.9354L286.554 92.9339L285.552 92.9232L285.542 93.9231ZM284.796 40.2476L284.097 39.5323L282.368 41.2217L284.785 41.2475L284.796 40.2476ZM286.117 40.2617L286.107 41.2616L287.108 41.2723L287.117 40.2712L286.117 40.2617ZM286.123 39.7151L287.123 39.7247L287.127 39.3111L286.837 39.0156L286.123 39.7151ZM285.741 39.3247L286.455 38.6252L285.756 37.9113L285.042 38.6094L285.741 39.3247ZM241.736 11.1608H240.736V13.5719L242.443 11.8685L241.736 11.1608ZM242.671 10.2283L243.377 10.936L244.086 10.2283L243.377 9.52053L242.671 10.2283ZM242.283 9.8416L242.99 9.13386L242.697 8.8416H242.283V9.8416ZM196.291 11.1608L195.585 11.8688L197.291 13.5706V11.1608H196.291ZM195.743 9.8416V8.8416H195.33L195.037 9.13386L195.743 9.8416ZM195.356 10.2283L194.65 9.52053L193.94 10.2286L194.65 10.9363L195.356 10.2283ZM273.871 43.2376L273.165 42.5301L271.456 44.2376H273.871V43.2376ZM275.193 42.691H276.193V42.2763L275.899 41.9833L275.193 42.691ZM273.871 88.6019L273.871 87.6019L271.456 87.6032L273.165 89.3096L273.871 88.6019ZM275.193 89.1477L275.899 89.8554L276.193 89.5624V89.1477H275.193ZM241.736 120.679L242.443 119.972L240.736 118.268V120.679H241.736ZM242.283 121.999V122.999H242.697L242.99 122.706L242.283 121.999ZM242.671 121.612L243.377 122.32L244.086 121.612L243.377 120.904L242.671 121.612ZM196.291 120.679L197.291 120.679L197.29 118.27L195.584 119.972L196.291 120.679ZM195.357 121.612L194.65 122.32V122.32L195.357 121.612ZM195.744 121.999L195.038 122.706L195.33 122.999H195.744V121.999ZM164.157 88.6019L164.863 89.3096L166.574 87.6019H164.157V88.6019ZM162.835 89.1484H161.835V89.5626L162.128 89.8555L162.835 89.1484ZM163.222 89.5351L162.515 90.2422L162.515 90.2429L163.222 89.5351ZM164.157 43.2376V44.2376H166.574L164.863 42.5299L164.157 43.2376ZM163.222 42.3044L162.515 41.5966L162.515 41.5973L163.222 42.3044ZM162.835 42.691L162.128 41.984L161.835 42.2769V42.691H162.835ZM193.418 2.63682L192.418 2.62637L192.407 3.62606L193.407 3.63676L193.418 2.63682ZM247.175 3.21237L247.165 4.21231L248.165 4.22302L248.175 3.22282L247.175 3.21237ZM247.203 0.574062L248.203 0.584509L248.213 -0.415205L247.213 -0.425881L247.203 0.574062ZM155.936 39.8021L155.222 40.5022L155.921 41.215L156.635 40.5174L155.936 39.8021ZM194.356 2.26502L195.055 2.9803L195.772 2.28023L195.07 1.56492L194.356 2.26502ZM192.507 0.379238L193.221 -0.320857L192.523 -1.03365L191.809 -0.33604L192.507 0.379238ZM155.757 92.5348L155.745 93.5347L156.746 93.5463L156.757 92.5456L155.757 92.5348ZM156.333 38.8734L157.333 38.8841L157.344 37.8841L156.344 37.8734L156.333 38.8734ZM192.984 129.949L193.683 130.664L194.399 129.964L193.698 129.249L192.984 129.949ZM155.38 91.5979L156.094 90.8978L155.395 90.1849L154.681 90.8827L155.38 91.5979ZM153.491 93.4435L152.792 92.7283L152.076 93.4284L152.777 94.1436L153.491 93.4435ZM191.096 131.795L190.382 132.495L191.081 133.208L191.795 132.51L191.096 131.795ZM245.812 130.128L246.812 130.139L246.823 129.139L245.823 129.129L245.812 130.128ZM192.054 129.553L192.064 128.553L191.064 128.542L191.054 129.542L192.054 129.553ZM192.025 132.191L191.025 132.18L191.015 133.18L192.015 133.191L192.025 132.191ZM245.783 132.767L245.772 133.767L246.772 133.777L246.783 132.778L245.783 132.767ZM283.292 92.9676L284.005 92.2669L283.307 91.5553L282.593 92.2523L283.292 92.9676ZM244.873 130.502L244.174 129.787L243.457 130.487L244.159 131.203L244.873 130.502ZM246.722 132.388L246.008 133.088L246.706 133.801L247.42 133.104L246.722 132.388ZM285.141 94.8504L285.84 95.5657L286.557 94.865L285.854 94.1497L285.141 94.8504ZM283.475 40.2342L283.486 39.2342L282.486 39.2235L282.475 40.2234L283.475 40.2342ZM282.899 93.8956L281.899 93.8849L281.889 94.8849L282.889 94.8956L282.899 93.8956ZM285.542 93.9239L285.532 94.9238L286.532 94.9345L286.542 93.9346L285.542 93.9239ZM286.118 40.2624L287.118 40.2732L287.129 39.2732L286.129 39.2625L286.118 40.2624ZM246.244 2.81975L245.545 2.10458L244.829 2.80468L245.53 3.51986L246.244 2.81975ZM283.848 41.1704L283.134 41.8705L283.832 42.5831L284.546 41.8858L283.848 41.1704ZM285.738 39.3247L286.436 40.0402L287.153 39.3401L286.452 38.6246L285.738 39.3247ZM196.292 12.4799L195.292 12.4802L195.292 13.4799H196.292V12.4799ZM241.736 12.4799V13.4799H242.736V12.4799H241.736ZM242.671 10.2275L243.378 9.51979L242.671 8.81444L241.965 9.51993L242.671 10.2275ZM240.803 12.0932L240.096 11.3856L239.388 12.0934L240.097 12.801L240.803 12.0932ZM272.937 44.1701L272.231 44.8778L272.937 45.5832L273.644 44.8777L272.937 44.1701ZM272.55 43.2376V42.2376H271.55V43.2376H272.55ZM272.55 88.6019H271.55V89.6022L272.55 89.6019L272.55 88.6019ZM242.671 121.612L241.965 122.32L242.671 123.025L243.378 122.32L242.671 121.612ZM272.937 87.6687L273.644 86.9611L272.937 86.2556L272.231 86.9609L272.937 87.6687ZM240.803 119.746L240.097 119.039L239.388 119.746L240.096 120.454L240.803 119.746ZM241.736 119.36H242.736V118.36H241.736V119.36ZM196.292 119.36V118.36H195.292V119.36H196.292ZM197.226 119.747L197.932 120.455L198.641 119.747L197.932 119.039L197.226 119.747ZM165.091 87.6709L165.797 86.9631L165.091 86.2582L164.385 86.9629L165.091 87.6709ZM165.477 88.6026L165.477 89.6026L166.477 89.6029V88.6026H165.477ZM165.477 43.2376H166.477V42.2376H165.477V43.2376ZM195.357 10.2275L196.063 9.51965L195.357 8.81473L194.65 9.51978L195.357 10.2275ZM165.091 44.1701L164.384 44.8778L165.091 45.583L165.797 44.8778L165.091 44.1701ZM197.226 12.0925L197.932 12.8002L198.641 12.0923L197.932 11.3846L197.226 12.0925ZM194.432 1.33153L194.445 0.0101458L192.445 -0.0101458L192.432 1.31124L194.432 1.33153ZM193.445 -1H192.898V1H193.445V-1ZM192.2 -0.71518L191.808 -0.332967L193.206 1.09739L193.597 0.71518L192.2 -0.71518ZM191.795 1.08372L192.719 2.02289L194.144 0.61988L193.22 -0.319292L191.795 1.08372ZM247.889 2.61168L248.832 1.68887L247.433 0.259371L246.49 1.18218L247.889 2.61168ZM248.847 0.274596L248.465 -0.115796L247.036 1.28325L247.418 1.67365L248.847 0.274596ZM247.761 -0.416212L247.213 -0.422161L247.191 1.57772L247.739 1.58367L247.761 -0.416212ZM246.202 0.568173L246.189 1.88733L248.189 1.90654L248.202 0.587387L246.202 0.568173ZM155.726 38.1592L154.801 37.2163L153.373 38.6165L154.298 39.5593L155.726 38.1592ZM153.388 37.2012L152.997 37.5834L154.395 39.0138L154.786 38.6315L153.388 37.2012ZM152.696 38.2877L152.69 38.8342L154.69 38.856L154.696 38.3095L152.696 38.2877ZM153.68 39.8451L155.001 39.8592L155.022 37.8593L153.701 37.8452L153.68 39.8451ZM154.448 91.5208L153.124 91.5044L153.099 93.5042L154.423 93.5206L154.448 91.5208ZM152.111 92.4934L152.106 93.04L154.105 93.0618L154.111 92.5152L152.111 92.4934ZM152.392 93.7511L152.774 94.1415L154.202 92.7411L153.819 92.3507L152.392 93.7511ZM154.185 94.1582L155.132 93.2376L153.738 91.8037L152.791 92.7243L154.185 94.1582ZM191.341 130.159L190.397 131.082L191.795 132.512L192.739 131.59L191.341 130.159ZM190.382 132.497L190.765 132.888L192.193 131.487L191.81 131.097L190.382 132.497ZM191.468 133.187L192.015 133.193L192.037 131.193L191.489 131.188L191.468 133.187ZM193.026 132.204L193.04 130.885L191.04 130.864L191.026 132.183L193.026 132.204ZM244.798 131.439L244.783 132.758L246.783 132.78L246.798 131.461L244.798 131.439ZM245.772 133.769L246.319 133.775L246.341 131.775L245.794 131.769L245.772 133.769ZM247.029 133.49L247.42 133.108L246.022 131.678L245.631 132.06L247.029 133.49ZM247.435 131.693L246.512 130.75L245.083 132.149L246.006 133.092L247.435 131.693ZM283.506 94.6088L284.43 95.5517L285.858 94.1521L284.934 93.2092L283.506 94.6088ZM285.843 95.5671L286.234 95.1848L284.836 93.7545L284.445 94.1367L285.843 95.5671ZM286.535 94.4819L286.542 93.9354L284.542 93.9109L284.535 94.4574L286.535 94.4819ZM285.552 92.9232L284.231 92.909L284.209 94.9089L285.531 94.9231L285.552 92.9232ZM284.785 41.2475L286.107 41.2616L286.128 39.2617L284.807 39.2476L284.785 41.2475ZM287.117 40.2712L287.123 39.7247L285.123 39.7056L285.118 40.2521L287.117 40.2712ZM286.837 39.0156L286.455 38.6252L285.026 40.0243L285.408 40.4147L286.837 39.0156ZM285.042 38.6094L284.097 39.5323L285.495 40.9629L286.439 40.04L285.042 38.6094ZM242.443 11.8685L243.377 10.936L241.964 9.52053L241.03 10.453L242.443 11.8685ZM243.377 9.52053L242.99 9.13386L241.577 10.5493L241.964 10.936L243.377 9.52053ZM242.283 8.8416H241.736V10.8416H242.283V8.8416ZM240.736 9.8416V11.1608H242.736V9.8416H240.736ZM197.291 11.1608V9.8416H195.291V11.1608H197.291ZM196.291 8.8416H195.743V10.8416H196.291V8.8416ZM195.037 9.13386L194.65 9.52053L196.062 10.936L196.45 10.5493L195.037 9.13386ZM194.65 10.9363L195.585 11.8688L196.997 10.4527L196.062 9.52025L194.65 10.9363ZM273.871 44.2376H275.193V42.2376H273.871V44.2376ZM276.193 43.2376V42.691H274.193V43.2376H276.193ZM275.899 41.9833L275.512 41.5966L274.099 43.0121L274.487 43.3988L275.899 41.9833ZM274.099 41.5969L273.165 42.5301L274.578 43.945L275.512 43.0118L274.099 41.5969ZM273.165 89.3096L274.099 90.2421L275.512 88.8266L274.578 87.8941L273.165 89.3096ZM275.512 90.2421L275.899 89.8554L274.487 88.4399L274.099 88.8266L275.512 90.2421ZM276.193 89.1477V88.6012H274.193V89.1477H276.193ZM275.192 87.6012L273.871 87.6019L273.872 89.6019L275.194 89.6012L275.192 87.6012ZM240.736 120.679V121.999H242.736V120.679H240.736ZM241.736 122.999H242.283V120.999H241.736V122.999ZM242.99 122.706L243.377 122.32L241.964 120.904L241.577 121.291L242.99 122.706ZM243.377 120.904L242.443 119.972L241.03 121.387L241.964 122.32L243.377 120.904ZM195.584 119.972L194.65 120.904L196.063 122.32L196.997 121.387L195.584 119.972ZM194.65 122.32L195.038 122.706L196.451 121.291L196.063 120.904L194.65 122.32ZM195.744 122.999H196.292V120.999H195.744V122.999ZM197.292 121.998L197.291 120.679L195.291 120.68L195.292 121.999L197.292 121.998ZM164.157 87.6019H162.835V89.6019H164.157V87.6019ZM161.835 88.6019V89.1484H163.835V88.6019H161.835ZM162.128 89.8555L162.515 90.2422L163.929 88.828L163.542 88.4414L162.128 89.8555ZM163.928 90.2429L164.863 89.3096L163.45 87.8941L162.515 88.8274L163.928 90.2429ZM164.863 42.5299L163.928 41.5966L162.515 43.0121L163.45 43.9453L164.863 42.5299ZM162.515 41.5973L162.128 41.984L163.542 43.3981L163.929 43.0114L162.515 41.5973ZM161.835 42.691V43.2376H163.835V42.691H161.835ZM162.835 44.2376H164.157V42.2376H162.835V44.2376ZM193.407 3.63676L247.165 4.21231L247.186 2.21243L193.428 1.63688L193.407 3.63676ZM248.175 3.22282L248.203 0.584509L246.203 0.563615L246.175 3.20192L248.175 3.22282ZM247.213 -0.425881L193.456 -0.999943L193.435 0.999943L247.192 1.57401L247.213 -0.425881ZM192.445 -0.010451L192.418 2.62637L194.418 2.64727L194.445 0.010451L192.445 -0.010451ZM156.635 40.5174L195.055 2.9803L193.657 1.54974L155.237 39.0869L156.635 40.5174ZM195.07 1.56492L193.221 -0.320857L191.793 1.07933L193.642 2.96511L195.07 1.56492ZM191.809 -0.33604L153.388 37.2011L154.786 38.6316L193.206 1.09452L191.809 -0.33604ZM153.373 38.6165L155.222 40.5022L156.65 39.102L154.801 37.2163L153.373 38.6165ZM156.757 92.5456L157.333 38.8841L155.333 38.8626L154.757 92.5241L156.757 92.5456ZM156.344 37.8734L153.701 37.8452L153.68 39.8451L156.323 39.8733L156.344 37.8734ZM152.69 38.8343L152.111 92.4935L154.111 92.5151L154.69 38.8559L152.69 38.8343ZM153.1 93.5043L155.745 93.5347L155.768 91.5349L153.123 91.5044L153.1 93.5043ZM193.698 129.249L156.094 90.8978L154.666 92.298L192.27 130.649L193.698 129.249ZM154.681 90.8827L152.792 92.7283L154.19 94.1587L156.079 92.313L154.681 90.8827ZM152.777 94.1436L190.382 132.495L191.81 131.095L154.205 92.7434L152.777 94.1436ZM191.795 132.51L193.683 130.664L192.285 129.234L190.397 131.08L191.795 132.51ZM245.823 129.129L192.064 128.553L192.043 130.553L245.801 131.128L245.823 129.129ZM191.054 129.542L191.025 132.18L193.025 132.202L193.054 129.564L191.054 129.542ZM192.015 133.191L245.772 133.767L245.794 131.767L192.036 131.191L192.015 133.191ZM246.783 132.778L246.812 130.139L244.812 130.117L244.783 132.756L246.783 132.778ZM282.593 92.2523L244.174 129.787L245.571 131.218L283.991 93.6829L282.593 92.2523ZM244.159 131.203L246.008 133.088L247.436 131.688L245.587 129.802L244.159 131.203ZM247.42 133.104L285.84 95.5657L284.442 94.1351L246.023 131.673L247.42 133.104ZM285.854 94.1497L284.005 92.2669L282.578 93.6683L284.427 95.5511L285.854 94.1497ZM282.475 40.2234L281.899 93.8849L283.899 93.9063L284.475 40.2449L282.475 40.2234ZM282.889 94.8956L285.532 94.9238L285.553 92.9239L282.91 92.8957L282.889 94.8956ZM286.542 93.9346L287.118 40.2732L285.118 40.2517L284.542 93.9131L286.542 93.9346ZM286.129 39.2625L283.486 39.2342L283.465 41.2341L286.108 41.2624L286.129 39.2625ZM245.53 3.51986L283.134 41.8705L284.562 40.4703L246.958 2.11963L245.53 3.51986ZM284.546 41.8858L286.436 40.0402L285.039 38.6093L283.149 40.4549L284.546 41.8858ZM286.452 38.6246L248.846 0.273988L247.418 1.67425L285.024 40.0249L286.452 38.6246ZM247.434 0.258958L245.545 2.10458L246.943 3.53491L248.831 1.68928L247.434 0.258958ZM241.736 8.8416H196.291V10.8416H241.736V8.8416ZM195.291 9.84188L195.292 12.4802L197.292 12.4796L197.291 9.84132L195.291 9.84188ZM196.292 13.4799H241.736V11.4799H196.292V13.4799ZM242.736 12.4799V9.8416H240.736V12.4799H242.736ZM275.512 41.5966L243.378 9.51979L241.965 10.9353L274.099 43.0121L275.512 41.5966ZM241.965 9.51993L240.096 11.3856L241.51 12.8008L243.378 10.9351L241.965 9.51993ZM240.097 12.801L272.231 44.8778L273.644 43.4623L241.51 11.3855L240.097 12.801ZM273.644 44.8777L275.512 43.012L274.099 41.5968L272.231 43.4625L273.644 44.8777ZM276.193 88.6012V43.2376H274.193V88.6012H276.193ZM275.193 42.2376H272.55V44.2376H275.193V42.2376ZM271.55 43.2376V88.6019H273.55V43.2376H271.55ZM272.55 89.6019L275.193 89.6012L275.193 87.6012L272.55 87.6019L272.55 89.6019ZM243.378 122.32L275.512 90.2421L274.099 88.8266L241.965 120.904L243.378 122.32ZM275.512 88.8268L273.644 86.9611L272.231 88.3763L274.099 90.242L275.512 88.8268ZM272.231 86.9609L240.097 119.039L241.51 120.454L273.644 88.3764L272.231 86.9609ZM240.096 120.454L241.965 122.32L243.378 120.904L241.51 119.039L240.096 120.454ZM196.292 122.999H241.736V120.999H196.292V122.999ZM242.736 121.999V119.36H240.736V121.999H242.736ZM241.736 118.36H196.292V120.36H241.736V118.36ZM195.292 119.36V121.999H197.292V119.36H195.292ZM162.515 90.2429L194.65 122.32L196.063 120.904L163.928 88.8274L162.515 90.2429ZM196.063 122.32L197.932 120.455L196.519 119.039L194.65 120.904L196.063 122.32ZM197.932 119.039L165.797 86.9631L164.384 88.3787L196.519 120.455L197.932 119.039ZM164.385 86.9629L162.516 88.8271L163.928 90.2431L165.797 88.3789L164.385 86.9629ZM161.835 43.2376V88.6019H163.835V43.2376H161.835ZM162.835 89.6019L165.477 89.6026L165.478 87.6026L162.835 87.6019L162.835 89.6019ZM166.477 88.6026V43.2376H164.477V88.6026H166.477ZM165.477 42.2376H162.835V44.2376H165.477V42.2376ZM194.65 9.51978L162.515 41.5966L163.928 43.0121L196.063 10.9353L194.65 9.51978ZM162.515 43.0121L164.384 44.8778L165.797 43.4623L163.928 41.5966L162.515 43.0121ZM165.797 44.8778L197.932 12.8002L196.519 11.3847L164.384 43.4623L165.797 44.8778ZM197.932 11.3846L196.063 9.51965L194.65 10.9354L196.519 12.8004L197.932 11.3846Z" fill="#1E90FF" mask="url(#path-12-inside-2_1105_10392)"/>
<path d="M223.814 130.596V241.755H214.563V130.596" fill="#EBEBEB"/>
<path d="M223.814 130.596V241.755H214.563V130.596" stroke="#1E90FF" stroke-width="2"/>
<path d="M207.957 232.521H127.346V241.755H207.957V232.521Z" fill="#EBEBEB" stroke="#1E90FF" stroke-width="2"/>
<path d="M154.468 190.053L150.42 203.086H186.733L181.997 190.053H154.468Z" fill="#1E90FF"/>
<path d="M147.772 212.506L141.269 231.301H195.326L189.037 211.1H147.772V212.506Z" fill="#1E90FF"/>
<path d="M163.933 154.288H171.675L180.502 181.266H156.84L163.933 154.288Z" fill="#1E90FF"/>
<path d="M156.931 181.672V181.672V181.223H157.54L157.362 181.803L156.931 181.672ZM157.845 180.223H156.431H156.127L163.96 154.579L164.392 154.711V155.66V156.16H164.892H165.195L157.845 180.223ZM158.173 182.573L158.585 181.223H177.644L178.057 182.573L178.145 182.861L158.085 182.861L158.173 182.573ZM178.829 182.861L179.299 182.717V182.861L178.829 182.861ZM180.911 182.861H180.299V182.412L180.734 182.28L180.911 182.861ZM157.403 182.861L156.931 182.861V182.717L157.403 182.861ZM155.931 180.867V181.367L155.791 181.324L155.931 180.867ZM164.392 153.666L164.252 153.623L164.283 153.521H164.392V153.666ZM165.392 153.97V153.521H170.838V153.97L169.928 154.248L169.45 154.393L169.596 154.872L169.684 155.16H166.546L166.634 154.872L166.78 154.393L166.301 154.248L165.392 153.97ZM165.5 155.16H165.392V155.016L165.531 155.058L165.5 155.16ZM178.867 181.803L178.69 181.223H179.299V181.672L178.867 181.803ZM171.84 153.521H171.947L171.979 153.623L171.84 153.665L171.84 153.521ZM170.698 155.058L170.839 155.016L170.839 155.16H170.729L170.698 155.058ZM171.839 154.711L172.27 154.58L180.103 180.223H179.799H178.385L171.035 156.16H171.338H171.838L171.838 155.66L171.839 154.711ZM180.299 180.867L180.439 181.324L180.299 181.367V180.867ZM155.319 182.861L155.496 182.281L155.931 182.413V182.861H155.319ZM150.484 202.777V202.777V202.329H151.093L150.916 202.909L150.484 202.777ZM151.398 201.329H149.984H149.68L153.08 190.197L153.513 190.328V191.275V191.775H154.013H154.316L151.398 201.329ZM151.726 203.679L152.139 202.329H184.091L184.504 203.679L184.591 203.967H151.638L151.726 203.679ZM185.273 203.967L185.746 203.823L185.746 203.967H185.273ZM150.957 203.967H150.484V203.823L150.957 203.967ZM149.484 202.473L149.344 202.43L149.484 201.972V202.473ZM185.314 202.909L185.137 202.329H185.746L185.746 202.777L185.314 202.909ZM186.747 203.967V203.518L187.181 203.386L187.359 203.967H186.747ZM154.513 190.775V190.632L154.652 190.674L154.621 190.775H154.513ZM155.422 189.863L154.513 189.586V189.14H181.717V189.586L180.807 189.863L180.329 190.009L180.475 190.488L180.563 190.775H155.667L155.755 190.488L155.901 190.009L155.422 189.863ZM153.401 189.14H153.513V189.281L153.372 189.238L153.401 189.14ZM186.246 201.329H184.831L181.914 191.775H182.217H182.717V191.275V190.327L183.149 190.195L186.549 201.329H186.246ZM182.719 189.137H182.828L182.859 189.238L182.718 189.281L182.719 189.137ZM186.746 201.972L186.886 202.43L186.746 202.473L186.746 201.972ZM181.577 190.674L181.717 190.631V190.775H181.608L181.577 190.674ZM148.872 203.967L149.05 203.386L149.484 203.518V203.967H148.872ZM147.566 212.882H147.869L142.635 230.02H141.22H140.917L146.634 211.301L147.066 211.433V212.382V212.882H147.566ZM140.721 230.663L140.721 231.164L140.581 231.121L140.721 230.663ZM147.066 210.388L146.926 210.345L146.957 210.244H147.066V210.388ZM148.066 210.692V210.244H188.163V210.695L187.253 210.973L186.775 211.118L186.921 211.597L187.008 211.882H149.22L149.308 211.594L149.454 211.115L148.976 210.97L148.066 210.692ZM141.721 231.02H142.33L142.152 231.6L141.721 231.469L141.721 231.02ZM188.023 211.783L188.163 211.741V211.882H188.053L188.023 211.783ZM142.963 232.37L143.375 231.02H192.853L193.266 232.373L193.354 232.661H142.874L142.963 232.37ZM194.036 232.661L194.509 232.517V232.661H194.036ZM189.275 210.244L189.306 210.345L189.165 210.388L189.165 210.244H189.275ZM189.163 212.382V211.436L189.595 211.304L195.311 230.02H195.011H193.593L188.359 212.882H188.663H189.163V212.382ZM195.511 231.164V230.674L195.648 231.122L195.511 231.164ZM194.077 231.603L193.898 231.02H194.511V231.468L194.509 231.468V231.471L194.077 231.603ZM196.121 232.658H195.511V232.212L195.944 232.08L196.121 232.658ZM142.203 232.661H141.722L141.722 232.514L142.203 232.661ZM140.286 232.077L140.72 232.21V232.658H140.108L140.286 232.077ZM148.066 211.882V211.738L148.206 211.78L148.175 211.882H148.066Z" fill="#1E90FF" stroke="#1E90FF"/>
<path d="M166.034 44.4968L196.108 13.0718H240.791L272.279 44.5028V88.1573L240.796 118.552H196.103L166.034 88.164V44.4968Z" fill="#1E90FF" stroke="#1E90FF"/>
<path d="M219.336 89.1875C219.336 90.3635 218.38 91.3184 217.2 91.3184C216.02 91.3184 215.064 90.3635 215.064 89.1875C215.064 88.0115 216.02 87.0566 217.2 87.0566C218.38 87.0566 219.336 88.0115 219.336 89.1875Z" fill="#FDFDFD" stroke="#1E90FF"/>
<path d="M217.2 46.2729H217.201C218.381 46.2729 219.336 47.2278 219.336 48.4038V78.6633C219.336 79.8393 218.381 80.7942 217.201 80.7942H217.2C216.02 80.7942 215.064 79.8393 215.064 78.6633V48.4038C215.064 47.2278 216.02 46.2729 217.2 46.2729Z" fill="#FDFDFD" stroke="#1E90FF"/>
</svg>
