<svg width="24" height="24" viewBox="0 0 24 24" fill="none" xmlns="http://www.w3.org/2000/svg">
<path d="M7.15355 6.84645C7.13181 6.8247 7.11486 6.80771 7.1 6.79218V6.69289L7.00293 6.59583C7.00217 6.58769 7.00152 6.5784 7.00105 6.56792C7.00006 6.54626 7 6.52546 7 6.5C7 6.49073 7.0001 6.48353 7.01424 6.44819C7.01744 6.44019 7.01994 6.43416 7.02329 6.42607C7.02536 6.42109 7.02775 6.41532 7.03083 6.40783C7.03737 6.3919 7.0468 6.36867 7.05587 6.34297C7.06624 6.31359 7.07982 6.2712 7.08917 6.21929C7.08987 6.21853 7.09059 6.21776 7.09133 6.21697C7.10829 6.19888 7.12747 6.17964 7.15355 6.15355L9.15355 4.15355C9.35829 3.94882 9.64171 3.94882 9.84645 4.15355C10.0512 4.35829 10.0512 4.64171 9.84645 4.84645L9.54645 5.14645L8.69289 6H9.9H14.1H15.3071L14.4536 5.14645L14.1536 4.84645C13.9488 4.64171 13.9488 4.35829 14.1536 4.15355C14.3583 3.94882 14.6417 3.94882 14.8464 4.15355L16.8382 6.14534C16.8409 6.15031 16.8456 6.15916 16.8528 6.1736C16.8539 6.17578 16.855 6.17808 16.8562 6.18051C16.8784 6.225 16.9206 6.3098 16.9966 6.39942C16.9976 6.40864 16.9984 6.41949 16.999 6.43208C16.9999 6.45374 17 6.47454 17 6.5C17 6.50927 16.9999 6.51647 16.9858 6.5518C16.9826 6.55982 16.9801 6.56586 16.9767 6.57396C16.9746 6.57894 16.9722 6.5847 16.9692 6.59217C16.9626 6.6081 16.9532 6.63133 16.9441 6.65703C16.9338 6.68641 16.9202 6.7288 16.9108 6.78072C16.9101 6.78147 16.9094 6.78224 16.9087 6.78303C16.8917 6.80112 16.8725 6.82036 16.8464 6.84645L16.9 6.9L16.8464 6.84645L14.8464 8.84645C14.776 8.91693 14.7253 8.94991 14.6844 8.96809C14.6457 8.98531 14.5917 9 14.5 9C14.3136 9 14.1972 8.94006 14.1286 8.87145C14.0599 8.80284 14 8.68638 14 8.5C14 8.40834 14.0147 8.35431 14.0319 8.31557C14.0501 8.27465 14.0831 8.22404 14.1536 8.15355L14.4536 7.85355L15.3071 7H14.1H9.9H8.69289L9.54645 7.85355L9.84645 8.15355C10.0512 8.35829 10.0512 8.64171 9.84645 8.84645C9.77596 8.91693 9.72535 8.94991 9.68443 8.96809C9.64569 8.98531 9.59166 9 9.5 9C9.40834 9 9.35431 8.98531 9.31557 8.96809C9.27465 8.94991 9.22404 8.91693 9.15355 8.84645L7.15355 6.84645ZM10.3 18.7L10.3213 18.7284L10.3464 18.7536C10.5602 18.9673 10.58 19.322 10.4528 19.5764C10.345 19.792 10.028 20 9.7 20H2.3C1.87614 20 1.5 19.6239 1.5 19.2C1.5 19.0219 1.55649 18.8228 1.70394 18.5957C3.6276 16.2343 7.08665 15.8691 9.46558 17.7727C9.75927 18.0665 10.0298 18.3397 10.3 18.7ZM21.4858 17.889L21.5036 17.9033L21.5226 17.916C21.6188 17.9801 21.7342 18.0909 21.8826 18.2516C21.9234 18.2959 21.9684 18.3458 22.0158 18.3984C22.1118 18.505 22.2176 18.6225 22.3185 18.7253C22.506 18.9893 22.5578 19.2896 22.4439 19.5933C22.3284 19.8027 22.0195 20 21.7 20H14.3C13.8761 20 13.5 19.6239 13.5 19.2C13.5 18.9992 13.5685 18.8386 13.6536 18.7536L13.6723 18.7348L13.689 18.7142C15.6151 16.3295 19.1002 15.9621 21.4858 17.889ZM8.1 12.1C8.1 13.2239 7.12386 14.2 6 14.2C4.87614 14.2 3.9 13.2239 3.9 12.1C3.9 10.9761 4.87614 10 6 10C7.12386 10 8.1 10.9761 8.1 12.1ZM18 14.2C16.8761 14.2 15.9 13.2239 15.9 12.1C15.9 10.9761 16.8761 10 18 10C19.1239 10 20.1 10.9761 20.1 12.1C20.1 13.2239 19.1239 14.2 18 14.2Z" stroke="#EBEBEB"/>
</svg>
