<svg width="24" height="24" viewBox="0 0 24 24" fill="none" xmlns="http://www.w3.org/2000/svg">
<path d="M6.6 6.9C6.6 7 6.7 7.1 6.8 7.2L8.8 9.2C9 9.4 9.2 9.5 9.5 9.5C9.8 9.5 10 9.4 10.2 9.2C10.6 8.8 10.6 8.2 10.2 7.8L9.9 7.5H14.1L13.8 7.8C13.6 8 13.5 8.2 13.5 8.5C13.5 9.1 13.9 9.5 14.5 9.5C14.8 9.5 15 9.4 15.2 9.2L17.2 7.2C17.3 7.1 17.4 7 17.4 6.9C17.4 6.8 17.5 6.7 17.5 6.5C17.5 6.4 17.5 6.2 17.4 6.1C17.3 6 17.3 5.9 17.2 5.8L15.2 3.8C14.8 3.4 14.2 3.4 13.8 3.8C13.4 4.2 13.4 4.8 13.8 5.2L14.1 5.5H9.9L10.2 5.2C10.6 4.8 10.6 4.2 10.2 3.8C9.8 3.4 9.2 3.4 8.8 3.8L6.8 5.8C6.7 5.9 6.6 6 6.6 6.1C6.6 6.2 6.5 6.3 6.5 6.5C6.5 6.6 6.5 6.8 6.6 6.9ZM6 14.7C7.4 14.7 8.6 13.5 8.6 12.1C8.6 10.7 7.4 9.5 6 9.5C4.6 9.5 3.4 10.7 3.4 12.1C3.4 13.5 4.6 14.7 6 14.7ZM9.8 17.4C7.2 15.3 3.4 15.7 1.3 18.3C1.1 18.6 1 18.9 1 19.2C1 19.9 1.6 20.5 2.3 20.5H9.7C10.2 20.5 10.7 20.2 10.9 19.8C11.1 19.4 11.1 18.8 10.7 18.4C10.4 18 10.1 17.7 9.8 17.4ZM15.4 12.1C15.4 13.5 16.6 14.7 18 14.7C19.4 14.7 20.6 13.5 20.6 12.1C20.6 10.7 19.4 9.5 18 9.5C16.6 9.5 15.4 10.7 15.4 12.1ZM22.7 18.4C22.4 18.1 22.1 17.7 21.8 17.5C19.2 15.4 15.4 15.8 13.3 18.4C13.1 18.6 13 18.9 13 19.2C13 19.9 13.6 20.5 14.3 20.5H21.7C22.2 20.5 22.7 20.2 22.9 19.8C23.1 19.3 23 18.8 22.7 18.4Z" fill="#FDFDFD"/>
</svg>
