<svg width="24" height="24" viewBox="0 0 24 24" fill="none" xmlns="http://www.w3.org/2000/svg">
<path d="M5.53867 18.4613L13.9493 13.9493L18.4613 5.53867L10.0507 10.0507L5.53867 18.4613ZM12 13.3333C11.6222 13.3333 11.3058 13.2053 11.0507 12.9493C10.7956 12.6933 10.6676 12.3769 10.6667 12C10.6667 11.6222 10.7947 11.3058 11.0507 11.0507C11.3067 10.7956 11.6231 10.6676 12 10.6667C12.3778 10.6667 12.6947 10.7947 12.9507 11.0507C13.2067 11.3067 13.3342 11.6231 13.3333 12C13.3333 12.3778 13.2053 12.6947 12.9493 12.9507C12.6933 13.2067 12.3769 13.3342 12 13.3333ZM12.004 24C10.3453 24 8.78533 23.6853 7.324 23.056C5.86356 22.4258 4.59289 21.5707 3.512 20.4907C2.43111 19.4116 1.57556 18.1422 0.945333 16.6827C0.315111 15.2231 0 13.6636 0 12.004C0 10.3453 0.314667 8.78533 0.944 7.324C1.57422 5.86356 2.42933 4.59289 3.50933 3.512C4.58844 2.43111 5.85778 1.57556 7.31733 0.945333C8.77689 0.315111 10.3364 0 11.996 0C13.6547 0 15.2147 0.314667 16.676 0.944C18.1364 1.57422 19.4071 2.42933 20.488 3.50933C21.5689 4.58844 22.4244 5.85778 23.0547 7.31733C23.6849 8.77689 24 10.3364 24 11.996C24 13.6547 23.6853 15.2147 23.056 16.676C22.4258 18.1364 21.5707 19.4071 20.4907 20.488C19.4116 21.5689 18.1422 22.4244 16.6827 23.0547C15.2231 23.6849 13.6636 24 12.004 24ZM12 22.6667C14.9778 22.6667 17.5 21.6333 19.5667 19.5667C21.6333 17.5 22.6667 14.9778 22.6667 12C22.6667 9.02222 21.6333 6.5 19.5667 4.43333C17.5 2.36667 14.9778 1.33333 12 1.33333C9.02222 1.33333 6.5 2.36667 4.43333 4.43333C2.36667 6.5 1.33333 9.02222 1.33333 12C1.33333 14.9778 2.36667 17.5 4.43333 19.5667C6.5 21.6333 9.02222 22.6667 12 22.6667Z" fill="#EBEBEB"/>
</svg>
