<svg width="20" height="20" viewBox="0 0 20 20" fill="none" xmlns="http://www.w3.org/2000/svg">
<path fill-rule="evenodd" clip-rule="evenodd" d="M17.0714 17.0699C14.0152 20.1263 9.48977 20.7867 5.78642 19.074C5.23971 18.8539 4.79148 18.676 4.36537 18.676C3.17849 18.683 1.70117 19.8339 0.93336 19.067C0.165554 18.2991 1.31726 16.8206 1.31726 15.6266C1.31726 15.2004 1.14642 14.7602 0.926325 14.2124C-0.787169 10.5096 -0.125891 5.98269 2.93026 2.92721C6.8316 -0.975568 13.17 -0.975568 17.0714 2.9262C20.9797 6.83501 20.9727 13.1681 17.0714 17.0699Z" fill="#FDFDFD"/>
<path d="M13.9395 10.4131H13.9485" stroke="#252526" stroke-width="2" stroke-linecap="round" stroke-linejoin="round"/>
<path d="M9.93042 10.4131H9.93942" stroke="#252526" stroke-width="2" stroke-linecap="round" stroke-linejoin="round"/>
<path d="M5.92139 10.4131H5.93039" stroke="#252526" stroke-width="2" stroke-linecap="round" stroke-linejoin="round"/>
</svg>
