<svg width="24" height="24" viewBox="0 0 24 24" fill="none" xmlns="http://www.w3.org/2000/svg">
<path d="M21.624 13.8537C21.8104 13.9906 21.9495 14.1822 22.0217 14.4019C22.0939 14.6217 22.0957 14.8584 22.0268 15.0792C21.5506 16.5988 20.742 17.9933 19.6598 19.1615C19.5033 19.3289 19.2988 19.4438 19.0744 19.4904C18.85 19.537 18.6167 19.513 18.4065 19.4217L16.9403 18.7782C16.7801 18.7069 16.6054 18.674 16.4303 18.6822C16.2559 18.6931 16.0864 18.7444 15.9353 18.8322C15.7841 18.9195 15.6559 19.0415 15.5611 19.188C15.4663 19.3346 15.4077 19.5016 15.39 19.6752L15.2138 21.2727C15.1884 21.5001 15.0933 21.7141 14.9416 21.8855C14.7899 22.0568 14.5889 22.177 14.3663 22.2297C12.8093 22.601 11.1863 22.601 9.62926 22.2297C9.40793 22.1766 9.20828 22.0567 9.05735 21.8864C8.90643 21.716 8.81153 21.5033 8.78551 21.2772L8.60926 19.6827C8.579 19.4109 8.44947 19.1599 8.24551 18.9777C8.0862 18.8372 7.89036 18.7447 7.68065 18.7108C7.47094 18.677 7.25594 18.7032 7.06051 18.7865L5.59426 19.4307C5.38463 19.5219 5.15197 19.5461 4.92806 19.5C4.70415 19.454 4.49992 19.3399 4.34326 19.1735C3.25923 18.0041 2.44959 16.6077 1.97326 15.086C1.90462 14.8655 1.90646 14.6291 1.97852 14.4097C2.05057 14.1903 2.18926 13.9988 2.37526 13.862L3.66901 12.9057C3.81038 12.8021 3.92534 12.6666 4.00459 12.5102C4.08383 12.3538 4.12512 12.181 4.12512 12.0057C4.12512 11.8304 4.08383 11.6576 4.00459 11.5012C3.92534 11.3449 3.81038 11.2094 3.66901 11.1057L2.37526 10.151C2.1906 10.0145 2.05278 9.82423 1.98078 9.60623C1.90879 9.38822 1.90616 9.15326 1.97326 8.9337C2.44871 7.41285 3.25821 6.01756 4.34251 4.84995C4.44751 4.7367 4.57501 4.6467 4.71751 4.5867C4.85632 4.52791 5.00552 4.49762 5.15626 4.49762C5.307 4.49762 5.45621 4.52791 5.59501 4.5867L7.05526 5.2302C7.21591 5.29921 7.39049 5.32963 7.56501 5.31904C7.73952 5.30845 7.90914 5.25715 8.06027 5.16923C8.21139 5.08131 8.33983 4.95922 8.4353 4.81274C8.53076 4.66626 8.5906 4.49946 8.61001 4.3257L8.78701 2.7342C8.81254 2.50432 8.90924 2.28815 9.06361 2.1159C9.21797 1.94365 9.42229 1.82393 9.64801 1.77345C10.4232 1.60264 11.2138 1.51166 12.0075 1.50195C12.7965 1.51095 13.5825 1.6017 14.3528 1.77345C14.5787 1.82419 14.7831 1.94431 14.9373 2.11699C15.0916 2.28967 15.188 2.50627 15.213 2.73645L15.39 4.32645C15.4088 4.49995 15.4681 4.6666 15.5632 4.81292C15.6583 4.95925 15.7865 5.08115 15.9374 5.16876C16.0883 5.25638 16.2577 5.30725 16.4319 5.31728C16.6062 5.3273 16.7803 5.29619 16.9403 5.22645L18.3998 4.5837C18.6102 4.49179 18.8439 4.46739 19.0688 4.51387C19.2936 4.56035 19.4985 4.67541 19.6553 4.8432C20.7396 6.00911 21.5487 7.40331 22.023 8.9232C22.0912 9.14356 22.0891 9.3797 22.0169 9.59879C21.9447 9.81788 21.8061 10.009 21.6203 10.1457L20.3303 11.1005C20.1883 11.2032 20.0727 11.338 19.9929 11.494C19.9131 11.65 19.8713 11.8226 19.871 11.9978C19.8708 12.173 19.9119 12.3458 19.9912 12.502C20.0705 12.6583 20.1857 12.7935 20.3273 12.8967L21.624 13.8537ZM12 14.9997C12.7957 14.9997 13.5587 14.6836 14.1213 14.121C14.6839 13.5584 15 12.7954 15 11.9997C15 11.2041 14.6839 10.441 14.1213 9.87838C13.5587 9.31577 12.7957 8.9997 12 8.9997C11.2044 8.9997 10.4413 9.31577 9.87869 9.87838C9.31608 10.441 9.00001 11.2041 9.00001 11.9997C9.00001 12.7954 9.31608 13.5584 9.87869 14.121C10.4413 14.6836 11.2044 14.9997 12 14.9997Z" fill="#FDFDFD"/>
</svg>
