<svg width="24" height="24" viewBox="0 0 24 24" fill="none" xmlns="http://www.w3.org/2000/svg">
<path d="M9 4.5C4.85775 4.5 1.5 7.85775 1.5 12C1.5 16.1423 4.85775 19.5 9 19.5H15C19.1423 19.5 22.5 16.1423 22.5 12C22.5 7.85775 19.1423 4.5 15 4.5H9ZM16.5 14.25C16.5 14.6478 16.342 15.0294 16.0607 15.3107C15.7794 15.592 15.3978 15.75 15 15.75C14.6022 15.75 14.2206 15.592 13.9393 15.3107C13.658 15.0294 13.5 14.6478 13.5 14.25C13.5 13.8522 13.658 13.4706 13.9393 13.1893C14.2206 12.908 14.6022 12.75 15 12.75C15.3978 12.75 15.7794 12.908 16.0607 13.1893C16.342 13.4706 16.5 13.8522 16.5 14.25ZM16.5 11.25C16.1022 11.25 15.7206 11.092 15.4393 10.8107C15.158 10.5294 15 10.1478 15 9.75C15 9.35218 15.158 8.97064 15.4393 8.68934C15.7206 8.40804 16.1022 8.25 16.5 8.25C16.8978 8.25 17.2794 8.40804 17.5607 8.68934C17.842 8.97064 18 9.35218 18 9.75C18 10.1478 17.842 10.5294 17.5607 10.8107C17.2794 11.092 16.8978 11.25 16.5 11.25ZM7.5 9C7.69891 9 7.88968 9.07902 8.03033 9.21967C8.17098 9.36032 8.25 9.55109 8.25 9.75V11.25H9.75C9.94891 11.25 10.1397 11.329 10.2803 11.4697C10.421 11.6103 10.5 11.8011 10.5 12C10.5 12.1989 10.421 12.3897 10.2803 12.5303C10.1397 12.671 9.94891 12.75 9.75 12.75H8.25V14.25C8.25 14.4489 8.17098 14.6397 8.03033 14.7803C7.88968 14.921 7.69891 15 7.5 15C7.30109 15 7.11032 14.921 6.96967 14.7803C6.82902 14.6397 6.75 14.4489 6.75 14.25V12.75H5.25C5.05109 12.75 4.86032 12.671 4.71967 12.5303C4.57902 12.3897 4.5 12.1989 4.5 12C4.5 11.8011 4.57902 11.6103 4.71967 11.4697C4.86032 11.329 5.05109 11.25 5.25 11.25H6.75V9.75C6.75 9.55109 6.82902 9.36032 6.96967 9.21967C7.11032 9.07902 7.30109 9 7.5 9Z" fill="#FDFDFD"/>
</svg>
