<svg width="25" height="24" viewBox="0 0 25 24" fill="none" xmlns="http://www.w3.org/2000/svg">
<path d="M14.3427 9.69751L12.3965 11.0006C12.3965 11.0006 13.9434 12.7988 14.3896 15.2756C14.6784 16.8731 14.9052 18.2981 14.7159 19.6519C14.639 20.205 14.1046 21.3206 13.9509 21.6956C13.7971 22.0706 13.5759 22.9538 14.2602 23.13C14.9446 23.3063 17.174 23.3738 17.5059 23.3288C17.8377 23.2838 18.2296 23.0438 18.0515 22.2431C17.9409 21.7463 17.7534 20.1919 17.6427 19.1325C17.5321 18.0731 17.4646 16.0331 16.5421 13.5281C15.644 11.0906 14.3427 9.69751 14.3427 9.69751Z" fill="#DC8124"/>
<path d="M16.133 20.4487C17.138 20.5069 17.7755 20.3137 17.7755 20.3137L17.9124 21.3319C17.9124 21.3319 17.2974 21.5062 16.1405 21.4331C15.1299 21.3694 14.2168 21.0937 14.2168 21.0937L14.5937 20.1319C14.5918 20.13 15.1205 20.3906 16.133 20.4487ZM14.7455 17.6869C14.7455 17.6869 14.7643 17.97 14.7737 18.1481C14.783 18.3281 14.7868 18.6056 14.7868 18.6056C14.7868 18.6056 15.5462 18.6937 16.1462 18.6694C17.1287 18.63 17.5712 18.3956 17.5712 18.3956C17.5712 18.3956 17.5543 18.1762 17.5262 17.9175C17.4999 17.6569 17.468 17.4431 17.468 17.4431C17.468 17.4431 16.9862 17.6812 15.9737 17.7469C15.2518 17.7937 14.7455 17.6869 14.7455 17.6869ZM14.3574 15.1069C14.3574 15.1069 14.8187 15.2006 15.6774 15.015C16.5118 14.8331 16.8699 14.5162 16.8699 14.5162C16.8699 14.5162 16.9487 14.76 16.9955 14.9475C17.0387 15.1219 17.1062 15.3769 17.1062 15.3769C17.1062 15.3769 16.7687 15.7087 15.8537 15.8887C14.9555 16.0669 14.5093 15.945 14.5093 15.945C14.5093 15.945 14.4662 15.705 14.4362 15.5269C14.4005 15.3244 14.3574 15.1069 14.3574 15.1069Z" fill="#C0711F"/>
<path d="M13.8849 13.5226C13.8849 13.5226 14.3105 13.5507 15.1374 13.2394C15.8593 12.9676 16.1687 12.6038 16.1687 12.6038L15.1524 10.3726L12.7168 11.2576L13.8849 13.5226Z" fill="#A2672B"/>
<path d="M13.8404 10.7812C13.8404 10.7812 15.7229 11.3831 16.5535 11.6606C17.3841 11.9381 18.046 12.0768 18.046 12.0768C18.046 12.0768 18.3066 11.5593 18.3985 11.1131C18.4604 10.8168 18.4473 10.3518 18.5748 10.3612C18.7848 10.3762 18.9366 10.7325 18.946 11.2162C18.9535 11.6325 18.8448 12.2512 18.8448 12.2512L19.7241 12.4912C19.7241 12.4912 19.951 12.165 20.0785 11.6456C20.2116 11.1018 20.1441 10.8956 20.2773 10.8581C20.4254 10.8168 20.7048 11.01 20.6523 11.8687C20.6204 12.3918 20.5323 12.69 20.5585 12.7106C20.6016 12.7443 21.0254 12.9018 21.4098 13.0106C21.7941 13.1175 22.1879 13.1868 22.1879 13.1868C22.1879 13.1868 22.8835 10.0518 20.941 8.78622C18.511 7.20185 15.3873 8.61747 15.3873 8.61747L17.6766 6.80997C17.6766 6.80997 17.5116 6.40122 17.311 6.08997C17.0823 5.73372 16.7766 5.50685 16.8348 5.42622C16.9135 5.31372 17.386 5.31372 17.7891 5.68872C18.1285 6.0056 18.3854 6.33372 18.3966 6.3431L19.0698 5.85747C19.0698 5.85747 19.0041 5.41685 18.826 5.13747C18.6535 4.8656 18.391 4.61247 18.4566 4.57497C18.5954 4.49622 19.0266 4.6331 19.2985 4.89747C19.5329 5.12622 19.7223 5.4806 19.7223 5.4806L21.091 4.5431C21.091 4.5431 20.0916 2.95872 17.9841 3.0356C15.8766 3.11247 14.7385 4.46622 14.3841 4.8656C14.0298 5.26497 13.6304 6.12747 13.6304 6.12747L13.6698 3.73685C13.6698 3.73685 13.3416 3.66185 13.0266 3.62435C12.5523 3.5681 12.2223 3.6656 12.2148 3.61872C12.1904 3.45185 12.4866 3.2081 12.9535 3.10872C13.411 3.0131 13.7804 3.06935 13.7804 3.06935L14.1666 0.834347C14.1666 0.834347 13.306 0.764972 12.346 1.2206C11.7254 1.51497 11.0054 2.02497 10.5273 2.85185C9.46788 4.67997 10.4898 6.64872 10.4898 6.64872C10.4898 6.64872 8.99351 5.09247 6.50538 5.67935C3.77726 6.32247 3.08913 9.31685 3.24288 9.31685C3.65913 9.31685 5.17788 9.3881 5.25476 9.32622C5.29413 9.29622 5.39913 8.87435 5.64851 8.49372C5.89601 8.1131 6.22788 7.79247 6.49976 7.79247C6.64038 7.79247 6.45101 8.0756 6.28413 8.48435C6.11538 8.9006 6.02163 9.36372 6.02163 9.36372H7.37538C7.37538 9.36372 7.66038 7.9931 8.13663 7.8956C8.34101 7.85435 8.20226 8.29497 8.15163 8.63247C8.09913 8.98122 8.06913 9.3656 8.06913 9.3656L9.78288 9.41997C9.78288 9.41997 7.57976 9.5531 6.05163 10.9481C4.47101 12.3881 4.30601 14.3906 4.44476 15.39C4.58351 16.3893 4.72226 16.8506 4.81413 16.8975C4.90601 16.9443 6.18288 15.5287 6.22976 15.42C6.27663 15.3131 6.02913 14.85 6.02913 14.235C6.02913 13.62 6.16788 13.3125 6.28976 13.2975C6.41351 13.2825 6.38163 13.7287 6.47351 14.1131C6.57101 14.5162 6.71913 14.8518 6.78101 14.8818C6.84288 14.9118 7.59288 13.9612 7.59288 13.9612C7.59288 13.9612 7.46538 13.6012 7.42413 13.2506C7.38288 12.9 7.41851 12.5212 7.51976 12.4518C7.63038 12.375 7.72413 12.7762 7.85538 13.1193C7.96038 13.3931 8.01101 13.4868 8.07101 13.56L9.42851 12.2681C9.42851 12.2681 8.33351 14.0175 8.47601 15.7593C8.63351 17.7075 9.98351 18.4368 10.0604 18.42C10.1373 18.405 11.0448 16.3275 11.0448 16.3275C11.0448 16.3275 10.7241 16.0331 10.486 15.5887C10.186 15.0281 10.1935 14.5987 10.306 14.5275C10.4635 14.4281 10.6904 15.0506 10.921 15.3281C11.1516 15.6056 11.2904 15.7593 11.3373 15.7593C11.3841 15.7593 12.0535 14.2968 12.0535 14.2968C12.0535 14.2968 11.8585 14.1825 11.7123 13.9556C11.5885 13.7643 11.4779 13.4343 11.5829 13.2356C11.6954 13.1306 11.8098 13.4025 11.9841 13.545C12.1585 13.6875 12.2916 13.7587 12.2916 13.7587C12.2916 13.7587 12.9985 12.5437 13.276 11.9737C13.5554 11.3981 13.8404 10.7812 13.8404 10.7812Z" fill="#728137"/>
<path d="M14.285 11.595C14.3712 11.5387 14.5456 10.3706 14.6281 9.7875C14.7031 9.2625 14.8869 8.47687 14.4875 8.4C14.2137 8.3475 14.0993 8.73562 14.0093 9.15188C13.9306 9.52313 13.8144 10.0275 13.8144 10.0275C13.8144 10.0275 13.46 9.34687 13.2219 8.9325C13.0494 8.6325 12.6781 8.00063 12.3819 8.19C12.0425 8.4075 12.41 9.10312 12.6181 9.4875C12.8262 9.87187 13.0606 10.32 13.0606 10.32C13.0606 10.32 12.4344 10.1062 12.0687 9.99375C11.6675 9.87 11.1331 9.76125 11.0581 9.97687C10.9269 10.3519 11.4219 10.5394 12.3819 10.9312C13.3362 11.3194 14.1387 11.6906 14.285 11.595ZM10.6081 4.34625C10.565 5.11125 10.7 6.225 11.2437 6.10125C11.7144 5.99625 11.1687 5.27437 11.1744 4.36125C11.1819 3.08062 12.0106 2.775 11.75 2.49937C11.5381 2.27437 10.6775 3.10312 10.6081 4.34625ZM7.44123 6.41437C7.95685 6.29813 8.28123 6.315 8.29248 6.19125C8.3056 6.03188 8.1481 5.91938 7.4806 5.95312C6.86748 5.98313 6.24873 6.14437 5.64873 6.55125C5.31049 6.78048 5.00245 7.05136 4.73185 7.3575C4.1581 8.0175 4.07185 8.57437 4.41498 8.64375C4.76935 8.715 4.93435 8.31563 5.20248 7.89C5.84748 6.86063 6.8281 6.55312 7.44123 6.41437ZM5.23435 15.8438C5.52685 15.8325 5.51748 15.5531 5.52498 14.8313C5.5306 14.3606 5.50998 13.7494 5.70873 13.1456C5.97685 12.3337 6.39123 11.8181 6.8656 11.3831C7.38685 10.905 7.93623 10.6181 8.2456 10.4794C8.83623 10.2112 8.5606 9.97312 8.16873 10.1419C7.77873 10.3106 6.45123 10.7925 5.58498 12.1125C5.0206 12.9712 4.87998 13.65 4.8556 14.5556C4.83873 15.2381 5.0356 15.8513 5.23435 15.8438ZM9.71185 13.0687C9.47373 13.0687 9.03685 14.1956 9.06873 15.33C9.09873 16.4644 9.47185 17.19 9.80373 17.3231C10.0719 17.43 10.2631 17.1469 10.1637 16.71C10.0981 16.425 9.74185 15.9656 9.67248 15.2231C9.6031 14.4788 9.73435 13.6669 9.77185 13.4681C9.81123 13.2675 9.87123 13.0687 9.71185 13.0687Z" fill="#BDCF47"/>
</svg>
