<svg width="25" height="24" viewBox="0 0 25 24" fill="none" xmlns="http://www.w3.org/2000/svg">
<path d="M12.5262 18H12.5C7.69063 18.0056 2.75 19.3312 2.75 22.6856V23.2388H22.25V22.6856C22.25 19.5225 17.3562 18 12.5262 18Z" fill="url(#paint0_linear_741_682)"/>
<path d="M12.9283 21.2381L13.3727 20.3662L12.5008 19.3406L11.6289 20.3662L12.0733 21.2381L11.5352 23.2425H13.4664L12.9283 21.2381Z" fill="#1565C0"/>
<path d="M14.5654 17.1338H10.4329L9.19727 18.4688L10.9748 21.2232L12.4991 19.3407L14.0235 21.2232L15.801 18.4688L14.5654 17.1338Z" fill="url(#paint1_linear_741_682)"/>
<path d="M12.4997 15.8118H10.7972V17.6831C10.7972 18.5287 11.4909 19.2149 12.3459 19.2149H12.6553C13.5103 19.2149 14.2041 18.5287 14.2041 17.6831V15.8118H12.4997ZM17.6241 9.45557H7.37531C6.27094 9.45557 5.36719 10.4193 5.36719 11.5949C5.36719 12.7706 6.27094 13.7343 7.37531 13.7343H17.6222C18.7266 13.7343 19.6303 12.7706 19.6303 11.5949C19.6303 10.4193 18.7284 9.45557 17.6241 9.45557Z" fill="#C48E6A"/>
<path d="M12.4998 2.07568C9.23734 2.07568 6.21484 5.56506 6.21484 10.5882C6.21484 15.5832 9.32922 18.0526 12.4998 18.0526C15.6705 18.0526 18.7848 15.5813 18.7848 10.5863C18.7848 5.56506 15.7623 2.07568 12.4998 2.07568Z" fill="#E0BB95"/>
<path d="M9.41656 11.9832C9.92708 11.9832 10.3409 11.5551 10.3409 11.0269C10.3409 10.4988 9.92708 10.0707 9.41656 10.0707C8.90604 10.0707 8.49219 10.4988 8.49219 11.0269C8.49219 11.5551 8.90604 11.9832 9.41656 11.9832Z" fill="#5D4037"/>
<path d="M15.5806 11.9832C16.0911 11.9832 16.505 11.5551 16.505 11.0269C16.505 10.4988 16.0911 10.0707 15.5806 10.0707C15.0701 10.0707 14.6562 10.4988 14.6562 11.0269C14.6562 11.5551 15.0701 11.9832 15.5806 11.9832Z" fill="#5D4037"/>
<path d="M13.2242 12.7612C13.2036 12.7537 13.1848 12.7481 13.1642 12.7462H11.8367C11.8161 12.7481 11.7955 12.7537 11.7767 12.7612C11.6567 12.81 11.5911 12.9337 11.6473 13.0668C11.7036 13.2 11.968 13.5712 12.5005 13.5712C13.033 13.5712 13.2973 13.1981 13.3536 13.0668C13.4098 12.9337 13.3442 12.81 13.2242 12.7612Z" fill="#C48E6A"/>
<path d="M14.0795 14.2762C13.4832 14.6306 11.5238 14.6306 10.9276 14.2762C10.5845 14.0718 10.2338 14.385 10.3763 14.6962C10.517 15.0018 11.5838 15.7125 12.5082 15.7125C13.4326 15.7125 14.4863 15.0018 14.627 14.6962C14.7676 14.385 14.4226 14.0718 14.0795 14.2762Z" fill="#6D4C41"/>
<path d="M12.4998 0.755615H12.4923C3.97417 0.800615 5.71979 10.5319 5.71979 10.5319C5.71979 10.5319 6.10229 11.535 6.27667 11.9775C6.30104 12.0412 6.39479 12.0337 6.40979 11.9681C6.59167 11.1544 7.24604 8.26874 7.57604 7.39124C7.67032 7.14122 7.8495 6.93231 8.08223 6.80104C8.31496 6.66976 8.58643 6.62448 8.84917 6.67312C9.68354 6.82499 11.0148 7.01249 12.481 7.01249H12.511C13.9773 7.01249 15.3085 6.82499 16.1429 6.67312C16.6867 6.57374 17.2229 6.87562 17.416 7.39124C17.7442 8.26499 18.3948 11.1337 18.5785 11.9587C18.5935 12.0262 18.6873 12.0319 18.7117 11.9681L19.2704 10.53C19.2742 10.5319 21.0198 0.800615 12.4998 0.755615Z" fill="#AB872F"/>
<path d="M19.2742 10.5319C19.2742 10.5319 21.0198 0.800615 12.4998 0.755615H12.4923C12.3592 0.755615 12.2298 0.759365 12.1023 0.76499C11.8492 0.77624 11.6036 0.79499 11.3673 0.823115H11.3598C11.343 0.82499 11.328 0.82874 11.3111 0.830615C4.14109 1.73249 5.71984 10.5319 5.71984 10.5319L6.27859 11.9719C6.30296 12.0356 6.39484 12.03 6.40984 11.9625C6.59359 11.1394 7.24609 8.26687 7.57609 7.39312C7.67037 7.1431 7.84954 6.93419 8.08227 6.80291C8.315 6.67164 8.58648 6.62636 8.84921 6.67499C9.68359 6.82686 11.0148 7.01437 12.4811 7.01437H12.5111C13.9773 7.01437 15.3086 6.82686 16.143 6.67499C16.6867 6.57561 17.223 6.87749 17.4161 7.39312C17.7461 8.27062 18.4005 11.1619 18.5805 11.9719C18.5955 12.0394 18.6873 12.045 18.7117 11.9812C18.8898 11.5387 19.2742 10.5319 19.2742 10.5319Z" fill="url(#paint2_radial_741_682)"/>
<path d="M8.00096 9.50996C8.56159 8.71684 9.83471 8.64184 10.5641 9.23246C10.6803 9.32621 10.8341 9.45746 10.8791 9.60371C10.9541 9.84184 10.7253 10.0275 10.5022 9.97121C10.3597 9.93559 10.2266 9.85871 10.086 9.81558C9.82909 9.73496 9.64346 9.71246 9.41284 9.71246C9.07159 9.71058 8.85221 9.75371 8.52784 9.88496C8.39471 9.93934 8.28596 10.0256 8.13409 9.96184C7.95971 9.89059 7.89409 9.66746 8.00096 9.50996ZM16.6372 9.96184C16.5828 9.93746 16.5303 9.90746 16.476 9.88496C16.1422 9.74621 15.9528 9.71058 15.591 9.71246C15.2722 9.71433 15.0828 9.75746 14.8335 9.84184C14.6816 9.89434 14.4885 10.0256 14.3197 9.97496C14.0722 9.89996 14.0797 9.62996 14.2147 9.45746C14.376 9.25496 14.5972 9.10121 14.8316 8.99996C15.3753 8.76371 16.0391 8.79746 16.551 9.10308C16.7178 9.20246 16.8997 9.33933 17.001 9.51183C17.1472 9.75559 16.926 10.08 16.6372 9.96184Z" fill="#AB872F"/>
<defs>
<linearGradient id="paint0_linear_741_682" x1="12.5" y1="17.9415" x2="12.5" y2="23.1936" gradientUnits="userSpaceOnUse">
<stop offset="0.003" stop-color="#E3F2FD"/>
<stop offset="0.225" stop-color="#D6ECFC"/>
<stop offset="0.635" stop-color="#B4DBFB"/>
<stop offset="1" stop-color="#90CAF9"/>
</linearGradient>
<linearGradient id="paint1_linear_741_682" x1="12.4991" y1="20.9402" x2="12.4991" y2="17.5215" gradientUnits="userSpaceOnUse">
<stop offset="0.5" stop-color="#F5F5F5"/>
<stop offset="1" stop-color="#DADADA"/>
</linearGradient>
<radialGradient id="paint2_radial_741_682" cx="0" cy="0" r="1" gradientUnits="userSpaceOnUse" gradientTransform="translate(12.4967 8.83077) scale(7.14244 8.0581)">
<stop offset="0.794" stop-color="#BFA055" stop-opacity="0"/>
<stop offset="1" stop-color="#BFA055"/>
</radialGradient>
</defs>
</svg>
