<svg width="25" height="24" viewBox="0 0 25 24" fill="none" xmlns="http://www.w3.org/2000/svg">
<path d="M12.4318 5.19768C12.9584 5.19768 13.3852 4.77086 13.3852 4.24435C13.3852 3.71784 12.9584 3.29102 12.4318 3.29102C11.9053 3.29102 11.4785 3.71784 11.4785 4.24435C11.4785 4.77086 11.9053 5.19768 12.4318 5.19768Z" fill="#FCEA2B"/>
<path d="M12.3373 6.40505L7.69792 6.75472L5.28292 6.43705C5.28292 6.43705 4.83792 6.65938 5.44192 7.07238C6.1519 7.51928 6.95771 7.7915 7.79325 7.86672C8.90525 7.86672 9.99092 7.60938 10.2446 8.18772C10.3201 8.55417 10.4383 8.9105 10.5969 9.24938L10.8776 9.70072L10.6393 11.4704L9.86725 13.1991L6.07725 15.0164L6.20425 15.9697L10.4463 14.9854L11.7333 13.6501L11.6946 14.1367L11.6053 15.1821C11.5433 15.9077 11.3031 16.6069 10.9059 17.2174L9.75359 18.9891L10.6016 19.5877L12.9316 16.8254C13.0552 16.6788 13.142 16.5049 13.1849 16.3181L13.7876 13.6914C13.8009 13.6332 13.8103 13.5742 13.8156 13.5147L14.0189 11.2171C14.0189 11.2171 14.2326 9.34539 14.4639 7.76605C14.7429 7.12472 15.9916 7.73972 17.0719 8.05739C17.6759 8.21639 18.5019 8.56605 19.4553 8.75672C20.1546 8.91539 20.3453 8.15272 20.3453 8.15272L14.5296 6.11938L12.3373 6.40505Z" fill="#FCEA2B"/>
<path d="M4.48849 7.73967C5.015 7.73967 5.44182 7.31285 5.44182 6.78634C5.44182 6.25983 5.015 5.83301 4.48849 5.83301C3.96198 5.83301 3.53516 6.25983 3.53516 6.78634C3.53516 7.31285 3.96198 7.73967 4.48849 7.73967Z" fill="#EA5A47"/>
<path d="M4.48849 7.73943C5.015 7.73943 5.44182 7.31261 5.44182 6.7861C5.44182 6.25959 5.015 5.83276 4.48849 5.83276C3.96198 5.83276 3.53516 6.25959 3.53516 6.7861C3.53516 7.31261 3.96198 7.73943 4.48849 7.73943Z" stroke="black" stroke-width="0.666667" stroke-miterlimit="10"/>
<path d="M12.4316 5.24438C12.9839 5.24438 13.4316 4.79667 13.4316 4.24438C13.4316 3.6921 12.9839 3.24438 12.4316 3.24438C11.8794 3.24438 11.4316 3.6921 11.4316 4.24438C11.4316 4.79667 11.8794 5.24438 12.4316 5.24438Z" stroke="black" stroke-width="0.666667" stroke-miterlimit="10"/>
<path d="M12.464 12.4744C11.8447 13.2696 11.1858 14.0332 10.49 14.7624C10.371 14.8731 10.2265 14.9528 10.0694 14.9944L6.80838 15.8744C6.66512 15.9157 6.51136 15.8988 6.38048 15.8274C6.2496 15.756 6.15218 15.6359 6.10938 15.4931C6.11298 15.3387 6.16357 15.1891 6.25439 15.0642C6.34521 14.9393 6.47195 14.8451 6.61771 14.7941C6.61771 14.7941 8.48037 13.9437 9.46837 13.3241C9.7924 13.12 10.0496 12.8256 10.2084 12.4771C10.5374 11.8158 10.7772 11.1138 10.9217 10.3894C11.0164 9.63041 10.5634 8.14441 10.5634 8.14441" stroke="black" stroke-width="0.666667" stroke-linecap="round" stroke-linejoin="round"/>
<path d="M11.6607 13.6377C11.6607 13.6377 11.6854 14.2001 11.6774 14.8117C11.6672 15.5897 11.4285 16.3476 10.9911 16.9911L9.89106 18.6071C9.79882 18.7336 9.7604 18.8915 9.78419 19.0463C9.80799 19.201 9.89207 19.3401 10.0181 19.4331C10.1686 19.5081 10.3391 19.5331 10.5049 19.5046C10.6706 19.4761 10.8229 19.3954 10.9397 19.2744C10.9397 19.2744 12.2051 17.7011 12.8224 16.8411C13.0256 16.5583 13.1706 16.238 13.2491 15.8987L13.6137 14.3257C13.7135 13.8652 13.7654 13.3956 13.7687 12.9244C13.7911 12.4194 13.8171 11.7684 13.8157 11.3321C13.8157 11.1317 13.9591 9.02539 13.9591 8.95006M4.77539 5.80139L7.09506 6.81806C7.47313 6.94962 7.88071 6.97158 8.27072 6.88139L8.96972 6.65906C9.37526 6.54091 9.78974 6.45597 10.2091 6.40506L13.7044 6.18273C14.123 6.17279 14.5408 6.22628 14.9434 6.34139L20.0594 8.02539" stroke="black" stroke-width="0.666667" stroke-linecap="round" stroke-linejoin="round"/>
</svg>
