<svg width="25" height="24" viewBox="0 0 25 24" fill="none" xmlns="http://www.w3.org/2000/svg">
<g clip-path="url(#clip0_741_768)">
<path d="M20.6673 15.8853C20.6055 15.9474 20.5321 15.9967 20.4512 16.0304C20.3703 16.064 20.2836 16.0813 20.196 16.0813C20.1084 16.0813 20.0216 16.064 19.9407 16.0304C19.8598 15.9967 19.7864 15.9474 19.7246 15.8853L18.782 14.9427C18.7198 14.8809 18.6705 14.8074 18.6369 14.7266C18.6033 14.6457 18.5859 14.5589 18.5859 14.4713C18.5859 14.3837 18.6033 14.297 18.6369 14.2161C18.6705 14.1352 18.7198 14.0618 18.782 14L20.6673 12.1147C20.7292 12.0527 20.8026 12.0035 20.8835 11.97C20.9644 11.9365 21.0511 11.9192 21.1386 11.9192C21.2262 11.9192 21.3129 11.9365 21.3938 11.97C21.4746 12.0035 21.5481 12.0527 21.61 12.1147L22.5526 13.0573C22.6148 13.1191 22.6641 13.1925 22.6977 13.2734C22.7313 13.3543 22.7487 13.4411 22.7487 13.5287C22.7487 13.6163 22.7313 13.703 22.6977 13.7839C22.6641 13.8648 22.6148 13.9382 22.5526 14L20.6673 15.8853ZM10.6673 5.88532C10.6055 5.94745 10.5321 5.99675 10.4512 6.03039C10.3703 6.06403 10.2836 6.08135 10.196 6.08135C10.1084 6.08135 10.0216 6.06403 9.94073 6.03039C9.85984 5.99675 9.7864 5.94745 9.72463 5.88532L8.78196 4.94266C8.71984 4.88089 8.67054 4.80745 8.6369 4.72656C8.60326 4.64567 8.58594 4.55893 8.58594 4.47132C8.58594 4.38372 8.60326 4.29698 8.6369 4.21609C8.67054 4.1352 8.71984 4.06176 8.78196 3.99999L10.6673 2.11466C10.7292 2.05269 10.8026 2.00353 10.8835 1.96999C10.9644 1.93645 11.0511 1.91919 11.1386 1.91919C11.2262 1.91919 11.3129 1.93645 11.3938 1.96999C11.4746 2.00353 11.5481 2.05269 11.61 2.11466L12.5526 3.05732C12.6148 3.11909 12.6641 3.19253 12.6977 3.27342C12.7313 3.35431 12.7487 3.44105 12.7487 3.52866C12.7487 3.61626 12.7313 3.703 12.6977 3.78389C12.6641 3.86478 12.6148 3.93822 12.5526 3.99999L10.6673 5.88532Z" fill="#66757F"/>
<path d="M2.00105 14.6667C3.33439 14.6667 9.33439 15.3333 9.33439 15.3333C9.33439 15.3333 10.0011 21.3333 10.0011 22.6667C10.0011 24 8.66772 24 8.00105 23.3333C7.33439 22.6667 5.33439 19.3333 5.33439 19.3333C5.33439 19.3333 2.00105 17.3333 1.33439 16.6667C0.667721 16 0.667721 14.6667 2.00105 14.6667ZM3.33439 4.02601C5.33439 4.00001 20.0011 4.66668 20.0011 4.66668C20.0011 4.66668 20.6171 19.3333 20.6424 21.3333C20.6677 23.3333 18.8004 24.0013 18.0677 21.334C17.3351 18.6667 14.6677 10 14.6677 10C14.6677 10 5.36439 7.05534 3.33105 6.59868C0.66772 6.00001 1.33372 4.05134 3.33439 4.02601Z" fill="#55ACEE"/>
<path d="M18.6689 2.00002C20.0023 0.666688 23.3356 2.12491e-05 24.0023 0.666688C24.6689 1.33335 24.0023 4.66669 22.6689 6.00002C21.3356 7.33335 10.0023 18 10.0023 18C10.0023 18 5.66893 21 4.66893 20C3.66893 19 6.66893 14.6667 6.66893 14.6667C6.66893 14.6667 17.3356 3.33335 18.6689 2.00002Z" fill="#CCD6DD"/>
<path d="M10.0013 14.6667C10.0013 14.6667 10.3346 15 7.33459 18C4.33459 21 4.00125 20.6667 4.00125 20.6667C4.00125 20.6667 3.66792 20.3333 6.66792 17.3333C9.66792 14.3333 10.0013 14.6667 10.0013 14.6667ZM20.0013 2.66667C20.5317 2.66667 21.0404 2.87738 21.4155 3.25245C21.7905 3.62753 22.0013 4.13623 22.0013 4.66667H22.5379C22.6139 4.45667 22.6679 4.23667 22.6679 4C22.6679 3.46957 22.4572 2.96086 22.0821 2.58579C21.7071 2.21071 21.1984 2 20.6679 2C20.4313 2 20.2113 2.054 20.0013 2.13V2.66667Z" fill="#66757F"/>
</g>
<defs>
<clipPath id="clip0_741_768">
<rect width="24" height="24" fill="white" transform="translate(0.667969)"/>
</clipPath>
</defs>
</svg>
