<svg width="25" height="24" viewBox="0 0 25 24" fill="none" xmlns="http://www.w3.org/2000/svg">
<g clip-path="url(#clip0_741_699)">
<path d="M13.8333 1.33333H13.1667V0.666667C13.1667 0.489856 13.0964 0.320286 12.9714 0.195262C12.8464 0.0702379 12.6768 0 12.5 0C12.3232 0 12.1536 0.0702379 12.0286 0.195262C11.9036 0.320286 11.8333 0.489856 11.8333 0.666667V1.33333H11.1667C10.9899 1.33333 10.8203 1.40357 10.6953 1.5286C10.5702 1.65362 10.5 1.82319 10.5 2C10.5 2.17681 10.5702 2.34638 10.6953 2.4714C10.8203 2.59643 10.9899 2.66667 11.1667 2.66667H11.8333V6.66667C11.8333 6.84348 11.9036 7.01305 12.0286 7.13807C12.1536 7.2631 12.3232 7.33333 12.5 7.33333C12.6768 7.33333 12.8464 7.2631 12.9714 7.13807C13.0964 7.01305 13.1667 6.84348 13.1667 6.66667V2.66667H13.8333C14.0101 2.66667 14.1797 2.59643 14.3047 2.4714C14.4298 2.34638 14.5 2.17681 14.5 2C14.5 1.82319 14.4298 1.65362 14.3047 1.5286C14.1797 1.40357 14.0101 1.33333 13.8333 1.33333Z" fill="#BCBEC0"/>
<path d="M12.5009 6L9.07227 8.66667H9.1676V14.6667H15.8343V8.66667H15.9296L12.5009 6Z" fill="#FFD983"/>
<path d="M13.832 10.0001C13.8242 9.65168 13.6804 9.3202 13.4312 9.07658C13.1821 8.83295 12.8475 8.69653 12.499 8.69653C12.1506 8.69653 11.8159 8.83295 11.5668 9.07658C11.3177 9.3202 11.1738 9.65168 11.166 10.0001V14.6667H13.8327L13.832 10.0001Z" fill="#662113"/>
<path d="M12.4987 12L3.16602 17.3333V23.3333C3.16602 23.5101 3.23625 23.6797 3.36128 23.8047C3.4863 23.9298 3.65587 24 3.83268 24H21.166C21.3428 24 21.5124 23.9298 21.6374 23.8047C21.7624 23.6797 21.8327 23.5101 21.8327 23.3333V17.3333L12.4987 12Z" fill="#FFD983"/>
<path d="M21.8325 18C21.7167 18.0002 21.6028 17.9698 21.5025 17.912L12.4998 12.7673L3.49715 17.912C3.34368 17.9997 3.16165 18.0228 2.99112 17.9763C2.82059 17.9298 2.67551 17.8175 2.58781 17.664C2.50012 17.5105 2.47698 17.3285 2.52349 17.158C2.56999 16.9874 2.68234 16.8423 2.83581 16.7546L12.1691 11.4213C12.2698 11.3637 12.3838 11.3333 12.4998 11.3333C12.6158 11.3333 12.7298 11.3637 12.8305 11.4213L22.1638 16.7546C22.2925 16.827 22.3934 16.94 22.4508 17.076C22.5082 17.2119 22.5188 17.3631 22.4808 17.5057C22.4429 17.6484 22.3586 17.7743 22.2412 17.8638C22.1239 17.9533 21.9801 18.0012 21.8325 18ZM15.8331 9.33331C15.6819 9.33323 15.5352 9.28175 15.4171 9.18731L12.4998 6.85398L9.58381 9.18731C9.44573 9.29782 9.26939 9.34895 9.09361 9.32944C8.91782 9.30994 8.75699 9.2214 8.64648 9.08331C8.53597 8.94523 8.48485 8.76889 8.50435 8.59311C8.52386 8.41733 8.61239 8.25649 8.75048 8.14598L12.0831 5.47931C12.2014 5.38476 12.3484 5.33325 12.4998 5.33325C12.6513 5.33325 12.7982 5.38476 12.9165 5.47931L16.2505 8.14598C16.3584 8.23232 16.4369 8.35008 16.475 8.48297C16.5131 8.61586 16.5089 8.7573 16.4631 8.88772C16.4172 9.01813 16.332 9.13108 16.2191 9.21091C16.1063 9.29074 15.9714 9.33352 15.8331 9.33331Z" fill="#DD2E44"/>
<path d="M9.16633 20.6666C9.1703 20.4891 9.13876 20.3125 9.07356 20.1473C9.00835 19.9821 8.9108 19.8316 8.78662 19.7046C8.66245 19.5776 8.51416 19.4767 8.35046 19.4079C8.18675 19.339 8.01094 19.3035 7.83333 19.3035C7.65573 19.3035 7.47991 19.339 7.31621 19.4079C7.15251 19.4767 7.00422 19.5776 6.88004 19.7046C6.75587 19.8316 6.65832 19.9821 6.59311 20.1473C6.52791 20.3125 6.49636 20.4891 6.50033 20.6666V24H9.167L9.16633 20.6666ZM13.833 19.3333C13.8252 18.9849 13.6813 18.6535 13.4322 18.4098C13.1831 18.1662 12.8485 18.0298 12.5 18.0298C12.1515 18.0298 11.8169 18.1662 11.5678 18.4098C11.3187 18.6535 11.1748 18.9849 11.167 19.3333V24H13.8337L13.833 19.3333ZM18.4997 20.6666C18.4919 20.3183 18.348 19.9868 18.0989 19.7432C17.8497 19.4995 17.5151 19.3631 17.1667 19.3631C16.8182 19.3631 16.4836 19.4995 16.2345 19.7432C15.9853 19.9868 15.8415 20.3183 15.8337 20.6666V24H18.5003L18.4997 20.6666Z" fill="#662113"/>
</g>
<defs>
<clipPath id="clip0_741_699">
<rect width="24" height="24" fill="white" transform="translate(0.5)"/>
</clipPath>
</defs>
</svg>
