<svg width="40" height="40" viewBox="0 0 40 40" fill="none" xmlns="http://www.w3.org/2000/svg">
<path d="M25.3571 19.9998C25.1714 19.9998 24.9714 19.9712 24.7857 19.9141C24.4305 19.7941 24.122 19.5653 23.904 19.2602C23.6861 18.955 23.5697 18.589 23.5714 18.2141V15.6998C21.5714 15.5141 20 13.8284 20 11.7855V6.7855C20 4.61408 21.7571 2.85693 23.9286 2.85693H33.2143C35.3857 2.85693 37.1429 4.61408 37.1429 6.7855V11.7855C37.1429 13.9569 35.3857 15.7141 33.2143 15.7141H29.4714L26.7857 19.2855C26.4429 19.7426 25.9143 19.9998 25.3571 19.9998ZM13.5714 23.5712C11.9623 23.5674 10.4202 22.9266 9.28245 21.7888C8.14465 20.651 7.50377 19.1089 7.5 17.4998C7.50377 15.8907 8.14465 14.3486 9.28245 13.2108C10.4202 12.073 11.9623 11.4321 13.5714 11.4284C15.1805 11.4321 16.7226 12.073 17.8604 13.2108C18.9982 14.3486 19.6391 15.8907 19.6429 17.4998C19.6391 19.1089 18.9982 20.651 17.8604 21.7888C16.7226 22.9266 15.1805 23.5674 13.5714 23.5712ZM4.95857 34.1712C6.83 36.1426 9.73 37.1426 13.5729 37.1426C17.4157 37.1426 20.3157 36.1426 22.1871 34.1712C24.3614 31.8712 24.2914 29.0955 24.2871 28.9084V28.8998C24.2871 27.1426 22.8586 25.7141 21.1014 25.7141H6.04429C4.28714 25.7141 2.85857 27.1426 2.85857 28.8426V28.8612C2.85286 29.1326 2.79857 31.8855 4.95857 34.1712Z" fill="#FDFDFD"/>
</svg>
