<svg width="20" height="20" viewBox="0 0 20 20" fill="none" xmlns="http://www.w3.org/2000/svg">
<path d="M3.33203 9.99967C3.33203 8.23156 4.03441 6.53587 5.28465 5.28563C6.5349 4.03539 8.23059 3.33301 9.9987 3.33301C11.7668 3.33301 13.4625 4.03539 14.7127 5.28563C15.963 6.53587 16.6654 8.23156 16.6654 9.99967V14.2413C16.6654 14.948 16.6654 15.2997 16.5604 15.5822C16.4769 15.806 16.3462 16.0093 16.1773 16.1783C16.0083 16.3472 15.8051 16.4778 15.5812 16.5613C15.2987 16.6663 14.9462 16.6663 14.2404 16.6663H9.9987C8.23059 16.6663 6.5349 15.964 5.28465 14.7137C4.03441 13.4635 3.33203 11.7678 3.33203 9.99967Z" stroke="#ADADAD" stroke-width="1.5"/>
<path d="M7.5 9.16602H12.5M10 12.4993H12.5" stroke="#ADADAD" stroke-width="1.5" stroke-linecap="round" stroke-linejoin="round"/>
</svg>
