<svg width="20" height="20" viewBox="0 0 20 20" fill="none" xmlns="http://www.w3.org/2000/svg">
<path d="M10.0002 16.7992C6.2402 16.7992 3.2002 13.7592 3.2002 9.99922C3.2002 6.23922 6.2402 3.19922 10.0002 3.19922C13.7602 3.19922 16.8002 6.23922 16.8002 9.99922C16.8002 13.7592 13.7602 16.7992 10.0002 16.7992ZM10.0002 3.99922C6.6802 3.99922 4.0002 6.67922 4.0002 9.99922C4.0002 13.3192 6.6802 15.9992 10.0002 15.9992C13.3202 15.9992 16.0002 13.3192 16.0002 9.99922C16.0002 6.67922 13.3202 3.99922 10.0002 3.99922Z" fill="#00FF00"/>
<path d="M9.19973 12.9603L5.71973 9.48031L6.27973 8.92031L9.19973 11.8403L13.7197 7.32031L14.2797 7.88031L9.19973 12.9603Z" fill="#00FF00"/>
</svg>
