<svg width="20" height="20" viewBox="0 0 20 20" fill="none" xmlns="http://www.w3.org/2000/svg">
<g clip-path="url(#clip0_982_13265)">
<path d="M16.3889 3.88867H5.83333C5.61232 3.88867 5.40036 3.97647 5.24408 4.13275C5.0878 4.28903 5 4.50099 5 4.72201V18.0553C5 18.2764 5.0878 18.4883 5.24408 18.6446C5.40036 18.8009 5.61232 18.8887 5.83333 18.8887H16.3889C16.6099 18.8887 16.8219 18.8009 16.9781 18.6446C17.1344 18.4883 17.2222 18.2764 17.2222 18.0553V4.72201C17.2222 4.50099 17.1344 4.28903 16.9781 4.13275C16.8219 3.97647 16.6099 3.88867 16.3889 3.88867ZM16.1111 17.7776H6.11111V4.99978H16.1111V17.7776Z" fill="#EBEBEB"/>
<path d="M14.4444 1.94466C14.4444 1.72365 14.3566 1.51169 14.2003 1.35541C14.044 1.19913 13.8321 1.11133 13.6111 1.11133H3.0555C2.83449 1.11133 2.62253 1.19913 2.46625 1.35541C2.30997 1.51169 2.22217 1.72365 2.22217 1.94466V15.278C2.22217 15.499 2.30997 15.711 2.46625 15.8673C2.62253 16.0235 2.83449 16.1113 3.0555 16.1113H3.33328V2.22244H14.4444V1.94466Z" fill="#EBEBEB"/>
</g>
<defs>
<clipPath id="clip0_982_13265">
<rect width="20" height="20" fill="white"/>
</clipPath>
</defs>
</svg>
