<svg width="21" height="20" viewBox="0 0 21 20" fill="none" xmlns="http://www.w3.org/2000/svg">
<path fill-rule="evenodd" clip-rule="evenodd" d="M9.66699 3.33268C9.33869 3.33268 9.0136 3.39735 8.71028 3.52298C8.40697 3.64862 8.13137 3.83277 7.89923 4.06492C7.66708 4.29706 7.48293 4.57266 7.35729 4.87597C7.23166 5.17929 7.16699 5.50438 7.16699 5.83268C7.16699 6.16099 7.23166 6.48608 7.35729 6.78939C7.48293 7.0927 7.66708 7.3683 7.89923 7.60045C8.13137 7.8326 8.40697 8.01674 8.71028 8.14238C9.0136 8.26802 9.33869 8.33268 9.66699 8.33268C10.33 8.33268 10.9659 8.06929 11.4348 7.60045C11.9036 7.13161 12.167 6.49572 12.167 5.83268C12.167 5.16964 11.9036 4.53376 11.4348 4.06492C10.9659 3.59607 10.33 3.33268 9.66699 3.33268ZM5.50033 5.83268C5.50033 4.72761 5.93931 3.66781 6.72071 2.8864C7.50212 2.105 8.56192 1.66602 9.66699 1.66602C10.7721 1.66602 11.8319 2.105 12.6133 2.8864C13.3947 3.66781 13.8337 4.72761 13.8337 5.83268C13.8337 6.93775 13.3947 7.99756 12.6133 8.77896C11.8319 9.56036 10.7721 9.99935 9.66699 9.99935C8.56192 9.99935 7.50212 9.56036 6.72071 8.77896C5.93931 7.99756 5.50033 6.93775 5.50033 5.83268ZM4.17783 14.6668C3.90866 15.0085 3.83366 15.2668 3.83366 15.416C3.83366 15.5177 3.86449 15.6252 4.04616 15.771C4.25366 15.9377 4.61449 16.1102 5.16616 16.256C6.26449 16.5477 7.84283 16.666 9.66699 16.666C9.85199 16.666 10.0348 16.6646 10.2153 16.6618C10.4363 16.6589 10.6495 16.7438 10.8079 16.898C10.9663 17.0521 11.0569 17.2629 11.0599 17.4839C11.0629 17.7049 10.978 17.9181 10.8238 18.0765C10.6696 18.2349 10.4588 18.3255 10.2378 18.3285C10.0489 18.3313 9.85866 18.3327 9.66699 18.3327C7.80949 18.3327 6.05449 18.216 4.73949 17.8677C4.08533 17.6943 3.46949 17.446 3.00283 17.071C2.50866 16.6743 2.16699 16.1202 2.16699 15.416C2.16699 14.7602 2.46533 14.1468 2.87033 13.6335C3.28199 13.1127 3.85116 12.6335 4.51866 12.2252C5.85449 11.4118 7.67116 10.8327 9.66699 10.8327C10.0398 10.8327 10.4053 10.8521 10.7637 10.891C10.9835 10.9143 11.185 11.024 11.3239 11.1959C11.4629 11.3678 11.5278 11.5879 11.5045 11.8077C11.4812 12.0275 11.3715 12.229 11.1996 12.3679C11.0277 12.5069 10.8076 12.5718 10.5878 12.5485C10.2873 12.5157 9.98033 12.4993 9.66699 12.4993C7.98116 12.4993 6.46449 12.991 5.38699 13.6485C4.84783 13.9768 4.44033 14.3335 4.17783 14.6668ZM18.5903 13.3893C18.7421 13.2322 18.8261 13.0217 18.8242 12.8032C18.8223 12.5847 18.7347 12.3757 18.5802 12.2212C18.4257 12.0667 18.2167 11.979 17.9982 11.9771C17.7797 11.9752 17.5692 12.0592 17.412 12.211L14.7603 14.8627L13.582 13.6843C13.4248 13.5326 13.2143 13.4486 12.9958 13.4505C12.7773 13.4524 12.5683 13.54 12.4138 13.6945C12.2593 13.849 12.1717 14.058 12.1698 14.2765C12.1679 14.495 12.2519 14.7055 12.4037 14.8627L14.112 16.571C14.1971 16.6562 14.2982 16.7237 14.4094 16.7698C14.5207 16.8159 14.6399 16.8397 14.7603 16.8397C14.8807 16.8397 15 16.8159 15.1112 16.7698C15.2225 16.7237 15.3235 16.6562 15.4087 16.571L18.5903 13.3893Z" fill="#FDFDFD"/>
</svg>
