<svg width="24" height="24" viewBox="0 0 24 24" fill="none" xmlns="http://www.w3.org/2000/svg">
<path d="M12.0002 18.2398C9.55223 18.2398 7.34423 16.7998 6.33623 14.5918L7.20023 14.2078C8.06423 16.0798 9.93623 17.2798 12.0002 17.2798C14.9282 17.2798 17.2802 14.9278 17.2802 11.9998C17.2802 9.07177 14.9282 6.71977 12.0002 6.71977C9.79223 6.71977 7.92023 8.06377 7.15223 10.2238L6.24023 9.88777C7.15223 7.39177 9.40823 5.75977 12.0002 5.75977C15.4562 5.75977 18.2402 8.54377 18.2402 11.9998C18.2402 15.4558 15.4562 18.2398 12.0002 18.2398Z" fill="#EBEBEB"/>
<path d="M9.59977 10.5607H5.75977V6.7207H6.71977V9.6007H9.59977V10.5607Z" fill="#EBEBEB"/>
</svg>
