<svg width="21" height="20" viewBox="0 0 21 20" fill="none" xmlns="http://www.w3.org/2000/svg">
<g clip-path="url(#clip0_1240_19341)">
<path d="M15.8125 0H5.1875C2.59867 0 0.5 2.09867 0.5 4.6875V15.3125C0.5 17.9013 2.59867 20 5.1875 20H15.8125C18.4013 20 20.5 17.9013 20.5 15.3125V4.6875C20.5 2.09867 18.4013 0 15.8125 0Z" fill="url(#paint0_radial_1240_19341)"/>
<path d="M15.8125 0H5.1875C2.59867 0 0.5 2.09867 0.5 4.6875V15.3125C0.5 17.9013 2.59867 20 5.1875 20H15.8125C18.4013 20 20.5 17.9013 20.5 15.3125V4.6875C20.5 2.09867 18.4013 0 15.8125 0Z" fill="url(#paint1_radial_1240_19341)"/>
<path d="M10.5007 2.1875C8.37898 2.1875 8.11266 2.1968 7.27938 2.23469C6.44766 2.27281 5.87992 2.40445 5.3832 2.59766C4.8693 2.79719 4.43344 3.06414 3.99922 3.49852C3.56461 3.93281 3.29766 4.36867 3.0975 4.88234C2.90375 5.37922 2.77195 5.94719 2.73453 6.77852C2.69727 7.61188 2.6875 7.87828 2.6875 10.0001C2.6875 12.1219 2.69688 12.3873 2.73469 13.2206C2.77297 14.0523 2.90461 14.6201 3.09766 15.1168C3.29734 15.6307 3.5643 16.0666 3.99867 16.5008C4.43281 16.9354 4.86867 17.203 5.38219 17.4025C5.8793 17.5957 6.44711 17.7273 7.27867 17.7655C8.11203 17.8034 8.37813 17.8127 10.4998 17.8127C12.6217 17.8127 12.8872 17.8034 13.7205 17.7655C14.5522 17.7273 15.1205 17.5957 15.6177 17.4025C16.1313 17.203 16.5666 16.9354 17.0006 16.5008C17.4352 16.0666 17.7021 15.6307 17.9023 15.117C18.0944 14.6201 18.2262 14.0522 18.2653 13.2208C18.3027 12.3875 18.3125 12.1219 18.3125 10.0001C18.3125 7.87828 18.3027 7.61203 18.2653 6.77867C18.2262 5.94695 18.0944 5.3793 17.9023 4.88258C17.7021 4.36867 17.4352 3.93281 17.0006 3.49852C16.5661 3.06398 16.1315 2.79703 15.6172 2.59773C15.1191 2.40445 14.5511 2.27273 13.7194 2.23469C12.886 2.1968 12.6207 2.1875 10.4983 2.1875H10.5007ZM9.79984 3.59539C10.0079 3.59508 10.24 3.59539 10.5007 3.59539C12.5867 3.59539 12.8339 3.60289 13.6577 3.64031C14.4194 3.67516 14.8328 3.80242 15.1082 3.90938C15.4728 4.05094 15.7327 4.22023 16.006 4.49375C16.2795 4.76719 16.4487 5.02758 16.5906 5.39219C16.6976 5.66719 16.825 6.08063 16.8597 6.84234C16.8971 7.66594 16.9052 7.91328 16.9052 9.99828C16.9052 12.0833 16.8971 12.3307 16.8597 13.1542C16.8248 13.9159 16.6976 14.3294 16.5906 14.6045C16.4491 14.9691 16.2795 15.2287 16.006 15.502C15.7326 15.7754 15.473 15.9446 15.1082 16.0863C14.8331 16.1937 14.4194 16.3206 13.6577 16.3555C12.8341 16.3929 12.5867 16.401 10.5007 16.401C8.41461 16.401 8.16734 16.3929 7.34383 16.3555C6.58211 16.3203 6.16867 16.193 5.89305 16.0861C5.52852 15.9445 5.26805 15.7752 4.99461 15.5018C4.72117 15.2284 4.55195 14.9686 4.41 14.6038C4.30305 14.3287 4.17562 13.9153 4.14094 13.1536C4.10352 12.33 4.09602 12.0827 4.09602 9.99633C4.09602 7.91008 4.10352 7.66398 4.14094 6.84039C4.17578 6.07867 4.30305 5.66523 4.41 5.38984C4.55164 5.02523 4.72117 4.76484 4.99469 4.49141C5.26813 4.21797 5.52852 4.04867 5.89312 3.9068C6.16852 3.79938 6.58211 3.67242 7.34383 3.63742C8.06453 3.60484 8.34383 3.59508 9.79984 3.59344V3.59539ZM14.671 4.89258C14.1534 4.89258 13.7335 5.31211 13.7335 5.82977C13.7335 6.34734 14.1534 6.76727 14.671 6.76727C15.1886 6.76727 15.6085 6.34734 15.6085 5.82977C15.6085 5.31219 15.1886 4.89227 14.671 4.89227V4.89258ZM10.5007 5.98797C8.28508 5.98797 6.48867 7.78438 6.48867 10.0001C6.48867 12.2158 8.28508 14.0113 10.5007 14.0113C12.7164 14.0113 14.5122 12.2158 14.5122 10.0001C14.5122 7.78445 12.7163 5.98797 10.5005 5.98797H10.5007ZM10.5007 7.39586C11.9389 7.39586 13.1049 8.56172 13.1049 10.0001C13.1049 11.4383 11.9389 12.6043 10.5007 12.6043C9.06242 12.6043 7.89656 11.4383 7.89656 10.0001C7.89656 8.56172 9.06242 7.39586 10.5007 7.39586Z" fill="white"/>
</g>
<defs>
<radialGradient id="paint0_radial_1240_19341" cx="0" cy="0" r="1" gradientUnits="userSpaceOnUse" gradientTransform="translate(5.8125 21.5404) rotate(-90) scale(19.8215 18.4355)">
<stop stop-color="#FFDD55"/>
<stop offset="0.1" stop-color="#FFDD55"/>
<stop offset="0.5" stop-color="#FF543E"/>
<stop offset="1" stop-color="#C837AB"/>
</radialGradient>
<radialGradient id="paint1_radial_1240_19341" cx="0" cy="0" r="1" gradientUnits="userSpaceOnUse" gradientTransform="translate(-2.85008 1.4407) rotate(78.681) scale(8.86031 36.5225)">
<stop stop-color="#3771C8"/>
<stop offset="0.128" stop-color="#3771C8"/>
<stop offset="1" stop-color="#6600FF" stop-opacity="0"/>
</radialGradient>
<clipPath id="clip0_1240_19341">
<rect width="20" height="20" fill="white" transform="translate(0.5)"/>
</clipPath>
</defs>
</svg>
