<svg width="19" height="20" viewBox="0 0 19 20" fill="none" xmlns="http://www.w3.org/2000/svg">
<g clip-path="url(#clip0_887_5779)">
<path d="M13.8395 7.2013C15.1527 8.12165 16.7615 8.66316 18.499 8.66316V5.38523C18.1702 5.3853 17.8422 5.35164 17.5205 5.28482V7.86502C15.7831 7.86502 14.1745 7.32358 12.861 6.4033V13.0927C12.861 16.4391 10.094 19.1516 6.68094 19.1516C5.40745 19.1516 4.22374 18.7742 3.24048 18.1268C4.36274 19.2519 5.9278 19.9497 7.65921 19.9497C11.0725 19.9497 13.8397 17.2372 13.8397 13.8906V7.2013H13.8395ZM15.0467 3.89427C14.3755 3.17544 13.9348 2.24647 13.8395 1.21944V0.797852H12.9122C13.1456 2.10316 13.9419 3.21833 15.0467 3.89427ZM5.39922 15.559C5.02426 15.077 4.82157 14.4873 4.82248 13.881C4.82248 12.3505 6.0881 11.1096 7.64958 11.1096C7.94053 11.1094 8.22977 11.1532 8.50713 11.2394V7.8882C8.183 7.84468 7.85593 7.82613 7.529 7.83296V10.4414C7.25151 10.3551 6.96212 10.3113 6.67103 10.3116C5.10962 10.3116 3.84407 11.5524 3.84407 13.0831C3.84407 14.1654 4.47664 15.1025 5.39922 15.559Z" fill="#FF004F"/>
<path d="M12.8609 6.40323C14.1745 7.32351 15.7829 7.86496 17.5204 7.86496V5.28475C16.5506 5.0822 15.692 4.58537 15.0465 3.89427C13.9416 3.21827 13.1455 2.10309 12.9121 0.797852H10.4764V13.8905C10.4709 15.4168 9.20742 16.6527 7.64932 16.6527C6.73124 16.6527 5.91552 16.2236 5.39897 15.5589C4.47652 15.1025 3.84389 14.1654 3.84389 13.0832C3.84389 11.5526 5.10944 10.3116 6.67084 10.3116C6.97 10.3116 7.25834 10.3573 7.52881 10.4414V7.83302C4.17567 7.90096 1.479 10.587 1.479 13.8905C1.479 15.5396 2.15052 17.0346 3.24044 18.127C4.2237 18.7742 5.40733 19.1518 6.6809 19.1518C10.094 19.1518 12.861 16.439 12.861 13.0927L12.8609 6.40323Z" fill="#F7F7F7"/>
<path d="M17.5208 5.28483V4.58731C16.6463 4.58861 15.789 4.34849 15.047 3.89441C15.7038 4.59939 16.5687 5.08554 17.5208 5.28497M12.9125 0.797931C12.8902 0.673214 12.8732 0.547663 12.8613 0.421586V0H9.49818V13.0928C9.49283 14.619 8.2294 15.8548 6.67123 15.8548C6.2295 15.8555 5.79381 15.7542 5.39935 15.5592C5.9159 16.2238 6.73162 16.6528 7.6497 16.6528C9.20773 16.6528 10.4713 15.417 10.4768 13.8907V0.798L12.9125 0.797931ZM7.52941 7.8331V7.09041C7.24838 7.05273 6.96506 7.03389 6.68142 7.034C3.26796 7.034 0.500977 9.74669 0.500977 13.0928C0.500977 15.1906 1.58843 17.0394 3.24096 18.127C2.15104 17.0347 1.47953 15.5397 1.47953 13.8906C1.47953 10.5872 4.17613 7.90103 7.52941 7.8331Z" fill="#00F2EA"/>
</g>
<defs>
<clipPath id="clip0_887_5779">
<rect width="18" height="20" fill="white" transform="translate(0.5)"/>
</clipPath>
</defs>
</svg>
