<svg width="167" height="120" viewBox="0 0 167 120" fill="none" xmlns="http://www.w3.org/2000/svg">
<path d="M82.4247 120C115.453 120 142.228 93.1371 142.228 60C142.228 26.8629 115.453 0 82.4247 0C49.3961 0 22.6211 26.8629 22.6211 60C22.6211 93.1371 49.3961 120 82.4247 120Z" fill="#121212"/>
<g filter="url(#filter0_d_846_10561)">
<path d="M132.521 40.6049L81.2734 76.4867L30.0259 40.6049L76.939 7.74452C78.2112 6.85489 79.7247 6.37793 81.2755 6.37793C82.8263 6.37793 84.3398 6.85489 85.6121 7.74452L94.97 14.3081L97.4201 16.0151L122.091 33.2988L124.69 35.1296L132.521 40.6049Z" fill="#2D2D30"/>
</g>
<path d="M72.9406 70.6535L30.0259 101.269V40.6055L72.9406 70.6535Z" fill="#ADADAD"/>
<path d="M89.6104 70.6535L132.525 101.269V40.6055L89.6104 70.6535Z" fill="#ADADAD"/>
<path d="M30.0259 101.269L76.8837 67.8451C78.1661 66.9289 79.7012 66.4365 81.2755 66.4365C82.8498 66.4365 84.385 66.9289 85.6674 67.8451L132.521 101.269H30.0259Z" fill="#EBEBEB"/>
<g filter="url(#filter1_d_846_10561)">
<path d="M35.4406 29.6123C27.5841 33.2995 19.1415 35.5692 10.5 36.3175C11.6677 39.0407 19.9642 52.6721 44.5923 63.9039C45.2581 64.0067 60.6373 56.8288 69.0771 51.9065C68.7904 52.3175 42.8614 42.7453 35.4406 29.6123Z" fill="#1E90FF"/>
</g>
<path d="M36.0497 36.3906C35.6876 36.1385 35.2283 36.0706 34.8083 36.2069L21.0663 40.6674C20.5729 40.8276 20.3965 41.4358 20.7277 41.8346C20.9947 42.1561 21.4326 42.2788 21.8281 42.1428L35.9221 37.2996C36.3203 37.1627 36.395 36.6309 36.0497 36.3906Z" fill="#FDFDFD"/>
<path d="M35.8112 41.8858C35.4622 41.557 34.9605 41.4476 34.5059 41.6011L24.9935 44.8129C24.5731 44.9549 24.4241 45.4741 24.7054 45.8169C24.9355 46.0974 25.3153 46.2054 25.6588 46.088L35.639 42.6787C35.9765 42.5634 36.0706 42.1301 35.8112 41.8858Z" fill="#FDFDFD"/>
<path d="M40.9191 44.6068C40.5548 44.3141 40.0642 44.2333 39.6248 44.3935L28.667 48.3892C28.236 48.5463 28.1057 49.0937 28.4197 49.4276C28.6603 49.6834 29.0303 49.7706 29.3601 49.6492L40.7815 45.4442C41.137 45.3133 41.2142 44.8439 40.9191 44.6068Z" fill="#FDFDFD"/>
<path d="M44.7502 52.8564C44.413 52.4825 43.8808 52.3548 43.4103 52.535L37.1494 54.932C36.764 55.0796 36.6246 55.5542 36.8691 55.8864C37.0984 56.198 37.5078 56.3169 37.8686 56.1768L44.5806 53.5686C44.8706 53.4559 44.9584 53.0873 44.7502 52.8564Z" fill="#FDFDFD"/>
<g filter="url(#filter2_d_846_10561)">
<path d="M126.258 48.6221C135.784 53.093 146.022 55.8452 156.5 56.7525C155.084 60.0546 145.024 76.5834 115.161 90.2027C114.354 90.3273 95.7055 81.6236 85.4717 75.6551C85.8194 76.1535 117.26 64.5466 126.258 48.6221Z" fill="#1E90FF"/>
</g>
<path d="M125.52 56.8409C125.959 56.5352 126.516 56.4528 127.025 56.6182L143.688 62.0268C144.287 62.221 144.501 62.9586 144.099 63.4421C143.775 63.8319 143.244 63.9807 142.765 63.8158L125.675 57.9431C125.192 57.7772 125.101 57.1323 125.52 56.8409Z" fill="#FDFDFD"/>
<path d="M120.853 61.2943C121.277 60.8957 121.885 60.763 122.436 60.9491L133.971 64.8437C134.48 65.0158 134.661 65.6454 134.32 66.0611C134.041 66.4012 133.58 66.5321 133.164 66.3898L121.062 62.2559C120.653 62.1161 120.539 61.5906 120.853 61.2943Z" fill="#FDFDFD"/>
<path d="M116.058 64.9912C116.5 64.6364 117.094 64.5383 117.627 64.7326L130.914 69.5776C131.437 69.7682 131.595 70.4318 131.214 70.8368C130.922 71.147 130.474 71.2527 130.074 71.1055L116.225 66.0066C115.794 65.8479 115.7 65.2788 116.058 64.9912Z" fill="#FDFDFD"/>
<path d="M105.267 72.3881C105.675 71.9347 106.321 71.7799 106.891 71.9983L114.483 74.9049C114.95 75.0838 115.119 75.6594 114.823 76.0622C114.545 76.44 114.048 76.5842 113.611 76.4142L105.472 73.2517C105.121 73.115 105.014 72.668 105.267 72.3881Z" fill="#FDFDFD"/>
<path d="M110.224 68.4379C110.674 68.1545 111.23 68.096 111.73 68.2794L129.228 74.6982C129.789 74.9037 129.925 75.635 129.477 76.0281C129.18 76.2884 128.764 76.3652 128.393 76.2281L110.341 69.5564C109.854 69.3762 109.784 68.7145 110.224 68.4379Z" fill="#FDFDFD"/>
<path d="M48.5419 46.4101C48.1705 46.1763 47.7117 46.128 47.2993 46.2793L32.8688 51.5729C32.4066 51.7424 32.2939 52.3455 32.6638 52.6696C32.9088 52.8844 33.2517 52.9477 33.5575 52.8346L48.4448 47.3325C48.8469 47.1839 48.9043 46.6381 48.5419 46.4101Z" fill="#FDFDFD"/>
<path d="M48.6125 19.9795C49.0796 18.0385 51.8406 18.0385 52.3076 19.9795C52.4744 20.6726 53.0154 21.2141 53.7083 21.3819C55.651 21.8524 55.651 24.6168 53.7083 25.0873C53.0154 25.2551 52.4744 25.7967 52.3076 26.4898C51.8406 28.4308 49.0796 28.4308 48.6125 26.4898C48.4458 25.7967 47.9047 25.2551 47.2119 25.0873C45.2692 24.6168 45.2692 21.8524 47.2119 21.3819C47.9047 21.2141 48.4458 20.6726 48.6125 19.9795Z" fill="#ADADAD"/>
<path d="M139.6 99.2207C140.067 97.2797 142.828 97.2797 143.295 99.2207C143.462 99.9138 144.003 100.455 144.696 100.623C146.638 101.094 146.638 103.858 144.696 104.329C144.003 104.496 143.462 105.038 143.295 105.731C142.828 107.672 140.067 107.672 139.6 105.731C139.433 105.038 138.892 104.496 138.199 104.329C136.256 103.858 136.256 101.094 138.199 100.623C138.892 100.455 139.433 99.9138 139.6 99.2207Z" fill="#ADADAD"/>
<path d="M22.8882 87.3843C24.2098 87.1719 25.2642 88.4738 24.7867 89.7283L24.1299 91.4538C23.6522 92.7089 21.9994 92.9752 21.1553 91.933L19.9943 90.4996C19.1502 89.4575 19.7481 87.8888 21.0703 87.6763L22.8882 87.3843Z" fill="#ADADAD"/>
<path d="M142.546 43.468C142.215 42.1666 143.413 40.9939 144.702 41.3572L146.474 41.8569C147.763 42.2202 148.176 43.847 147.218 44.7851L145.901 46.0752C144.943 47.0133 143.332 46.5592 143.001 45.2578L142.546 43.468Z" fill="#ADADAD"/>
<defs>
<filter id="filter0_d_846_10561" x="26.5422" y="6.37793" width="109.462" height="77.0758" filterUnits="userSpaceOnUse" color-interpolation-filters="sRGB">
<feFlood flood-opacity="0" result="BackgroundImageFix"/>
<feColorMatrix in="SourceAlpha" type="matrix" values="0 0 0 0 0 0 0 0 0 0 0 0 0 0 0 0 0 0 127 0" result="hardAlpha"/>
<feOffset dy="3.48368"/>
<feGaussianBlur stdDeviation="1.74184"/>
<feComposite in2="hardAlpha" operator="out"/>
<feColorMatrix type="matrix" values="0 0 0 0 0 0 0 0 0 0 0 0 0 0 0 0 0 0 0.25 0"/>
<feBlend mode="normal" in2="BackgroundImageFix" result="effect1_dropShadow_846_10561"/>
<feBlend mode="normal" in="SourceGraphic" in2="effect1_dropShadow_846_10561" result="shape"/>
</filter>
<filter id="filter1_d_846_10561" x="0.0489626" y="22.6449" width="79.4792" height="55.195" filterUnits="userSpaceOnUse" color-interpolation-filters="sRGB">
<feFlood flood-opacity="0" result="BackgroundImageFix"/>
<feColorMatrix in="SourceAlpha" type="matrix" values="0 0 0 0 0 0 0 0 0 0 0 0 0 0 0 0 0 0 127 0" result="hardAlpha"/>
<feOffset dy="3.48368"/>
<feGaussianBlur stdDeviation="5.22552"/>
<feComposite in2="hardAlpha" operator="out"/>
<feColorMatrix type="matrix" values="0 0 0 0 0.0196078 0 0 0 0 0.168627 0 0 0 0 0.396078 0 0 0 0.15 0"/>
<feBlend mode="normal" in2="BackgroundImageFix" result="effect1_dropShadow_846_10561"/>
<feBlend mode="normal" in="SourceGraphic" in2="effect1_dropShadow_846_10561" result="shape"/>
</filter>
<filter id="filter2_d_846_10561" x="65.3858" y="46.8802" width="100.64" height="71.1933" filterUnits="userSpaceOnUse" color-interpolation-filters="sRGB">
<feFlood flood-opacity="0" result="BackgroundImageFix"/>
<feColorMatrix in="SourceAlpha" type="matrix" values="0 0 0 0 0 0 0 0 0 0 0 0 0 0 0 0 0 0 127 0" result="hardAlpha"/>
<feOffset dx="-5.28021" dy="13.0638"/>
<feGaussianBlur stdDeviation="7.40282"/>
<feComposite in2="hardAlpha" operator="out"/>
<feColorMatrix type="matrix" values="0 0 0 0 0.021441 0 0 0 0 0.168056 0 0 0 0 0.395833 0 0 0 0.15 0"/>
<feBlend mode="normal" in2="BackgroundImageFix" result="effect1_dropShadow_846_10561"/>
<feBlend mode="normal" in="SourceGraphic" in2="effect1_dropShadow_846_10561" result="shape"/>
</filter>
</defs>
</svg>
