<svg width="41" height="40" viewBox="0 0 41 40" fill="none" xmlns="http://www.w3.org/2000/svg">
<path fill-rule="evenodd" clip-rule="evenodd" d="M10.9755 6.66699H30.0232C31.0335 6.66699 32.0025 7.06835 32.7169 7.78278C33.4313 8.4972 33.8327 9.46617 33.8327 10.4765V29.5241C33.8327 30.5345 33.4313 31.5035 32.7169 32.2179C32.0025 32.9323 31.0335 33.3337 30.0232 33.3337H10.9755C9.96519 33.3337 8.99622 32.9323 8.2818 32.2179C7.56738 31.5035 7.16602 30.5345 7.16602 29.5241V10.4765C7.16602 9.46617 7.56738 8.4972 8.2818 7.78278C8.99622 7.06835 9.96519 6.66699 10.9755 6.66699Z" stroke="#FDFDFD" stroke-width="1.14286" stroke-linecap="round" stroke-linejoin="round"/>
<path d="M33.8327 25.7142L28.1184 20L22.4041 25.6857M30.0232 33.3333L12.8803 16.1904L7.16602 21.9047" stroke="#FDFDFD" stroke-width="1.14286" stroke-linecap="round" stroke-linejoin="round"/>
<path d="M27.1665 15.2382C28.2185 15.2382 29.0712 14.3854 29.0712 13.3335C29.0712 12.2815 28.2185 11.4287 27.1665 11.4287C26.1145 11.4287 25.2617 12.2815 25.2617 13.3335C25.2617 14.3854 26.1145 15.2382 27.1665 15.2382Z" fill="#FDFDFD"/>
</svg>
